<?xml version="1.0" encoding="utf-8" ?>
<svg xmlns="http://www.w3.org/2000/svg" xmlns:xlink="http://www.w3.org/1999/xlink" width="512" height="512">
	<path transform="scale(0.5 0.5)" d="M497.79 23.7046L499.25 23.5434C577.072 19.3497 654.545 52.7115 706.69 110.198C717.722 122.36 727.32 135.808 735.891 149.795C743.245 161.797 749.54 174.368 755.299 187.202C756.184 189.173 759.914 199.92 760.714 200.61C762.365 202.034 770.262 202.263 772.753 202.851C778.25 204.149 783.976 206.513 788.193 210.37C802.575 223.527 803.908 245.368 806.044 263.5C807.102 272.475 808.525 281.551 808.865 290.593C809.652 311.568 806.899 332.114 803.57 352.75C802.358 360.265 801.094 368.46 798.53 375.625C796.562 381.122 793.334 386.583 789.322 390.843C780.574 400.131 766.187 402.855 754.009 403.269C747.725 414.547 741.598 425.877 734.239 436.51L712.78 464.534C717.688 470.966 723.7 476.614 728.959 482.761L736.238 491.907C738.328 494.798 740.342 498.134 743.248 500.284C745.944 502.279 749.184 503.316 752.118 504.899C758.67 508.432 765.381 512.447 771.271 517.013C794.575 535.08 813.603 557.044 828 582.878C833.369 592.513 837.79 602.764 842.084 612.917C849.36 630.121 855.597 648.229 859.649 666.463C862.403 678.857 863.738 691.047 865.444 703.57C866.556 711.728 866.58 720.483 866.421 728.709C865.972 751.851 862.172 774.176 849.888 794.2C841.339 808.136 828.063 818.588 814.224 826.889C797.157 837.125 778.418 844.799 759.045 849.429L759.078 897.565C759.081 905.732 759.881 914.88 758.445 922.898C755.883 937.202 750.806 949.32 741.374 960.557C737.798 964.817 733.498 968.663 729.473 972.5C729.901 973.591 730.881 973.763 732 973.893C736.903 974.462 742.186 974.031 747.151 974.27C764.534 975.109 782.252 975.637 799.5 977.984C803.212 978.489 809.034 978.487 811.827 981.052C810.342 982.368 807.863 982.715 805.919 983.058L790.25 985.057C743.494 989.813 696.461 989.558 649.532 990.586L531.75 992.501L412.118 990.464L267.131 986.648L247.452 985.426C237.332 984.89 226.889 984.411 217.326 980.823C230.75 976.412 246.42 976.65 260.432 975.832L295.464 973.855C290.082 968.727 284.652 964.165 279.991 958.283C274.288 951.086 269.769 942.271 267.44 933.384C264.948 923.87 264.927 913.971 264.861 904.212L264.686 875.671C264.676 874.113 265.127 868.232 264.49 867.306C264.389 867.16 262.859 866.395 262.587 866.243L256.209 862.599L242.22 853.352C226.841 842.4 213.125 830.416 200.028 816.846C180.533 796.645 165.956 769.703 160.032 742.265C157.099 728.678 156.266 714.867 156.529 701C157.807 633.58 194.145 569.8 244.396 526.265C253.047 518.771 262.215 511.703 271.789 505.436C274.228 503.839 276.611 502.423 279.231 501.139C280.11 500.709 282.168 500.04 282.827 499.408C283.583 498.686 284.377 496.966 284.983 496.017L290.518 487.64C296.585 479.19 303.376 471.603 310.864 464.418C308.191 459.878 304.007 455.765 300.876 451.457C293.399 441.166 286.338 430.539 280.035 419.487C278.786 417.297 273.528 406.025 272.092 405.515C270.059 404.794 266.582 405.112 264.318 404.769C254.662 403.306 246.086 400.12 238.553 393.816C220.86 379.01 216.935 341.166 214.987 319.403C212.598 292.712 214.649 263.787 221.853 237.96C224.582 228.178 227.855 217.001 236.575 210.905C241.966 207.136 248.204 205.118 254.518 203.502C257.069 202.849 259.745 202.564 262.343 202.137C262.592 202.096 264.335 201.865 264.412 201.798C265.242 201.083 266.678 195.513 267.239 193.985L275.746 172.971C285.049 152.258 297.967 132.581 312.577 115.224C350.511 70.1583 404.968 38.9616 462.694 27.8088C474.311 25.5644 486.024 24.7031 497.79 23.7046Z"/>
	<path fill="#C3C2C2" transform="scale(0.5 0.5)" d="M282.109 654.21C282.484 656.223 282.762 658.061 283.656 659.922C286.674 666.203 288.61 673.244 291.412 679.676C297.71 694.129 306.048 707.654 315.913 719.95C318.408 723.06 321.015 726.689 324.117 729.211L324.234 745.444L322.992 744.25C316.184 737.335 309.659 730.183 303.931 722.34C300.562 717.728 297.69 712.774 294.563 708C290.101 701.188 285.499 695.354 283.568 687.249C281.067 676.753 281.919 664.936 282.109 654.21Z"/>
	<path fill="#C3C2C2" transform="scale(0.5 0.5)" d="M266.783 689.123L269.916 699.963C247.831 704.308 229.341 714.307 212.565 729.161C206.858 734.215 201.112 739.753 196.841 746.107L184.999 765.533L179.647 752.134C182.121 749.794 183.872 746.581 185.722 743.738C188.31 739.759 191.041 735.96 194.147 732.359C207.469 716.915 225.192 704.83 244.152 697.411C251.477 694.544 258.941 692.591 266.476 690.423L266.783 689.123Z"/>
	<path fill="#CB130A" transform="scale(0.5 0.5)" d="M772.228 322.294C780.123 319.87 785.3 316.064 792.214 311.87L792.994 311.402C792.379 323.542 791.026 335.489 789.161 347.5C787.605 357.517 786.625 372.197 778.75 379.485C773.269 384.557 765.569 385.456 758.553 386.778C763.015 372.361 767.109 357.817 769.725 342.938C770.923 336.124 771.419 329.163 772.228 322.294Z"/>
	<path fill="#CB130A" transform="scale(0.5 0.5)" d="M230.512 308.963C237.032 313.325 244.176 317.678 252.065 318.829C253.834 332.197 255.044 345.493 257.947 358.703C260.246 369.161 263.72 379.012 266.503 389.284C261.097 388.117 254.956 386.906 250.557 383.294C241.019 375.463 238.609 363.066 236.174 351.629C233.148 337.415 231.619 323.428 230.512 308.963Z"/>
	<path fill="#FC412B" transform="scale(0.5 0.5)" d="M772.228 322.294C774.743 296.372 774.38 270.015 770.508 244.25L765.082 217.108C770.04 217.853 775.601 219.442 779.25 223.046C783.839 227.579 785.27 234.305 786.793 240.341C792.677 263.669 793.076 287.503 792.994 311.402L792.214 311.87C785.3 316.064 780.123 319.87 772.228 322.294Z"/>
	<path fill="#FC412B" transform="scale(0.5 0.5)" d="M230.512 308.963C230.464 286.367 231.313 264.196 237.588 242.319C239.368 236.113 241.514 229.008 246.077 224.264C249.743 220.452 254.816 219.095 259.852 218.137L255.612 239.296C252.783 256.067 251.434 272.844 251.042 289.839C250.822 299.373 250.758 309.37 252.065 318.829C244.176 317.678 237.032 313.325 230.512 308.963Z"/>
	<path fill="#FEFDFE" transform="scale(0.5 0.5)" d="M312.402 487.079C316.786 492.512 320.354 498.558 325.41 503.44C332.699 510.477 340.91 516.141 349.382 521.635C388.645 547.098 434.006 559.667 480.197 564.595C509.915 567.765 539.05 567.654 568.756 564.353L586.768 561.731L594.368 560.351C596.849 559.779 599.702 558.723 602.245 558.896L602.337 559.328L543.241 569.122C475.497 573.973 405.086 564.354 345.411 530.218C330.4 521.632 316.021 511.009 302.97 499.684L312.402 487.079Z"/>
	<path fill="#C3C2C2" transform="scale(0.5 0.5)" d="M809.199 775.255C813.917 784.086 817.373 792.996 820.378 802.536C815.133 806.692 809.905 810.718 804.153 814.167C795.941 819.09 787.2 822.805 778.299 826.28C755.319 835.252 730.846 840.626 706.118 840.497L702.458 804.007C711.456 804.08 720.657 804.421 729.627 803.783C758.203 801.752 786.596 793.107 809.199 775.255Z"/>
	<path fill="#C3C2C2" transform="scale(0.5 0.5)" d="M759.946 546.378L759.691 528.905C767.213 533.383 773.395 539.953 779.5 546.162C811.01 578.206 831.217 619.474 842.234 662.77C850.551 695.453 854.931 733.134 844.993 765.853C843.437 770.978 841.561 776.718 838.819 781.334L833.507 788.942L821.701 763.557C824.326 759.443 825.652 754.616 827.122 750C830.715 738.721 833.023 725.379 832.941 713.5C832.852 700.484 830.634 687.559 827.947 674.87C819.465 634.823 802.518 596.465 776.996 564.333C772.064 558.123 766.666 550.756 759.946 546.378Z"/>
	<path fill="#FEA891" transform="scale(0.5 0.5)" d="M351.019 765.415L339.57 759.016L339.658 702.013C339.605 691.753 338.581 680.894 339.73 670.723C341.148 658.166 345.168 647.262 353.786 637.854C360.734 630.269 370.808 623.873 381.038 622.043C385.478 621.249 390.25 621.35 394.759 621.148L445.067 621.358L551.235 621.492L613.684 621.501L631.868 621.506C635.885 621.507 640.046 621.274 644.021 621.91C653.998 623.505 663.003 628.635 670.364 635.378L669.527 636.022C661.872 633.052 654.889 631.815 646.745 631.36C633.555 630.624 620.275 631.672 607.084 631.975L566.884 631.669L447.507 631.978C429.521 632.132 411.764 631.056 393.75 632.178C389.308 632.454 384.903 633.988 380.857 635.785C368.531 641.26 358.71 650.804 353.91 663.552C349.24 675.955 351.452 692.13 351.477 705.229L351.555 743C351.637 750.453 352.494 758.025 351.019 765.415Z"/>
	<path fill="#C3C2C2" transform="scale(0.5 0.5)" d="M399.884 823.79C400.631 836.234 398.61 846.219 392.64 857.252C386.102 869.335 375.917 881.684 362.215 885.546C357.595 886.848 351.553 887.031 346.823 886.192C337.546 884.547 328.55 880.403 319.902 876.78C305.303 870.664 290.734 864.158 276.977 856.291C260.353 846.785 244.96 836.024 230.358 823.64C219.62 814.534 208.977 804.534 201.651 792.384C200.157 789.907 197.85 786.695 197.253 783.851C196.944 782.383 197.536 780.492 197.901 779.034C199.766 771.574 204.172 764.807 208.195 758.359C211.456 766.003 214.948 773.884 219.696 780.738C227.93 792.622 238.419 802.423 249.628 811.436C271.61 829.113 295.892 842.527 322.031 853.036C334.841 858.185 350.16 864.15 363.806 858.501C373.681 854.414 381.2 847.092 388.266 839.282C392.667 834.417 396.743 829.586 399.884 823.79Z"/>
	<path fill="#FEFDFE" transform="scale(0.5 0.5)" d="M702.458 804.007L702.366 751.748L767.92 732.024C787.209 740.596 798.758 757.79 809.199 775.255C786.596 793.107 758.203 801.752 729.627 803.783C720.657 804.421 711.456 804.08 702.458 804.007Z"/>
	<path fill="#CB130A" transform="scale(0.5 0.5)" d="M670.364 635.378C680.251 644.59 685.253 655.463 685.732 668.916L685.893 701.146L685.991 761.716L686.031 797.609C686.031 807.047 686.553 817.024 684.656 826.314C682.815 835.327 677.965 844.175 671.75 850.913C663.057 860.336 650.123 866.122 637.348 866.466L406.021 866.498C408.908 860.93 412.273 855.197 413.61 849.01L468.855 848.162L531.777 848.055L599.297 848.038C610.473 848.028 621.956 848.533 633.095 847.937C636.505 847.754 639.936 846.948 643.139 845.786C653.338 842.083 660.849 834.882 665.418 825.11C667.511 820.634 668.693 815.676 668.972 810.75C669.336 804.324 669.089 797.782 669.084 791.342L669.087 754.963L669.559 676.586L669.943 648.684C669.981 645.097 670.761 639.311 669.527 636.022L670.364 635.378Z"/>
	<path fill="#756E6D" transform="scale(0.5 0.5)" d="M312.402 487.079L322.443 476.858C333.557 486.333 344.79 495.772 356.974 503.861C409.371 538.649 472.86 553.176 535.297 548.106C587.529 543.866 636.729 526.599 679.066 495.457C687.296 489.403 694.58 482.568 702.392 476.047C709.39 483.48 715.611 491.036 721.328 499.521C706.604 511.813 691.512 523.266 674.631 532.489C663.492 538.575 651.746 543.427 639.955 548.087C635.413 549.882 630.907 551.996 626.25 553.457C621.82 554.847 617.093 555.799 612.58 556.917C609.246 557.743 605.843 558.828 602.453 559.343L602.337 559.328L602.245 558.896C599.702 558.723 596.849 559.779 594.368 560.351L586.768 561.731L568.756 564.353C539.05 567.654 509.915 567.765 480.197 564.595C434.006 559.667 388.645 547.098 349.382 521.635C340.91 516.141 332.699 510.477 325.41 503.44C320.354 498.558 316.786 492.512 312.402 487.079Z"/>
	<path fill="#FEFDFE" transform="scale(0.5 0.5)" d="M759.946 546.378C766.666 550.756 772.064 558.123 776.996 564.333C802.518 596.465 819.465 634.823 827.947 674.87C830.634 687.559 832.852 700.484 832.941 713.5C833.023 725.379 830.715 738.721 827.122 750C825.652 754.616 824.326 759.443 821.701 763.557C810.619 746.487 797.247 729.949 779.58 719.309C773.438 715.61 768.089 714.637 761.169 716.454L760.24 716.702C759.47 715.437 759.968 710.619 759.967 708.984L759.95 683.331L759.946 546.378Z"/>
	<path fill="#FEFDFE" transform="scale(0.5 0.5)" d="M179.647 752.134C172.715 731.064 171.784 707.274 173.952 685.328C180.097 623.126 218.072 569.581 265.344 530.82L265.451 631.247C265.464 650.364 264.273 670.168 266.783 689.123L266.476 690.423C258.941 692.591 251.477 694.544 244.152 697.411C225.192 704.83 207.469 716.915 194.147 732.359C191.041 735.96 188.31 739.759 185.722 743.738C183.872 746.581 182.121 749.794 179.647 752.134Z"/>
	<path fill="#FEFDFE" transform="scale(0.5 0.5)" d="M208.195 758.359C220.99 742.229 235.133 730.114 254.176 721.756C261.133 718.703 269.395 715.866 276.962 715.017L278.475 714.969C292.722 735.136 306.635 753.949 326.529 768.967C335.401 775.664 345.247 781.306 355.5 785.586C368.717 791.103 384.793 794.919 393.235 807.596C396.527 812.539 398.34 818.105 399.884 823.79C396.743 829.586 392.667 834.417 388.266 839.282C381.2 847.092 373.681 854.414 363.806 858.501C350.16 864.15 334.841 858.185 322.031 853.036C295.892 842.527 271.61 829.113 249.628 811.436C238.419 802.423 227.93 792.622 219.696 780.738C214.948 773.884 211.456 766.003 208.195 758.359Z"/>
	<path fill="#C3C2C2" transform="scale(0.5 0.5)" d="M586.542 51.7292C602.142 56.1959 616.827 62.9655 630.96 70.8885C672.478 94.1658 705.868 127.917 728.998 169.5C761.427 227.802 765.969 305.703 747.5 369.228C734.608 413.573 708.446 453.239 671.894 481.639C662.329 489.071 652.156 495.273 641.551 501.082C578.97 535.364 501.386 542.373 433.179 522.348C399.359 512.419 367.749 495.264 341.448 471.802C336.471 467.363 331.15 463.339 327.541 457.624L328.403 457.883C332.133 459.114 336.021 462.451 339.528 464.394C348.827 469.546 358.403 474.475 368.25 478.49C374.211 480.921 380.35 482.731 386.483 484.664C408.91 491.731 431.601 496.107 454.861 499.371L477.25 501.904C478.236 500.908 478.465 499.829 478.922 498.532C481.797 498.32 485.208 498.99 488.123 499.182L504.172 499.708C525.957 499.647 547.454 498.285 569.032 495.347L582.076 492.647C590.133 489.663 599.36 488.341 607.696 486.073C613.345 484.537 618.917 482.234 624.357 480.081C637.007 475.074 648.973 469.266 660.209 461.531C672.157 453.305 682.952 443.813 692.105 432.532C710.692 409.626 722.029 380.13 727.333 351.337C735.816 305.288 734.623 254.901 713.507 212.249C709.224 203.597 703.728 195.622 698.281 187.678C698.413 186.979 698.482 186.841 698.389 186.028C698.184 184.239 697.016 181.922 696.359 180.216L690.751 167.04C674.427 131.55 651.853 100.635 621.352 76.0267C613.905 70.0185 605.834 64.4812 597.851 59.2246C594.664 57.1263 589.814 55.1617 587.23 52.4829L586.542 51.7292Z"/>
	<path fill="#FEFDFE" transform="scale(0.5 0.5)" d="M569.032 495.347L582.076 492.647C582.573 494.41 582.4 494.634 581.841 496.303C578.635 497.186 571.875 499.134 568.75 498.472L569.032 495.347Z"/>
	<path fill="#FEFDFE" transform="scale(0.5 0.5)" d="M282.109 654.21L281.549 525.448L296.802 516.291C310.928 526.338 324.603 537.187 339.812 545.608C388.941 572.81 444.536 585.294 500.425 586.887C526.118 587.62 551.632 586.233 577.004 581.963C622.17 574.362 667.875 558.195 705.838 532.289C711.226 528.613 716.686 524.63 721.577 520.32C725.06 517.251 728.132 513.55 732.015 510.988C736.849 518.081 740.914 525.714 743.799 533.815C744.754 536.494 744.496 539.693 744.477 542.5L744.372 556.615L744.093 597.081L743.668 721.611L702.74 734.267L702.516 694.452C702.52 684.626 703.264 674.32 702.265 664.552C700.805 650.267 694.363 635.581 684.146 625.383C675.15 616.405 663.018 609.465 650.476 607.018C638.16 604.615 625.075 605.498 612.572 605.496L562.867 605.486L447.863 605.482L389.75 605.507C373.119 605.749 355.747 612.616 344.14 624.678C333.511 635.724 326.959 649.393 324.907 664.594C323.713 673.441 324.018 682.628 324.003 691.534L324.117 729.211C321.015 726.689 318.408 723.06 315.913 719.95C306.048 707.654 297.71 694.129 291.412 679.676C288.61 673.244 286.674 666.203 283.656 659.922C282.762 658.061 282.484 656.223 282.109 654.21Z"/>
	<path fill="#FEFDFE" transform="scale(0.5 0.5)" d="M327.541 457.624C311.571 443.206 299.193 422.899 289.805 403.677C276.224 375.867 270.028 344.258 268.123 313.536C265.807 276.171 269.228 238.838 281.349 203.276C302.442 141.394 347.952 92.1911 406.326 63.4684C448.837 42.5504 498.287 36.1761 545 42.4957C559.026 44.3932 573.125 47.1622 586.542 51.7292L587.23 52.4829C589.814 55.1617 594.664 57.1263 597.851 59.2246C605.834 64.4812 613.905 70.0185 621.352 76.0267C651.853 100.635 674.427 131.55 690.751 167.04L696.359 180.216C697.016 181.922 698.184 184.239 698.389 186.028C698.482 186.841 698.413 186.979 698.281 187.678C694.028 182.799 689.864 177.551 685.004 173.277C659.652 150.98 628.096 143.292 595.5 138.987L553.525 134.633C526.078 132.722 498.397 133.139 470.959 134.829C439.07 136.794 405.508 140.007 375.524 151.743C363.572 156.422 352.243 163.072 342.555 171.483C310.217 199.559 295.153 242.667 292.337 284.474C289.45 327.333 296.587 371.228 316.223 409.718C320.686 418.467 325.259 426.988 331.749 434.436C337.793 441.373 345.481 447.71 352.793 453.25C389.234 480.862 433.937 493.953 478.922 498.532C478.465 499.829 478.236 500.908 477.25 501.904L454.861 499.371C431.601 496.107 408.91 491.731 386.483 484.664C380.35 482.731 374.211 480.921 368.25 478.49C358.403 474.475 348.827 469.546 339.528 464.394C336.021 462.451 332.133 459.114 328.403 457.883L327.541 457.624Z"/>
	<path fill="#FEFDFE" transform="scale(0.5 0.5)" d="M286.065 879.51C296.809 883.284 307.472 888.364 317.928 892.921C328.517 897.536 339.622 902.449 351.396 902.507C363.682 902.569 375.624 899.574 385.08 891.464C387.859 889.08 390.272 886.089 392.88 883.495C393.662 883.226 394.205 883.228 395.011 883.271C408.188 883.973 421.632 883.219 434.845 883.21L518.514 883.203L602.234 883.074C614.477 883.018 627.027 883.764 639.22 882.981C645.239 882.594 651.212 881.477 656.954 879.651C667.91 876.168 677.742 868.733 685.305 860.213C687.601 857.625 689.465 854.151 691.989 851.882C694.475 853.175 696.928 854.477 699.608 855.328L700.5 855.599C709.38 858.389 722.131 855.681 731.417 855.096L743.028 853.453L743.091 891.401C743.107 900.177 743.612 909.166 742.585 917.894C740.921 932.032 733.998 945.257 723.929 955.246C713.792 965.302 699.308 971.29 685.249 973.006C678.068 973.882 670.666 973.697 663.444 973.608L433.312 973.501L374.358 973.496C360.057 973.494 345.559 974.391 331.438 971.836C318.558 969.506 306.019 963.018 296.951 953.53C289.378 945.607 283.839 935.182 281.962 924.362C280.65 916.807 280.899 909.164 280.814 901.53L280.572 876.427L286.065 879.51Z"/>
	<path fill="#C3C2C2" transform="scale(0.5 0.5)" d="M286.065 879.51C296.809 883.284 307.472 888.364 317.928 892.921C328.517 897.536 339.622 902.449 351.396 902.507C363.682 902.569 375.624 899.574 385.08 891.464C387.859 889.08 390.272 886.089 392.88 883.495C393.662 883.226 394.205 883.228 395.011 883.271C408.188 883.973 421.632 883.219 434.845 883.21L518.514 883.203L602.234 883.074C614.477 883.018 627.027 883.764 639.22 882.981C645.239 882.594 651.212 881.477 656.954 879.651C667.91 876.168 677.742 868.733 685.305 860.213C687.601 857.625 689.465 854.151 691.989 851.882C694.475 853.175 696.928 854.477 699.608 855.328L700.5 855.599C709.38 858.389 722.131 855.681 731.417 855.096L731.136 855.799C730.366 857.854 730.491 860.644 730.298 862.832C730.036 865.81 729.482 868.785 728.696 871.669C723.41 891.084 707.541 909.894 689.56 918.79C681.028 923.012 670.983 926.283 661.457 926.984C646.718 928.07 631.311 927.052 616.5 926.992L530.921 926.782L414.795 926.989L361.469 926.902C354.393 926.646 347.122 926.579 340.359 924.245C335.306 922.5 330.871 920.029 326.527 916.933C318.503 911.214 311.554 903.872 304.269 897.26L292.888 886.987C290.506 884.815 287.568 882.386 286.065 879.51Z"/>
	<path fill="#FC412B" transform="scale(0.5 0.5)" d="M351.019 765.415C352.494 758.025 351.637 750.453 351.555 743L351.477 705.229C351.452 692.13 349.24 675.955 353.91 663.552C358.71 650.804 368.531 641.26 380.857 635.785C384.903 633.988 389.308 632.454 393.75 632.178C411.764 631.056 429.521 632.132 447.507 631.978L566.884 631.669L607.084 631.975C620.275 631.672 633.555 630.624 646.745 631.36C654.889 631.815 661.872 633.052 669.527 636.022C670.761 639.311 669.981 645.097 669.943 648.684L669.559 676.586L669.087 754.963L669.084 791.342C669.089 797.782 669.336 804.324 668.972 810.75C668.693 815.676 667.511 820.634 665.418 825.11C660.849 834.882 653.338 842.083 643.139 845.786C639.936 846.948 636.505 847.754 633.095 847.937C621.956 848.533 610.473 848.028 599.297 848.038L531.777 848.055L468.855 848.162L413.61 849.01C417.013 838.097 416.815 824.816 413.377 813.973C407.949 796.852 395.776 785.239 379.675 777.771C370.218 773.384 360.298 770.215 351.019 765.415Z"/>
	<path transform="scale(0.5 0.5)" d="M481.8 679.609C483.395 679.49 485.035 679.373 486.625 679.592C490.524 680.128 494.683 681.466 498.143 683.326C504.518 686.753 510.514 691.034 516.5 695.085L542.87 712.894L560.808 724.935C564.519 727.429 569.523 730.027 572.159 733.656C576.194 739.21 578.277 745.908 577.023 752.75C576.115 757.702 573.998 762.337 570.578 766.066C565.75 771.331 558.336 774.584 552.417 778.479L529.25 794.349L509.984 807.239C503.623 811.52 497.107 816.411 489.495 818.13C483.236 819.545 474.979 817.529 469.75 814.046C463.4 809.818 458.708 803.403 457.277 795.847C456.095 789.606 456.592 782.801 456.606 776.456L456.696 746.212L456.586 720.695C456.559 715.064 456.277 709.391 457.007 703.798C457.618 699.114 459.056 695.2 461.74 691.316C466.738 684.082 473.37 681.154 481.8 679.609Z"/>
	<path fill="#FEFDFE" transform="scale(0.5 0.5)" d="M482.164 694.521L485.5 694.499C488.143 694.626 490.499 695.653 492.754 696.965C498.551 700.337 503.913 704.743 509.478 708.516L543.133 731.39C548.7 735.193 556.598 738.915 560.755 744.224C562.448 746.387 562.621 749.129 562.329 751.75C558.986 756.168 554.183 759.164 549.717 762.32L526.602 777.634L506.042 791.806C500.832 795.406 495.6 799.615 489.936 802.462C486.967 803.955 483.4 803.842 480.29 802.815C476.837 801.674 473.754 799.028 472.223 795.699C470.447 791.839 471.42 785.034 471.426 780.761L471.45 753.801C471.458 738.215 470.636 722.293 471.509 706.75C471.586 705.395 471.802 704.247 472.331 702.994C474.314 698.299 477.741 696.422 482.164 694.521Z"/>
	<path transform="scale(0.5 0.5)" d="M478.922 498.532C433.937 493.953 389.234 480.862 352.793 453.25C345.481 447.71 337.793 441.373 331.749 434.436C325.259 426.988 320.686 418.467 316.223 409.718C296.587 371.228 289.45 327.333 292.337 284.474C295.153 242.667 310.217 199.559 342.555 171.483C352.243 163.072 363.572 156.422 375.524 151.743C405.508 140.007 439.07 136.794 470.959 134.829C498.397 133.139 526.078 132.722 553.525 134.633L595.5 138.987C628.096 143.292 659.652 150.98 685.004 173.277C689.864 177.551 694.028 182.799 698.281 187.678C703.728 195.622 709.224 203.597 713.507 212.249C734.623 254.901 735.816 305.288 727.333 351.337C722.029 380.13 710.692 409.626 692.105 432.532C682.952 443.813 672.157 453.305 660.209 461.531C648.973 469.266 637.007 475.074 624.357 480.081C618.917 482.234 613.345 484.537 607.696 486.073C599.36 488.341 590.133 489.663 582.076 492.647L569.032 495.347C547.454 498.285 525.957 499.647 504.172 499.708L488.123 499.182C485.208 498.99 481.797 498.32 478.922 498.532Z"/>
	<path fill="#0F1722" transform="scale(0.5 0.5)" d="M702.253 239.428C706.779 252.029 710.623 264.069 712.34 277.42C714.214 292.001 713.44 306.808 711.691 321.356C708.863 344.877 703.159 369.307 693.092 390.863C685.007 408.176 672.411 424.334 657.285 436.065C644.057 446.324 628.206 453.953 612.5 459.571C558.132 479.02 496.385 482.271 440.242 468.433C425.906 464.899 411.4 460.373 398.039 454.013C396.159 453.118 394.748 452.341 393.42 450.69L427.039 458.511C486.803 467.841 551.29 450.179 599.979 414.652C646.685 380.571 679.304 330.902 694.879 275.404C698.205 263.551 700.346 251.571 702.253 239.428Z"/>
	<path fill="#324955" transform="scale(0.5 0.5)" d="M393.42 450.69L392.936 450.521C363.703 439.313 340.338 415.966 327.987 387.288C311.945 350.038 309.614 306.767 317.48 267.25C319.609 256.555 322.24 245.699 326.288 235.556C329.808 226.735 333.761 218.065 339.05 210.145C350.165 193.502 366.525 180.646 384.852 172.787C394.992 168.439 405.635 165.245 416.446 163.056C434.734 159.353 453.635 157.504 472.25 156.383C505.968 154.353 539.355 154.903 572.987 158.038C594.565 160.049 618.041 162.608 638.213 170.835C661.301 180.25 678.764 195.351 691.484 216.901C695.729 224.092 699 231.755 702.253 239.428C700.346 251.571 698.205 263.551 694.879 275.404C679.304 330.902 646.685 380.571 599.979 414.652C551.29 450.179 486.803 467.841 427.039 458.511L393.42 450.69Z"/>
	<path fill="#9EE9F4" transform="scale(0.5 0.5)" d="M361.524 310.155C366.246 309.713 371.886 311.303 375.7 314.102C379.866 317.16 382.881 321.891 383.569 327.042L383.655 327.75C384.444 333.734 383.076 339.085 379.492 343.959C375.924 348.812 369.579 350.973 363.878 351.838C359.483 352.382 354.353 350.541 350.712 348.201C345.863 345.084 343.059 339.542 341.889 334.034C340.795 328.887 342.512 323.325 345.422 319.051C349.248 313.432 355.08 311.277 361.524 310.155Z"/>
	<path fill="#9EE9F4" transform="scale(0.5 0.5)" d="M438.371 181.15C445.045 180.096 453.472 180.882 459.25 184.551C463.572 187.296 465.912 191.182 466.853 196.142C469 207.46 461.116 221.061 455.007 230.014C437.767 255.284 407.753 278.069 377.377 283.799C369.731 284.734 361.853 285.555 355.026 281.026C351.331 278.575 348.334 274.642 347.593 270.217C345.39 257.067 354.023 241.679 361.187 231.315C374.843 211.559 394.982 194.824 417.564 186.386C424.294 183.872 431.324 182.432 438.371 181.15Z"/>
</svg>
