<?xml version="1.0" encoding="utf-8" ?>
<svg xmlns="http://www.w3.org/2000/svg" xmlns:xlink="http://www.w3.org/1999/xlink" width="858" height="644">
	<path transform="scale(0.628906 0.628906)" d="M348.329 274.931C348.768 274.801 348.536 274.848 349.166 274.812C358.416 274.278 377.976 274.255 384.891 280.917C387.05 282.997 387.899 285.467 387.923 288.392C387.945 290.936 387.351 292.947 385.909 295.074C383.169 299.115 378.742 302.703 375.279 306.164L352.914 328.431C349.588 331.679 345.876 334.71 342.746 338.126C341.179 339.837 341.086 341.437 341.184 343.667C345.174 349.534 351.556 354.729 356.597 359.764C363.136 366.295 369.245 373.303 376.43 379.145L406.097 350.102C411.381 344.912 416.668 338.992 422.538 334.472C425.282 332.359 428.209 332.018 431.561 332.532C433.771 332.871 435.833 333.744 437.099 335.681C439.192 338.882 439.91 342.881 440.633 346.572C442.76 357.434 443.433 370.718 440.849 381.555C435.503 403.969 422.21 422.558 402.471 434.534C379.892 448.233 356.52 447.56 331.745 441.537C328.414 443.985 325.607 447.112 322.631 449.972L305.906 465.678L311.736 542.614C312.027 548.421 309.531 554.202 307.148 559.333C302.047 570.315 295.884 580.113 287.694 589.076C268.086 610.534 238.566 623.367 209.668 624.575C204.969 624.772 201.209 624.987 197.634 621.538C194.899 618.9 193.471 615.581 193.489 611.773C193.504 608.523 194.159 605.418 195.828 602.607C198.731 597.719 203.764 593.584 207.804 589.587L229.507 568.198L229.968 567.765C232.829 564.981 234.584 562.047 234.506 557.938C234.435 554.176 229.461 550.984 226.945 548.47L216.835 538.038C216.053 537.281 213.85 534.762 212.96 534.476C212.066 534.188 211.466 535.612 210.731 536.197C200.932 543.999 192.137 554.252 183.155 563.089C179.494 566.691 175.791 570.928 171.348 573.572C166.72 576.325 160.358 578.015 154.985 578.022C146.866 578.032 138.446 574.851 132.727 569.021C126.517 562.69 122.658 554.117 122.781 545.177C122.857 539.633 124.585 534.34 127.525 529.661C132.078 522.415 139.478 516.479 145.629 510.605L170.312 486.766C163.697 478.829 156.726 471.015 147.266 466.589C140.497 469.693 135.572 475.275 130.313 480.389L107.32 502.595C104.764 504.895 101.701 506.651 98.1476 506.432C92.4254 506.078 89.9608 503.875 86.3676 499.743C83.143 487.189 85.4626 472.218 88.9162 459.94C95.382 436.955 110.98 416.867 131.871 405.295C154.174 392.941 180.187 394.085 204.62 397.555C217.313 399.358 229.606 401.694 241.921 405.27C245.15 402.97 247.843 399.705 250.604 396.868L264.454 383.078C265.796 381.778 269.345 379.321 270.107 377.887C270.592 376.975 269.545 368.461 269.486 366.783C268.715 344.715 274.756 322.843 288.912 305.576C304.202 286.926 324.562 277.35 348.329 274.931Z"/>
	<path fill="#D1D0D0" transform="scale(0.628906 0.628906)" d="M182.422 506.354L195.465 519.919C191.375 524.675 186.351 528.911 181.881 533.34C174.695 540.463 166.872 549.986 158.295 555.171L156.828 555.256C153.601 555.394 150.81 555.305 148.363 552.962C146.409 551.09 145.061 549.346 145.081 546.511C145.093 544.841 145.382 543.347 146.259 541.909C149.475 536.638 155.121 532.2 159.578 527.958L182.422 506.354Z"/>
	<path fill="#D1D0D0" transform="scale(0.628906 0.628906)" d="M284.257 487.667L284.921 487.667L285.597 488.466L288.73 531.367C289.023 535.35 290.315 541.116 289.804 544.944C289.624 546.3 287.634 549.151 286.919 550.399C273.947 573.049 257.505 590.508 231.516 597.581L237.378 592.289L240.348 589.313C249.102 580.417 257.492 572.306 257.141 558.819C256.815 546.317 249.107 538.798 240.711 530.615C243.339 525.538 250.206 520.32 254.347 516.345L284.257 487.667Z"/>
	<path fill="#D1D0D0" transform="scale(0.628906 0.628906)" d="M170.179 417.597C187.548 416.423 207.125 420.029 224.096 423.891L182.107 466.536C175.427 459.541 169.258 452.701 160.844 447.756C155.805 445.666 151.085 445.119 145.662 445.256C130.763 445.63 119.169 459.673 109.622 469.712C113.197 459.363 116.454 450.07 123.396 441.382C135.679 426.009 150.943 419.704 170.179 417.597Z"/>
	<path fill="#D1D0D0" transform="scale(0.628906 0.628906)" d="M280.009 399.053C284.013 404.301 287.588 409.791 292.029 414.697C297.283 420.5 303.437 425.429 309.526 430.313L225.029 513.667C224.004 514.389 222.821 514.435 221.613 514.608L207.729 500.046C203.156 495.655 198.078 491.491 194.804 486.005C202.53 476.152 213.249 467.283 222.094 458.303L280.009 399.053Z"/>
	<path fill="#D1D0D0" transform="scale(0.628906 0.628906)" d="M350.282 297L353.125 296.841C352.016 300.943 326.727 320.894 322.214 327.781C318.598 333.299 317.399 342.17 318.971 348.507C320.401 354.276 323.405 358.693 327.49 362.977L342.522 377.322C349.463 384.135 356.853 393.095 365.267 398.049C368.526 399.968 371.615 400.716 375.387 400.752C380.002 400.796 384.187 400.038 388.239 397.755C392.494 395.357 396.253 390.898 399.775 387.498L421.008 366.901C418.712 380.257 415.57 390.599 407.245 401.587C397.429 412.085 387.082 418.941 372.748 421.725C354.64 425.241 337.937 421.311 322.716 411.062C308.375 401.405 296.067 385.884 292.974 368.524C290.265 353.324 294.213 337.713 302.999 325.101C314.655 308.369 330.645 300.675 350.282 297Z"/>
	<path transform="scale(0.628906 0.628906)" d="M676.239 43.6197C716.242 40.582 757.548 51.8973 790.792 74.2614C815.081 90.601 836.401 112.628 850.408 138.477C861.32 158.615 867.735 179.882 872.146 202.25C876.957 202.373 882.424 202.202 887.134 203.212C896.996 205.326 904.919 210.574 910.395 219.067C912.738 222.702 914.827 227.341 915.528 231.621C918.239 248.175 916.603 265.458 916.522 282.186C916.468 293.353 917.818 306.946 915.305 317.758L915.088 318.667C912.816 328.783 907.006 337.058 898.38 342.786C887.511 350.005 873.392 350.084 861.04 347.557C857.469 353.732 854.425 360.098 850.595 366.146C844.215 376.223 836.738 385.499 828.94 394.507C847.995 402.464 868.915 411.587 881.056 429.224C882.901 431.904 884.718 434.836 885.943 437.855C886.493 439.211 886.925 441.725 887.685 442.854C888.121 443.501 889.74 444.45 890.387 444.957L898.6 451.364L917.752 467.516C921.252 463.294 926.872 457.64 929.094 452.726L925.451 450.044C922.553 447.814 919.139 444.741 918.837 440.879C918.143 431.994 930.079 420.906 935.289 414.195L952.065 392.572C955.017 388.922 959.014 383.357 964.098 383.102C968.25 382.894 972.371 386.082 975.575 388.397L992.914 401.974C1000.97 393.036 1007.93 382.857 1015.39 373.393L1068.16 306.502L1079.56 292.476C1080.08 291.848 1082.6 289.229 1082.71 288.67C1082.78 288.312 1081.45 285.588 1081.25 285.077C1079.89 281.65 1078.81 278.231 1077.96 274.643C1075.47 264.222 1075.14 254.299 1077.12 243.786C1080.53 225.637 1090.81 210.039 1106.08 199.754C1121.23 189.555 1138.61 186.699 1156.38 189.919C1170.83 192.537 1183.15 199.641 1193.25 210.221C1206.38 223.972 1212.31 241.834 1211.7 260.69C1211.11 278.852 1203.03 296.411 1189.77 308.833C1174.3 323.312 1154.08 327.634 1133.49 326.961L1044.7 439.537C1044.78 440.818 1049.95 444.439 1051.18 445.874C1056.2 451.753 1055.54 457.216 1055 464.347L1251.78 632.385L1214.25 681.961C1211.6 681.157 1209.21 678.861 1207.04 677.194L1189.21 662.289L1136.87 617.729L1016.24 516.857L978.464 567.098C979.1 569.161 980.165 573.808 981.504 575.329C982.034 575.932 984.966 576.601 985.729 576.844C989.851 578.157 993.934 579.529 997.932 581.192C1009.73 586.101 1020.42 592.459 1030.51 600.295C1058.47 622.022 1080.95 654.75 1088.79 689.518C1091.38 701.019 1092.24 712.327 1093.73 723.96C1093.81 724.562 1093.84 726.137 1094.1 726.55C1094.45 727.109 1096.11 728.063 1096.75 728.543L1105.31 735.073C1108.35 720.304 1109.75 704.447 1107.99 689.422L1107.87 688.452C1116.92 683.398 1127.12 680.086 1136.96 676.962C1146.42 673.96 1155.71 671.023 1165.49 669.252C1180.44 693.846 1188.01 728.721 1183.61 757.333C1182.48 764.703 1177.65 772.714 1171.31 776.717C1168.68 778.378 1165.72 779.479 1163.2 781.306L1254.56 852.039L1245.28 865.933L1245.01 866.289C1255.51 876.568 1270.74 884.143 1278.22 896.988C1284.56 907.864 1285.88 920.821 1282.59 932.922C1279.51 944.271 1271.44 954.462 1261.21 960.247C1250.69 966.199 1237.62 967.542 1226.06 964.171C1217.75 961.751 1210.78 955.999 1204.04 950.812L1183.46 935.087L1141.71 903.182L1052.96 836.217C1048.35 838.752 1044.27 842.25 1039.77 845.001C1024.76 854.179 1008.74 861.129 991.635 865.378C956.062 874.214 916.593 871.057 882.731 857.028C871.388 852.329 861.013 846.265 850.518 839.941C850.245 843.466 848.877 879.972 849.752 881.632C850.659 883.356 854.625 886.326 856.123 887.827L870.775 903.08C877.264 909.914 885.2 916.232 885.887 926.267C886.41 933.91 886.041 941.835 885.996 949.503C885.977 952.767 886.578 957.804 884.376 960.282C881.679 963.317 879.751 965.088 875.453 965.235L798.874 965.192L643.562 965.198L548.977 965.249C532.649 965.311 515.39 966.586 499.181 965.17C495.257 964.828 491.938 963.532 489.079 960.798C484.71 956.622 485.851 949.832 485.912 944.324C485.979 938.219 484.925 929.834 486.213 924.064C487.901 916.499 510.245 894.796 516.349 888.383C518.076 886.569 522.435 882.716 523.127 880.534C523.752 878.565 522.977 873.549 522.958 871.198L522.964 795.933C523.011 782.506 522.135 768.434 523.67 755.11C524.326 749.419 525.775 743.723 528.003 738.441C532.7 727.305 542.249 718.441 550.584 709.976C546.527 711.975 542.481 714.571 538.229 716.091C529.935 719.058 519.818 718.155 511.183 717.377C509.808 720.958 507.563 724.35 505.178 727.332C496.891 737.689 486.857 742.577 473.884 744.169C465.565 745.19 456.795 744.591 448.412 744.55C435.455 744.487 421.591 745.803 409.032 742.085C402.535 740.162 396.982 736.571 391.218 733.114L402.778 759.637C403.421 761.102 404.961 766.039 405.982 766.967C406.566 767.497 408.876 768.168 409.682 768.515L421.897 774.081C437.324 781.607 452.582 790.697 464.886 802.785C473.897 811.638 481.851 822.423 481.886 835.543C481.906 842.976 477.875 850.247 472.728 855.406C451.264 876.924 411.395 876.166 383.254 876.139C380.408 878.35 378.322 882.522 376.045 885.392C354.185 912.943 322.6 929.759 287.817 933.667C253.491 937.522 218.88 927.547 191.895 906.018C163.11 883.055 147.269 849.055 143.232 812.957L114.078 794.432C100.02 783.817 83.7987 767.614 81.4133 749.418C80.3797 741.532 81.3761 733.114 86.4628 726.716C87.0711 725.951 87.7364 725.237 88.4488 724.568C89.2475 723.818 90.0936 723.119 90.9684 722.46C96.66 718.171 103.797 715.56 110.619 713.707C127.731 709.059 145.673 708.865 163.282 709.485C166.79 709.609 170.31 710.059 173.802 710.41C174.767 710.507 176.646 710.989 177.48 710.789C178.502 710.545 180.283 708.533 181.119 707.78L191.174 699.281C213.366 682.071 237.394 674.536 265.086 671.648C275.352 670.577 286.075 671.465 296.245 673.02C317.662 676.294 337.103 684.293 354.657 696.919C361.804 702.059 368.417 708.004 375.242 713.567C373.753 707.813 371.74 701.753 370.986 695.86C369.951 687.772 370.213 679.508 370.134 671.375C369.993 656.768 368.889 641.378 374.908 627.71C376.332 624.476 378.08 621.156 380.216 618.333C382.867 614.831 387.327 611.74 388.682 607.476C389.685 604.317 390.064 600.906 390.782 597.667C392.101 591.715 393.923 585.572 395.747 579.748C406.534 545.296 423.743 514.489 445.939 486.097C452.864 477.24 460.307 468.876 468.317 460.982L482.672 447.479C484.352 446.039 489.1 443.061 490.095 441.378C490.255 441.108 490.276 439.402 490.31 439.054C490.58 436.269 490.771 433.34 491.581 430.647C494.21 421.912 508.207 414.838 515.575 410.155C524.494 404.487 533.418 398.835 542.783 393.926C532.166 380.071 521.329 366.26 515.16 349.793C515.06 349.526 514.601 348.409 514.275 348.332C512.11 347.816 507.576 348.74 505.184 348.813C492.304 349.207 481.13 345.818 471.269 337.494C463.429 330.878 457.282 320.132 456.549 309.748C455.658 297.118 456.395 284.012 456.407 271.311L456.448 247.877C456.462 242.6 456.218 237.075 457.387 231.904C459.009 224.733 462.639 218.447 467.539 213.004C476.497 203.054 486.964 201.785 499.493 201.185C501.166 194.431 501.019 186.9 502.54 179.96C508.177 154.245 520.987 130.136 537.987 110.145C573.141 68.8046 623.039 48.0273 676.239 43.6197Z"/>
	<path fill="#0E4D76" transform="scale(0.628906 0.628906)" d="M479.615 308.71C484.951 315.17 490.362 319.414 498.622 321.453L498.799 326.333L497.878 327.231C493.744 326.022 489.294 324.275 485.944 321.498C481.856 318.109 480.098 313.896 479.615 308.71Z"/>
	<path fill="#7D7C7C" transform="scale(0.628906 0.628906)" d="M818.311 366.079C823.277 359.138 828.759 352.712 833.356 345.484C837.112 339.576 839.867 332.897 844.091 327.33C843.37 331.843 841.253 335.982 839.339 340.092C834.075 351.4 827.544 361.486 819.689 371.149C818.188 371.248 817.621 371.204 816.248 370.446C817.204 369.244 817.614 368.115 818.113 366.666L818.311 366.079Z"/>
	<path fill="#57A3DB" transform="scale(0.628906 0.628906)" d="M479.505 237.497C481.945 232.162 484.353 226.951 490.342 224.872C492.769 224.03 495.196 223.898 497.724 224.207C500.087 227.536 498.781 237.628 498.556 241.901C493.359 241.608 484.953 243.186 480.216 241.493L479.505 237.497Z"/>
	<path fill="#0E4D76" transform="scale(0.628906 0.628906)" d="M826.586 839.98C827.331 844.191 827.08 848.621 827.086 852.891L827.082 873.761L791.111 873.432L791.117 859.945L826.383 859.986L826.586 839.98Z"/>
	<path fill="#FEFEFE" transform="scale(0.628906 0.628906)" d="M516.991 603C517.661 602.836 517.762 602.787 518.557 602.736C522.775 602.469 527.007 603.535 530.261 606.279C536.707 611.717 537.329 618.315 538.037 626.207L523.198 626.004L501.851 626.003L503.88 619C506.204 612.087 510.456 606.32 516.991 603Z"/>
	<path fill="#57A3DB" transform="scale(0.628906 0.628906)" d="M875.627 276.356L875.225 225.289C880.602 225.279 885.242 225.148 889.378 229.151C894.755 234.354 893.552 241.619 893.625 248.489L893.772 267.379L875.627 276.356Z"/>
	<path fill="#347AA4" transform="scale(0.628906 0.628906)" d="M1132.3 702.732C1136.06 698.097 1148.14 696.36 1153.99 694.841L1158.95 713.844L1161.89 726.538C1153.95 728.534 1146.5 730.001 1138.26 729.963C1135.34 729.95 1133.34 730.238 1130.75 728.797L1131.77 713.333C1131.9 709.795 1131.58 706.217 1132.3 702.732Z"/>
	<path fill="#57A3DB" transform="scale(0.628906 0.628906)" d="M1132.3 702.732C1136.06 698.097 1148.14 696.36 1153.99 694.841L1158.95 713.844C1159 716.935 1159.29 719.646 1160.05 722.651L1160.28 723.55L1153.6 725.159C1151.18 719.205 1150.18 712.167 1148.65 705.905C1145.18 707.047 1135.89 710.51 1132.72 709.426L1132.3 702.732Z"/>
	<path fill="#347AA4" transform="scale(0.628906 0.628906)" d="M875.627 276.356L893.772 267.379L893.529 301.822C893.378 306.26 893.625 311.532 892.64 315.861C892.193 317.827 890.431 320.013 888.997 321.413C885.99 324.345 881.881 326.827 877.527 326.528L876.474 326.333C874.643 323.408 875.645 283.178 875.627 276.356Z"/>
	<path fill="#FEFEFE" transform="scale(0.628906 0.628906)" d="M104.943 747.37C104.642 745.573 104.455 744.475 105.501 742.802C109.783 735.953 122.067 734.477 129.301 733.472C136.848 732.424 144.268 731.96 151.887 732.02C154.114 732.038 157.17 731.662 159.227 732.5L152.282 744.062C147.048 743.266 142.681 742.47 138.093 745.846C135.88 747.474 133.747 749.67 133.417 752.52C133.241 754.035 133.53 755.608 133.737 757.107L133.862 758.057L133.95 758.625C128.631 760.527 123.273 761.504 118.076 763.872C112.193 759.245 110.106 753.01 105.356 747.805L104.943 747.37Z"/>
	<path fill="#0E4D76" transform="scale(0.628906 0.628906)" d="M1130.75 728.797C1133.34 730.238 1135.34 729.95 1138.26 729.963C1146.5 730.001 1153.95 728.534 1161.89 726.538C1162.87 735.578 1162.65 744.833 1162.1 753.899C1154.54 758.446 1147.67 761.748 1138.72 759.32C1134.87 758.274 1127.72 754.32 1125.87 750.712C1125.52 750.014 1126.71 747.181 1126.98 746.322C1128.84 740.457 1129.91 734.907 1130.72 728.797L1130.75 728.797Z"/>
	<path fill="#57A3DB" transform="scale(0.628906 0.628906)" d="M985.51 611.786L986.215 600.872C997.683 604.968 1007.77 611.665 1017.23 619.264C1034.45 633.107 1048.46 649.567 1057.97 669.61C1062.31 678.765 1066.49 689.345 1067.36 699.465C1066.71 699.263 1066 699.189 1065.41 698.858C1063.48 697.79 1061.15 692.055 1060.04 690.078L1047.68 669.185C1035.89 649.689 1020.59 634.914 1001.81 622.164L986.06 612.179L985.51 611.786Z"/>
	<path fill="#D1D0D0" transform="scale(0.628906 0.628906)" d="M887.792 652.713C887.572 646.399 888.764 640.688 892.318 635.396C896.82 628.694 904.253 623.94 912.147 622.461C918.024 621.36 923.994 621.461 929.949 621.434C940.111 621.389 950.408 620.512 959.147 626.753C967.074 632.415 970.56 639.999 972.025 649.341C964.586 641.672 958.675 638.132 947.695 638.002L930.531 638.078C919.755 637.987 903.266 636.647 894.79 644.715C892.393 646.997 890.487 651.124 887.792 652.713Z"/>
	<path fill="#FEFEFE" transform="scale(0.628906 0.628906)" d="M1230.95 885.969L1233.74 887.877C1243.71 895.487 1259.26 904.9 1260.77 918.25C1261.35 923.412 1259.95 929.232 1256.64 933.3C1252.3 938.645 1246.52 941.691 1239.69 942.389C1230.56 943.323 1221.42 934.281 1214.94 928.845L1205.29 920.74C1206.03 918.135 1208.98 915.019 1210.63 912.774C1217.82 917.22 1227.43 928.536 1236.02 927.898C1239.07 927.672 1241.92 926.068 1243.86 923.737C1245.96 921.205 1246.81 918.348 1246.29 915.078C1244.93 906.492 1232.2 899.107 1225.6 894.15C1226.96 891.163 1229.02 888.6 1230.95 885.969Z"/>
	<path fill="#454545" transform="scale(0.628906 0.628906)" d="M551.626 670.823C551.822 676.099 548.75 682.544 545.167 686.333C540.772 690.983 536.233 692.558 529.922 692.659L509.408 692.861C500.497 692.853 489.734 693.554 482.897 686.726C479.329 683.163 476.952 678.218 476.31 673.219L528.604 673.232C535.795 673.247 543.681 673.958 550.745 673L551.626 670.823Z"/>
	<path fill="#7D7C7C" transform="scale(0.628906 0.628906)" d="M420.264 578.571L448.483 578.09C452.373 578.414 456.478 578.384 460.32 578.963C471.081 580.585 482.923 585.595 490.825 593.086L482.83 605.914C477.435 602.532 471.76 599.848 465.553 598.386C459.338 596.922 452.158 597.343 445.782 597.301L414.636 597.774L420.264 578.571Z"/>
	<path fill="#454545" transform="scale(0.628906 0.628906)" d="M1189.1 253.059C1191.36 263.415 1187.23 275.216 1181.68 283.906C1175.09 294.218 1162.65 301.915 1150.73 304.273C1140.62 306.271 1127.64 302.858 1119.25 297.031C1110.99 291.298 1104.33 282.888 1101.22 273.32C1110 281.28 1118.4 287.037 1130.54 288.475C1151.48 290.956 1173.46 273.628 1189.11 261.449L1189.1 253.059Z"/>
	<path fill="#347AA4" transform="scale(0.628906 0.628906)" d="M479.505 237.497L480.216 241.493C484.953 243.186 493.359 241.608 498.556 241.901L498.622 321.453C490.362 319.414 484.951 315.17 479.615 308.71L479.505 237.497Z"/>
	<path fill="#454545" transform="scale(0.628906 0.628906)" d="M463.188 699.884C470.424 707.025 477.172 710.656 486.495 714.476C483.189 716.803 480.103 719.201 476.134 720.247C471.581 721.447 466.525 721.285 461.857 721.311L441.766 721.356C435.383 721.357 428.209 722.032 421.917 721.042C413.028 719.643 404.821 714.815 399.655 707.405C398.296 705.455 397.087 703.449 396.106 701.282C405.706 701.283 458.267 702.825 463.188 699.884Z"/>
	<path fill="#7D7C7C" transform="scale(0.628906 0.628906)" d="M476.31 673.219C476.468 667.808 477.085 663.132 480.348 658.616C483.908 653.69 488.204 650.944 494.213 650.005C500.937 648.953 508.122 649.774 514.94 649.784C521.651 649.795 529.622 649.006 536.202 650.11C538.366 650.473 540.426 651.653 542.168 652.963C548.151 657.463 550.566 663.666 551.626 670.823L550.745 673C543.681 673.958 535.795 673.247 528.604 673.232L476.31 673.219Z"/>
	<path fill="#454545" transform="scale(0.628906 0.628906)" d="M887.792 652.713L887.813 679.894C887.834 681.771 887.374 685.95 887.966 687.588C888.723 689.679 890.956 692.361 892.504 693.952C900.74 702.414 911.666 702.552 922.753 702.617C936.847 702.7 956.781 705.266 967.752 694.256L972.457 688.774C972.509 694.271 972.669 700.076 970.956 705.366C968.921 711.65 963.392 717.474 957.554 720.417C948.734 724.862 936.248 723.158 926.702 723.033C918.75 722.929 908.902 723.711 901.368 720.897C896.029 718.903 891.707 713.849 889.405 708.758C888.366 706.459 887.511 703.785 887.307 701.259C886.568 692.1 887.196 682.344 887.157 673.136C887.133 667.448 885.876 657.785 887.792 652.713Z"/>
	<path fill="#57A3DB" transform="scale(0.628906 0.628906)" d="M851.099 781.819L850.903 766.991C878.339 796.636 913.001 813.81 953.682 815.309C967.551 815.82 982.634 814.264 995.728 809.481L1005.27 805.542C1006 805.216 1007.83 804.119 1008.54 804.056C1008.88 804.026 1016.56 810.37 1017.55 811.146C1004.34 818.232 991.179 822.399 976.272 824.143C945.282 827.768 912.271 822.357 885.212 806.524C873.149 799.465 862.055 790.469 851.099 781.819Z"/>
	<path fill="#7D7C7C" transform="scale(0.628906 0.628906)" d="M958.899 578.223L963.371 601.843C957.65 600.467 951.872 598.867 946.019 598.203C938.934 597.399 931.652 597.76 924.532 597.893C919.75 597.982 914.639 597.787 909.941 598.679C902.25 600.141 894.958 602.957 887.715 605.85C885.391 600.997 883.05 595.361 879.078 591.625C874.216 587.051 868.699 584.756 864.426 579.227L935.347 578.57L958.899 578.223Z"/>
	<path fill="#FEFEFE" transform="scale(0.628906 0.628906)" d="M1098.38 257.032C1098.32 251.539 1098.93 246.447 1100.71 241.231C1104.45 230.285 1113.68 220.021 1124.12 215.041C1134.8 209.946 1147.93 209.455 1159.05 213.441C1171.18 217.79 1180.09 227.794 1185.51 239.175L1184.82 239.078C1180.52 238.438 1176.7 236.604 1172.48 235.7C1156.05 232.181 1139.34 233.41 1125.38 243.551C1120.53 247.077 1117.51 252.673 1112.06 255.302L1111.32 255.693C1107.66 257.471 1102.4 256.825 1098.38 257.032Z"/>
	<path fill="#347AA4" transform="scale(0.628906 0.628906)" d="M985.51 611.786L986.06 612.179L1001.81 622.164C1020.59 634.914 1035.89 649.689 1047.68 669.185L1060.04 690.078C1061.15 692.055 1063.48 697.79 1065.41 698.858C1066 699.189 1066.71 699.263 1067.36 699.465L1068.76 707.691L1034.26 681.64C1032.19 680.08 1026.12 676.393 1024.96 674.396C1024.42 673.467 1024.07 671.998 1023.66 670.968C1018.41 657.79 1008.1 653.799 995.927 648.556C994.913 641.207 994.016 633.98 990.329 627.375C989.239 625.422 986.286 622.479 985.758 620.625C985.117 618.372 985.579 614.246 985.51 611.786Z"/>
	<path fill="#7D7C7C" transform="scale(0.628906 0.628906)" d="M946.104 467.758L995.593 505.092C990.362 513.976 982.519 522.716 976.265 530.998L969.331 539.991C963.587 530.287 959.142 520.138 952.891 510.632L940.789 493.573C938.426 490.397 935.678 487.237 933.779 483.779C937.376 478.063 941.818 472.959 946.104 467.758Z"/>
	<path fill="#FEFEFE" transform="scale(0.628906 0.628906)" d="M393.583 649.449C394.649 640.199 397.286 633.014 404.703 627C414.901 618.73 428.075 619.957 440.384 620.182C445.937 620.284 451.666 620.039 457.182 620.734C464.322 621.634 470.723 625.711 475.823 630.637C468.53 636.137 462.331 642.076 457.541 649.949L413.891 650.005C407.471 650.012 399.842 650.821 393.583 649.449Z"/>
	<path fill="#347AA4" transform="scale(0.628906 0.628906)" d="M371.097 747.027C384.264 767.767 390.823 790.907 390.51 815.544L320.49 807.76C326.652 802.91 333.092 798.505 338.917 793.221C352.783 780.642 362.834 763.651 371.097 747.027Z"/>
	<path fill="#FEFEFE" transform="scale(0.628906 0.628906)" d="M1095.76 308.575C1100.36 312.987 1105.79 316.138 1111.25 319.326L1025.86 427.055C1020.42 424.079 1015.41 419.561 1010.55 415.72L1095.76 308.575Z"/>
	<path fill="#D1D0D0" transform="scale(0.628906 0.628906)" d="M848.083 604.678L849.187 604.648C853.68 604.649 857.584 605.924 860.753 609.241C861.715 610.247 863.602 612.394 864.087 613.664C864.648 615.137 864.463 618.312 864.47 619.949L864.491 634.768L864.469 696.925L852.941 696.918L835.314 696.923L835.216 642.745L835.212 624.79C835.216 621.258 834.897 617.241 836.147 613.867C837.982 608.917 843.646 606.623 848.083 604.678Z"/>
	<path fill="#57A3DB" transform="scale(0.628906 0.628906)" d="M199.185 881.166C193.892 875.008 188.652 869.183 184.241 862.313C176.607 850.424 172.077 837.57 167.805 824.209C201.32 841.869 237.96 852.07 274.751 860.145C269.535 863.926 263.196 866.522 257.246 868.946C238.352 876.645 219.508 880.333 199.185 881.166Z"/>
	<path fill="#7D7C7C" transform="scale(0.628906 0.628906)" d="M608.675 460.623L608.499 460.575L596.013 438.033L611.564 444.003C617.726 446.071 624.613 448.23 631.011 449.26C648.323 452.045 666.266 451.809 683.759 451.85C704.644 451.9 725.563 452.595 746.05 447.776C757.669 445.044 768.583 439.574 779.209 434.309L762.982 458.57L762.547 458.59C758.179 458.946 753.539 462.046 749.499 463.749C745.592 465.395 741.305 466.552 737.153 467.395C719.174 471.048 701.48 471.118 683.211 470.929C671.844 470.812 660.319 470.82 649.009 469.577C639.928 468.58 630.457 466.808 621.761 463.967C618.408 462.872 614.893 460.788 611.517 460.083C610.446 459.859 609.628 460.143 608.675 460.623Z"/>
	<path fill="#D1D0D0" transform="scale(0.628906 0.628906)" d="M393.583 649.449C399.842 650.821 407.471 650.012 413.891 650.005L457.541 649.949C452.169 663.511 451.448 676.778 457.207 690.314C458.635 693.67 460.624 697.261 463.188 699.884C458.267 702.825 405.706 701.283 396.106 701.282C393.119 693.38 393.655 684.095 393.685 675.768L393.583 649.449Z"/>
	<path fill="#D1D0D0" transform="scale(0.628906 0.628906)" d="M1030.23 498.5C1027.5 497.049 1024.27 496.849 1021.67 495.144C1009.28 487.018 997.533 476.998 985.634 468.101L956.61 446.344C953.084 443.689 947.77 440.674 945.057 437.257L966.918 411.066L1031.88 459.604C1030.85 462.277 1028.87 466.241 1029.1 469.112C1029.62 475.544 1038.24 481.104 1042.91 484.801C1040.88 487.26 1038.86 489.901 1036.57 492.117C1034.38 494.233 1031.92 495.893 1030.23 498.5Z"/>
	<defs>
		<linearGradient id="gradient_0" gradientUnits="userSpaceOnUse" x1="699.9989" y1="340.20166" x2="675.28247" y2="434.19809">
			<stop offset="0" stop-color="#787777"/>
			<stop offset="1" stop-color="#B4B3B3"/>
		</linearGradient>
	</defs>
	<path fill="url(#gradient_0)" transform="scale(0.628906 0.628906)" d="M818.311 366.079L818.113 366.666C817.614 368.115 817.204 369.244 816.248 370.446C817.621 371.204 818.188 371.248 819.689 371.149C797.067 398.722 763.893 422.584 727.555 426.156C713.933 427.495 700.101 426.597 686.431 426.701C673.267 426.801 659.869 427.446 646.749 426.24C620.846 423.857 598.227 413.382 578.304 396.871C571.567 391.288 563.055 384.456 558.731 376.748L559.243 376.972C565.58 379.857 571.479 384.461 577.666 387.817C589.539 394.257 603.728 400.271 617.076 402.868C619.038 403.25 622.201 404.203 624.15 403.745C624.784 403.596 625.418 403.18 625.954 402.824C632.598 404.679 639.256 406.534 646.121 407.352C656.918 408.638 668.269 408.043 679.146 408.032L716.825 407.757L730.609 406.535L725.148 409.667L725.769 410.783C730.254 413.595 734.573 414.272 739.763 414.176C747.574 414.032 753.949 411.681 761.147 408.798C784.896 399.288 800.901 384.169 818.311 366.079Z"/>
	<path fill="#D1D0D0" transform="scale(0.628906 0.628906)" d="M1098.38 257.032C1102.4 256.825 1107.66 257.471 1111.32 255.693L1112.06 255.302C1117.51 252.673 1120.53 247.077 1125.38 243.551C1139.34 233.41 1156.05 232.181 1172.48 235.7C1176.7 236.604 1180.52 238.438 1184.82 239.078L1185.51 239.175C1187.24 243.707 1188.33 248.274 1189.1 253.059L1189.11 261.449C1173.46 273.628 1151.48 290.956 1130.54 288.475C1118.4 287.037 1110 281.28 1101.22 273.32C1098.82 268.285 1098.56 262.524 1098.38 257.032Z"/>
	<defs>
		<linearGradient id="gradient_1" gradientUnits="userSpaceOnUse" x1="831.87378" y1="345.79019" x2="771.62152" y2="299.34161">
			<stop offset="0" stop-color="#C2C1C1"/>
			<stop offset="1" stop-color="#EFEEEE"/>
		</linearGradient>
	</defs>
	<path fill="url(#gradient_1)" transform="scale(0.628906 0.628906)" d="M832.654 218.624C835.486 216.069 836.684 212.779 839.167 210.041C839.787 209.837 841.213 209.153 841.794 209.175C843.453 209.238 847.127 212.674 849.76 213.124L850.776 211.487C852.421 227.372 851.685 243.658 851.806 259.624C851.912 273.574 853.031 287.972 851.304 301.851C850.242 310.388 847.677 319.494 844.091 327.33C839.867 332.897 837.112 339.576 833.356 345.484C828.759 352.712 823.277 359.138 818.311 366.079C800.901 384.169 784.896 399.288 761.147 408.798C753.949 411.681 747.574 414.032 739.763 414.176C734.573 414.272 730.254 413.595 725.769 410.783L725.148 409.667L730.609 406.535L731.235 406.361C742.03 403.334 752.742 399.844 762.826 394.89C787.703 382.67 810.661 361.7 824.191 337.457C828.261 330.164 831.565 322.337 833.176 314.112C836.874 295.238 835.226 274.372 835.12 255.167C835.071 246.144 835.677 236.48 834.759 227.527C834.453 224.538 833.473 221.509 832.654 218.624Z"/>
	<path fill="#347AA4" transform="scale(0.628906 0.628906)" d="M523.884 435.532C536.783 440.771 552.253 447.503 561.151 458.568C564.703 462.985 567.303 468.307 570.037 473.254C572.661 478.003 575.706 482.732 577.748 487.771C579.614 492.373 579.092 497.524 579.105 502.396L579.118 524.782L579.135 607.506L579.138 622.071C579.138 622.476 578.975 624.818 579.138 625.096C579.328 625.418 581.396 626.43 581.79 626.661L591.94 632.333C593.274 633.027 595.49 633.787 596.537 634.824L596.426 639.667C593.468 642.081 570.28 641.275 564.862 641.252C560.753 638.663 561.215 635.763 561.203 631.45L561.351 499.687L561.451 484.889C561.474 483.863 561.916 480.53 561.575 479.693C560.56 477.196 555.998 473.089 554.102 470.94L535.44 449.787C531.627 445.427 527.532 441.12 524.358 436.27L523.884 435.532Z"/>
	<path fill="#D1D0D0" transform="scale(0.628906 0.628906)" d="M850.718 720.02L862.544 720.013C863.032 720.012 865.508 719.818 865.855 720.011C866.514 720.376 868.556 724.4 869.114 725.251C875.739 735.356 886.058 741.586 897.603 744.556C909.718 747.672 922.555 746.982 934.947 746.774C937.108 746.738 945.55 745.78 947.13 746.559C947.439 746.711 948.883 749.506 949.125 749.925C951.213 753.535 953.429 757.187 955.202 760.96C956.488 763.697 957.475 768.024 959.258 770.35C960.145 771.506 965.182 773.658 966.785 774.655C970.068 776.699 982.991 783.817 983.803 787.333L981.614 788.333C959.411 793.862 935.568 792.426 914.259 783.911C884.745 772.117 863.132 748.882 850.718 720.02Z"/>
	<path fill="#57A3DB" transform="scale(0.628906 0.628906)" d="M575.949 673.175C575.943 670.34 575.707 667.575 576.859 664.928L811.162 664.725L811.129 681.157L576.642 681.001L575.949 673.175Z"/>
	<path fill="#57A3DB" transform="scale(0.628906 0.628906)" d="M776.905 613.906C777.626 603.161 777.157 592.11 777.158 581.332L777.13 524.252L777.115 499.597C777.12 492.625 776.636 485.289 779.333 478.701C783.313 468.978 790.061 460.92 795.718 452.195L818.471 415.971C830.551 419.491 840.441 424.415 851.031 431.189L850.572 431.456C843.799 435.238 833.94 436.073 826.373 437.678C824.519 448.658 818.833 455.394 812.893 464.507C808.07 471.905 803.773 479.531 800.892 487.913C794.116 507.626 793.777 527.886 792.748 548.452L789.901 610.005L776.905 613.906Z"/>
	<path fill="#347AA4" transform="scale(0.628906 0.628906)" d="M851.031 431.189L858.625 436.561C849.629 441.028 840.859 445.576 833.246 452.242C824.54 459.865 817.843 470.963 814.214 481.948C809.675 495.684 810.146 510.759 810.291 525.069L810.621 562.764L810.473 641.275L776.687 641.291C776.56 632.981 775.15 621.928 776.905 613.906L789.901 610.005L792.748 548.452C793.777 527.886 794.116 507.626 800.892 487.913C803.773 479.531 808.07 471.905 812.893 464.507C818.833 455.394 824.519 448.658 826.373 437.678C833.94 436.073 843.799 435.238 850.572 431.456L851.031 431.189Z"/>
	<path fill="#347AA4" transform="scale(0.628906 0.628906)" d="M851.099 781.819C862.055 790.469 873.149 799.465 885.212 806.524C912.271 822.357 945.282 827.768 976.272 824.143C991.179 822.399 1004.34 818.232 1017.55 811.146L1032.98 822.014C1014.66 834.672 992.827 841.986 971.008 845.722C941.166 850.83 906.723 844.115 879.819 830.609C869.69 825.524 860.342 819.042 851.125 812.493L851.099 781.819Z"/>
	<path fill="#347AA4" transform="scale(0.628906 0.628906)" d="M791.025 838.017L815.09 837.943C818.39 837.933 823.046 837.257 826.087 838.414L826.586 839.98L826.383 859.986L791.117 859.945L791.111 873.432L697.811 873.431L697.955 838.667L699.926 838.129L791.025 838.017Z"/>
	<path fill="#57A3DB" transform="scale(0.628906 0.628906)" d="M699.926 838.129L791.025 838.017C792.222 845.083 791.765 852.355 791.646 859.49L699.877 859.283C699.625 852.059 699.523 845.373 699.926 838.129Z"/>
	<path fill="#D1D0D0" transform="scale(0.628906 0.628906)" d="M535.05 485.195C535.713 486.069 537.313 487.711 537.685 488.667C538.933 491.87 537.736 500.271 537.679 504.098L537.383 546.332L520.44 569.826C518.839 572.069 516.628 576.321 514.522 577.829C512.672 579.154 509.666 579.747 507.479 580.395C500.625 582.424 495.205 587.653 490.825 593.086C482.923 585.595 471.081 580.585 460.32 578.963C456.478 578.384 452.373 578.414 448.483 578.09C451.606 577.666 455.106 578.019 458.271 578.081C462.504 575.286 466.485 565.874 469.211 561.419L480.681 544.081C492.841 527.136 505.19 512.303 520.387 497.93C525.096 493.477 530.417 489.761 535.05 485.195Z"/>
	<path fill="#57A3DB" transform="scale(0.628906 0.628906)" d="M523.884 435.532L522.618 434C523.582 431.314 527.043 429.711 529.416 428.253C536.491 423.905 543.6 419.49 551.118 415.943L554.803 414.25L582.734 463.073L592.223 478.599C593.751 481.073 595.934 483.872 597.008 486.541C597.87 488.686 597.188 493.352 597.162 495.701L596.836 525.101L596.537 634.824C595.49 633.787 593.274 633.027 591.94 632.333L581.79 626.661C581.396 626.43 579.328 625.418 579.138 625.096C578.975 624.818 579.138 622.476 579.138 622.071L579.135 607.506L579.118 524.782L579.105 502.396C579.092 497.524 579.614 492.373 577.748 487.771C575.706 482.732 572.661 478.003 570.037 473.254C567.303 468.307 564.703 462.985 561.151 458.568C552.253 447.503 536.783 440.771 523.884 435.532Z"/>
	<path fill="#D1D0D0" transform="scale(0.628906 0.628906)" d="M864.426 579.227L835.124 544.833L835.156 518.199C835.205 503.968 834.613 490.276 844.004 478.55C843.627 480.124 843.204 481.593 843.31 483.227L864.63 503.966C876.237 515.948 886.84 528.754 895.944 542.743C903.389 554.184 908.9 566.87 916.347 578.146C922.499 578.18 929.291 577.686 935.347 578.57L864.426 579.227Z"/>
	<path fill="#347AA4" transform="scale(0.628906 0.628906)" d="M575.949 673.175L576.642 681.001L811.129 681.157L811.101 699.29L575.784 699.433L575.949 673.175Z"/>
	<path fill="#FEFEFE" transform="scale(0.628906 0.628906)" d="M1042.91 484.801L1220.84 635.427C1217.72 640.767 1213.9 645.663 1209.96 650.423L1030.23 498.5C1031.92 495.893 1034.38 494.233 1036.57 492.117C1038.86 489.901 1040.88 487.26 1042.91 484.801Z"/>
	<path fill="#347AA4" transform="scale(0.628906 0.628906)" d="M546.657 838.776C550.184 837.409 555.516 838.119 559.381 838.116L587.732 838.129L672.567 838.022L672.453 873.429L546.941 873.298L546.492 859.924C546.397 853.088 545.671 845.511 546.657 838.776Z"/>
	<path fill="#57A3DB" transform="scale(0.628906 0.628906)" d="M546.657 838.776L635.088 838.846L635.183 859.988L546.492 859.924C546.397 853.088 545.671 845.511 546.657 838.776Z"/>
	<path fill="#347AA4" transform="scale(0.628906 0.628906)" d="M274.751 860.145L355.85 872.979C338.539 894.205 313.028 907.749 285.701 910.391C256.407 913.222 226.793 904.552 203.97 885.908L199.185 881.166C219.508 880.333 238.352 876.645 257.246 868.946C263.196 866.522 269.535 863.926 274.751 860.145Z"/>
	<path fill="#7D7C7C" transform="scale(0.628906 0.628906)" d="M887.792 652.713C890.487 651.124 892.393 646.997 894.79 644.715C903.266 636.647 919.755 637.987 930.531 638.078L947.695 638.002C958.675 638.132 964.586 641.672 972.025 649.341C973.779 661.861 972.504 676.063 972.457 688.774L967.752 694.256C956.781 705.266 936.847 702.7 922.753 702.617C911.666 702.552 900.74 702.414 892.504 693.952C890.956 692.361 888.723 689.679 887.966 687.588C887.374 685.95 887.834 681.771 887.813 679.894L887.792 652.713Z"/>
	<path fill="#FEFEFE" transform="scale(0.628906 0.628906)" d="M420.264 578.571C438.584 528.765 468.201 489.195 509.425 455.924C513.135 459.278 515.955 463.329 519.172 467.127L535.05 485.195C530.417 489.761 525.096 493.477 520.387 497.93C505.19 512.303 492.841 527.136 480.681 544.081L469.211 561.419C466.485 565.874 462.504 575.286 458.271 578.081C455.106 578.019 451.606 577.666 448.483 578.09L420.264 578.571Z"/>
	<path fill="#FEFEFE" transform="scale(0.628906 0.628906)" d="M844.004 478.55C850.142 469.076 859.431 462.314 869.682 457.953C897.595 477.741 921.56 501.989 938.475 531.91C946.828 546.687 953.089 562.312 958.899 578.223L935.347 578.57C929.291 577.686 922.499 578.18 916.347 578.146C908.9 566.87 903.389 554.184 895.944 542.743C886.84 528.754 876.237 515.948 864.63 503.966L843.31 483.227C843.204 481.593 843.627 480.124 844.004 478.55Z"/>
	<path fill="#D1D0D0" transform="scale(0.628906 0.628906)" d="M104.943 747.37L105.356 747.805C110.106 753.01 112.193 759.245 118.076 763.872C123.273 761.504 128.631 760.527 133.95 758.625C140.955 766.583 149.447 771.903 158.385 777.374C199.325 802.437 248.761 816.417 295.363 826.686C331.609 834.672 370.889 841.442 408.054 837.815C414.001 837.235 421.471 836.842 426.548 833.342C428.75 831.823 430.89 828.811 431.234 826.116C431.646 822.893 430.852 819.065 428.782 816.515C424.738 811.535 419.953 811.392 414.063 810.807L413.144 795.774C426.375 802.469 440.131 809.611 450.887 820.018C453.936 822.967 457.302 826.726 458.533 830.887C459.14 832.94 458.922 835.443 457.817 837.299C453.567 844.439 443.292 847.508 435.713 849.233C405.097 856.201 371.763 852.058 341.019 847.711C318.569 844.537 295.871 841.03 273.791 835.839C244.983 829.067 216.589 819.568 189.209 808.395C171.825 801.3 155.002 793.908 139.109 783.797C126.167 775.564 108.47 763.131 104.943 747.37Z"/>
	<path fill="#454545" transform="scale(0.628906 0.628906)" d="M520.483 917.777L538.6 897.568L629.277 898.022L672.662 898.032L672.627 941.448L509.149 941.437C508.997 938.967 508.126 933.651 509 931.474C509.422 930.423 511.056 928.775 511.79 927.866L520.483 917.777Z"/>
	<path fill="#7D7C7C" transform="scale(0.628906 0.628906)" d="M520.483 917.777L538.6 897.568L629.277 898.022L626.286 918.578L558.805 918.602C546.506 918.597 533.387 919.526 521.216 917.858L520.483 917.777Z"/>
	<path fill="#454545" transform="scale(0.628906 0.628906)" d="M852.533 917.786L852.567 917.776L860.729 926.311C861.232 926.837 862.744 928.078 863.015 928.701C863.2 929.126 862.992 930.971 862.986 931.49L862.885 941.453L697.851 941.296L697.81 898.033L705.19 898.013L795.019 898.019L820.932 898.032C825.613 898.035 830.646 897.663 835.278 898.305L852.533 917.786Z"/>
	<path fill="#7D7C7C" transform="scale(0.628906 0.628906)" d="M705.19 898.013L795.019 898.019L820.932 898.032C825.613 898.035 830.646 897.663 835.278 898.305L852.533 917.786L705.899 918.02L705.19 898.013Z"/>
	<path fill="#57A3DB" transform="scale(0.628906 0.628906)" d="M320.49 807.76L282.446 799.484C243.971 789.982 206.457 776.882 171.578 757.93C181.37 741.503 192.802 726.337 208.59 715.181C232.611 698.209 264.166 690.823 293.262 695.984C326.313 701.847 352.046 719.802 371.097 747.027C362.834 763.651 352.783 780.642 338.917 793.221C333.092 798.505 326.652 802.91 320.49 807.76Z"/>
	<path fill="#D1D0D0" transform="scale(0.628906 0.628906)" d="M996.466 682.749L1223.69 857.801L1191.14 899.14L1184.98 907.282L1119.37 856.808L1034.47 792.714L1001.28 768.276C990.107 760.13 978.455 752.601 969.385 742.043C974.272 738.924 979.21 735.529 983.355 731.448C997.202 717.812 996.555 700.47 996.466 682.749Z"/>
	<path fill="#D1D0D0" transform="scale(0.628906 0.628906)" d="M608.675 460.623C609.628 460.143 610.446 459.859 611.517 460.083C614.893 460.788 618.408 462.872 621.761 463.967C630.457 466.808 639.928 468.58 649.009 469.577C660.319 470.82 671.844 470.812 683.211 470.929C701.48 471.118 719.174 471.048 737.153 467.395C741.305 466.552 745.592 465.395 749.499 463.749C753.539 462.046 758.179 458.946 762.547 458.59L762.982 458.57C759.06 464.887 754.873 471.61 753.599 479.048C752.294 486.67 752.649 494.31 752.733 502.001L752.964 532.946L752.611 641.282L620.392 640.924L620.488 515.161L620.507 489.208C620.508 487.221 621.035 482.999 620.51 481.239C620.005 479.55 617.91 476.945 616.965 475.341L608.675 460.623Z"/>
	<path fill="#D1D0D0" transform="scale(0.628906 0.628906)" d="M617.463 722.79L740.962 722.672L774.336 722.543C780.56 722.5 786.932 721.821 793.094 722.913C801.212 724.353 808.45 729.017 814.245 734.705C830.084 750.252 827.178 772.654 827.177 792.901L827.171 815.759L698.413 815.914L698.191 745.99L672.667 745.995L672.479 815.98L555.166 815.912L546.609 815.894C545.91 809.313 546.401 802.303 546.43 795.676L546.518 765.333C546.801 753.175 550.302 742.6 559.274 734.094C574.626 719.539 598.011 722.295 617.463 722.79Z"/>
	<path fill="#FEFEFE" transform="scale(0.628906 0.628906)" d="M555.166 815.912L546.609 815.894C545.91 809.313 546.401 802.303 546.43 795.676L546.518 765.333C546.801 753.175 550.302 742.6 559.274 734.094C574.626 719.539 598.011 722.295 617.463 722.79L617.961 722.938C623.086 724.312 629.679 723.507 634.999 723.456L635.13 815.263L581.221 815.306C572.981 815.32 563.176 814.343 555.166 815.912Z"/>
	<path fill="#FEFEFE" transform="scale(0.628906 0.628906)" d="M558.731 376.748C553.823 371.975 550.038 366.219 546.29 360.522C532.236 339.16 523.537 315.008 521.569 289.445C520.366 273.807 521.246 257.551 521.22 241.846C521.191 224.002 520.69 205.874 523.628 188.204C527.688 163.777 539.483 142.661 555.446 124.015C583.296 91.4814 626.957 69.7807 669.637 66.5469C718.165 62.8701 762.55 77.3962 799.286 109.079C827.334 133.27 848.006 174.547 850.776 211.487L849.76 213.124C847.127 212.674 843.453 209.238 841.794 209.175C841.213 209.153 839.787 209.837 839.167 210.041C836.684 212.779 835.486 216.069 832.654 218.624C824.362 192.458 808.198 170.571 783.477 157.713C773.744 152.65 762.784 149.118 751.899 147.646C732.731 145.053 711.939 146.598 692.574 146.588C672.267 146.577 651.252 145.495 631.024 146.864C622.893 147.415 615.003 148.418 607.201 150.881C580.593 159.281 558.9 177.674 546.179 202.471C542.277 210.078 539.35 218.995 537.935 227.417C536.251 237.441 536.899 247.991 536.933 258.115C537.003 279.216 536.213 298.738 542.81 319.181C553.561 352.498 578.646 380.015 609.648 395.716L625.954 402.824C625.418 403.18 624.784 403.596 624.15 403.745C622.201 404.203 619.038 403.25 617.076 402.868C603.728 400.271 589.539 394.257 577.666 387.817C571.479 384.461 565.58 379.857 559.243 376.972L558.731 376.748Z"/>
	<path transform="scale(0.628906 0.628906)" d="M625.954 402.824L609.648 395.716C578.646 380.015 553.561 352.498 542.81 319.181C536.213 298.738 537.003 279.216 536.933 258.115C536.899 247.991 536.251 237.441 537.935 227.417C539.35 218.995 542.277 210.078 546.179 202.471C558.9 177.674 580.593 159.281 607.201 150.881C615.003 148.418 622.893 147.415 631.024 146.864C651.252 145.495 672.267 146.577 692.574 146.588C711.939 146.598 732.731 145.053 751.899 147.646C762.784 149.118 773.744 152.65 783.477 157.713C808.198 170.571 824.362 192.458 832.654 218.624C833.473 221.509 834.453 224.538 834.759 227.527C835.677 236.48 835.071 246.144 835.12 255.167C835.226 274.372 836.874 295.238 833.176 314.112C831.565 322.337 828.261 330.164 824.191 337.457C810.661 361.7 787.703 382.67 762.826 394.89C752.742 399.844 742.03 403.334 731.235 406.361L730.609 406.535L716.825 407.757L679.146 408.032C668.269 408.043 656.918 408.638 646.121 407.352C639.256 406.534 632.598 404.679 625.954 402.824Z"/>
	<path fill="#FEFEFE" transform="scale(0.628906 0.628906)" d="M729.099 168.986L729.8 168.979C736.028 168.927 743.003 168.783 749.139 169.742C765.103 172.238 780.833 181.332 792.137 192.687C800.578 201.166 807.98 213.142 810.284 224.977C811.904 233.297 811.689 241.895 811.732 250.331C808.198 246.162 805.663 238.645 803.031 233.667C798.948 225.945 792.429 217.973 786.261 211.789C772.62 198.115 754.88 188.735 735.507 186.844C723.564 185.678 710.679 186.665 698.649 186.697L644.215 186.541C637.732 186.491 631.546 186.796 625.221 188.35C605.376 193.225 587.757 207.3 575.79 223.572C569.871 231.621 565.234 240.277 560.096 248.812L559.946 244.828C559.659 225.224 566.414 206.686 580.291 192.609C590.856 181.892 604.543 174.333 619.182 170.874C626.437 169.16 633.298 169.326 640.696 169.32L664.817 169.309L729.099 168.986Z"/>
	<path fill="#0E4D76" transform="scale(0.628906 0.628906)" d="M604.438 223.458C609.542 219.549 613.942 215.448 619.695 212.374C628.832 207.492 637.821 207.938 647.87 208.175L670.541 208.769L671.508 209.002C678.355 210.589 685.663 210.274 692.647 210.214C715.695 210.017 738.624 207.929 759.007 220.739C766.352 225.356 773.344 231.596 778.054 238.92C783.277 247.042 786.875 256.307 790.974 265.04C793.709 270.868 796.953 276.491 800.138 282.081C802.316 285.905 804.494 289.786 807 293.407C808.365 295.379 811.473 298.591 811.931 300.802C812.072 301.485 811.337 303.534 811.152 304.364C804.689 333.255 785.306 352.454 761.195 367.896C750.918 374.479 738.902 380.084 726.968 382.709C715.213 385.294 703.43 384.671 691.477 384.614C674.694 384.534 657.304 384.875 640.866 381.089C616.004 375.363 588.675 355.167 575.278 333.67C568.83 323.323 565.67 312.041 562.477 300.411C564.951 293.494 568.303 286.989 571.243 280.268C578.527 263.618 585.242 247.273 595.799 232.335C597.837 229.451 600.433 225.171 603.745 223.724L604.438 223.458Z"/>
	<path fill="#FEFEFE" transform="scale(0.628906 0.628906)" d="M604.438 223.458C609.542 219.549 613.942 215.448 619.695 212.374C628.832 207.492 637.821 207.938 647.87 208.175L670.541 208.769C664.924 213.415 658.094 216.279 652.303 221.04C628.116 240.93 611.751 270.192 608.819 301.542C607.609 314.477 609.503 326.597 612.479 339.159C594.232 319.336 586.739 295.903 587.742 269.033C588.002 262.057 588.889 253.491 591.118 246.88C593.952 238.477 599.282 230.607 604.438 223.458Z"/>
</svg>
