<?xml version="1.0" encoding="utf-8" ?>
<svg xmlns="http://www.w3.org/2000/svg" xmlns:xlink="http://www.w3.org/1999/xlink" width="858" height="644">
	<path transform="scale(0.628906 0.628906)" d="M612.87 52.9715C668.654 52.8703 722.348 70.6254 765.452 106.395C771.698 111.578 777.745 117.147 783.449 122.921L789.836 129.685C790.241 130.125 791.572 131.876 792.021 132.07C793.474 132.7 799.967 131.924 801.938 131.923L847.687 131.937L1090.07 131.817L1157.95 131.666C1171.17 131.623 1185.28 130.693 1198.36 132.412C1208.21 133.707 1217.3 137.893 1225.16 143.908C1239.03 154.517 1247.92 169.581 1249.91 186.952C1250.97 196.177 1250.2 206.181 1250.2 215.509L1250.22 271.434L1250.24 457.101L1250.22 684.382L1250.2 756.276C1250.19 768.667 1250.94 781.668 1249.81 794C1248.85 804.457 1244.34 815.191 1237.89 823.409C1228.88 834.874 1216.15 844.046 1201.88 847.58C1187.97 851.024 1173.49 850.03 1159.33 849.667L1129.79 849.578L962.833 849.64L915.374 849.481C903.639 849.403 891.67 848.83 880.005 850.287L880.106 863.084C880.148 892.88 870.625 919.709 849.239 941.042C832.163 958.077 808.551 969.886 784.384 972.008C774.254 972.897 763.663 972.306 753.483 972.285L587.19 971.966C559.836 971.522 531.658 960.45 512.664 940.481C497.012 924.026 486.573 902.323 484.21 879.672C483.175 869.749 483.752 859.596 484.022 849.639L183.294 849.557C164.002 849.303 145.868 843.222 132.22 829.036C122.322 818.748 116.449 805.575 114.69 791.461C113.505 781.948 114.018 772.126 114.078 762.556L114.111 723.235L114.153 581.858L114.072 321.005L113.997 240.298L113.964 194.041C114.423 176.337 121.494 160.352 134.48 148.202C142.757 140.457 154.137 134.803 165.329 132.981C176.923 131.094 189.289 131.915 201.011 131.915L256.876 131.928L444.538 132.608L450.106 126.211C457.232 118.301 465.528 111.336 473.815 104.686C514.119 72.3445 561.553 55.7325 612.87 52.9715Z"/>
	<path fill="#5D9BCC" transform="scale(0.628906 0.628906)" d="M308.409 377.453C314.212 377.227 320.148 377.356 325.556 379.742C333.936 383.439 339.813 389.809 342.991 398.365C345.486 405.082 344.825 412.862 341.777 419.257C337.283 428.688 328.755 433.509 319.286 436.89C311.481 438.054 304.641 437.316 297.646 433.613C291.151 430.175 285.955 423.078 283.768 416.157C281.417 408.717 282.163 400.896 285.8 394C290.704 384.703 298.715 380.424 308.409 377.453Z"/>
	<path fill="#DAD9D9" transform="scale(0.628906 0.628906)" d="M311.617 533.554C325.402 532.494 340.658 536.962 351.643 545.268C363.406 554.161 372.997 568.659 375.012 583.333C377.16 598.968 373.065 615.145 363.467 627.703C352.633 641.878 337.266 648.154 320.078 650.489C305.585 651.258 291.099 647.19 279.366 638.515C266.444 628.962 258.379 615.216 256.169 599.368C254.146 584.86 258.505 569.28 267.321 557.653C278.657 542.703 293.43 536.123 311.617 533.554Z"/>
	<path fill="#5D9BCC" transform="scale(0.628906 0.628906)" d="M272.196 663.667C276.395 662.928 284.632 668.774 289.151 670.23C313.583 678.105 336.568 674.608 359.19 663.051C361.415 663.613 363.816 665.445 365.797 666.67C373.569 671.479 380.965 677.252 387.393 683.764C403.194 699.772 412.534 720.315 414.401 742.706C415.043 750.397 414.558 758.449 414.505 766.178L371.49 766.536L216.518 766.525C215.802 751.424 216.491 735.231 221.01 720.724C229.068 694.85 248.827 676.1 272.196 663.667Z"/>
	<path fill="#5D9BCC" transform="scale(0.628906 0.628906)" d="M508.521 850.018L856.453 850.031C856.505 858.075 856.962 866.454 856.087 874.45C853.924 894.209 845.3 910.297 832.044 924.757L825.262 930.765C816.083 938.288 804.215 944.371 792.568 946.646C777.323 949.625 761.339 948.595 745.888 948.572L689.341 948.543L621.901 948.561C607.626 948.566 593.201 949.181 578.984 947.76C556.439 945.508 537.484 933.592 523.435 916.125C508.451 897.496 505.931 872.985 508.521 850.018Z"/>
	<path fill="#DAD9D9" transform="scale(0.628906 0.628906)" d="M603.542 77.6032L603.716 77.549C616.506 76.2633 630.087 77.0655 642.8 78.6964C680.839 83.576 717.372 97.8407 747.386 121.967C789.546 155.857 814.444 204.547 820.237 257.994C825.676 308.175 809.648 358.515 778.125 397.598C749.231 433.423 707.987 457.616 662.996 466.801C653.468 468.746 643.671 469.506 634.012 470.53C621.386 471.101 609.134 471.317 596.521 470C555.591 465.724 515.298 448.967 483.676 422.553C444.603 389.916 419.651 344.335 415.181 293.449C410.807 243.66 426.282 190.953 458.531 152.512C495.081 108.946 547.146 82.6331 603.542 77.6032Z"/>
	<path transform="scale(0.628906 0.628906)" d="M598.156 104.957L626.154 104.615C630.651 104.569 635.777 104.024 640.177 104.866C642.476 105.306 644.608 106.417 646.413 107.895C647.871 109.088 649.016 110.572 649.715 112.333C651.096 115.815 651.283 120.425 651.72 124.126L654.024 144.375L673.049 151.22L684.09 156.056C684.921 156.43 686.938 157.634 687.751 157.707C691.082 158.008 706.663 139.895 713.579 138.415C717.37 137.605 720.3 137.994 723.533 140.267C727.764 143.24 731.315 147.449 735.101 150.963C741.173 156.601 747.366 162.05 753.042 168.099C755.093 170.285 757.308 172.425 757.73 175.531C758.741 182.957 753.179 187.762 749.111 193.156L739.051 206.661C744.416 217.215 749.139 227.007 752.291 238.479C758.802 238.96 765.288 240.087 771.753 240.981C776.12 241.585 781.569 241.833 785.481 243.913C787.893 245.197 789.39 247.773 790.133 250.333C791.391 254.672 790.578 260.859 790.575 265.431L790.533 285.049C790.51 289.532 791.035 294.382 788.445 298.333C787.287 300.101 785.488 301.607 783.556 302.454C779.926 304.045 775.396 304.085 771.478 304.604L751.567 307.555C748.904 315.226 745.714 323.17 741.957 330.37C741.226 331.77 736.749 339.028 736.876 339.824C737.021 340.739 739.08 343.175 739.675 344.031L748.83 356.742C751.579 360.325 755.753 364.777 756.456 369.333C756.959 372.596 755.387 375.587 753.427 378.062C749.384 383.167 743.871 387.501 739.194 392.072C733.943 397.204 728.932 403.314 722.961 407.555C721.075 408.895 719.33 409.574 717.021 409.77C710.672 410.311 704.799 404.159 700.247 400.428L686.169 388.868C681.072 390.211 676.747 393.912 671.99 396.141C666.507 398.711 660.486 400.416 654.731 402.297L651.183 422.667C650.512 426.641 650.129 431.512 648.138 435.083C646.419 438.164 643.136 439.523 639.967 440.562L609.445 440.735C605.1 440.754 599.213 441.431 595.019 440.401C593.032 439.913 590.896 438.723 589.254 437.487C588.014 436.554 587.002 435.363 586.368 433.938C584.866 430.561 584.636 425.883 584.101 422.207L580.999 401.739C569.837 398.093 560.192 393.581 549.834 388.11L533.794 400.232C530.4 402.799 526.905 405.869 522.872 407.329C519.898 408.406 515.992 408.812 513.084 407.267C508.33 404.742 504.055 399.098 500.211 395.337C493.892 389.154 486.544 383.524 481.281 376.383C479.369 373.789 478.396 371.029 477.402 367.99C480.989 356.746 491.635 347.116 499.369 338.297C493.749 328.343 489.435 318.226 485.487 307.509L454.828 304.16C450.066 303.545 448.23 300.432 445.482 296.836L445.125 272.141C445.093 265.364 443.171 251.699 447.759 246.343C452.234 241.119 461.378 241.186 467.673 240.473L484.626 238.485C487.91 227.157 492.512 217.13 498.142 206.804C493.157 197.921 482.366 190.834 479.683 180.895C478.808 177.651 479.216 174.524 480.94 171.635C484.859 165.069 511.44 139.17 518.07 137.871C520.013 137.491 522.332 137.749 524.193 138.409C527.646 139.633 531.09 142.497 534.138 144.543L551.486 156.185C554.927 154.826 580.489 145.071 581.058 144.233C581.498 143.585 581.535 139.986 581.631 138.948C582.346 131.277 582.373 115.779 587.143 109.667C590.212 105.733 593.55 105.425 598.156 104.957Z"/>
	<path fill="#5D9BCC" transform="scale(0.628906 0.628906)" d="M608.753 129L628.389 128.725L630.098 147.305C630.489 151.231 630.337 156.86 632.525 160.218C633.271 161.362 635.09 163.713 636.241 164.421C639.671 166.533 646.304 167.258 650.396 168.445C656.649 170.26 662.805 172.406 668.834 174.866C674.537 177.192 680.961 182.462 686.964 183.3C694.126 184.299 698.726 179.31 703.799 175.241L715.843 165.791L730.267 179.287C726.173 184.191 712.927 197.895 711.848 203.333C710.727 208.986 715.053 213.908 718.027 218.26C721.831 223.826 724.956 230.35 726.951 236.795C728.926 243.175 729.221 251.195 733.266 256.657C734.44 258.242 735.97 259.481 737.813 260.201C740.497 261.249 744.049 261.196 746.926 261.547L766.509 264.062L766.611 281.197L750.483 283.299C745.895 283.742 739.212 283.268 735.185 285.626C731.197 287.962 729.744 293.586 728.714 297.731C726.935 304.89 724.844 311.932 721.663 318.609C719.912 322.284 717.956 325.814 715.687 329.197C714.051 331.636 711.043 335 710.542 337.908C710.227 339.739 710.14 342.107 710.83 343.87C712.098 347.112 715.125 350.16 717.167 353L728.58 369.335L715.672 381.725C707.634 376.969 700.947 369.954 693.063 364.965C690.126 363.107 686.72 362.533 683.327 363.325C679.764 364.156 676.293 366.809 673.172 368.633C669.48 370.791 665.535 372.67 661.539 374.195C653.465 377.277 643.704 378.559 636.178 382.574C634.537 383.449 632.822 384.639 631.974 386.352C630.603 389.119 630.711 392.747 630.506 395.771L629.228 409C628.956 411.488 628.986 414.26 627.611 416.419L623.348 416.687L607.341 416.698L604.523 396.28C604.142 393.374 603.99 388.954 602.75 386.31C601.927 384.556 599.801 382.595 598.112 381.675C595.24 380.113 591.38 379.649 588.212 378.918C584.254 378.006 580.465 376.79 576.706 375.245C571.952 373.29 566.953 371.158 562.529 368.564C557.87 365.832 553.697 362.711 548.61 360.748C542.883 362.636 539.439 365.728 534.679 369.209L519.068 380.473L505.768 366.985C511.764 360.425 518.549 354.007 523.57 346.674C524.987 344.606 526.599 342.375 526.664 339.769C526.788 334.825 521.721 330.085 519.28 326.066C515.985 320.641 513.38 315.021 511.136 309.097C509.822 305.628 508.791 302.226 507.978 298.607C507.212 295.202 506.614 290.285 504.105 287.65C499.485 282.797 492.947 283.643 486.93 283.174L468.674 281.813L469.106 263.593C477.572 262.802 486.5 262.312 494.788 260.409C497.354 259.82 500.64 258.987 502.62 257.166C505.965 254.088 507.111 246.266 508.364 241.962C510.068 236.105 512.353 230.457 515.112 225.021C518.129 219.075 525.426 211.412 525.967 204.99C526.088 203.55 525.93 201.838 525.284 200.533C523.965 197.866 521.12 195.476 519.113 193.276L506.332 179.257C508.14 177.458 520.141 164.755 521.124 164.537C522.539 164.223 541.007 180.4 545.159 182.016C546.874 182.684 549.046 182.733 550.865 182.654C554.319 182.505 558.232 179.629 561.233 178.022C565.93 175.507 570.735 173.123 575.725 171.239C582.33 168.745 589.577 168.045 596.001 165.442C598.233 164.538 599.899 163.191 601.5 161.407L602.166 160.652C605.151 157.334 606.077 135.223 606.705 129.667L608.753 129Z"/>
	<path transform="scale(0.628906 0.628906)" d="M610.143 185.566C631.439 183.037 655.509 190.187 672.694 202.775C691.004 216.186 703.828 236.731 707.141 259.282C710.58 282.699 704.175 306.491 689.971 325.33C674.028 346.476 650.946 356.84 625.339 360.453C606.011 363.182 581.655 355.997 565.949 344.734C545.309 329.932 531.891 310.052 527.911 284.613C524.563 263.222 530.751 239.085 543.637 221.7C560.49 198.962 582.935 189.634 610.143 185.566Z"/>
	<path fill="#DAD9D9" transform="scale(0.628906 0.628906)" d="M614.425 208.924C628.446 207.6 645.062 212.404 656.299 220.717C670.556 231.262 680.998 246.562 683.419 264.38C685.527 279.897 681.638 296.905 672.132 309.426C659.573 325.967 642.313 334.385 622.083 337.276C606.079 337.568 591.68 334.282 578.584 324.797C564.747 314.775 554.341 299.233 551.807 282.189C549.368 265.788 553.387 248.559 563.491 235.273C575.965 218.869 594.579 211.474 614.425 208.924Z"/>
	<path fill="#DAD9D9" transform="scale(0.628906 0.628906)" d="M810.168 155.464L1071.31 155.488L1147.08 155.452C1161.35 155.362 1176.26 154.15 1190.46 155.657C1198.7 156.532 1205.97 158.673 1212.3 164.296C1219.76 170.922 1225.97 180.412 1226.36 190.667L1226.68 234.074L1226.63 320.605L1226.58 566.429L1226.9 715.795L1226.99 761.94C1227 771.574 1227.42 781.474 1226.43 791.062C1225.58 799.28 1221.34 806.952 1215.68 812.854C1208.57 820.249 1200.11 824.296 1189.91 825.342C1179.08 826.454 1167.64 825.844 1156.75 825.89L1094.46 825.971L898.345 825.985L453.423 825.97L194.266 826.484C178.289 826.755 162.322 825.819 150.27 813.976C141.328 805.189 138.048 794.191 138.016 782L138.405 669.06L138.252 374.21L138.039 250.673L137.983 213.51C137.979 205.204 137.599 196.627 138.724 188.386C139.83 180.286 144.206 172.037 150.002 166.335C155.44 160.984 161.897 157.979 169.385 156.792C179.977 155.114 191.254 155.815 201.965 155.824L250.837 155.867L426.867 156.038C409.25 182.501 398.505 210.907 392.775 242.052L390.357 263.881C388.208 312.375 401.133 358.174 428.785 398.112C435.464 407.759 443.163 416.638 451.077 425.28L355.338 519.762C345.684 514.83 336.428 512.006 325.811 509.998L325.912 460.299C329.768 459.188 333.627 458.104 337.225 456.295C350.477 449.634 361.283 437.924 365.954 423.733C370.201 410.831 369.528 396.129 363.278 384C356.36 370.575 343.927 360.184 329.5 355.773C315.931 351.624 299.698 353.106 287.181 359.867C274.154 366.902 264.758 378.064 260.551 392.273C256.617 405.555 257.485 420.082 264.23 432.346C272.92 448.146 285.616 455.541 302.326 460.463L302.531 510.417C290.069 513.028 277.655 517.088 267.121 524.465C249.713 536.657 236.491 556.211 232.811 577.191C228.146 603.793 236.827 625.224 252.01 646.63C239.437 654.675 228.375 663.636 218.683 675.06C204.205 692.125 195.135 715.012 192.895 737.167C192.268 743.367 192.59 749.681 192.499 755.905C192.395 762.992 192.006 770.186 192.643 777.258C192.986 781.069 194.637 784.359 197.618 786.734C200.337 788.899 203.414 789.684 206.832 789.932C220.973 790.957 235.897 790.015 250.106 790.017L338.894 790.009L399.377 790.009C408.245 790.017 417.8 791.078 426.562 789.969C430.62 789.456 433.575 787.383 435.93 784.118C439.498 779.171 438.453 769.875 438.437 764.039C438.403 752.079 438.609 739.708 436.466 727.907C430.09 692.797 408.153 666.142 379.402 646.434C388.868 633.49 396.332 620.93 398.863 604.752C401.933 585.127 396.722 563.34 385.464 547.033C382.245 542.369 378.121 538.335 374.787 533.714L468.512 441.07C482.141 451.066 495.715 461.355 510.854 469.018C575.718 501.848 656.32 503.168 722.157 471.958C729.671 468.397 736.918 464.279 744.113 460.12C744.191 460.075 745.606 459.249 745.613 459.251C746.382 459.477 751.127 465.388 752.044 466.333L784.41 499.179C791 505.975 797.741 514.651 805.377 520.176C807.609 521.791 809.746 522.597 812.479 522.748C815.802 522.931 818.587 522.251 821.06 519.894C823.54 517.531 825.132 514.124 825.087 510.667C825.06 508.512 824.364 506.097 823.116 504.333C818.234 497.428 810.644 491.585 804.642 485.577L764.509 444.99C775.975 433.292 788.428 421.873 799.061 409.463C815.938 389.766 828.85 362.848 836.01 338.021C848.888 293.369 848.416 243.761 831.943 200.063C826.079 184.508 818.156 169.998 810.168 155.464Z"/>
	<path transform="scale(0.628906 0.628906)" d="M980.609 258.538L1169.18 258.702L1169.05 282.022L980.475 282.249L980.609 258.538Z"/>
	<path transform="scale(0.628906 0.628906)" d="M980.539 310.699L1169.14 311.292L1169.15 334.716L980.456 334.731L980.539 310.699Z"/>
	<path transform="scale(0.628906 0.628906)" d="M980.484 204.7L1169.43 204.706L1169.23 228.714L980.434 228.731L980.484 204.7Z"/>
	<path transform="scale(0.628906 0.628906)" d="M879.899 199.447L923.576 199.708C930.096 199.706 937.79 198.539 944.11 199.812C949.28 200.853 951.362 202.995 954.161 207.195C955.776 218.626 954.45 231.598 954.479 243.216L954.57 264.333C954.581 267.979 955.084 272.579 953.763 276C952.198 280.054 949.262 281.713 945.556 283.447L877.663 283.262C874.736 281.194 872.843 279.056 870.738 276.167C869.095 266.784 870.271 255.493 870.192 245.906L869.891 222.667C869.81 217.597 869.043 211.041 870.936 206.26C872.252 202.937 876.842 200.772 879.899 199.447Z"/>
	<path fill="#5D9BCC" transform="scale(0.628906 0.628906)" d="M893.858 223.299L930.986 223.064L931.089 260.196L894.075 260.199L893.858 223.299Z"/>
	<path transform="scale(0.628906 0.628906)" d="M940.136 306.347C944.228 306.449 947.461 306.611 950.768 309.44C954.968 313.035 954.611 318.445 954.744 323.456L954.478 357.667C954.459 365.254 955.419 373.516 954.228 381.028C953.86 383.35 952.636 386.024 950.942 387.667C950.085 388.498 948.141 390.252 947.053 390.655C946.392 390.899 944.481 390.669 943.648 390.674L932.911 390.746L885.617 391.306C882.076 391.005 876.99 391.179 874.202 388.698C871.638 386.418 870.527 383.52 870.354 380.167L870.248 339.179C870.258 331.791 869.269 322.628 870.628 315.427C870.999 313.459 872.234 311.827 873.588 310.407C874.725 309.216 876.778 307.521 878.254 306.809C880.629 305.663 888.925 306.563 891.857 306.561L940.136 306.347Z"/>
	<path fill="#5D9BCC" transform="scale(0.628906 0.628906)" d="M893.868 330.595L930.517 330.578L930.471 367.276L893.788 367.286L893.868 330.595Z"/>
	<path transform="scale(0.628906 0.628906)" d="M812.481 704.168C820.915 703.486 875.774 702.585 880.739 704.45C883.88 705.631 886.841 708.476 888.179 711.547C888.958 713.333 889.329 715.317 889.474 717.251C889.852 722.29 889.201 727.552 889.209 732.624L889.252 769.271C889.168 773.381 889.563 779.526 887.993 783.34C886.418 787.167 882.943 788.742 879.393 790.226L836.383 790.613C828.923 790.688 818.345 792.071 811.315 789.878C808.146 788.889 805.215 787.289 803.75 784.156C801.391 779.111 802.36 771.746 802.378 766.245L802.401 737.121C802.367 731.159 801.671 725.051 801.985 719.12C802.122 716.537 802.433 713.629 803.501 711.263C805.29 707.305 808.719 705.725 812.481 704.168Z"/>
	<path fill="#5D9BCC" transform="scale(0.628906 0.628906)" d="M826.473 727.45L865.031 727.489L865.031 766.198L826.365 766.185L826.473 727.45Z"/>
	<path transform="scale(0.628906 0.628906)" d="M1013.88 359.449L1058.53 359.378C1066.51 359.254 1075.37 358.32 1083.26 359.577C1085.93 360.001 1088.22 360.992 1090.18 362.894C1091.88 364.551 1093 366.503 1093.45 368.832C1094.47 374.159 1093.73 380.976 1093.74 386.441L1093.78 426.958C1093.78 432.462 1094.14 438.286 1089.66 442.333C1083.79 447.619 1068.16 445.321 1060.82 445.04L1060.49 510.352C1071.97 512.932 1083.53 516.546 1093.39 523.132C1112.59 535.946 1125.75 555.738 1130.22 578.35C1135.42 604.669 1125.07 626.436 1110.73 647.7C1118.46 652.855 1126.26 658.308 1132.93 664.788C1154.64 685.853 1169.91 714.541 1170.37 745.245L1170.48 766.954C1170.5 770.877 1171.11 776.135 1169.92 779.9C1169.09 782.529 1167.74 784.514 1165.81 786.441C1163.33 788.931 1160.61 789.92 1157.18 790.412C1150.81 791.326 1143.24 790.294 1136.74 790.255L1083.9 790.011L975.438 790.196L951.479 790.272C946.927 790.35 941.741 791.098 937.258 790.365C933.395 789.733 930.078 787.533 927.918 784.281C924.978 779.853 925.751 772.889 925.765 767.751C925.806 753.55 926.276 739.281 929.172 725.333C936.113 691.891 959.078 665.63 986.94 647.27C978.427 637.118 971.767 625.312 968.323 612.476C962.97 592.529 966.634 569.881 977.074 552.165C990.917 528.674 1011.29 516.842 1037.13 510.26L1037.18 460.479C1037.18 456.467 1038.33 448.29 1036.81 445.029C1029.53 445.478 1020.78 446.829 1013.72 444.896C1010.32 443.965 1007.92 441.811 1006.22 438.767C1003.5 433.882 1003.74 372.74 1005.94 366.178C1007.1 362.724 1010.88 360.998 1013.88 359.449Z"/>
	<path fill="#5D9BCC" transform="scale(0.628906 0.628906)" d="M1029.08 383.437L1069.72 384.039L1069.73 412.725C1069.74 414.356 1070.24 418.768 1069.74 419.984C1069.53 420.489 1069.07 420.85 1068.74 421.283L1028.73 421.287L1029.08 383.437Z"/>
	<path fill="#DAD9D9" transform="scale(0.628906 0.628906)" d="M1046.07 533.522C1060.16 532.72 1075.26 537.876 1086.26 546.578C1097.88 555.772 1105.69 570.839 1107.31 585.469C1109.06 601.203 1104.41 616.888 1094.54 629.258C1084.02 642.446 1068.95 648.537 1052.57 650.413C1038.6 651.76 1023.85 646.346 1012.7 638.262C1001.55 630.182 993.126 617.041 990.975 603.372C988.376 586.854 992.096 571.011 1001.98 557.511C1012.7 542.862 1028.68 536.198 1046.07 533.522Z"/>
	<path fill="#5D9BCC" transform="scale(0.628906 0.628906)" d="M1007.03 663.764L1020.2 669.405C1043.33 678.388 1067.64 673.734 1089.57 664.101C1100.33 669.728 1110.02 675.807 1118.67 684.407C1132.09 697.751 1141.85 715.171 1144.87 733.986C1146.55 744.488 1146.22 755.373 1146.24 765.983L1099.4 765.974L949.963 765.995C949.738 753.325 949.713 740.326 952.986 728C960.801 698.573 981.553 678.635 1007.03 663.764Z"/>
	<path transform="scale(0.628906 0.628906)" d="M614.261 512.257L614.536 512.187C635.266 510.133 657.083 517.061 673.741 529.235C693.215 543.469 701.371 565.724 704.886 588.702L802.463 588.701L802.276 573.227C802.548 568.946 803.058 565.738 806.587 562.82C808.482 561.255 810.701 560.574 813.107 560.314C824.811 559.049 837.447 560.505 849.281 560.552C858.271 560.588 868.001 559.396 876.856 560.47C880.983 560.971 884.148 563.258 886.576 566.566C887.939 568.423 888.616 570.395 888.904 572.667C890.134 582.367 889.183 592.873 889.185 602.667C889.187 613.316 890.427 625.124 888.84 635.611C888.255 639.475 886.353 642.492 883.124 644.731C881.834 645.627 880.349 646.401 878.77 646.591C870.672 647.567 861.653 646.757 853.458 646.847L829.05 647.313C823.665 647.398 818.119 647.705 812.802 646.717C809.964 646.189 807.692 645.197 805.703 643.017C799.741 636.481 801.989 620.896 802.449 612.755L703.633 612.565C702.034 616.324 701.136 620.376 699.573 624.162C696.043 632.714 690.732 640.392 685.183 647.732C686.606 649.754 690.629 651.72 692.754 653.151L704.526 661.93C710.673 666.987 715.917 672.423 721.114 678.44L721.419 678.815C733.511 693.82 742.382 712.134 745.516 731.242C746.911 739.75 747.002 748.653 747.099 757.263C747.174 763.912 747.592 771.01 746.828 777.604C746.363 781.611 744.823 785.004 741.454 787.45C737.345 790.433 732.338 790.171 727.5 790.355L682.134 790.022L582.209 789.98L539.308 790.026C531.379 790.118 521.649 791.397 513.908 789.856C510.155 789.109 507.045 787.425 504.901 784.193C502.565 780.671 502.626 775.724 502.384 771.667C501.562 757.88 501.748 742.323 504.365 728.695C511.073 693.771 533.129 667.198 562.013 647.771C551.038 633.672 543.276 619.616 541.151 601.542C538.702 580.709 544.803 558.952 557.807 542.527C571.783 524.873 592.144 514.813 614.261 512.257Z"/>
	<path fill="#5D9BCC" transform="scale(0.628906 0.628906)" d="M826.542 584.243L865.134 584.293L865.002 622.917L826.449 623.283L826.542 584.243Z"/>
	<path fill="#DAD9D9" transform="scale(0.628906 0.628906)" d="M616.235 535.524C628.911 533.567 645.133 538.088 655.507 545.271C668.149 554.026 678.038 567.306 680.659 582.688C683.22 597.715 679.875 613.968 670.927 626.374C660.928 640.236 646.575 647.678 629.963 650.463C615.23 652.423 599.599 647.563 587.709 638.983C575.244 629.987 567.35 616.129 564.992 600.994C562.622 585.788 567.34 570.403 576.3 558.102C585.831 545.018 600.483 537.877 616.235 535.524Z"/>
	<path fill="#5D9BCC" transform="scale(0.628906 0.628906)" d="M582.404 663.779L595.567 670.05C617.95 679.305 642.128 673.73 663.461 664.667C666.289 665.215 669.401 667.079 671.95 668.406C680.994 673.114 689.847 679.512 696.983 686.817C711.796 701.981 720.942 722.483 722.953 743.544C723.654 750.89 723.212 758.603 723.145 765.988L678.168 765.973L526.536 766.193C526.455 753.781 525.98 741.24 528.823 729.062C533.844 707.559 547.267 688.152 564.84 674.9C570.291 670.789 576.58 667.358 582.404 663.779Z"/>
</svg>
