<?xml version="1.0" encoding="utf-8" ?>
<svg xmlns="http://www.w3.org/2000/svg" xmlns:xlink="http://www.w3.org/1999/xlink" width="637" height="404">
	<path fill="#FECB3A" transform="scale(0.590421 0.590421)" d="M141.226 366.23L141.688 366.493L141.688 367.812C141.935 370.028 143.728 370.732 145.394 372.03L143.788 372.759C141.685 373.78 141.383 374.679 140.695 376.776L140.01 376.957L138.428 374.924C137.008 374.084 135.327 374.846 133.828 374.14C134.244 373.583 136.284 370.984 136.244 370.448C136.141 369.049 134.695 368.681 135.264 367.012C136.491 367.438 137.68 367.764 138.955 368.015L141.226 366.23Z"/>
	<path fill="#FECB3A" transform="scale(0.590421 0.590421)" d="M76.1595 555.013L76.7181 554.842L80.0323 557.797L86.3638 555.78L82.7654 561.006C83.4402 562.697 85.1214 564.526 86.2207 566.018C85.1891 566.558 82.7995 565.692 81.5998 565.442L79.8926 565.373L76.3498 570.124L76.3142 563.584L69.6868 561.618C71.7812 560.963 74.1239 560.422 75.9745 559.232L76.1595 555.013Z"/>
	<path fill="#062452" transform="scale(0.590421 0.590421)" d="M137.677 237.283C142.679 236.886 148.583 237.658 153.246 235.749C155.052 238.526 157.475 240.642 159.886 242.876C155.261 243.702 150.262 244.433 145.573 244.279C142.479 244.176 140.117 243.422 137.999 241.12C137.395 239.635 137.272 238.844 137.677 237.283Z"/>
	<path fill="#FECB3A" transform="scale(0.590421 0.590421)" d="M38.0781 36.597C39.5679 38.9867 41.694 41.174 43.4992 43.343C45.7217 43.3554 49.4231 41.3948 51.5984 40.5939C51.0564 42.7694 48.4701 45.7985 47.2075 47.7653L52.5911 55.2464L45.9923 53.2277L44.5605 52.8016C42.54 53.4419 40.0177 58.006 38.6672 59.8439C38.7126 57.1062 38.9942 53.7212 37.8509 51.1991C35.8836 49.7344 32.6943 49.2316 30.3202 48.5886L38.1877 45.4174L38.0781 36.597Z"/>
	<path fill="#FECB3A" transform="scale(0.590421 0.590421)" d="M227.391 93.7489L233.453 100.355L240.9 98.0569L236.805 104.659L241.777 112.006L235.459 110.236C234.844 110.052 234.456 109.94 233.804 110.023C232.841 110.146 229.364 115.77 228.556 116.918L228.306 108.295L219.331 105.944L227.666 102.154C228.053 99.4416 227.592 96.4759 227.391 93.7489Z"/>
	<path fill="#062452" transform="scale(0.590421 0.590421)" d="M231.18 187.692C232.648 187.881 234.025 188.731 234.932 189.911C236.026 191.334 236.121 192.613 235.807 194.321C234.652 200.588 229.27 205.065 224.93 209.265L224.371 210.074L222.454 210.949C221.381 208.435 221.322 203.339 220.752 200.388L222.393 198.841C225.037 197.752 228.068 192.663 229.749 190.382L231.18 187.692Z"/>
	<path fill="#1B0D3C" transform="scale(0.590421 0.590421)" d="M222.393 198.841C224.661 201.284 224.708 206.047 224.93 209.265L224.371 210.074L222.454 210.949C221.381 208.435 221.322 203.339 220.752 200.388L222.393 198.841Z"/>
	<path fill="#062452" transform="scale(0.590421 0.590421)" d="M142.758 218.323L141.952 211.239C141.567 200.161 145.32 189.18 152.966 181.052C161.073 172.434 171.172 167.715 183.118 167.43C194.729 167.154 204.793 171.772 213.056 179.703L210.493 180.89C204.306 174.333 195.283 170.295 186.286 170.025C175.22 169.693 164.062 173.59 156.006 181.276C151.902 185.191 148.49 190.31 146.535 195.639C143.794 203.11 145.141 209.4 145.053 217.075L142.758 218.323Z"/>
	<path fill="#062452" transform="scale(0.590421 0.590421)" d="M222.454 210.949L224.371 210.074C223.805 221.484 219.73 231.368 211.182 239.129C204.041 245.613 194.276 250.367 184.475 249.871C175.839 249.434 168.703 247.826 161.193 243.376L163.407 242.036C165.286 241.995 167.067 241.28 168.801 240.618C171.091 239.998 173.288 239.399 175.438 238.38C182.207 239.136 188.275 239.587 194.789 237.116C204.31 233.505 209.302 226.594 213.244 217.657L218.18 215.119C219.78 213.808 221.173 212.581 222.454 210.949Z"/>
	<path fill="#7C4684" transform="scale(0.590421 0.590421)" d="M145.053 217.075C145.141 209.4 143.794 203.11 146.535 195.639C148.49 190.31 151.902 185.191 156.006 181.276C164.062 173.59 175.22 169.693 186.286 170.025C195.283 170.295 204.306 174.333 210.493 180.89L209.774 182.404C206.876 183.191 203.916 184.149 200.89 184.144L200.968 183.627L197.907 182.229C189.251 178.848 180.673 177.484 171.882 181.397C163.795 184.996 158.518 190.282 154.985 198.391L154.876 199.607C152.685 202.84 152.882 207.511 152.862 211.285L153.047 212.023L152.486 212.001L151.406 211.644C149.427 213.418 147.547 216.163 145.053 217.075Z"/>
	<path fill="#722973" transform="scale(0.590421 0.590421)" d="M152.862 211.285C152.016 210.977 151.485 210.72 150.772 210.14C150.637 206.819 151.056 203.578 151.994 200.386C154.672 191.271 160.04 184.695 168.39 180.139C175.687 176.158 185.305 175.384 193.271 177.774C195.79 178.53 200.553 180.042 201.834 182.456L200.968 183.627L197.907 182.229C189.251 178.848 180.673 177.484 171.882 181.397C163.795 184.996 158.518 190.282 154.985 198.391L154.876 199.607C152.685 202.84 152.882 207.511 152.862 211.285Z"/>
	<path fill="#88201D" transform="scale(0.590421 0.590421)" d="M215.72 204.32L220.752 200.388C221.322 203.339 221.381 208.435 222.454 210.949C221.173 212.581 219.78 213.808 218.18 215.119L213.244 217.657C209.302 226.594 204.31 233.505 194.789 237.116C188.275 239.587 182.207 239.136 175.438 238.38C173.288 239.399 171.091 239.998 168.801 240.618C167.067 241.28 165.286 241.995 163.407 242.036L161.193 243.376L159.886 242.876C157.475 240.642 155.052 238.526 153.246 235.749L155.517 235.066L160.25 233.461L163.977 232.315L175.87 227.47L179.501 225.498C180.45 225.533 182.706 224.133 183.627 223.701C188.493 221.417 193.537 219.046 198.052 216.111C202.709 213.084 206.996 209.471 211.911 206.859L214.001 205.476L214.099 205.097L215.72 204.32Z"/>
	<path fill="#1B0D3C" transform="scale(0.590421 0.590421)" d="M214.099 205.097L215.72 204.32C217.312 207.757 217.852 211.374 218.18 215.119L213.244 217.657C213.956 213.523 214.435 209.672 214.001 205.476L214.099 205.097Z"/>
	<path fill="#632944" transform="scale(0.590421 0.590421)" d="M215.72 204.32L220.752 200.388C221.322 203.339 221.381 208.435 222.454 210.949C221.173 212.581 219.78 213.808 218.18 215.119C217.852 211.374 217.312 207.757 215.72 204.32Z"/>
	<path fill="#C75A20" transform="scale(0.590421 0.590421)" d="M179.501 225.498C180.45 225.533 182.706 224.133 183.627 223.701C188.493 221.417 193.537 219.046 198.052 216.111C202.709 213.084 206.996 209.471 211.911 206.859C208.392 213.082 200.374 218.937 194.29 222.581C190.325 224.957 186.371 226.506 183.308 230.179L183.53 230.938L184.834 231.521L188.262 229.363L189.527 229.652C188.542 231.093 187.08 231.827 185.617 232.715C182.214 231.084 179.007 229.606 175.87 227.47L179.501 225.498Z"/>
	<path fill="#601E1A" transform="scale(0.590421 0.590421)" d="M175.87 227.47C179.007 229.606 182.214 231.084 185.617 232.715C189.016 234.041 192.403 234.63 195.979 235.238C192.818 236.361 189.514 237.492 186.152 237.759C183.654 237.958 175.978 236.368 174.302 237.631L175.438 238.38C173.288 239.399 171.091 239.998 168.801 240.618C167.067 241.28 165.286 241.995 163.407 242.036L161.193 243.376L159.886 242.876C157.475 240.642 155.052 238.526 153.246 235.749L155.517 235.066L160.25 233.461L163.977 232.315L175.87 227.47Z"/>
	<path fill="#1B0D3C" transform="scale(0.590421 0.590421)" d="M163.977 232.315C167.386 234.642 170.319 236.434 174.302 237.631L175.438 238.38C173.288 239.399 171.091 239.998 168.801 240.618C165.106 238.598 162.911 236.719 160.25 233.461L163.977 232.315Z"/>
	<path fill="#632944" transform="scale(0.590421 0.590421)" d="M155.517 235.066L160.25 233.461C162.911 236.719 165.106 238.598 168.801 240.618C167.067 241.28 165.286 241.995 163.407 242.036L161.193 243.376L159.886 242.876C157.475 240.642 155.052 238.526 153.246 235.749L155.517 235.066Z"/>
	<path fill="#1B0D3C" transform="scale(0.590421 0.590421)" d="M153.246 235.749L155.517 235.066L163.407 242.036L161.193 243.376L159.886 242.876C157.475 240.642 155.052 238.526 153.246 235.749Z"/>
	<path fill="#F7AB4A" transform="scale(0.590421 0.590421)" d="M154.985 198.391C158.518 190.282 163.795 184.996 171.882 181.397C180.673 177.484 189.251 178.848 197.907 182.229L200.968 183.627L200.89 184.144L200.931 184.506C198.398 185.226 198.111 186.952 196.784 189.124L196.716 189.492C189.075 199.321 179.642 207.139 167.168 209.973L164.143 210.668C162.031 210.921 159.81 211.34 157.69 211.377L156.922 211.515C155.899 211.893 154.552 212.209 153.855 213.069L153.047 212.023L152.862 211.285C152.882 207.511 152.685 202.84 154.876 199.607L154.985 198.391Z"/>
	<path fill="#FECB3A" transform="scale(0.590421 0.590421)" d="M154.985 198.391C157.084 197.342 158.218 196.92 160.576 197.312L161.793 198.623L161.735 199.86L154.876 199.607L154.985 198.391Z"/>
	<path fill="#E98730" transform="scale(0.590421 0.590421)" d="M196.784 189.124C195.292 187.552 193.681 186.532 191.987 185.229C190.992 184.463 191.022 184.542 190.847 183.247C193.218 180.993 192.844 182.276 195.381 182.546C196.044 182.617 197.216 182.315 197.907 182.229L200.968 183.627L200.89 184.144L200.931 184.506C198.398 185.226 198.111 186.952 196.784 189.124Z"/>
	<path fill="#FEE8A6" transform="scale(0.590421 0.590421)" d="M173.264 183.774L175.605 183.545L176.602 184.565C174.921 187.787 171.634 189.653 168.486 191.192L165.85 191.459L165.074 190.629C165.206 190.068 165.322 189.561 165.593 189.047C167.111 186.162 170.368 184.814 173.264 183.774Z"/>
	<path fill="#E98730" transform="scale(0.590421 0.590421)" d="M152.862 211.285C152.882 207.511 152.685 202.84 154.876 199.607L161.735 199.86L162.884 205.479C161.156 205.779 157.713 205.878 156.749 207.24C156.839 208.783 157.108 209.946 157.69 211.377L156.922 211.515C155.899 211.893 154.552 212.209 153.855 213.069L153.047 212.023L152.862 211.285Z"/>
	<path fill="#C7C6C5" transform="scale(0.590421 0.590421)" d="M219.907 179.851C222.958 179.656 227.037 179.084 229.601 181.185C230.531 181.946 231.335 183.065 231.446 184.291C231.545 185.392 231.328 186.601 231.18 187.692L229.749 190.382C228.068 192.663 225.037 197.752 222.393 198.841L220.752 200.388L215.72 204.32L214.099 205.097L214.001 205.476L211.911 206.859C206.996 209.471 202.709 213.084 198.052 216.111C193.537 219.046 188.493 221.417 183.627 223.701C182.706 224.133 180.45 225.533 179.501 225.498L175.87 227.47L163.977 232.315L160.25 233.461L155.517 235.066L153.246 235.749C148.583 237.658 142.679 236.886 137.677 237.283C137.182 236.302 136.694 235.661 135.92 234.879C135.553 234.508 135.541 234.266 135.433 233.746C134.907 231.232 136.067 229.257 137.391 227.248C138.909 224.132 142.1 221.869 142.758 218.323L145.053 217.075C147.547 216.163 149.427 213.418 151.406 211.644L152.486 212.001L153.047 212.023L153.855 213.069C154.552 212.209 155.899 211.893 156.922 211.515L157.69 211.377C159.81 211.34 162.031 210.921 164.143 210.668L167.168 209.973C179.642 207.139 189.075 199.321 196.716 189.492L196.784 189.124C198.111 186.952 198.398 185.226 200.931 184.506L200.89 184.144C203.916 184.149 206.876 183.191 209.774 182.404L210.493 180.89L213.056 179.703C215.345 180.267 217.581 180.014 219.907 179.851Z"/>
	<path fill="#3081C2" transform="scale(0.590421 0.590421)" d="M213.056 179.703C215.345 180.267 217.581 180.014 219.907 179.851C221.658 180.674 223.677 180.568 225.221 181.336C223.55 181.445 221.807 181.456 220.162 181.754C216.869 181.896 213.02 182.637 209.774 182.404L210.493 180.89L213.056 179.703Z"/>
	<path fill="#236FB6" transform="scale(0.590421 0.590421)" d="M225.221 181.336C227.009 181.84 227.3 182.131 228.604 183.481C229.166 185.308 228.5 187.058 227.984 188.835C224.478 194.373 219.523 197.946 214.892 202.437C214.424 202.068 214.312 201.952 214.014 201.402C214.765 199.401 217.446 197.687 219.03 196.24C220.841 194.587 222.426 192.626 223.747 190.561C224.937 188.701 225.625 187.071 225.108 184.829C223.649 183.008 222.325 182.502 220.162 181.754C221.807 181.456 223.55 181.445 225.221 181.336Z"/>
	<path fill="#236FB6" transform="scale(0.590421 0.590421)" d="M145.053 217.075C147.547 216.163 149.427 213.418 151.406 211.644L152.486 212.001L152.207 212.338C147.912 217.417 140.159 221.259 140.081 228.861C141.251 230.675 142.548 231.395 144.653 231.834C147.729 232.475 151.969 231.659 155.127 231.409C154.794 231.686 154.447 231.948 154.06 232.145C151.55 233.419 142.657 234.69 140.01 233.508C136.975 232.153 138.819 230.29 137.691 227.84L137.391 227.248C138.909 224.132 142.1 221.869 142.758 218.323L145.053 217.075Z"/>
	<path fill="#42A0CC" transform="scale(0.590421 0.590421)" d="M219.907 179.851C222.958 179.656 227.037 179.084 229.601 181.185C230.531 181.946 231.335 183.065 231.446 184.291C231.545 185.392 231.328 186.601 231.18 187.692L229.749 190.382C228.068 192.663 225.037 197.752 222.393 198.841L220.752 200.388L215.72 204.32L214.099 205.097C213.737 203.691 213.582 202.806 214.014 201.402C214.312 201.952 214.424 202.068 214.892 202.437C219.523 197.946 224.478 194.373 227.984 188.835C228.5 187.058 229.166 185.308 228.604 183.481C227.3 182.131 227.009 181.84 225.221 181.336C223.677 180.568 221.658 180.674 219.907 179.851Z"/>
	<path fill="#42A0CC" transform="scale(0.590421 0.590421)" d="M182.004 217.539C180.839 218.898 178.567 219.873 176.955 220.613C172.281 222.756 167.379 224.396 162.432 225.778C158.177 226.966 151.347 228.787 147.252 226.488C146.73 225.846 145.988 225.199 145.835 224.375C145.534 222.745 146.725 220.446 147.582 219.116C148.97 216.964 151.258 214.271 153.869 213.731L153.716 215.078C154.769 218.504 155.994 221.615 157.585 224.839L171.285 221.511L182.004 217.539Z"/>
	<path fill="#236FB6" transform="scale(0.590421 0.590421)" d="M157.585 224.839C155.393 225.032 153.551 225.239 151.429 224.515C150.436 223.268 150.187 222.988 150.201 221.377C150.225 218.553 151.781 216.933 153.716 215.078C154.769 218.504 155.994 221.615 157.585 224.839Z"/>
	<path fill="#42A0CC" transform="scale(0.590421 0.590421)" d="M155.127 231.409L155.222 231.239C159.501 230.649 163.045 228.98 167.116 227.755C168.902 227.217 170.691 227.163 172.441 226.698C174.765 226.08 177.104 224.554 179.501 225.498L175.87 227.47L163.977 232.315L160.25 233.461L155.517 235.066L153.246 235.749C148.583 237.658 142.679 236.886 137.677 237.283C137.182 236.302 136.694 235.661 135.92 234.879C135.553 234.508 135.541 234.266 135.433 233.746C134.907 231.232 136.067 229.257 137.391 227.248L137.691 227.84C138.819 230.29 136.975 232.153 140.01 233.508C142.657 234.69 151.55 233.419 154.06 232.145C154.447 231.948 154.794 231.686 155.127 231.409Z"/>
	<path fill="#42A0CC" transform="scale(0.590421 0.590421)" d="M202.064 185.286C205.584 183.876 211.557 182.824 215.171 184.266C217.024 185.006 218.088 185.879 219.281 187.465C219.277 190.959 217.086 193.719 214.72 196.078C211.073 199.716 207.263 203.022 202.883 205.747C202.093 206.238 200.844 207.195 199.882 207.183L199.437 207.158L202.638 204.535L204.692 202.86C207.43 200.992 209.697 198.96 211.789 196.389L210.224 193.955L207.994 190.615L205.853 188.455L205.129 187.287L202.064 185.286Z"/>
	<path fill="#236FB6" transform="scale(0.590421 0.590421)" d="M205.129 187.287C206.91 186.395 209.957 186.324 211.851 186.856C213.1 187.207 214.077 188.408 214.893 189.357C215.275 191.825 213.8 193.66 212.418 195.544L211.789 196.389L210.224 193.955L207.994 190.615L205.853 188.455L205.129 187.287Z"/>
	<path fill="#C75A20" transform="scale(0.590421 0.590421)" d="M200.931 184.506L202.064 185.286L205.129 187.287L205.853 188.455L207.994 190.615L210.224 193.955L211.789 196.389C209.697 198.96 207.43 200.992 204.692 202.86L202.638 204.535C201.78 202.388 201.834 198.409 200.31 196.888L199.343 197.759C197.22 199.447 195.098 200.851 192.731 202.173L200.571 194.968C199.898 193.099 197.946 191.09 196.716 189.492L196.784 189.124C198.111 186.952 198.398 185.226 200.931 184.506Z"/>
	<path fill="#B63C40" transform="scale(0.590421 0.590421)" d="M205.853 188.455L207.994 190.615L204.536 195.553L203.818 195.572L203.118 192.211C203.559 190.626 204.748 189.618 205.853 188.455Z"/>
	<path fill="#B63C40" transform="scale(0.590421 0.590421)" d="M210.224 193.955L211.789 196.389C209.697 198.96 207.43 200.992 204.692 202.86C205.146 198.894 207.525 196.699 210.224 193.955Z"/>
	<path fill="#DD782D" transform="scale(0.590421 0.590421)" d="M199.343 197.759L200.31 196.888C201.834 198.409 201.78 202.388 202.638 204.535L199.437 207.158C194.436 210.978 188.985 214.083 183.302 216.774C182.989 216.923 182.075 217.199 182.004 217.539L171.285 221.511C171.117 220.168 170.92 219.078 170.33 217.853L171.153 217.847C172.579 217.64 174.201 216.62 175.535 216.056C183.65 212.622 195.192 205.811 200.469 198.556L199.343 197.759Z"/>
	<path fill="#C75A20" transform="scale(0.590421 0.590421)" d="M157.69 211.377C159.81 211.34 162.031 210.921 164.143 210.668C165.262 211.782 166.485 212.487 166.625 214.095L164.093 216.468L169.405 217.073L170.33 217.853C170.92 219.078 171.117 220.168 171.285 221.511L157.585 224.839C155.994 221.615 154.769 218.504 153.716 215.078L153.869 213.731L153.855 213.069C154.552 212.209 155.899 211.893 156.922 211.515L157.69 211.377Z"/>
	<path fill="#DD782D" transform="scale(0.590421 0.590421)" d="M157.69 211.377C159.81 211.34 162.031 210.921 164.143 210.668C165.262 211.782 166.485 212.487 166.625 214.095L164.093 216.468L169.405 217.073C166.166 217.235 162.427 217.808 159.232 217.352L158.994 216.706L159.737 215.414C159.097 213.984 158.353 213.017 157.29 211.9L156.922 211.515L157.69 211.377Z"/>
	<path fill="#E98730" transform="scale(0.590421 0.590421)" d="M196.716 189.492C197.946 191.09 199.898 193.099 200.571 194.968L192.731 202.173C195.098 200.851 197.22 199.447 199.343 197.759L200.469 198.556C195.192 205.811 183.65 212.622 175.535 216.056C174.201 216.62 172.579 217.64 171.153 217.847L170.33 217.853L169.405 217.073L164.093 216.468L166.625 214.095C166.485 212.487 165.262 211.782 164.143 210.668L167.168 209.973C179.642 207.139 189.075 199.321 196.716 189.492Z"/>
	<path fill="#F7AB4A" transform="scale(0.590421 0.590421)" d="M189.894 203.285L190.636 203.304C189.523 204.951 187.778 206.145 186.23 207.368C180.981 211.512 175.934 214.214 169.541 216.224C169.065 216.07 168.636 215.867 168.183 215.657C168.352 215.28 168.427 214.846 168.689 214.527C169.777 213.203 173.795 212.156 175.498 211.421C180.548 209.242 185.186 206.093 189.894 203.285Z"/>
	<path transform="scale(0.590421 0.590421)" d="M329.738 475.7C332.348 473.177 335.205 470.032 338.543 468.533C341.195 467.341 344.156 467.141 346.511 465.323C351.079 461.797 355.101 457.393 359.496 453.628C365.362 448.603 371.711 444.335 378.02 439.911C382.124 437.033 385.902 433.613 390.062 430.851C396.139 426.816 403.331 424.094 410.312 422.096C408.076 418.247 405.8 414.516 404.352 410.283C403.467 407.697 403.004 403.598 401.702 401.306C400.984 400.042 396.923 399.297 395.543 398.193C389.35 393.24 393.111 376.075 395.017 368.986C395.625 366.723 396.739 364.542 398.879 363.388C400.705 362.403 403.4 362.197 405.429 361.945C405.636 361.919 407.149 361.822 407.252 361.734C408.363 360.782 409.783 357.133 410.646 355.725C412.443 352.793 414.535 350.072 416.877 347.554C432.848 330.385 460.817 321.858 483.287 330.051C498.928 335.755 512.5 347.273 519.419 362.564C520.714 365.428 521.77 368.482 522.554 371.524C522.758 372.316 523.374 376.132 523.784 376.565C525.248 378.114 529.233 378.393 531.073 380.182C535.877 384.851 532.397 401.867 530.278 407.611C529.235 410.44 527.097 413.13 524.35 414.455C521.971 415.603 518.336 415.242 516.235 416.475C515.041 417.176 512.285 422.388 511.311 423.787C508.132 428.35 503.953 432.017 499.903 435.787C506.783 434.636 513.979 433.885 520.958 433.95C527.577 434.011 533.903 435.426 540.484 433.906C541.371 434.518 543.543 436.396 544.482 436.664C545.443 436.938 549.027 436.056 550.214 435.964C556.618 435.469 568.659 436.213 571.507 443.22C571.323 446.748 570.155 448.853 567.547 451.162C565.067 453.36 562.078 454.874 558.951 455.918C554.826 457.296 550.38 457.155 546.431 458.419C545.656 458.666 545.002 459.164 544.219 459.376C542.784 459.765 541.094 459.493 539.583 459.845C528.303 462.467 516.842 465.936 505.343 467.489C505.307 474.887 505.274 482.171 504.337 489.526C502.738 502.075 499.078 514.165 494.243 525.819L487.229 539.54C484.105 544.706 480.74 550.594 476.899 555.247L464.479 569.361L450.878 581.5C449.147 583.028 446.427 584.709 445.148 586.548C444.531 587.435 444.124 590.143 443.839 591.252C442.021 598.323 440.077 604.654 435.257 610.372L431.922 612.408C430.098 613.348 428.391 613.689 426.402 613.024C420.616 611.088 418.641 604.082 416.305 599.132C406.162 591.781 397.424 583.274 389.045 573.982C387.277 583.626 385.931 594.016 378.165 600.942C375.958 602.911 372.712 604.521 369.668 604.239C367.235 604.014 364.98 602.497 363.46 600.663C357.733 593.755 356.198 580.699 357.077 571.965C357.57 567.068 359.703 564.871 363.365 561.863L364.469 549.374C361.476 547.586 356.367 547.396 352.914 546.464L338.662 541.979C313.477 533.399 291.025 518.231 270.886 501.131C256.238 488.693 243.56 473.198 230.431 459.186C216.307 444.112 200.508 429.953 183.593 418.107C178.839 414.778 172.933 410.176 167.317 408.568C164.68 407.813 162.057 408.296 159.696 409.609C158.967 410.427 158.602 410.973 158.433 412.074C158.257 413.22 157.904 414.091 157.412 415.133C155.6 413.914 154.616 413.852 152.51 413.982C151.771 414.447 150.967 414.868 150.382 415.526C153.955 419.533 160.758 428.093 160.321 433.695C160.216 435.04 159.703 435.505 158.659 436.365C156.896 437.815 153.028 437.162 150.929 436.838L146.947 436.159C145.798 438.744 144.519 440.914 145.561 443.754C147.348 448.624 151.619 451.057 156.151 453.058L159.975 454.686C148.355 454.383 137.649 451.609 129.338 442.815C127.467 440.835 125.816 438.563 124.663 436.087L122.568 431.625C121.429 431.083 120.016 430.328 118.743 430.235C116.459 430.068 114.332 431.056 112.181 431.678C108.494 432.743 104.668 433.711 100.876 434.321C99.2608 434.58 96.7447 434.976 95.2231 434.157C93.5026 433.231 92.0715 430.529 91.0278 428.941L84.2313 418.124C82.7939 415.69 81.5825 413.081 79.7289 410.926C75.7667 406.319 70.1637 403.011 65.5995 398.999C55.8678 390.444 47.181 380.762 39.5952 370.267C36.1109 365.446 32.4288 360.183 30.2157 354.629C29.9802 354.038 29.8921 353.4 29.8444 352.77C31.1845 351.492 32.4251 351.459 34.2773 351.482C49.7283 351.678 66.9951 357.075 80.9297 363.542L89.3483 367.348C91.3173 368.353 93.6 370.003 95.7906 370.392C97.7733 370.744 100.479 370.24 102.503 370.066L117.482 368.455C124.583 376.983 127.858 389.533 137.001 396.273C143.307 395.069 149.446 394.525 155.76 396.067C162.186 397.636 167.499 401.339 172.958 404.881L187.139 414.083C199.822 422.657 212.083 432.699 223.065 443.375L266.821 488.62C279.092 500.308 292.585 510.745 307.225 519.302C314.75 523.701 322.826 527.719 330.908 531L349.97 538.145C350.396 538.719 352.058 539.105 352.757 539.359L365.469 543.451C366.618 539.343 367.573 535.266 367.865 531L369.051 526.782L371.214 517.346C368.949 516.024 366.549 515.098 364.31 513.666C354.978 507.698 347.949 501.249 340.603 493.037L333.752 493.877C331.932 493.646 328.599 493.57 327.05 492.676C325.872 491.997 324.316 490.201 324.002 488.876C323.172 485.375 325.319 481.986 327.053 479.146L329.738 475.7ZM122.568 431.625L124.663 436.087L125.056 436.368C128.04 438.547 130.312 441.536 133.018 444.032C138.609 449.19 146.953 452.222 154.222 454.204L147.166 448.602L146.029 446.924C143.702 443.47 144.509 440.291 144.866 436.365L143.477 435.443C143.166 434.884 142.936 434.526 142.384 434.174C140.388 432.904 134.892 430.499 132.627 431.004L131.856 434.255L131.045 434.709L122.568 431.625Z"/>
	<path fill="#95C1C7" transform="scale(0.590421 0.590421)" d="M395.414 431.296C396.652 430.683 396.872 430.358 398.214 430.805C400.772 431.656 402.969 433.573 404.888 435.415C403.994 435.549 403.269 435.448 402.391 435.248C400.012 434.709 396.688 433.293 395.414 431.296Z"/>
	<path fill="#497B88" transform="scale(0.590421 0.590421)" d="M355.338 477.288C356.322 479.287 357.717 482.096 357.258 484.351L355.693 485.554C354.473 485.19 354.174 484.511 353.6 483.413C353.001 482.267 352.66 480.906 352.292 479.667L355.338 477.288Z"/>
	<path fill="#FEFEFE" transform="scale(0.590421 0.590421)" d="M150.382 415.526L150.093 415.526C148.375 413.957 146.129 412.286 144.99 410.262C145.825 409.157 146.405 409.039 147.656 408.501C149.661 409.397 151.219 412.205 152.51 413.982C151.771 414.447 150.967 414.868 150.382 415.526Z"/>
	<path fill="#95C1C7" transform="scale(0.590421 0.590421)" d="M401.395 428.817C403.195 428.148 404.967 427.358 406.921 427.4C409.655 428.814 411.275 430.026 412.833 432.734L411.571 432.852C410.289 432.838 402.279 429.704 401.395 428.817Z"/>
	<path fill="#5B848C" transform="scale(0.590421 0.590421)" d="M523.688 380.776L523.56 384.95C525.509 386.749 528.205 387.923 530.754 388.601L530.268 393.213C528.332 391.024 525.627 389.713 522.993 388.584C523.004 386.199 522.627 382.905 523.688 380.776Z"/>
	<path fill="#95C1C7" transform="scale(0.590421 0.590421)" d="M398.187 368.615C399.424 366.978 400.219 365.961 402.18 365.175C403.589 365.144 404.661 365.262 406.003 365.702C406.377 367.259 405.745 368.725 405.307 370.219C403.013 370.239 399.885 370.162 398.187 368.615Z"/>
	<path fill="#F2B2A5" transform="scale(0.590421 0.590421)" d="M546.41 440.793C546.466 440.211 546.635 439.702 546.798 439.143C551.407 437.207 557.609 438.284 562.306 439.467C557.381 440.297 551.347 441.605 546.41 440.793Z"/>
	<path fill="#062452" transform="scale(0.590421 0.590421)" d="M403.051 549.008L415.784 552.595C411.549 553.635 406.044 553.304 401.801 552.377C401.613 551.118 402.442 550.056 403.051 549.008Z"/>
	<path fill="#5B848C" transform="scale(0.590421 0.590421)" d="M542.827 448.08L546.76 448.183C546.851 450.728 546.63 453.632 545.64 455.992C544.383 456.633 544.357 456.746 542.9 456.439C542.338 453.918 542.777 450.682 542.827 448.08Z"/>
	<path fill="#143C5E" transform="scale(0.590421 0.590421)" d="M527.295 407.575C527.162 408.073 527.05 408.504 526.769 408.943C524.717 412.147 520.91 412.535 517.5 413.171L519.164 407.696C521.962 408.21 524.492 407.88 527.295 407.575Z"/>
	<path fill="#5B848C" transform="scale(0.590421 0.590421)" d="M520.812 402.112L521.292 402.301C523.251 403.065 525.112 403.194 527.126 403.67C527.368 404.351 527.513 404.938 527.596 405.656L527.295 407.575C524.492 407.88 521.962 408.21 519.164 407.696L520.812 402.112Z"/>
	<path fill="#95C1C7" transform="scale(0.590421 0.590421)" d="M523.688 380.776C525.227 380.468 526.934 380.866 528.235 381.848C530.221 383.349 530.588 386.307 530.754 388.601C528.205 387.923 525.509 386.749 523.56 384.95L523.688 380.776Z"/>
	<path fill="#6FAFB6" transform="scale(0.590421 0.590421)" d="M542.827 448.08C542.391 446.084 541.997 443.997 541.339 442.063C540.75 440.333 539.331 438.202 539.736 436.41C541.061 436.221 541.273 436.182 542.377 436.97C545.047 438.873 546.08 445.146 546.76 448.183L542.827 448.08Z"/>
	<path fill="#497B88" transform="scale(0.590421 0.590421)" d="M521.882 396.914C524.379 397.142 526.659 397.547 529.081 398.194L527.596 405.656C527.513 404.938 527.368 404.351 527.126 403.67C525.112 403.194 523.251 403.065 521.292 402.301L520.812 402.112L521.882 396.914Z"/>
	<path fill="#F2B2A5" transform="scale(0.590421 0.590421)" d="M327.354 486.119C327.891 483.875 329.209 481.468 330.63 479.67C332.967 476.711 338.574 470.716 342.472 470.376C342.992 470.33 343.531 471.015 343.925 471.355C341.868 474.303 338.322 475.484 335.586 477.684C332.519 480.15 330.415 483.164 328.278 486.416L327.354 486.119Z"/>
	<path fill="#6FAFB6" transform="scale(0.590421 0.590421)" d="M522.993 388.584C525.627 389.713 528.332 391.024 530.268 393.213L529.081 398.194C526.659 397.547 524.379 397.142 521.882 396.914L522.993 388.584Z"/>
	<path fill="#5B848C" transform="scale(0.590421 0.590421)" d="M403.295 446.796L404.515 454.373L398.939 457.153L396.665 448.189C398.918 447.852 401.145 447.58 403.295 446.796Z"/>
	<path fill="#6FAFB6" transform="scale(0.590421 0.590421)" d="M352.292 479.667C351.089 477.802 349.882 475.891 348.466 474.179C347.373 472.858 345.073 470.948 344.933 469.323C346.2 468.553 347.333 467.72 348.838 467.551C351.65 470.353 353.495 473.819 355.338 477.288L352.292 479.667Z"/>
	<path fill="#497B88" transform="scale(0.590421 0.590421)" d="M408.995 440.905L411.759 448.494L405.814 453.693C405.358 450.286 404.729 446.836 403.521 443.605C405.53 443.05 407.219 441.962 408.995 440.905Z"/>
	<path fill="#5B848C" transform="scale(0.590421 0.590421)" d="M455.856 438.063L463.125 438.496L461.965 446.684L454.54 445.831L455.856 438.063Z"/>
	<path fill="#6FAFB6" transform="scale(0.590421 0.590421)" d="M366.322 561.869C368.117 561.859 369.977 564.143 371.514 565.224C373.128 566.359 374.955 567.233 376.834 567.833C378.497 568.365 380.057 568.583 381.797 568.427C383.426 568.281 386.515 567.408 387.777 568.197L386.807 569.399C385.104 570.429 383.254 570.774 381.3 570.951C376.362 571.398 372.098 569.993 368.394 566.706C366.67 565.175 366.468 564.1 366.322 561.869Z"/>
	<path fill="#143C5E" transform="scale(0.590421 0.590421)" d="M430.947 551.849C431.764 551.611 432.12 551.608 432.936 551.849C432.704 552.252 432.515 552.572 432.158 552.88C430.363 554.429 427.779 554.988 425.544 555.552C417.636 557.549 409.177 558.026 401.045 557.535L399.463 556.948L399.736 555.541C401.768 554.102 405.832 555.726 408.403 555.889C416.173 556.38 423.599 554 430.947 551.849Z"/>
	<path fill="#6FAFB6" transform="scale(0.590421 0.590421)" d="M403.521 443.605C400.906 439.087 397.63 436.377 393.427 433.464L393.398 432.673L395.414 431.296C396.688 433.293 400.012 434.709 402.391 435.248C403.269 435.448 403.994 435.549 404.888 435.415C406.587 437.168 407.9 438.715 408.995 440.905C407.219 441.962 405.53 443.05 403.521 443.605Z"/>
	<path fill="#6FAFB6" transform="scale(0.590421 0.590421)" d="M427.209 567.669C428.233 567.549 428.154 567.56 428.974 568.197C430.447 573.212 434.466 577.776 439.372 579.698C441.408 580.496 443.646 580.811 445.342 582.265L444.814 583.107C440.152 583.536 435.817 581.947 432.025 579.185C428.913 576.917 426.709 573.261 426.22 569.444C426.125 568.708 426.763 568.236 427.209 567.669Z"/>
	<path fill="#497B88" transform="scale(0.590421 0.590421)" d="M395.347 383.978L402.449 383.968C402.313 387.022 402.617 395.417 400.781 397.434C399.036 396.837 397.437 395.855 396.299 394.367C394.186 391.605 395.08 387.234 395.347 383.978Z"/>
	<path fill="#6FAFB6" transform="scale(0.590421 0.590421)" d="M412.833 432.734C413.4 433.334 413.867 433.959 414.201 434.722C415.955 438.736 414.392 443.068 412.919 446.864C410.021 439.046 405.847 435.291 400.247 429.527L401.395 428.817C402.279 429.704 410.289 432.838 411.571 432.852L412.833 432.734Z"/>
	<path fill="#88201D" transform="scale(0.590421 0.590421)" d="M350.988 480.701L353.02 485.801C346.312 488.247 340.248 490.162 333.067 490.615C331.769 490.698 329.781 491.04 328.589 490.463C327.742 490.053 327.507 489.299 327.045 488.512L327.047 487.256C334.822 488.907 344.328 484.594 350.988 480.701Z"/>
	<path fill="#C75A20" transform="scale(0.590421 0.590421)" d="M136.306 424.762C141.879 427.823 151.461 433.339 157.917 432.886L158.378 431.886C158.679 432.224 158.549 433.738 158.561 434.255C158.02 434.897 157.643 435.207 156.848 435.515C150.603 437.933 139.433 431.559 133.666 428.763L136.306 424.762Z"/>
	<path fill="#6FAFB6" transform="scale(0.590421 0.590421)" d="M398.187 368.615C399.885 370.162 403.013 370.239 405.307 370.219L402.449 383.968L395.347 383.978C396.262 378.945 396.456 373.42 398.187 368.615Z"/>
	<path fill="#6FAFB6" transform="scale(0.590421 0.590421)" d="M396.665 448.189C394.96 445.855 393.112 443.631 390.894 441.76C389.346 440.455 387.11 439.42 385.897 437.847L391.298 434.017C397.342 437.588 400.05 440.677 403.295 446.796C401.145 447.58 398.918 447.852 396.665 448.189Z"/>
	<path fill="#88201D" transform="scale(0.590421 0.590421)" d="M567.986 442.963C568.671 444.311 568.939 444.55 568.444 446.073C567.478 449.044 563.795 451.102 561.156 452.317C556.601 454.415 552.202 455.113 547.258 455.643L547.939 449.119L551.194 448.916C556.478 448.514 564.334 447.231 567.986 442.963Z"/>
	<path fill="#5B848C" transform="scale(0.590421 0.590421)" d="M479.291 520.412C482.647 522.081 488.08 523.959 490.794 526.375L486.264 535.722L474.589 528.827L479.291 520.412Z"/>
	<path fill="#B63C40" transform="scale(0.590421 0.590421)" d="M562.306 439.467C564.292 440.092 566.659 440.747 567.833 442.639L567.986 442.963C564.334 447.231 556.478 448.514 551.194 448.916L547.939 449.119L546.41 440.793C551.347 441.605 557.381 440.297 562.306 439.467Z"/>
	<path fill="#95C1C7" transform="scale(0.590421 0.590421)" d="M108.844 371.029L116.606 370.4L128.83 389.875L122.841 386.078L99.5786 371.751L108.844 371.029Z"/>
	<path fill="#5B848C" transform="scale(0.590421 0.590421)" d="M417.683 428.532C423.15 430.455 428.501 432.628 434.108 434.138C440.658 435.902 447.178 436.81 453.878 437.742C454.541 439.394 453.503 443.57 453.274 445.466C443.646 443.123 433.411 440.136 425.018 434.712C422.402 433.021 420.01 430.607 417.683 428.532Z"/>
	<path fill="#B63C40" transform="scale(0.590421 0.590421)" d="M343.925 471.355C347.023 473.808 349.086 477.288 350.988 480.701C344.328 484.594 334.822 488.907 327.047 487.256L327.354 486.119L328.278 486.416C330.415 483.164 332.519 480.15 335.586 477.684C338.322 475.484 341.868 474.303 343.925 471.355Z"/>
	<path fill="#062452" transform="scale(0.590421 0.590421)" d="M395.175 562.357L397.354 560.014C404.497 560.574 411.898 561.212 419.004 559.989C421.435 559.57 423.936 559.196 426.313 558.533C427.655 558.158 429.272 557.385 430.651 557.369C427.923 561.838 425.298 565.647 421.217 569.034C419.366 567.73 415.603 567.667 413.317 567.106L395.175 562.357Z"/>
	<path fill="#95C1C7" transform="scale(0.590421 0.590421)" d="M413.906 448.282C411.45 458.911 399.893 469.303 390.946 474.963L386.593 477.258C387.861 473.14 389.379 468.235 392.05 464.812C395.432 460.479 400.913 458.458 405.31 455.39C408.368 453.256 411.143 450.779 413.906 448.282Z"/>
	<path fill="#88201D" transform="scale(0.590421 0.590421)" d="M425.619 576.918C430.978 581.341 435.241 584.773 442.265 586.117C440.303 594.243 438.27 605.026 430.833 609.974C429.15 610.248 427.72 610.526 426.268 609.454L423.805 607.41C427.159 605.632 430.346 603.379 432.158 599.938C432.877 598.572 435.744 591.856 435.417 590.419C435.23 589.596 433.057 587.444 432.449 586.814C429.82 584.085 426.81 581.142 425.75 577.405L425.619 576.918Z"/>
	<path fill="#88201D" transform="scale(0.590421 0.590421)" d="M366.569 569.127C370.507 571.101 374.648 573.478 379.187 573.388C381.471 573.343 383.905 572.613 386.137 572.132C384.787 581.955 383.379 593.767 374.897 600.31C373.404 601.462 371.314 601.751 369.492 601.448C368.385 601.264 367.58 600.825 366.676 600.187C371.717 596.674 375.996 592.083 377.9 586.144C378.47 584.365 379.333 581.641 378.919 579.78C377.79 574.702 369.196 574.475 366.765 569.548L366.569 569.127Z"/>
	<path fill="#6FAFB6" transform="scale(0.590421 0.590421)" d="M81.4569 411.622C89.8148 415.344 97.9984 420.328 106.094 424.63C107.764 425.518 112.87 427.633 113.643 429.167L112.133 429.914L96.6127 432.959C93.8525 432.064 83.7125 415.055 81.4569 411.622Z"/>
	<path fill="#F7AB4A" transform="scale(0.590421 0.590421)" d="M136.306 424.762L143.728 411.53L146.793 414.414C151.415 419.038 156.077 424.008 158.121 430.359L158.378 431.886L157.917 432.886C151.461 433.339 141.879 427.823 136.306 424.762Z"/>
	<path fill="#FEE8A6" transform="scale(0.590421 0.590421)" d="M146.793 414.414C151.415 419.038 156.077 424.008 158.121 430.359C156.216 430.483 154.938 430.193 153.264 429.276C151.779 428.462 144.529 423.329 144.271 421.536C143.997 419.628 145.667 415.96 146.793 414.414Z"/>
	<path fill="#B63C40" transform="scale(0.590421 0.590421)" d="M403.051 549.008L410.183 538.019C415.166 540.398 419.977 542.729 425.328 544.188C428.635 545.09 432.473 545.267 435.587 546.611C429.865 549.174 422.143 553.071 415.784 552.595L403.051 549.008Z"/>
	<path fill="#5B848C" transform="scale(0.590421 0.590421)" d="M483.697 445.915C482.417 445.767 481.463 445.737 480.205 445.975C477.076 446.566 466.734 447.702 464.191 446.061C463.793 443.489 464.334 440.933 464.733 438.39L486.323 436.77C488.913 436.56 493.872 435.514 495.99 436.866L496.039 438.474C494.903 440.14 493.563 441.386 492.079 442.733C490.068 444.509 486.36 445.347 483.751 445.935L483.697 445.915Z"/>
	<path fill="#6FAFB6" transform="scale(0.590421 0.590421)" d="M122.568 431.625L131.045 434.709L131.856 434.255L132.627 431.004C134.892 430.499 140.388 432.904 142.384 434.174C142.936 434.526 143.166 434.884 143.477 435.443L144.866 436.365C144.509 440.291 143.702 443.47 146.029 446.924L147.166 448.602L154.222 454.204C146.953 452.222 138.609 449.19 133.018 444.032C130.312 441.536 128.04 438.547 125.056 436.368L124.663 436.087L122.568 431.625ZM147.166 448.602L146.029 446.924C143.702 443.47 144.509 440.291 144.866 436.365L143.477 435.443C140.765 435.622 140.047 435.952 137.772 437.419C137.351 440.557 140.133 443.885 141.833 446.347L147.166 448.602Z"/>
	<path fill="#FEFEFE" transform="scale(0.590421 0.590421)" d="M145.878 396.248L147.753 396.07C158.764 395.901 166.683 402.009 174.05 409.363C170.001 407.827 166.494 407.004 162.158 406.67C158.586 407.197 158.932 409.785 156.621 411.434L154.775 409.793L152.93 411.443C151.261 411.018 150.41 407.519 148.711 406.254L146.602 406.892C145.002 406.094 145.907 405.328 145.441 403.934C144.746 401.856 140.455 398.527 138.803 396.945L145.878 396.248Z"/>
	<path fill="#95C1C7" transform="scale(0.590421 0.590421)" d="M540.364 447.797C540.685 450.639 540.5 453.566 540.447 456.423L505.41 464.479L503.924 454.225L539.736 449.164L540.364 447.797Z"/>
	<path fill="#B63C40" transform="scale(0.590421 0.590421)" d="M423.805 607.41C419.646 602.103 417.535 593.292 417.411 586.653C417.281 579.676 418.955 576.001 423.69 571.036L425.619 576.918L425.75 577.405C426.81 581.142 429.82 584.085 432.449 586.814C433.057 587.444 435.23 589.596 435.417 590.419C435.744 591.856 432.877 598.572 432.158 599.938C430.346 603.379 427.159 605.632 423.805 607.41Z"/>
	<path fill="#95C1C7" transform="scale(0.590421 0.590421)" d="M394.391 447.14C396.016 450.11 397.082 453.394 397.357 456.78L359.338 481.241C358.02 480.432 356.3 475.51 355.656 473.931C369.742 468.225 383.107 457.222 394.391 447.14Z"/>
	<path fill="#B63C40" transform="scale(0.590421 0.590421)" d="M366.676 600.187L365.733 598.912C361.481 592.938 358.341 579.107 359.823 571.833C360.311 569.441 361.01 567.572 363.076 566.163C364.697 566.568 365.466 567.905 366.569 569.127L366.765 569.548C369.196 574.475 377.79 574.702 378.919 579.78C379.333 581.641 378.47 584.365 377.9 586.144C375.996 592.083 371.717 596.674 366.676 600.187Z"/>
	<path fill="#95C1C7" transform="scale(0.590421 0.590421)" d="M454.244 447.095L461.794 447.808L446.268 507.215L438.872 505.171L454.244 447.095Z"/>
	<path fill="#95C1C7" transform="scale(0.590421 0.590421)" d="M397.535 526.796L407.766 536.025L399.178 549.124C396.065 554.361 393.456 561.997 389.095 566.162C381.437 566.94 375.711 567.15 369.453 562.012C368.242 561.017 367.347 560.097 366.594 558.705L366.707 556.485L366.901 556.832C369.515 560.386 376.136 560.677 380.098 561.276C391.137 553.139 395.442 539.853 397.535 526.796Z"/>
	<path fill="#FEFEFE" transform="scale(0.590421 0.590421)" d="M503.924 454.225L499.311 439.157C500.73 438.391 503.553 438.48 505.177 438.317C515.954 437.237 525.992 437.264 536.806 437.952C538.851 440.552 539.635 444.612 540.364 447.797L539.736 449.164L503.924 454.225Z"/>
	<path fill="#88201D" transform="scale(0.590421 0.590421)" d="M33.1584 355.56C37.9027 356.987 41.8723 362.122 45.7396 365.132L64.941 379.678C70.8091 384.122 76.6215 388.751 83.1293 392.247C79.113 396.59 75.5347 398.765 69.8355 400.171C68.6638 399.534 67.5733 398.786 66.5473 397.935C63.5268 395.429 60.7905 392.234 58.0884 389.381C51.5101 382.434 45.3936 375.211 39.7242 367.502C37.4382 364.394 33.5402 359.421 33.1584 355.56Z"/>
	<path fill="#FEFEFE" transform="scale(0.590421 0.590421)" d="M355.656 473.931L349.735 466.251L384.545 439.186C388.752 441.394 391.303 443.59 394.391 447.14C383.107 457.222 369.742 468.225 355.656 473.931Z"/>
	<path fill="#143C5E" transform="scale(0.590421 0.590421)" d="M395.175 562.357L413.317 567.106C415.603 567.667 419.366 567.73 421.217 569.034C418.826 571.92 416.537 574.827 415.47 578.48C413.428 585.47 415.453 592.123 416.305 599.132C406.162 591.781 397.424 583.274 389.045 573.982C389.996 569.676 392.815 566.004 395.175 562.357Z"/>
	<path fill="#143C5E" transform="scale(0.590421 0.590421)" d="M174.323 408.3C181.017 411.058 187.159 415.751 192.981 420.003C203.564 427.731 213.118 435.774 222.406 445.033C240.735 463.308 257.283 483.737 277.264 500.274C296.442 516.147 318.044 528.856 341.321 537.688C346.013 539.468 350.957 540.78 355.792 542.121C358.671 542.92 361.546 543.343 364.131 544.922L364.131 546.325C363.566 546.51 363.154 546.662 362.549 546.633C359.6 546.492 356.094 545.325 353.238 544.538C345.93 542.525 338.717 540.171 331.766 537.141C304.161 525.102 279.976 508.03 258.632 486.819L242.38 469.059L210.718 437.249C204.413 431.281 197.402 425.794 190.39 420.684C184.743 416.569 179.39 413.193 174.323 408.3Z"/>
	<path fill="#95C1C7" transform="scale(0.590421 0.590421)" d="M495.03 441.54L497.021 439.976C498.397 441.21 498.589 442.754 499.075 444.506C501.029 451.545 501.859 459.483 502.267 466.758C503.381 486.601 497.682 506.358 491.594 525.007L480.048 519.103C483.348 513.754 485.47 507.506 487.4 501.562C491.049 490.326 493.682 479.047 494.672 467.255C495.388 458.74 495.082 450.079 495.03 441.54Z"/>
	<path fill="#6FAFB6" transform="scale(0.590421 0.590421)" d="M85.6226 393.989C89.1241 396.564 92.8561 398.688 96.5229 401.006C98.5264 402.273 100.808 404.09 103.123 404.649C103.721 408.494 104.858 411.652 108.079 414.048C110.936 416.174 114.877 417.109 118.389 416.485C119.577 416.274 120.746 415.817 121.865 415.376C125.876 418.923 131.451 419.853 136.137 422.033L129.66 432.514C109.317 424.53 89.6734 416.171 72.3388 402.596C73.5495 401.41 76.4553 400.66 78.0501 399.835C80.9351 398.342 83.3338 396.264 85.6226 393.989Z"/>
	<path fill="#DA6665" transform="scale(0.590421 0.590421)" d="M340.603 493.037C344.686 492.058 348.666 490.748 352.666 489.481C354.065 489.038 356.518 488.603 357.717 487.875C358.989 487.103 359.913 485.057 361.378 484.119C363.764 482.591 366.536 481.61 369.025 480.232L385.647 470.611L371.214 517.346C368.949 516.024 366.549 515.098 364.31 513.666C354.978 507.698 347.949 501.249 340.603 493.037Z"/>
	<path fill="#95C1C7" transform="scale(0.590421 0.590421)" d="M474.589 528.827C464.221 524.564 454.203 520.352 443.416 517.161C422.141 510.868 400.085 508.156 378.206 504.96L380.502 497.231C414.892 499.645 447.289 507.857 479.291 520.412L474.589 528.827Z"/>
	<path fill="#B63C40" transform="scale(0.590421 0.590421)" d="M33.1584 355.56L32.2329 354.101L32.959 353.361C35.9243 353.275 38.7671 353.162 41.7015 353.715C46.2859 354.502 50.3902 355.795 54.8438 357.009C62.597 359.123 69.896 361.107 77.4273 364.021C80.1969 365.093 85.1823 366.593 86.8089 369.176C87.7506 370.671 88.1387 372.785 88.3745 374.501C87.9664 381.408 86.9048 386.296 83.1293 392.247C76.6215 388.751 70.8091 384.122 64.941 379.678L45.7396 365.132C41.8723 362.122 37.9027 356.987 33.1584 355.56Z"/>
	<path fill="#F2B2A5" transform="scale(0.590421 0.590421)" d="M88.3745 374.501C87.6569 374.56 86.9118 374.548 86.2207 374.321C81.7386 372.85 77.0598 369.735 72.7664 367.682C64.7839 363.866 56.5542 360.618 48.231 357.632C46.7669 357.106 38.2326 354.665 37.7051 353.739L41.7015 353.715C46.2859 354.502 50.3902 355.795 54.8438 357.009C62.597 359.123 69.896 361.107 77.4273 364.021C80.1969 365.093 85.1823 366.593 86.8089 369.176C87.7506 370.671 88.1387 372.785 88.3745 374.501Z"/>
	<path fill="#95C1C7" transform="scale(0.590421 0.590421)" d="M495.009 339.375C506.417 344.908 514.953 358.125 518.927 369.838C523.468 383.223 520.949 401.026 514.639 413.522C512.203 418.347 504.161 430.471 498.604 432.255C492.763 434.129 486.919 434.636 480.849 435.111C464.619 436.38 449.102 434.755 433.434 430.387C436.28 429.419 439.459 429.314 442.422 428.88C449.032 427.911 454.828 425.573 459.98 421.283C472.823 422.55 486.442 421.864 498.096 415.755C505.432 411.909 509.54 405.356 511.977 397.617C514.722 388.897 515.056 382.205 510.747 373.994C512.356 366.744 506.694 354.974 502.508 349.252C500.175 346.063 497.071 343.187 495.187 339.718L495.009 339.375Z"/>
	<path fill="#FEFEFE" transform="scale(0.590421 0.590421)" d="M85.6226 393.989C90.4093 385.356 91.5441 379.442 90.3182 369.635L128.648 392.456C132.829 395.154 141.55 399.563 143.53 404.197L143.138 407.997C141.15 412.707 139.087 417.837 136.137 422.033C131.451 419.853 125.876 418.923 121.865 415.376C120.746 415.817 119.577 416.274 118.389 416.485C114.877 417.109 110.936 416.174 108.079 414.048C104.858 411.652 103.721 408.494 103.123 404.649C100.808 404.09 98.5264 402.273 96.5229 401.006C92.8561 398.688 89.1241 396.564 85.6226 393.989Z"/>
	<path fill="#95C1C7" transform="scale(0.590421 0.590421)" d="M127.095 399.734L143.138 407.997C141.15 412.707 139.087 417.837 136.137 422.033C131.451 419.853 125.876 418.923 121.865 415.376C124.328 413.229 126.19 411.362 127.874 408.506C127.811 405.743 127.959 402.803 127.048 400.166L127.095 399.734Z"/>
	<path fill="#143C5E" transform="scale(0.590421 0.590421)" d="M105.048 398.531C106.818 395.979 109.67 393.081 112.852 392.445C116.243 391.767 119.33 392.811 122.08 394.788C124.005 396.172 125.583 397.925 127.095 399.734L127.048 400.166C127.959 402.803 127.811 405.743 127.874 408.506C126.19 411.362 124.328 413.229 121.865 415.376C120.746 415.817 119.577 416.274 118.389 416.485C114.877 417.109 110.936 416.174 108.079 414.048C104.858 411.652 103.721 408.494 103.123 404.649C103.519 402.384 103.942 400.565 105.048 398.531Z"/>
	<path fill="#236FB6" transform="scale(0.590421 0.590421)" d="M106.032 400.247L106.349 400.291C107.937 402.077 113.815 403.599 116.363 403.812C117.739 403.927 119.356 403.474 120.702 403.183L119.767 404.499C117.823 407.16 115.306 409.149 111.89 409.532C109.886 409.757 108.54 409.059 107.022 407.889C105.597 405.729 105.992 402.744 106.032 400.247Z"/>
	<path fill="#42A0CC" transform="scale(0.590421 0.590421)" d="M106.349 400.291C107.601 397.761 109.254 395.962 111.978 394.995C114.116 394.236 117.381 394.185 119.451 395.192C122.069 396.465 124.18 399.225 125.521 401.759C123.9 402.416 122.449 402.92 120.702 403.183C119.356 403.474 117.739 403.927 116.363 403.812C113.815 403.599 107.937 402.077 106.349 400.291Z"/>
	<path fill="#95C1C7" transform="scale(0.590421 0.590421)" d="M395.369 523.457C392.883 521.714 391.353 518.743 389.858 516.169C392.666 517.268 394.511 519.009 397.041 520.528C400.929 522.863 405.114 524.951 409.253 526.798C415.81 529.724 422.769 531.325 429.785 532.698C439.772 534.653 450.465 536.096 460.6 534.489C464.046 533.943 467.983 533.278 471.182 531.803C472.106 531.377 472.937 530.761 473.72 530.118C477.886 531.973 481.96 534.479 485.613 537.208C477.883 548.922 469.765 559.898 459.773 569.804C455.917 573.626 451.595 577.011 447.423 580.479L439.555 578.072C436.673 576.735 434.312 574.81 432.383 572.281C430.608 569.955 429.311 566.863 429.806 563.895C430.296 560.959 432.732 558.026 434.226 555.493C435.737 552.932 437.365 548.644 439.844 547.01C440.892 546.318 441.142 546.396 442.327 546.674C450.073 547.182 457.411 545.629 464.849 543.685C465.667 543.397 466.398 543.024 467.162 542.621C466.499 541.989 466.563 542.187 465.677 542.29C461.281 542.804 457.017 544.237 452.587 544.613C438.088 545.842 420.182 542.11 407.965 533.962C405.871 532.565 403.734 531.072 401.914 529.324C399.907 527.396 398.131 525.081 395.719 523.652L395.369 523.457Z"/>
	<path fill="#FEFEFE" transform="scale(0.590421 0.590421)" d="M464.315 545.834L464.978 546.313C462.946 550.343 459.224 553.789 456.349 557.282L439.555 578.072C436.673 576.735 434.312 574.81 432.383 572.281C430.608 569.955 429.311 566.863 429.806 563.895C430.296 560.959 432.732 558.026 434.226 555.493C435.737 552.932 437.365 548.644 439.844 547.01C440.892 546.318 441.142 546.396 442.327 546.674L443.551 548.89C448.744 550.99 459.11 547.229 464.315 545.834Z"/>
	<path fill="#FEFEFE" transform="scale(0.590421 0.590421)" d="M366.707 556.485L377.873 506.685L401.836 509.906C426.562 514.013 450.585 520.402 473.72 530.118C472.937 530.761 472.106 531.377 471.182 531.803C467.983 533.278 464.046 533.943 460.6 534.489C450.465 536.096 439.772 534.653 429.785 532.698C422.769 531.325 415.81 529.724 409.253 526.798C405.114 524.951 400.929 522.863 397.041 520.528C394.511 519.009 392.666 517.268 389.858 516.169C391.353 518.743 392.883 521.714 395.369 523.457L397.535 526.796C395.442 539.853 391.137 553.139 380.098 561.276C376.136 560.677 369.515 560.386 366.901 556.832L366.707 556.485Z"/>
	<path fill="#FEFEFE" transform="scale(0.590421 0.590421)" d="M492.079 442.733L495.03 441.54C495.082 450.079 495.388 458.74 494.672 467.255C493.682 479.047 491.049 490.326 487.4 501.562C485.47 507.506 483.348 513.754 480.048 519.103L447.84 507.517L463.262 448.262C470.431 448.294 476.752 447.689 483.697 445.915L483.751 445.935C486.36 445.347 490.068 444.509 492.079 442.733Z"/>
	<path fill="#FEFEFE" transform="scale(0.590421 0.590421)" d="M413.906 448.282C415.854 443.945 417.377 439.251 415.565 434.656C414.405 431.713 411.895 428.98 409.575 426.873L409.769 426.132C410.303 425.849 411.338 425.077 411.899 425.244C415.168 426.215 418.503 430.726 421.092 432.909C423.239 434.719 425.805 436.302 428.238 437.702C435.86 442.087 444.482 444.198 452.783 446.846L437.289 504.971C424.612 501.703 411.671 499.097 398.676 497.441L380.906 495.797L384.815 483.364C385.39 481.577 386.543 479.112 386.593 477.258L390.946 474.963C399.893 469.303 411.45 458.911 413.906 448.282Z"/>
	<path fill="#FEFEFE" transform="scale(0.590421 0.590421)" d="M433.434 430.387C428.454 429.418 423.686 428.055 419.247 425.532C411.477 421.116 407.744 411.978 405.511 403.744C401.51 388.995 404.007 372.908 411.645 359.725C419.471 346.216 433.014 335.966 448.13 332.014C464.752 327.668 480.371 330.806 495.009 339.375L495.187 339.718C497.071 343.187 500.175 346.063 502.508 349.252C506.694 354.974 512.356 366.744 510.747 373.994C494.571 358.281 470.676 353.686 448.726 354.058C440.501 354.198 431.386 356.322 425.496 362.414C419.042 369.087 416.074 378.764 416.338 387.959C416.552 395.445 418.822 402.62 424.421 407.792C433.983 416.624 447.381 419.807 459.98 421.283C454.828 425.573 449.032 427.911 442.422 428.88C439.459 429.314 436.28 429.419 433.434 430.387Z"/>
	<path transform="scale(0.590421 0.590421)" d="M459.98 421.283C447.381 419.807 433.983 416.624 424.421 407.792C418.822 402.62 416.552 395.445 416.338 387.959C416.074 378.764 419.042 369.087 425.496 362.414C431.386 356.322 440.501 354.198 448.726 354.058C470.676 353.686 494.571 358.281 510.747 373.994C515.056 382.205 514.722 388.897 511.977 397.617C509.54 405.356 505.432 411.909 498.096 415.755C486.442 421.864 472.823 422.55 459.98 421.283Z"/>
	<path fill="#9E908F" transform="scale(0.590421 0.590421)" d="M448.108 356.174L448.177 356.153C464.895 354.997 485.992 358.432 500.486 367.315C505.36 370.303 510.882 375.299 512.189 381.057C513.696 387.697 510.657 400.162 506.933 405.882C501.643 414.007 492.506 417.15 483.445 419.029L475.605 420.058C468.156 420.725 461.095 419.605 453.785 418.318C444.204 416.63 434.698 414.634 427.033 408.084C421.97 403.758 418.755 397.627 418.296 390.942C417.669 381.799 419.519 371.486 425.818 364.477C431.497 358.158 440.031 356.594 448.108 356.174Z"/>
	<path fill="#062452" transform="scale(0.590421 0.590421)" d="M427.541 403.211C422.779 398.023 422.062 391.745 422.372 384.959C422.657 378.7 424.528 371.022 429.284 366.612C436.803 359.641 450.14 359.671 459.763 360.193C469.349 360.713 477.641 362.894 486.622 366.01C493.374 368.353 500.543 371.37 505.466 376.745C508.101 379.623 509.009 383.009 508.812 386.868C508.417 394.621 505.371 402.774 499.428 407.944C491.619 414.737 478.361 417.206 468.193 416.383L464.983 416.033C466.921 414.352 471.696 414.116 474.225 413.351C481.675 411.097 489.605 405.794 494.688 399.938C498.054 396.06 502.244 388.602 501.733 383.207C501.416 379.863 499.09 376.924 496.545 374.891C483.844 364.749 462.294 360.074 446.295 361.942C439.766 362.704 432.996 364.169 428.825 369.64C423.875 376.135 422.709 387.947 424.881 395.673C425.511 397.91 427.283 400.382 427.498 402.576L427.541 403.211Z"/>
	<path fill="#143C5E" transform="scale(0.590421 0.590421)" d="M427.541 403.211L427.498 402.576C427.283 400.382 425.511 397.91 424.881 395.673C422.709 387.947 423.875 376.135 428.825 369.64C432.996 364.169 439.766 362.704 446.295 361.942C462.294 360.074 483.844 364.749 496.545 374.891C499.09 376.924 501.416 379.863 501.733 383.207C502.244 388.602 498.054 396.06 494.688 399.938C489.605 405.794 481.675 411.097 474.225 413.351C471.696 414.116 466.921 414.352 464.983 416.033L464.021 416.09C458.507 416.028 452.63 414.594 447.352 413.064C440.019 410.939 433.05 408.795 427.541 403.211Z"/>
	<path fill="#FEFEFE" transform="scale(0.590421 0.590421)" d="M428.86 382.577C429.846 382.556 429.907 382.761 430.694 383.384C430.84 385.305 430.604 386.221 429.577 387.85C428.735 387.791 428.445 387.329 427.822 386.796C427.76 384.691 427.783 384.372 428.86 382.577Z"/>
	<path fill="#FEFEFE" transform="scale(0.590421 0.590421)" d="M442.905 365.175L444.554 364.998C446.04 365.649 446.707 366.157 447.554 367.548C447.446 368.275 447.292 368.962 447.049 369.657C445.536 373.971 440.445 377.914 436.377 379.656C435.77 379.71 435.138 379.766 434.531 379.692C433.108 379.519 432.246 378.333 431.4 377.304C431.2 375.722 431.22 374.54 431.939 373.085C434.117 368.68 438.421 366.536 442.905 365.175Z"/>
	<path fill="#143C5E" transform="scale(0.590421 0.590421)" d="M1016.08 141.122C1020.61 143.444 1024.1 146.819 1027.61 150.428C1038.8 161.932 1046.17 175.645 1051.03 190.844C1055.36 204.397 1057.1 218.974 1058.48 233.079C1061.57 264.655 1060.9 296.036 1060.5 327.69L1058.49 429.484L1057.46 474.91C1057.12 489.209 1056.8 503.617 1054.75 517.8C1053.2 528.546 1050.52 538.327 1045.53 548.009C1030.96 576.22 1004.73 600.565 974.202 610.28C962.829 613.899 951.454 615.05 939.611 615.91L895.534 617.394L840.201 618.154L655.602 619.349L511.82 618.783C495.508 618.36 479.311 618.55 463.019 617.146C453.418 616.318 444.3 613.59 435.257 610.372C440.077 604.654 442.021 598.323 443.839 591.252C444.124 590.143 444.531 587.435 445.148 586.548C446.427 584.709 449.147 583.028 450.878 581.5L464.479 569.361C466.764 570.381 471.697 569.117 474.305 569.016L489.057 568.724C491.211 568.615 493.298 568.002 495.439 567.909L509.357 567.746C511.98 567.594 514.565 567.007 517.176 566.869C526.393 566.383 535.536 566.829 544.768 565.897C547.097 565.661 549.355 566.495 551.733 565.944C553.408 565.557 555.169 565.844 556.875 565.684C561.352 565.266 565.37 565.277 569.861 565.315L591.431 564.764L651.55 561.091C655.31 560.856 659.106 561.14 662.871 560.962C666.453 560.792 669.951 560.033 673.568 559.925C676.413 559.84 679.281 560.164 682.119 559.976C684.783 559.8 687.397 559.12 690.07 558.965C694.738 558.695 699.278 559.165 703.905 559.107C709.298 559.039 714.341 558.131 719.662 557.549C721.959 557.298 724.418 557.49 726.68 557.128C730.468 556.521 734.456 556.802 738.307 556.703C741.515 556.621 744.559 556.009 747.84 556.274C749.807 556.433 752.159 556.43 754.102 556.073C764.346 554.193 775.101 555.703 785.479 554.702L804.456 553.593L854.531 548.91L879.925 546.493C881.921 546.27 884.291 546.502 886.201 546.054C891.05 544.917 896.604 545.677 901.357 544.375C909.315 542.197 917.763 541.391 925.855 539.759C942.172 536.466 958.396 528.717 972.499 520.038C974.847 518.594 976.826 516.541 979.118 515.067C980.721 514.037 981.874 512.542 983.314 511.318C992.757 503.292 999.467 493.563 1005.83 483.043C1008.62 478.436 1010.34 473.425 1012.6 468.584C1017.48 458.144 1018.9 446.646 1021.99 435.72C1024.31 427.486 1024.75 417.93 1025.95 409.476C1026.36 406.557 1025.94 402.594 1026.7 399.855C1027.24 397.917 1026.97 395.955 1027.39 393.995C1028.27 389.883 1027.59 385.021 1027.78 380.766C1027.9 377.898 1028.57 375.091 1028.67 372.225L1028.8 341.759C1028.9 336.5 1029.83 331.254 1029.94 325.925L1029.84 292.932L1029.3 244.438C1029.02 238.115 1030.01 231.676 1028.56 225.444C1027.57 221.17 1028.41 216.336 1027.47 212.118C1027.06 210.269 1027.43 208.238 1027.01 206.449C1026.61 204.769 1027.02 202.644 1026.44 201.176C1025.48 198.76 1025.84 195.031 1025.34 192.402L1016.08 141.122Z"/>
	<path fill="#062452" transform="scale(0.590421 0.590421)" d="M349.97 538.145C349.664 536.613 338.384 526.23 336.434 523.985C330.736 517.43 325.717 510.064 321.592 502.414C309.147 479.338 304.765 453.622 301.542 427.886C293.524 363.862 294.339 299.251 297.431 234.927C298.876 204.846 299.84 173.72 307.301 144.404C311.847 126.538 319.449 109.255 330.828 94.6555C355.774 62.6519 392.383 48.7065 431.531 43.852C451.217 41.4107 471.145 41.0857 490.953 40.6912L534.231 39.6846L600.239 41.9582L782.46 49.3228L858.324 53.5271C879.091 54.7247 900.528 55.4677 920.979 59.5285C940.925 63.4889 959.512 71.0273 975.612 83.5875C991.331 95.8512 1003.31 111.856 1011.77 129.837C1013.38 133.255 1015.62 137.365 1016.08 141.122L1025.34 192.402C1025.84 195.031 1025.48 198.76 1026.44 201.176C1027.02 202.644 1026.61 204.769 1027.01 206.449C1027.43 208.238 1027.06 210.269 1027.47 212.118C1028.41 216.336 1027.57 221.17 1028.56 225.444C1030.01 231.676 1029.02 238.115 1029.3 244.438L1029.84 292.932L1029.94 325.925C1029.83 331.254 1028.9 336.5 1028.8 341.759L1028.67 372.225C1028.57 375.091 1027.9 377.898 1027.78 380.766C1027.59 385.021 1028.27 389.883 1027.39 393.995C1026.97 395.955 1027.24 397.917 1026.7 399.855C1025.94 402.594 1026.36 406.557 1025.95 409.476C1024.75 417.93 1024.31 427.486 1021.99 435.72C1018.9 446.646 1017.48 458.144 1012.6 468.584C1010.34 473.425 1008.62 478.436 1005.83 483.043C999.467 493.563 992.757 503.292 983.314 511.318C981.874 512.542 980.721 514.037 979.118 515.067C976.826 516.541 974.847 518.594 972.499 520.038C958.396 528.717 942.172 536.466 925.855 539.759C917.763 541.391 909.315 542.197 901.357 544.375C896.604 545.677 891.05 544.917 886.201 546.054C884.291 546.502 881.921 546.27 879.925 546.493L854.531 548.91L804.456 553.593L785.479 554.702C775.101 555.703 764.346 554.193 754.102 556.073C752.159 556.43 749.807 556.433 747.84 556.274C744.559 556.009 741.515 556.621 738.307 556.703C734.456 556.802 730.468 556.521 726.68 557.128C724.418 557.49 721.959 557.298 719.662 557.549C714.341 558.131 709.298 559.039 703.905 559.107C699.278 559.165 694.738 558.695 690.07 558.965C687.397 559.12 684.783 559.8 682.119 559.976C679.281 560.164 676.413 559.84 673.568 559.925C669.951 560.033 666.453 560.792 662.871 560.962C659.106 561.14 655.31 560.856 651.55 561.091L591.431 564.764L569.861 565.315C565.37 565.277 561.352 565.266 556.875 565.684C555.169 565.844 553.408 565.557 551.733 565.944C549.355 566.495 547.097 565.661 544.768 565.897C535.536 566.829 526.393 566.383 517.176 566.869C514.565 567.007 511.98 567.594 509.357 567.746L495.439 567.909C493.298 568.002 491.211 568.615 489.057 568.724L474.305 569.016C471.697 569.117 466.764 570.381 464.479 569.361L476.899 555.247C480.74 550.594 484.105 544.706 487.229 539.54L538.544 539.337L571.377 536.571L640.801 531.503L692.248 527.612L726.89 525.151L812.771 514.138C852.544 508.988 893.465 504.315 931.772 491.821C941.896 488.519 950.872 483.809 959.732 477.919C973.143 469.004 985.52 455.505 992.545 440.965C995.604 434.633 997.715 427.72 999.899 421.048C1001.35 416.615 1003.51 411.92 1004.42 407.412C1004.55 409.612 1004.32 412.709 1005.07 414.741C1006.96 409.257 1008.6 403.651 1011.61 398.657L1013.38 386.039C1014.75 371.37 1014.61 356.636 1015.13 341.933C1016.77 295.235 1016.86 248.453 1012.11 201.919C1010.17 182.982 1007.97 163.834 1001.98 145.669C997.866 133.169 991.102 122.035 982.747 111.94C964.531 89.9313 940.043 76.8024 911.668 74.0845C908.568 76.0982 861.091 72.5331 854.561 72.3386L767.021 71.0835L702.422 70.055L669.476 69.1226L578.749 70.0657L527.363 70.2578L481.465 73.0897C468.394 73.8905 455.401 74.5483 442.418 76.3838C421.871 79.2889 399.038 83.8894 381.279 95.1385C372.317 100.815 364.094 107.57 357.292 115.751C340.589 135.838 333.205 161.531 327.898 186.616C322.8 210.715 320.628 235.512 318.43 260.01C315.485 292.843 312.494 326.263 315.269 359.201L315.73 389.764L316.537 410.262C316.823 415.233 318.115 422.093 316.403 426.882L321.592 456.051L329.738 475.7L327.053 479.146C325.319 481.986 323.172 485.375 324.002 488.876C324.316 490.201 325.872 491.997 327.05 492.676C328.599 493.57 331.932 493.646 333.752 493.877L340.603 493.037C347.949 501.249 354.978 507.698 364.31 513.666C366.549 515.098 368.949 516.024 371.214 517.346L369.051 526.782L367.865 531C367.573 535.266 366.618 539.343 365.469 543.451L352.757 539.359C352.058 539.105 350.396 538.719 349.97 538.145Z"/>
	<path fill="#B63C40" transform="scale(0.590421 0.590421)" d="M356.419 522.24C358.212 521.538 359.549 521.821 361.336 522.589L369.051 526.782L367.865 531C364.674 530.317 359.121 524.514 356.419 522.24Z"/>
	<path fill="#632944" transform="scale(0.590421 0.590421)" d="M321.592 456.051L329.738 475.7L327.053 479.146C323.904 472.496 320.573 463.475 321.592 456.051Z"/>
	<path fill="#632944" transform="scale(0.590421 0.590421)" d="M333.752 493.877L340.603 493.037C347.949 501.249 354.978 507.698 364.31 513.666C366.549 515.098 368.949 516.024 371.214 517.346L369.051 526.782L361.336 522.589C359.549 521.821 358.212 521.538 356.419 522.24L352.345 519.18C345.852 513.828 341.043 506.755 336.714 499.629C335.632 497.848 333.956 495.99 333.752 493.877Z"/>
	<path fill="#FEFEFE" transform="scale(0.590421 0.590421)" d="M316.403 426.882C314.794 421.661 314.457 415.568 313.866 410.155L311.124 364.155C309.174 298.564 308.207 233.417 317.543 168.277C322.204 135.75 336.406 103.465 363.315 83.3602C380.479 70.5354 402.414 63.0116 423.46 59.6881C452.909 55.0375 482.832 55.451 512.554 55.2824L558.306 54.9652L680.382 59.2729L773.913 63.3382C820.017 65.2812 865.957 67.3934 911.668 74.0845C908.568 76.0982 861.091 72.5331 854.561 72.3386L767.021 71.0835L702.422 70.055L669.476 69.1226L578.749 70.0657L527.363 70.2578L481.465 73.0897C468.394 73.8905 455.401 74.5483 442.418 76.3838C421.871 79.2889 399.038 83.8894 381.279 95.1385C372.317 100.815 364.094 107.57 357.292 115.751C340.589 135.838 333.205 161.531 327.898 186.616C322.8 210.715 320.628 235.512 318.43 260.01C315.485 292.843 312.494 326.263 315.269 359.201L315.73 389.764L316.537 410.262C316.823 415.233 318.115 422.093 316.403 426.882Z"/>
	<path fill="#B63C40" transform="scale(0.590421 0.590421)" d="M1011.61 398.657C1011.52 408.41 1009.98 417.641 1008.5 427.25C1006.61 439.488 1004.53 451.58 1000.01 463.176C994.933 476.201 986.188 488.616 976.251 498.361C963.388 510.975 945.955 520.171 928.553 524.734C903.736 531.242 877.34 533.447 851.827 535.294L782.559 539.956L670.416 547.416L574.676 551.333L476.899 555.247C480.74 550.594 484.105 544.706 487.229 539.54L538.544 539.337L571.377 536.571L640.801 531.503L692.248 527.612L726.89 525.151L812.771 514.138C852.544 508.988 893.465 504.315 931.772 491.821C941.896 488.519 950.872 483.809 959.732 477.919C973.143 469.004 985.52 455.505 992.545 440.965C995.604 434.633 997.715 427.72 999.899 421.048C1001.35 416.615 1003.51 411.92 1004.42 407.412C1004.55 409.612 1004.32 412.709 1005.07 414.741C1006.96 409.257 1008.6 403.651 1011.61 398.657Z"/>
	<path fill="#F9807A" transform="scale(0.590421 0.590421)" d="M315.269 359.201C312.494 326.263 315.485 292.843 318.43 260.01C320.628 235.512 322.8 210.715 327.898 186.616C333.205 161.531 340.589 135.838 357.292 115.751C364.094 107.57 372.317 100.815 381.279 95.1385C399.038 83.8894 421.871 79.2889 442.418 76.3838C455.401 74.5483 468.394 73.8905 481.465 73.0897L527.363 70.2578L578.749 70.0657L669.476 69.1226L702.422 70.055L767.021 71.0835L854.561 72.3386C861.091 72.5331 908.568 76.0982 911.668 74.0845C940.043 76.8024 964.531 89.9313 982.747 111.94C991.102 122.035 997.866 133.169 1001.98 145.669C1007.97 163.834 1010.17 182.982 1012.11 201.919C1016.86 248.453 1016.77 295.235 1015.13 341.933C1014.61 356.636 1014.75 371.37 1013.38 386.039L1011.61 398.657C1008.6 403.651 1006.96 409.257 1005.07 414.741C1004.32 412.709 1004.55 409.612 1004.42 407.412C1005.25 401.836 1005.5 396.12 1005.96 390.5C1007 377.885 1007.74 364.094 1005.57 351.574C1005.69 350.691 1005.08 348.954 1004.88 348.025C1003.74 342.834 1001.28 337.623 999.386 332.655C982.548 288.515 941.23 260.167 899.697 241.63C881.288 233.413 862.11 227.64 842.667 222.464C798.274 210.645 753.174 204.381 707.432 200.916L691.5 199.85C685.458 199.386 678.588 198.246 672.811 200.459L621.713 174.368C612.219 169.504 602.798 163.599 592.657 160.181C585.583 157.798 577.421 155.653 570.055 158.025C562.199 160.555 554.804 165.614 551.005 173.118C545.703 183.592 547.042 196.781 547.496 208.175L524.193 211.296L476.281 221.872C439.485 230.499 402.893 239.432 370.653 260.012C359.97 266.832 349.575 274.927 341.727 284.943C331.425 298.092 324.144 312.778 320.245 329.03C318.67 335.6 317.742 342.442 315.921 348.934C314.955 352.376 315.798 355.763 315.269 359.201Z"/>
	<path fill="#DA6665" transform="scale(0.590421 0.590421)" d="M547.496 208.175C547.042 196.781 545.703 183.592 551.005 173.118C554.804 165.614 562.199 160.555 570.055 158.025C577.421 155.653 585.583 157.798 592.657 160.181C602.798 163.599 612.219 169.504 621.713 174.368L672.811 200.459C678.588 198.246 685.458 199.386 691.5 199.85L707.432 200.916C753.174 204.381 798.274 210.645 842.667 222.464C862.11 227.64 881.288 233.413 899.697 241.63C941.23 260.167 982.548 288.515 999.386 332.655C1001.28 337.623 1003.74 342.834 1004.88 348.025C1005.08 348.954 1005.69 350.691 1005.57 351.574C1007.74 364.094 1007 377.885 1005.96 390.5C1005.5 396.12 1005.25 401.836 1004.42 407.412C1003.51 411.92 1001.35 416.615 999.899 421.048C997.715 427.72 995.604 434.633 992.545 440.965C985.52 455.505 973.143 469.004 959.732 477.919C950.872 483.809 941.896 488.519 931.772 491.821C893.465 504.315 852.544 508.988 812.771 514.138L726.89 525.151L692.248 527.612L640.801 531.503L571.377 536.571L538.544 539.337L487.229 539.54L494.243 525.819C499.078 514.165 502.738 502.075 504.337 489.526C505.274 482.171 505.307 474.887 505.343 467.489C516.842 465.936 528.303 462.467 539.583 459.845C541.094 459.493 542.784 459.765 544.219 459.376C545.002 459.164 545.656 458.666 546.431 458.419C550.38 457.155 554.826 457.296 558.951 455.918C562.078 454.874 565.067 453.36 567.547 451.162C570.155 448.853 571.323 446.748 571.507 443.22C568.659 436.213 556.618 435.469 550.214 435.964C549.027 436.056 545.443 436.938 544.482 436.664C543.543 436.396 541.371 434.518 540.484 433.906C533.903 435.426 527.577 434.011 520.958 433.95C513.979 433.885 506.783 434.636 499.903 435.787C503.953 432.017 508.132 428.35 511.311 423.787C512.285 422.388 515.041 417.176 516.235 416.475C518.336 415.242 521.971 415.603 524.35 414.455C527.097 413.13 529.235 410.44 530.278 407.611C532.397 401.867 535.877 384.851 531.073 380.182C529.233 378.393 525.248 378.114 523.784 376.565C523.374 376.132 522.758 372.316 522.554 371.524C521.77 368.482 520.714 365.428 519.419 362.564C512.5 347.273 498.928 335.755 483.287 330.051C460.817 321.858 432.848 330.385 416.877 347.554C414.535 350.072 412.443 352.793 410.646 355.725C409.783 357.133 408.363 360.782 407.252 361.734C407.149 361.822 405.636 361.919 405.429 361.945C403.4 362.197 400.705 362.403 398.879 363.388C396.739 364.542 395.625 366.723 395.017 368.986C393.111 376.075 389.35 393.24 395.543 398.193C396.923 399.297 400.984 400.042 401.702 401.306C403.004 403.598 403.467 407.697 404.352 410.283C405.8 414.516 408.076 418.247 410.312 422.096C403.331 424.094 396.139 426.816 390.062 430.851C385.902 433.613 382.124 437.033 378.02 439.911C371.711 444.335 365.362 448.603 359.496 453.628C355.101 457.393 351.079 461.797 346.511 465.323C344.156 467.141 341.195 467.341 338.543 468.533C335.205 470.032 332.348 473.177 329.738 475.7L321.592 456.051L316.403 426.882C318.115 422.093 316.823 415.233 316.537 410.262L315.73 389.764L315.269 359.201C315.798 355.763 314.955 352.376 315.921 348.934C317.742 342.442 318.67 335.6 320.245 329.03C324.144 312.778 331.425 298.092 341.727 284.943C349.575 274.927 359.97 266.832 370.653 260.012C402.893 239.432 439.485 230.499 476.281 221.872L524.193 211.296L547.496 208.175Z"/>
	<path fill="#632944" transform="scale(0.590421 0.590421)" d="M494.243 525.819C505.617 525.936 517.409 524.357 528.785 523.612L608.947 517.781L741.254 507.2L804.719 501.721L842.508 496.583C877.63 491.864 913.479 488.555 946.339 474.436C954.087 471.107 960.919 465.752 966.927 459.93C987.39 440.101 998.744 411.689 1002.22 383.729L1003.74 367.982C1004.03 363.13 1003.51 356.399 1005.38 351.979L1005.57 351.574C1007.74 364.094 1007 377.885 1005.96 390.5C1005.5 396.12 1005.25 401.836 1004.42 407.412C1003.51 411.92 1001.35 416.615 999.899 421.048C997.715 427.72 995.604 434.633 992.545 440.965C985.52 455.505 973.143 469.004 959.732 477.919C950.872 483.809 941.896 488.519 931.772 491.821C893.465 504.315 852.544 508.988 812.771 514.138L726.89 525.151L692.248 527.612L640.801 531.503L571.377 536.571L538.544 539.337L487.229 539.54L494.243 525.819Z"/>
	<path fill="#062452" transform="scale(0.590421 0.590421)" d="M547.496 208.175C547.042 196.781 545.703 183.592 551.005 173.118C554.804 165.614 562.199 160.555 570.055 158.025C577.421 155.653 585.583 157.798 592.657 160.181C602.798 163.599 612.219 169.504 621.713 174.368L672.811 200.459L746.569 239.803C762.839 248.417 781.448 255.863 795.323 268.182C801.492 273.658 806.034 280.272 806.454 288.777C806.841 296.644 803.955 303.723 798.648 309.488C794.933 313.523 790.199 316.404 785.569 319.264L761.9 332.914L721.955 356.574L638.133 405.822C624.025 414.048 609.95 423.145 595.385 430.487C589.438 433.484 583.159 436.433 576.396 436.645C569.808 436.851 563.3 435.234 558.396 430.599C548.959 421.678 547.734 407.534 547.482 395.254L547.905 263.589L547.97 230.116C547.977 222.856 548.275 215.394 547.496 208.175Z"/>
	<path fill="#FEFEFE" transform="scale(0.590421 0.590421)" d="M562.76 254.668L562.061 210.929C562.039 201.878 561.141 192.778 562.711 183.797C563.109 181.52 563.973 179.371 565.526 177.635C568.51 174.298 572.494 172.275 576.983 172.022C581.421 171.771 586.384 173.706 590.386 175.452C601.776 180.424 612.534 186.804 623.566 192.505L688.997 226.394L719.158 241.999C727.376 246.138 736.794 250.125 744.226 255.554C739.374 256.226 714.588 242.56 708.574 239.689L636.144 205.715L612.27 194.299C605.868 191.224 599.374 187.991 592.555 185.926C589.928 185.131 586.843 184.704 584.117 185.176C582.003 185.543 579.359 187.003 577.915 188.571C575.551 191.137 574.145 194.49 572.848 197.676C568.222 209.04 566.568 221.814 565.547 233.986C565.102 239.296 565.15 244.688 564.317 249.954C564.063 251.565 563.961 253.091 562.945 254.44L562.76 254.668Z"/>
	<path fill="#6FAFB6" transform="scale(0.590421 0.590421)" d="M787.443 280.827C790.401 283.967 792.294 287.705 792.14 292.131C792.039 295.031 790.558 297.267 788.446 299.146C780.062 306.608 768.506 311.93 758.776 317.567L714.593 343.443L637.958 388.446C620.671 398.677 603.519 409.639 585.577 418.686C582.286 420.345 578.119 421.986 574.37 421.742C571.566 421.559 569.382 419.983 567.642 417.881C563.835 413.282 562.718 406.766 562.235 400.978C561.289 389.639 562.554 378.541 562.238 367.252C562.756 368.846 562.304 370.938 563.093 372.36C565.965 377.537 567.449 382.414 571.507 386.969C575.422 391.361 579.167 393.294 585.032 393.606C591.13 393.93 597.02 391.948 602.403 389.289C613.136 383.987 623.087 377.244 633.34 371.101L688.595 338.365L757.875 298.21L776.084 287.722C779.821 285.612 784.241 283.658 787.443 280.827Z"/>
	<path fill="#8BEBEA" transform="scale(0.590421 0.590421)" d="M562.76 254.668L562.945 254.44C563.961 253.091 564.063 251.565 564.317 249.954C565.15 244.688 565.102 239.296 565.547 233.986C566.568 221.814 568.222 209.04 572.848 197.676C574.145 194.49 575.551 191.137 577.915 188.571C579.359 187.003 582.003 185.543 584.117 185.176C586.843 184.704 589.928 185.131 592.555 185.926C599.374 187.991 605.868 191.224 612.27 194.299L636.144 205.715L708.574 239.689C714.588 242.56 739.374 256.226 744.226 255.554C758.727 263.545 774.465 270.39 787.443 280.827C784.241 283.658 779.821 285.612 776.084 287.722L757.875 298.21L688.595 338.365L633.34 371.101C623.087 377.244 613.136 383.987 602.403 389.289C597.02 391.948 591.13 393.93 585.032 393.606C579.167 393.294 575.422 391.361 571.507 386.969C567.449 382.414 565.965 377.537 563.093 372.36C562.304 370.938 562.756 368.846 562.238 367.252L562.76 254.668Z"/>
</svg>
