<?xml version="1.0" encoding="utf-8" ?>
<svg xmlns="http://www.w3.org/2000/svg" xmlns:xlink="http://www.w3.org/1999/xlink" width="1838" height="3267">
	<path transform="scale(1.79505 1.79505)" d="M529.969 174.552L533.488 174.326C620.06 169.793 700.582 215.247 746.215 287.867C752.981 298.635 758.739 309.769 763.555 321.538L768.563 334.738C768.913 335.648 769.644 338.392 770.192 338.977C770.431 339.232 773.987 339.832 774.525 339.964C778.745 341 782.967 342.225 786.993 343.872C798.129 348.429 808.437 355.859 817.307 363.913C835.213 380.171 847.89 406.138 848.97 430.268L849.148 475.327C849.122 486.288 849.907 497.996 848.73 508.835C845.095 542.32 827.011 570.849 798.24 588.418C791.406 592.592 783.084 596.622 775.415 598.834C772.249 599.747 765.513 600.065 762.873 601.565C761.016 602.619 751.113 620.77 748.899 623.913C739.947 636.624 729.273 647.834 718.78 659.255C738.226 673.257 759.146 685.126 778.315 699.55C834.904 742.128 880.553 800.691 910.744 864.576C917.401 878.663 923.192 893.808 928.752 908.362C930.358 912.566 930.985 917.409 932.866 921.427C935.368 926.772 940.711 930.179 943.127 935.888C948.457 948.487 949.757 962.194 950.465 975.727C951.012 986.187 951.256 996.341 949.064 1006.67C948.225 1010.62 943.027 1018.64 943.709 1021.98C953.617 1070.49 948.705 1119.9 926.667 1164.55C918.928 1180.22 911.906 1192.77 894.188 1198.56C879.803 1203.27 863.917 1202.11 850.453 1195.13C836.823 1188.05 830.528 1175.92 826.18 1161.93L811.585 1161.47C800.177 1160.28 789.059 1152.58 782.047 1143.81C768.302 1126.63 771.827 1107.13 774.098 1087.03L758.278 1102.38L758.184 1290.35C757.979 1298.55 757.192 1306.89 754.897 1314.79C754.009 1317.85 750.318 1324.57 750.444 1327.32C750.495 1328.44 751.78 1330.63 752.242 1331.82L756.671 1344.08C762.071 1360.24 768.256 1379.21 769.298 1396.2C770.002 1407.68 769.016 1419.48 769.039 1431.02L769.411 1500.3L769.049 1516.85C769.025 1517.6 768.677 1520.3 768.911 1520.74C770.341 1523.45 775.276 1527.27 777.505 1529.64C790.894 1543.88 806.916 1560.71 807.983 1581.34C808.873 1598.56 805.605 1614.01 793.789 1627.08C784.7 1637.13 770.516 1644.79 756.841 1645.3L688.239 1645.34C671.727 1645.33 653.214 1647.78 637.028 1644.15C626.463 1641.77 617.667 1636.79 609.816 1629.33C601.712 1621.63 596.745 1611.1 594.733 1600.22C593.269 1592.29 593.824 1583.73 593.804 1575.69L593.901 1535.8C593.943 1531.75 595.014 1524.75 594.148 1520.99C593.448 1517.95 589.183 1515.53 588.16 1512.82C586.446 1508.29 586.889 1499.25 586.287 1494.1L576.787 1410.03L575.655 1396.34C575.573 1395.04 575.782 1392.07 575.336 1390.95C574.907 1389.86 572.274 1387.52 571.389 1386.48C565.918 1380.08 562.258 1372.27 560.985 1363.91C559.96 1357.18 559.9 1349.38 561.592 1342.75C562.292 1340.02 564.847 1334.3 564.704 1331.74C564.581 1329.52 561.061 1324.21 560.25 1321.69C557.884 1314.33 556.856 1306.15 555.471 1298.56L543.07 1235.56L527.318 1317.44C526.569 1320.9 525.276 1323.87 523.746 1327.05C523.322 1327.93 521.747 1330.35 521.676 1331.2C521.438 1334.07 524.244 1340.67 524.992 1343.81C526.82 1351.5 526.481 1360.55 524.946 1368.27C523.626 1374.9 520.423 1380.69 516.128 1385.85C515.046 1387.15 512.502 1389.39 511.856 1390.79C510.513 1393.71 510.565 1400.69 510.242 1404.12L507.067 1432.82L498.521 1509.1C497.79 1514.93 495.328 1518.48 494.094 1523.77C492.726 1529.64 493.754 1536.78 493.847 1542.83L493.933 1573.32C493.874 1593.76 493.811 1612.28 478.411 1627.99C472.296 1634.23 464.299 1639.61 455.919 1642.22C441.263 1646.8 423.059 1645.53 407.736 1645.44L357.822 1645.41C334.409 1645.61 312.943 1645.54 295.199 1627.96C284.23 1617.1 278.387 1603.42 278.43 1587.96C278.508 1559.71 300.009 1540.07 318.593 1521.58C314.888 1498.65 316.742 1473.56 316.709 1450.27C316.687 1434.34 315.669 1417.95 316.664 1402.08C317.261 1392.57 318.916 1382.75 320.943 1373.44C323.207 1363.05 326.496 1352.65 330.153 1342.67L334.862 1331.44C335.314 1330.45 336.715 1328.19 336.822 1327.21C336.965 1325.88 332.947 1317.8 332.297 1315.77C329.604 1307.37 328.485 1298.4 328.11 1289.61L328.286 1230.14L328.378 1104.44C323.406 1100.96 318.545 1096.93 315.109 1091.88C311.565 1086.68 309.319 1080.65 308.228 1074.46C306.04 1062.06 307.345 1048.08 307.409 1035.47C307.445 1028.37 306.574 1020.08 308.083 1013.19C310.721 1001.14 319.046 993.851 328.921 987.496L328.909 888.28C282.694 859.664 240.694 828.229 204.429 787.429C198.343 780.582 192.242 773.355 186.9 765.905C184.563 762.646 182.572 758.009 179.95 755.134C178.794 753.868 172.853 752.955 171 752.48C160.058 749.672 149.344 744.363 140.729 736.996C125.982 724.387 114.253 707.47 110.022 688.326C108.956 683.503 109.465 676.958 107.695 672.532C106.22 668.847 102.844 665.381 100.722 661.975C93.3391 650.121 88.2654 636.517 87.266 622.515C85.3782 596.065 93.7583 577.522 110.779 558.077L84.8272 537.667C77.1915 530.63 73.1512 520.124 72.872 509.855C72.4483 494.275 78.4916 481.454 89.1709 470.356C98.1007 461.075 110.55 455.142 123.478 454.972C130.359 454.881 137.077 456.066 143.417 458.774C155.362 463.876 165.814 472.295 176.414 479.672C200.823 496.658 224.738 513.242 246.051 534.171C244.002 526.768 241.701 519.133 241.031 511.466C239.697 496.204 240.28 480.501 240.276 465.187C240.272 451.501 239.708 437.236 241.621 423.664C245.464 396.413 260.959 370.895 283.119 354.645C289.733 349.794 297.2 345.525 304.849 342.528C308.348 341.157 316.042 340.247 318.69 338.305C318.917 338.139 320.39 332.524 320.643 331.725C322.319 326.426 324.421 321.308 326.673 316.23C335.814 295.616 347.198 276.349 361.807 259.109C393.368 221.864 436.308 194.089 483.675 181.793C498.994 177.817 514.235 175.864 529.969 174.552ZM272.859 572.749C272.932 573.582 272.88 575.817 273.19 576.501C273.611 577.43 275.694 579.149 276.453 579.966C279.17 582.886 281.789 585.844 284.202 589.022C288.951 595.276 292.995 602.291 296.066 609.51C298.543 615.331 300.087 624.693 304.126 629.377C308.467 634.412 314.455 638.882 319.447 643.307L351.385 672.598L358.465 664.691L367.531 655.137C359.01 645.82 350.407 636.499 343.059 626.205L331.462 608.343C330.632 606.94 328.391 602.034 327.29 601.24C325.33 599.827 319.85 598.969 317.319 597.985C307.104 594.009 298.123 589.899 288.977 583.786C285.236 581.286 277.381 573.43 273.4 572.727L272.859 572.749ZM758.773 932.99L758.316 988.136C770.197 995.965 778.502 1003.75 781.486 1018.49L781.972 1021.53L782.876 1022.6L784.527 1020.64C785.507 1016.82 783.713 1012.97 782.581 1009.34C777.791 993.992 770.376 978.07 777.335 962.333L758.773 932.99Z"/>
	<path fill="#464546" transform="scale(1.79505 1.79505)" d="M782.981 507.402L783.064 536.57L783.67 536.384C799.98 531.345 812.666 518.938 820.556 504.057C819.193 524.501 809.972 542.492 794.508 555.938C789.361 560.414 783.127 564.111 776.986 567.057C779.365 558.013 781.966 547.9 782.386 538.535C782.839 528.451 781.193 517.343 782.981 507.402Z"/>
	<path fill="#D1D0D0" transform="scale(1.79505 1.79505)" d="M820.555 435.942C821.816 445.374 821.187 455.262 821.192 464.77C821.198 477.848 821.572 491.008 820.556 504.057C812.666 518.938 799.98 531.345 783.67 536.384L783.064 536.57L782.981 507.402L783.065 498.366C797.745 493.222 808.674 485.542 816.455 471.81C817.631 469.734 819.166 467.806 819.815 465.48C820.603 462.653 820.239 458.598 820.25 455.642L820.555 435.942Z"/>
	<path fill="#D1D0D0" transform="scale(1.79505 1.79505)" d="M188.395 697.854C200.636 694.842 211.958 691.154 222.736 684.418C239.933 673.67 253.722 657.768 261.09 638.833C263.937 631.516 265.529 623.656 267.296 616.019C270.706 622.121 273.513 628.69 275.658 635.336C272.243 657.918 262.105 675.307 243.663 688.983C230.056 699.074 208.801 701.948 192.321 699.413C190.769 699.174 189.674 698.777 188.395 697.854Z"/>
	<path fill="#959393" transform="scale(1.79505 1.79505)" d="M105.034 496.575C111.668 501.835 118.736 506.081 125.571 511.003C136.674 519 156.859 537.32 170.941 535.87C177.848 535.159 186.513 529.991 191.659 525.544L202.339 533.579L175.888 548.693C170.608 551.618 165.49 554.905 159.818 557.032L129.961 535.888C121.55 529.948 107.122 522.621 103.001 512.83C100.711 507.389 102.934 501.647 105.034 496.575Z"/>
	<path fill="#D1D0D0" transform="scale(1.79505 1.79505)" d="M105.034 496.575C108.95 490.61 113.487 485.354 120.76 483.784C123.298 483.236 125.74 483.525 128.269 483.941L128.85 484.032C135.631 485.169 144.575 493.232 150.323 497.184L191.659 525.544C186.513 529.991 177.848 535.159 170.941 535.87C156.859 537.32 136.674 519 125.571 511.003C118.736 506.081 111.668 501.835 105.034 496.575Z"/>
	<path fill="#959393" transform="scale(1.79505 1.79505)" d="M270.057 467.557C277.348 480.392 284.954 492.231 300 496.675L307.514 498.339C307.036 513.618 306.107 529.535 307.96 544.752C308.716 550.959 310.445 557.236 311.86 563.323L311.004 563.418C301.601 559.114 293.917 552.45 286.91 544.892C266.369 522.736 269.087 495.464 270.057 467.557Z"/>
	<path fill="#959393" transform="scale(1.79505 1.79505)" d="M479.227 1007.41C480.174 1016.4 482.513 1023.98 489.734 1029.98C494.51 1033.94 500.526 1037.05 506.646 1038.27C514.953 1039.92 524.989 1038.99 533.492 1038.99C546.612 1039.01 560.453 1039.78 573.479 1038.4C585.195 1037.16 594.648 1033.31 602.222 1023.91C606.477 1018.62 607.929 1014.19 608.8 1007.56L608.852 1016.67C608.871 1027.39 609.398 1037.96 601.098 1046.07C597.369 1049.72 592.162 1052.53 587.073 1053.7C579.596 1055.41 570.451 1054.55 562.735 1054.57L522.737 1054.75C510.091 1054.71 496.866 1055.07 487.386 1045.28C476.993 1034.55 479.023 1021.05 479.227 1007.41Z"/>
	<path fill="#0E4D76" transform="scale(1.79505 1.79505)" d="M763.229 845.55L822.487 929.758C814.117 932.758 806.475 937.241 798.832 941.716L767.598 898.387C765.862 895.974 760.647 890.361 759.94 887.736C759.416 885.789 760.482 880.665 760.649 878.506L763.229 845.55Z"/>
	<path fill="#959393" transform="scale(1.79505 1.79505)" d="M452.198 1411.09L481.063 1411.11L470.925 1496.52L442.884 1496.51L452.198 1411.09Z"/>
	<path fill="#959393" transform="scale(1.79505 1.79505)" d="M734.462 1368L737.96 1380.97L662.935 1382.17C646.489 1382.35 629.179 1382.4 613.111 1378.62C607.204 1377.23 601.118 1375.08 596.753 1370.68C589.419 1363.28 590.17 1354.32 590.226 1344.69L619.499 1344.53C619.444 1349.37 619.052 1354.31 621.086 1358.82L621.323 1359.36C622.964 1362.99 626.207 1365.82 629.942 1367.21C635.931 1369.44 645.732 1368.19 652.129 1368.17L710.994 1367.93C718.345 1367.93 727.266 1366.94 734.462 1368Z"/>
	<path fill="#FEFEFE" transform="scale(1.79505 1.79505)" d="M619.499 1344.53L727.333 1344.67L734.462 1368C727.266 1366.94 718.345 1367.93 710.994 1367.93L652.129 1368.17C645.732 1368.19 635.931 1369.44 629.942 1367.21C626.207 1365.82 622.964 1362.99 621.323 1359.36L621.086 1358.82C619.052 1354.31 619.444 1349.37 619.499 1344.53Z"/>
	<path fill="#959393" transform="scale(1.79505 1.79505)" d="M645.496 1495.92C635.929 1496.98 625.017 1495.94 615.324 1495.86L605.941 1411.11L706.055 1410.37L727.862 1410.4C731.647 1410.41 736.006 1409.92 739.603 1411.16L635.683 1411.32L642.898 1472.33C643.741 1479.54 645.977 1488.81 645.496 1495.92Z"/>
	<path fill="#959393" transform="scale(1.79505 1.79505)" d="M275.658 635.336C279.007 654.608 276.129 671.416 264.735 687.716C251.648 706.437 229.731 719.62 207.389 723.638C191.806 726.441 172.991 724.271 159.987 714.85C153.087 709.851 147.436 702.407 143.358 695.02C158.414 698.155 173.022 699.633 188.395 697.854C189.674 698.777 190.769 699.174 192.321 699.413C208.801 701.948 230.056 699.074 243.663 688.983C262.105 675.307 272.243 657.918 275.658 635.336Z"/>
	<path fill="#959393" transform="scale(1.79505 1.79505)" d="M189.968 654.21C201.521 654.189 211.149 652.199 222.075 648.446L221.285 649.394C210.042 661.156 192.226 669.462 175.997 670.23C160.594 670.959 145.634 666.021 134.263 655.481C123.43 645.438 117.049 632.415 116.503 617.551C115.86 600.082 123.807 588.712 135.152 576.54L141.725 581.193C141.457 584.38 140.569 587.557 139.859 590.676C139.523 608.262 142.893 622.739 155.422 635.763C161.267 641.839 167.576 646.133 175.419 649.236C178.05 650.277 188.956 652.901 189.968 654.21Z"/>
	<path fill="#D1D0D0" transform="scale(1.79505 1.79505)" d="M189.968 654.21C192.422 655.124 195.184 654.962 197.778 655.042L197.715 656.284C193.834 658.02 190.233 658.894 186.008 659.383C170.991 661.119 155.599 658.999 143.475 649.27C134.859 642.356 128.251 631.859 127.119 620.734C125.785 607.62 129.162 598.583 137.333 588.534L139.111 588.407L139.859 590.676C139.523 608.262 142.893 622.739 155.422 635.763C161.267 641.839 167.576 646.133 175.419 649.236C178.05 650.277 188.956 652.901 189.968 654.21Z"/>
	<path fill="#0E4D76" transform="scale(1.79505 1.79505)" d="M308.433 1578.17C309.345 1581.05 310.299 1583.61 312.084 1586.08C315.493 1590.79 320.953 1593.83 326.64 1594.72C335.505 1596.11 345.407 1595.37 354.396 1595.38L408.022 1595.24C418.841 1595.17 431.277 1596.48 441.876 1595.05C445.969 1594.49 451.403 1592.24 454.667 1589.7C458.331 1586.85 462.329 1582.09 463.58 1577.51C464.457 1574.31 463.944 1569.78 463.976 1566.44C464.056 1558.13 463.793 1549.79 464.755 1541.52L464.787 1581.68C464.773 1586.66 465.691 1593.29 464.392 1598.02C463.414 1601.59 460.501 1605.43 457.978 1608.03C455.371 1610.72 452.808 1612.45 449.333 1613.8L448.641 1614.07C440.986 1617 430.371 1615.61 422.19 1615.57L379.837 1615.36C364.109 1615.33 347.941 1616.47 332.291 1615.24C328.721 1614.97 325.134 1614.18 321.881 1612.65C315.718 1609.74 310.635 1603.52 308.408 1597.14C306.416 1591.42 307.465 1584.02 308.433 1578.17Z"/>
	<path fill="#0E4D76" transform="scale(1.79505 1.79505)" d="M624.797 1566.67C628.481 1577.28 632.171 1587.14 642.899 1592.55C651.335 1596.81 751.691 1596.7 761.57 1592.97C766.803 1590.99 771.804 1586.82 773.95 1581.56L776.462 1573.34C779.214 1579.34 780.124 1585.01 779.68 1591.6C779.193 1598.8 775.802 1605.51 770.222 1610.15C766.679 1613.1 762.422 1614.81 757.902 1615.46C750.945 1616.46 743.847 1615.98 736.841 1615.94L704.615 1615.94L668.528 1616.32C661.84 1616.4 654.74 1616.98 648.107 1616.17C639.419 1615.11 633.034 1612.21 627.611 1605.06C621.585 1597.12 623.373 1576.39 624.797 1566.67Z"/>
	<path fill="#D1D0D0" transform="scale(1.79505 1.79505)" d="M214.563 559.836C219.178 559.473 224.022 559.3 228.444 560.843C235.58 563.332 241.194 568.693 244.334 575.526C246.862 581.027 247.445 589.293 245.238 594.966C241.441 604.726 231.635 609.426 223.111 614.278C215.967 618.344 209.141 622.245 201.545 625.438C197.359 625.787 192.565 625.357 188.535 624.205C181.836 622.29 175.883 617.28 172.566 611.197C169.478 605.534 168.449 598.017 170.399 591.809C173.366 582.364 182.573 578.009 190.45 573.355L214.563 559.836Z"/>
	<path fill="#FEFEFE" transform="scale(1.79505 1.79505)" d="M783.065 498.366L782.895 434.481C782.804 413.215 782.708 391.956 779.38 370.898C785.533 374.246 791.048 377.568 796.195 382.402C811.755 397.014 819.914 414.676 820.555 435.942L820.25 455.642C820.239 458.598 820.603 462.653 819.815 465.48C819.166 467.806 817.631 469.734 816.455 471.81C808.674 485.542 797.745 493.222 783.065 498.366Z"/>
	<path fill="#FEFEFE" transform="scale(1.79505 1.79505)" d="M270.057 467.557C266.759 441.475 268.855 413.759 285.607 392.314C292.417 383.596 300.375 377.171 309.629 371.186L307.514 498.339L300 496.675C284.954 492.231 277.348 480.392 270.057 467.557Z"/>
	<path fill="#959393" transform="scale(1.79505 1.79505)" d="M844.328 952.654C859.839 947.749 876.085 944.147 892.371 943.199C899.582 942.779 907.216 942.94 913.737 946.393C916.555 947.885 918.498 949.52 919.457 952.705C921.428 959.254 921.536 967.375 922.219 974.192C923.458 978.8 922.69 985.989 922.729 990.889C917.921 988.998 912.94 986.84 907.884 985.736C900.349 984.09 892.011 984.253 884.333 984.392C857.939 984.871 834.579 990.563 810.279 1000.68L803.787 975.218C813.712 963.492 830.262 957.689 844.328 952.654Z"/>
	<path fill="#FEFEFE" transform="scale(1.79505 1.79505)" d="M844.328 952.654C859.839 947.749 876.085 944.147 892.371 943.199C899.582 942.779 907.216 942.94 913.737 946.393C916.555 947.885 918.498 949.52 919.457 952.705C921.428 959.254 921.536 967.375 922.219 974.192C921.96 976.443 922.238 977.579 920.444 979.174L917.46 977.3C896.513 964.498 868.412 971.236 846.112 976.603L844.328 952.654Z"/>
	<path fill="#FEFEFE" transform="scale(1.79505 1.79505)" d="M336.767 1060.06C336.291 1046.77 334.169 1029.81 337.218 1016.94C339.02 1015.32 339.732 1014.38 342.243 1013.96C350.472 1012.59 361.05 1013.82 369.487 1013.83L436.028 1013.97L436.476 1022.67C434.186 1032.77 435.204 1042.65 434.098 1052.8C433.756 1055.94 433.952 1058.57 431.766 1061.06C420.462 1057.03 406.575 1059.95 394.697 1060L336.767 1060.06Z"/>
	<path fill="#959393" transform="scale(1.79505 1.79505)" d="M900.959 1150.29C897.554 1158.33 893.771 1167.52 885.291 1171.39C880.994 1173.35 872.674 1172.55 868.41 1170.93C863.196 1168.93 858.315 1165.98 855.972 1160.67L855.752 1160.16C851.762 1151.22 855.557 1140.05 858.216 1131.26C860.815 1122.66 863.557 1113.95 864.026 1104.92C864.397 1097.79 864.459 1089.1 859.267 1083.52C856.186 1080.21 851.329 1077.87 846.784 1077.77C826.819 1077.33 838.445 1117.52 827.144 1127.58C824.21 1130.19 819.328 1131.82 815.411 1131.54C811.082 1131.23 807.687 1129.09 804.886 1125.88C799.926 1120.19 800.922 1112.7 801.36 1105.66C802.017 1095.08 803.85 1084.74 804.954 1074.21C806.095 1063.33 805.398 1051.43 808.75 1040.97C809.862 1037.49 811.832 1034.9 814.586 1032.53C818.769 1028.93 824.383 1026.42 829.391 1024.14C849.685 1014.89 874.265 1011.49 896.414 1013.12C900.96 1013.45 910.46 1014.8 913.504 1018.52C914.189 1019.36 914.737 1020.29 915.263 1021.23C893.267 1020.82 872.361 1024.68 851.511 1031.48C843.973 1033.95 835.866 1035.98 830.047 1041.72C821.225 1050.41 819.82 1063.24 817.699 1074.85C815.909 1084.65 814.009 1095.55 814.16 1105.51C814.195 1107.79 814.908 1109.03 816.444 1110.67C817.703 1110.95 820.477 1111.93 821.491 1111.3C825.079 1109.05 825.892 1106.71 826.747 1102.7C828.777 1093.19 827.845 1079.98 836.799 1073.85C841.644 1070.53 849.486 1070.36 855.033 1071.53C862.413 1073.09 868.054 1076.87 872.026 1083.29C880.219 1096.53 878.244 1112.15 874.695 1126.47C872.647 1134.74 865.292 1146.36 870.146 1154.24C871.148 1155.86 872.701 1157.49 874.655 1157.89C884.444 1159.92 893.183 1155.65 900.959 1150.29Z"/>
	<path fill="#959393" transform="scale(1.79505 1.79505)" d="M384.403 1344.7L496.642 1344.7C497.492 1353.9 498.541 1363.18 492.088 1370.79C484.79 1379.4 470.202 1380.87 459.624 1381.55C446.209 1382.41 432.54 1381.83 419.091 1381.91C395.65 1382.04 371.581 1384.83 348.933 1377.23L352.213 1366.93L360.689 1344.58L384.403 1344.7Z"/>
	<path fill="#FEFEFE" transform="scale(1.79505 1.79505)" d="M352.213 1366.93L360.689 1344.58L384.403 1344.7L385.263 1344.87C392.011 1346.15 399.547 1345.54 406.437 1345.55L445.216 1345.56C452.649 1345.55 460.351 1345.12 467.731 1345.89C469.437 1349.19 469.193 1354.38 468 1357.85C466.77 1361.42 464.298 1364.77 460.881 1366.49C459.234 1367.32 457.309 1367.61 455.49 1367.72C434.646 1369 413.026 1367.8 392.105 1368.02L364.633 1368.28C361.836 1368.3 356.878 1368.97 354.293 1368.11C353.567 1367.87 352.866 1367.33 352.213 1366.93Z"/>
	<path fill="#959393" transform="scale(1.79505 1.79505)" d="M379.787 696.054L374.122 691.171L389.31 675.044C406.971 687.015 424.256 696.488 444.793 702.46C479.724 712.619 517.111 711.765 553.137 711.693C575.451 711.648 598.366 712.086 620.368 707.811C648.033 702.437 671.041 692.379 695.13 678.098L713.233 690.615L703.113 699.698C702.499 699.237 702.007 698.85 701.278 698.581C700.137 698.16 695.274 696.675 694.155 696.807C692.921 696.953 689.743 699.101 688.427 699.78C682.779 702.698 677.144 705.702 671.243 708.082C644.3 718.952 614.185 724.788 585.333 727.314C530.188 732.142 471.792 726.459 419.086 709.075C409.116 705.786 400.203 700.549 390.572 696.562C386.758 694.983 383.76 694.421 379.787 696.054Z"/>
	<path fill="#D1D0D0" transform="scale(1.79505 1.79505)" d="M379.787 696.054C383.76 694.421 386.758 694.983 390.572 696.562C400.203 700.549 409.116 705.786 419.086 709.075C471.792 726.459 530.188 732.142 585.333 727.314C614.185 724.788 644.3 718.952 671.243 708.082C677.144 705.702 682.779 702.698 688.427 699.78C689.743 699.101 692.921 696.953 694.155 696.807C695.274 696.675 700.137 698.16 701.278 698.581C702.007 698.85 702.499 699.237 703.113 699.698C671.032 727.478 628.096 743.93 586.357 749.632C531.417 757.137 475.248 750.3 425.335 725.301C408.978 717.108 394.313 707.09 379.787 696.054Z"/>
	<path fill="#959393" transform="scale(1.79505 1.79505)" d="M751.143 1047.36C751.537 1054.97 753.415 1066.81 747.818 1072.95C746.328 1074.58 744.525 1076.08 742.222 1076.18L689.367 1076.36C682.148 1076.36 673.78 1075.5 666.713 1076.9C661.313 1077.98 657.123 1080.23 653.313 1084.18L607.425 1132.96C600.185 1140.78 593.233 1150.32 584.91 1156.85C581.667 1159.4 577.993 1161.34 573.778 1161.45L525.378 1161.4C520.132 1161.38 513.291 1162.41 508.262 1161.45C506.151 1161.04 503.53 1158.69 502.043 1157.24L429.14 1077.16L364.555 1077.48C357.672 1077.53 344.567 1079.68 338.521 1076.35C335.594 1072.94 336.596 1064.41 336.767 1060.06L394.697 1060C406.575 1059.95 420.462 1057.03 431.766 1061.06L512.682 1148.16C526.857 1146.75 542.052 1146.65 556.316 1146.96L569.446 1147.89C570.145 1147.94 572.836 1148.43 573.4 1148.21C577.319 1146.69 583.076 1139.13 586.113 1135.91L623.863 1095.59C633.067 1085.63 644.605 1068.88 657.064 1063.46C665.443 1059.82 675.897 1061.05 684.867 1061.04L723.315 1061.02C728.259 1061.02 734.731 1061.8 739.471 1060.28C745.597 1058.3 748.315 1052.63 751.143 1047.36Z"/>
	<path fill="#D1D0D0" transform="scale(1.79505 1.79505)" d="M900.959 1150.29C893.183 1155.65 884.444 1159.92 874.655 1157.89C872.701 1157.49 871.148 1155.86 870.146 1154.24C865.292 1146.36 872.647 1134.74 874.695 1126.47C878.244 1112.15 880.219 1096.53 872.026 1083.29C868.054 1076.87 862.413 1073.09 855.033 1071.53C849.486 1070.36 841.644 1070.53 836.799 1073.85C827.845 1079.98 828.777 1093.19 826.747 1102.7C825.892 1106.71 825.079 1109.05 821.491 1111.3C820.477 1111.93 817.703 1110.95 816.444 1110.67C814.908 1109.03 814.195 1107.79 814.16 1105.51C814.009 1095.55 815.909 1084.65 817.699 1074.85C819.82 1063.24 821.225 1050.41 830.047 1041.72C835.866 1035.98 843.973 1033.95 851.511 1031.48C872.361 1024.68 893.267 1020.82 915.263 1021.23C924.069 1065.56 923.533 1109.92 900.959 1150.29Z"/>
	<path fill="#D1D0D0" transform="scale(1.79505 1.79505)" d="M739.603 1411.16C741.855 1416.3 740.461 1426.8 740.466 1432.53L740.451 1472.28C740.449 1480.15 741 1488.16 740.026 1495.98L645.496 1495.92C645.977 1488.81 643.741 1479.54 642.898 1472.33L635.683 1411.32L739.603 1411.16Z"/>
	<path fill="#D1D0D0" transform="scale(1.79505 1.79505)" d="M442.884 1496.51L345.771 1496.65L346.075 1411.22C357.576 1409.91 369.965 1410.95 381.581 1410.97L452.198 1411.09L442.884 1496.51Z"/>
	<path fill="#347AA4" transform="scale(1.79505 1.79505)" d="M624.797 1566.67L624.173 1525.8L735.757 1525.8L757.906 1551.48C764.359 1558.52 771.177 1565.35 776.462 1573.34L773.95 1581.56C771.804 1586.82 766.803 1590.99 761.57 1592.97C751.691 1596.7 651.335 1596.81 642.899 1592.55C632.171 1587.14 628.481 1577.28 624.797 1566.67Z"/>
	<path fill="#347AA4" transform="scale(1.79505 1.79505)" d="M308.433 1578.17C313.468 1570.13 319.998 1563.14 326.203 1556L351.694 1526.54C353.88 1525.54 357.268 1525.98 359.698 1525.98L379.542 1525.97L464.403 1526L464.755 1541.52C463.793 1549.79 464.056 1558.13 463.976 1566.44C463.944 1569.78 464.457 1574.31 463.58 1577.51C462.329 1582.09 458.331 1586.85 454.667 1589.7C451.403 1592.24 445.969 1594.49 441.876 1595.05C431.277 1596.48 418.841 1595.17 408.022 1595.24L354.396 1595.38C345.407 1595.37 335.505 1596.11 326.64 1594.72C320.953 1593.83 315.493 1590.79 312.084 1586.08C310.299 1583.61 309.345 1581.05 308.433 1578.17Z"/>
	<path fill="#FEFEFE" transform="scale(1.79505 1.79505)" d="M348.796 338.456C362.299 290.773 403.959 250.388 446.166 226.843C490.453 202.138 548.713 194.934 597.602 208.892C655.078 225.302 701.168 262.973 729.976 315.216C737.031 328.011 743.267 342.759 746.29 357.099C741.159 355.006 737.565 346.981 734.407 342.611L723.991 329.42C711.193 313.885 697.903 300.308 680.909 289.35C610.489 243.943 514.779 240.92 438.82 273.479C424.079 279.798 409.037 287.34 395.965 296.708C389.156 301.589 382.257 306.856 376.054 312.494C370.611 317.442 365.128 322.801 360.186 328.247C357.947 330.714 354.088 336.3 351.325 337.921C350.814 338.221 349.43 338.322 348.796 338.456Z"/>
	<defs>
		<linearGradient id="gradient_0" gradientUnits="userSpaceOnUse" x1="526.10187" y1="1153.3527" x2="643.55383" y2="955.87238">
			<stop offset="0" stop-color="#C5C4C4"/>
			<stop offset="1" stop-color="#F7F7F7"/>
		</linearGradient>
	</defs>
	<path fill="url(#gradient_0)" transform="scale(1.79505 1.79505)" d="M436.028 1013.97L451.39 1013.53C451.785 1034.16 453.447 1050.94 469.307 1066.12C475.815 1072.35 483.682 1077.06 492.386 1079.5C506.616 1083.5 522.215 1082.15 536.848 1082.15L581.522 1081.99C596.934 1081.53 612.026 1076.21 622.662 1064.73C636.759 1049.53 637.455 1033.66 637.223 1014.12C650.535 1014.09 739.235 1012.43 744.064 1014.71C746.916 1015.45 748.645 1016.37 750.276 1018.86C751.593 1020.87 751.259 1023.7 751.277 1025.99L751.143 1047.36C748.315 1052.63 745.597 1058.3 739.471 1060.28C734.731 1061.8 728.259 1061.02 723.315 1061.02L684.867 1061.04C675.897 1061.05 665.443 1059.82 657.064 1063.46C644.605 1068.88 633.067 1085.63 623.863 1095.59L586.113 1135.91C583.076 1139.13 577.319 1146.69 573.4 1148.21C572.836 1148.43 570.145 1147.94 569.446 1147.89L556.316 1146.96C542.052 1146.65 526.857 1146.75 512.682 1148.16L431.766 1061.06C433.952 1058.57 433.756 1055.94 434.098 1052.8C435.204 1042.65 434.186 1032.77 436.476 1022.67L436.028 1013.97Z"/>
	<path fill="#959393" transform="scale(1.79505 1.79505)" d="M436.028 1013.97L451.39 1013.53C451.785 1034.16 453.447 1050.94 469.307 1066.12C475.815 1072.35 483.682 1077.06 492.386 1079.5C506.616 1083.5 522.215 1082.15 536.848 1082.15L581.522 1081.99C596.934 1081.53 612.026 1076.21 622.662 1064.73C636.759 1049.53 637.455 1033.66 637.223 1014.12C650.535 1014.09 739.235 1012.43 744.064 1014.71L649.988 1014.95C651.184 1039.78 642.447 1060.97 625.792 1079.28C613.409 1092.89 599.908 1103.29 580.807 1104.21C568.815 1104.8 556.314 1103.72 544.243 1103.74C515.81 1103.77 488.237 1107.85 465.513 1087.17C451.298 1074.24 442.121 1056.86 438.466 1038.04C437.521 1033.17 438.03 1027.18 436.476 1022.67L436.028 1013.97Z"/>
	<path fill="#0E4D76" transform="scale(1.79505 1.79505)" d="M295.795 693.337L295.606 694.092C294.047 700.134 290.429 705.557 286.821 710.578C274.852 727.234 259.086 738.003 242.223 749.093C248.28 757.15 256.471 764.047 263.744 771.002C297.54 803.324 333.811 830.472 374.012 854.239L390.092 847.868L390.105 957.101L441.599 956.365L440.917 901.576C440.9 891.152 439.971 879.669 442.204 869.463C444.202 860.332 448.522 851.459 455.003 844.675C463.925 835.335 477.048 831.209 489.76 831.001L580.231 829.99L602.246 829.967C606.109 829.981 610.526 829.611 614.297 830.389C621.081 831.79 627.96 836.124 632.883 840.922C645.345 853.067 649.756 865.273 649.893 882.586L649.915 957.089L697.645 957.038L697.558 851.768L729.579 842.832C731.791 858.47 730.048 874.63 730.001 890.373L729.916 985.332L637.315 985.292L637.347 918.887C637.424 904.743 639.515 887.88 636.259 874.099C634.402 866.243 630.054 858.688 624.444 852.896C613.26 841.346 599.958 837.378 584.142 837.203L551.564 837.956L512.582 837.804C504.158 837.778 494.79 837.158 486.576 839.136C478.141 841.167 471.101 845.492 465.007 851.58C459.527 857.056 454.73 864.279 452.791 871.86C448.87 887.191 450.724 904.717 450.791 920.462L451.046 984.685L357.392 984.548L357.422 895.19L357.51 877.771C357.516 876.721 357.897 873.557 357.544 872.682C356.775 870.772 346.901 865.832 344.642 864.452L306.906 839.542C281.601 821.29 258.149 801.657 236.551 779.111C228.526 770.734 219.831 761.811 213.607 752.002C240.148 743.598 261.58 733.674 280.603 712.662C286.053 706.642 290.661 699.666 295.795 693.337Z"/>
	<path fill="#FEFEFE" transform="scale(1.79505 1.79505)" d="M479.227 1007.41L479.222 924.606C479.206 911.462 477.505 896.685 479.919 883.788C480.781 879.181 482.84 875.525 486.137 872.208C492.398 865.907 500.952 865.629 509.341 865.68L560.237 866.342C570.279 866.343 582.3 864.917 591.986 866.576C596.162 867.291 600.416 869.888 603.342 872.888C606.09 875.704 608.06 879.309 608.652 883.219C610.378 894.6 608.944 908.176 608.936 919.748L608.8 1007.56C607.929 1014.19 606.477 1018.62 602.222 1023.91C594.648 1033.31 585.195 1037.16 573.479 1038.4C560.453 1039.78 546.612 1039.01 533.492 1038.99C524.989 1038.99 514.953 1039.92 506.646 1038.27C500.526 1037.05 494.51 1033.94 489.734 1029.98C482.513 1023.98 480.174 1016.4 479.227 1007.41Z"/>
	<path fill="#D1D0D0" transform="scale(1.79505 1.79505)" d="M506.36 1017.59C502.13 1015.22 498.661 1012.17 495.431 1008.57C493.352 1006.26 492.834 1004.11 491.794 1001.3C488.309 991.876 489.779 978.105 489.757 968.134C489.725 953.581 488.833 938.175 490.849 923.737C491.612 918.276 493.194 913.36 495.556 908.377C500.72 897.477 509.165 889.536 520.568 885.414C534.743 880.29 556.775 880.657 570.414 887.186C579.635 891.6 586.333 899.861 589.581 909.439C595.439 926.712 592.113 947.148 592.108 965.098L592.397 993.289C592.267 998.084 592.296 1003.26 590.463 1007.75L590.26 1008.26C588.094 1013.6 583.218 1018.55 578.064 1021.06C580.429 1017.32 582.959 1013.33 584.082 1009.01C587.507 995.842 585.039 977.56 584.987 963.923C584.939 951.445 586.189 937.363 584.485 925.072C583.866 920.611 581.813 916.196 579.534 912.344C575.084 904.821 567.479 900.325 559.126 898.395C547.372 895.68 528.035 896.421 517.778 902.97C510.504 907.614 505.438 914.455 503.588 922.886C501.021 934.587 502.452 948.192 502.349 960.159C502.229 974.198 501.057 989.262 502.552 1003.22C503.107 1008.41 504.469 1012.73 506.36 1017.59Z"/>
	<path transform="scale(1.79505 1.79505)" d="M506.36 1017.59C504.469 1012.73 503.107 1008.41 502.552 1003.22C501.057 989.262 502.229 974.198 502.349 960.159C502.452 948.192 501.021 934.587 503.588 922.886C505.438 914.455 510.504 907.614 517.778 902.97C528.035 896.421 547.372 895.68 559.126 898.395C567.479 900.325 575.084 904.821 579.534 912.344C581.813 916.196 583.866 920.611 584.485 925.072C586.189 937.363 584.939 951.445 584.987 963.923C585.039 977.56 587.507 995.842 584.082 1009.01C582.959 1013.33 580.429 1017.32 578.064 1021.06L577.525 1021.64C568.275 1031.3 556.02 1031.93 543.555 1031.89C534.615 1031.86 525.942 1032.28 517.918 1027.55C513.547 1024.98 509.912 1021.17 506.36 1017.59Z"/>
	<path fill="#0E4D76" transform="scale(1.79505 1.79505)" d="M357.305 1132.99L357.366 1106.46L401.877 1106.36C405.714 1106.32 413.592 1105.12 417.06 1106.16C421.478 1107.47 473.404 1167.89 481.662 1175.64C487.419 1181.05 494.383 1185.57 502.014 1187.78C512.565 1190.83 524.206 1190 535.086 1189.99L569.869 1189.85C579.557 1189.54 589.694 1186.93 597.93 1181.72C610.714 1173.64 620.539 1160.31 630.818 1149.39L671.764 1106.12L729.745 1106.32L729.784 1130.48L729.75 1293.01C728.666 1300.95 726.831 1307.87 723.794 1315.26L587.077 1315.26L564.355 1200.64L522.121 1200.63L498.427 1315.64L406.836 1315.74L365.907 1316.04C365.291 1316.04 364.644 1316.23 364.167 1315.78C359.669 1311.55 358.136 1298.7 357.253 1292.71L357.305 1132.99Z"/>
	<path fill="#347AA4" transform="scale(1.79505 1.79505)" d="M729.75 1293.01L621.677 1293.17L602.826 1198.76C618.33 1189.65 629.089 1176.24 641.403 1163.5L673.408 1130.39L729.784 1130.48L729.75 1293.01Z"/>
	<path fill="#347AA4" transform="scale(1.79505 1.79505)" d="M357.305 1132.99L418.116 1132.92C439.188 1155.55 459.806 1182.37 485.027 1200.36L464.634 1293.8L395.365 1293.86C383.367 1293.86 368.919 1295.39 357.253 1292.71L357.305 1132.99Z"/>
	<path fill="#347AA4" transform="scale(1.79505 1.79505)" d="M295.795 693.337L305.62 669.624L335.943 696.976L329.464 705.437L334.551 712.478L344.153 703.622C357.874 715.944 371.757 727.611 387.392 737.507C437.365 769.139 499.403 784.153 558.421 780.95C613.63 777.954 669.182 762.262 713.614 728.36C719.415 723.934 725.151 719.257 730.347 714.128C731.518 712.972 736.175 707.348 737.362 706.994C738.197 706.746 757.755 720.542 760.093 722.271C824.678 771.433 871.194 839.469 900.986 914.372C873.656 916.14 847.943 918.806 822.487 929.758L763.229 845.55C766.451 835.061 767.195 824.135 768.896 813.335L776.449 762.976L747.08 811.515C741.006 821.533 733.23 831.638 729.579 842.832L697.558 851.768L697.645 957.038L649.915 957.089L649.893 882.586C649.756 865.273 645.345 853.067 632.883 840.922C627.96 836.124 621.081 831.79 614.297 830.389C610.526 829.611 606.109 829.981 602.246 829.967L580.231 829.99L489.76 831.001C477.048 831.209 463.925 835.335 455.003 844.675C448.522 851.459 444.202 860.332 442.204 869.463C439.971 879.669 440.9 891.152 440.917 901.576L441.599 956.365L390.105 957.101L390.092 847.868L374.012 854.239C333.811 830.472 297.54 803.324 263.744 771.002C256.471 764.047 248.28 757.15 242.223 749.093C259.086 738.003 274.852 727.234 286.821 710.578C290.429 705.557 294.047 700.134 295.606 694.092L295.795 693.337Z"/>
	<path fill="#FEFEFE" transform="scale(1.79505 1.79505)" d="M334.551 712.478L344.153 703.622C357.874 715.944 371.757 727.611 387.392 737.507C437.365 769.139 499.403 784.153 558.421 780.95C613.63 777.954 669.182 762.262 713.614 728.36C719.415 723.934 725.151 719.257 730.347 714.128C731.518 712.972 736.175 707.348 737.362 706.994C738.197 706.746 757.755 720.542 760.093 722.271C734.06 758.271 696.018 782.587 654.499 797.323C577.985 824.482 483.251 821.476 409.869 786.431C378.288 771.348 346.678 746.515 334.551 712.478Z"/>
	<path fill="#D1D0D0" transform="scale(1.79505 1.79505)" d="M348.796 338.456C349.43 338.322 350.814 338.221 351.325 337.921C354.088 336.3 357.947 330.714 360.186 328.247C365.128 322.801 370.611 317.442 376.054 312.494C382.257 306.856 389.156 301.589 395.965 296.708C409.037 287.34 424.079 279.798 438.82 273.479C514.779 240.92 610.489 243.943 680.909 289.35C697.903 300.308 711.193 313.885 723.991 329.42L734.407 342.611C737.565 346.981 741.159 355.006 746.29 357.099C750.289 367.495 752.147 379.237 753.206 390.304C755.964 419.128 754.575 448.779 754.655 477.748C754.708 496.763 756.361 516.252 754.251 535.181C752.739 548.749 748.729 563.513 743.233 575.974C724.009 619.561 690.448 654.272 645.522 671.32C636.235 674.844 626.016 677.774 616.205 679.269C591.563 683.022 566.803 682.393 541.96 682.391C519.906 682.389 497.608 683.105 475.767 679.543C460.724 677.089 446.268 672.43 432.413 666.106C392.154 647.732 358.961 609.441 343.701 568.204C339.909 557.955 337.526 547.611 336.311 536.762C333.649 513 335.166 487.929 335.153 464.018C335.138 436.248 333.333 406.882 337.123 379.324C339.085 365.054 342.789 351.562 348.796 338.456Z"/>
	<path transform="scale(1.79505 1.79505)" d="M486.707 290.068L487.367 289.943C504.228 288.015 522.461 289.886 539.499 289.806C562.843 289.697 587.263 287.991 610.404 291.16C638.738 295.039 667.06 309.132 688.651 327.652C717.847 352.696 735.472 386.704 738.259 425.078C739.514 442.356 738.466 460.143 738.5 477.481C738.534 495.411 739.495 513.807 737.462 531.635C734.19 560.331 719.309 588.044 700.6 609.631C677.572 636.199 641.199 657.645 605.546 660.154L597.516 660.951C579.798 662.446 561.081 661.261 543.268 661.245C525.809 661.228 507.733 662.188 490.368 660.585C460.62 657.839 431.015 647.022 408.183 627.522C378.496 602.169 354.824 564.306 351.875 524.767C350.592 507.562 351.7 489.759 351.732 472.475C351.764 455.491 350.695 437.632 352.276 420.786C355.004 391.727 368.255 361.403 387.294 339.416C413.493 309.16 446.912 292.907 486.707 290.068Z"/>
	<path fill="#0E4D76" transform="scale(1.79505 1.79505)" d="M484.172 318.514C489.256 317.598 495.57 318.058 500.798 318.098L532.444 318.459C552.198 318.505 572.271 317.129 591.976 318.36C601.681 318.966 611.068 320.266 620.506 322.655C651.052 330.386 676.726 348.69 692.809 375.911C696.256 381.746 702.176 391.142 703.476 397.65C703.619 398.362 702.728 400.918 702.543 401.723L699.447 414.633C679.967 489.928 643.323 559.918 574.279 600.639C551.069 614.002 523.642 623.109 496.97 625.832C488.668 626.679 477.64 628.591 469.457 627.319C454.803 625.04 437.335 614.24 426.02 604.932C402.725 585.768 383.429 554.517 380.618 524.066C379.288 509.666 380.471 495.595 380.129 481.212C379.706 463.423 378.421 445.087 380.127 427.369C382.54 402.309 392.073 377.93 408.339 358.591C427.941 335.286 453.732 321.113 484.172 318.514Z"/>
	<path fill="#FEFEFE" transform="scale(1.79505 1.79505)" d="M512.257 339.815C525.826 337.891 542.062 339.105 555.706 340.598C530.822 348.165 507.832 355.396 487.203 372.069C448.001 403.753 430.632 449.502 425.462 498.445L423.832 524.559C416.463 508.868 410.801 492.837 408.704 475.536C404.534 441.124 410.125 404.94 432.026 377.103C451.561 352.272 482.213 343.42 512.257 339.815Z"/>
</svg>
