<?xml version="1.0" encoding="UTF-8" standalone="no"?>
<svg
   width="1016"
   height="1016"
   version="1.1"
   id="svg31"
   xmlns="http://www.w3.org/2000/svg"
   xmlns:svg="http://www.w3.org/2000/svg">
  <defs
     id="defs31" />
  <path
     id="path1"
     style="stroke-width:0.992419"
     d="m 330.51953,854.37891 c 0.0122,0.24977 -0.008,0.47854 -0.0508,0.68359 0.21073,0.0569 0.43483,0.11372 0.68555,0.16992 z m 0.73438,0.98828 c 0.0177,0.20651 0.0161,0.61771 0.0176,0.66601 0.01,0.55176 0.01,1.10247 0.01,1.6543 2e-5,0.37095 -0.002,0.74233 -0.002,1.11328 4.9e-4,0.005 9.5e-4,0.009 0.002,0.0137 0.0715,0.60025 0.1666,1.19801 0.2168,1.80078 0.0323,0.54316 0.0898,1.08891 0.0391,1.63282 -0.0502,0.59634 -0.12166,1.19202 -0.25781,1.77539 v 0.4414 1.48438 c 0.0157,0.55184 -0.009,1.09924 -0.0605,1.64844 -0.007,0.0996 -0.0197,0.19802 -0.0332,0.29687 l 0.97851,-0.82422 c 1.41023,-3.56972 1.28367,-5.18317 0.58203,-8.87695 -0.19551,-1.02914 -0.15667,-1.11107 -0.86328,-1.98242 z m -0.0937,0.49023 c -0.002,0.0339 -0.004,0.0676 -0.006,0.10156 0.026,0.019 0.0409,0.0335 0.0488,0.043 -0.0107,-0.0159 -0.0317,-0.0564 -0.043,-0.14453 z m -7.60352,0.22461 c -0.0123,0.008 0.0308,0.0752 0.0508,0.0996 0.0316,0.0387 0.0559,0.0641 0.0801,0.0898 0.005,0.002 0.0102,0.006 0.0156,0.008 -0.0354,-0.091 -0.0762,-0.17465 -0.13671,-0.19727 -0.004,-0.002 -0.008,-0.001 -0.01,0 z m -4.83594,2.98047 c -0.0104,0.005 -0.044,0.0449 -0.0918,0.12305 0.0751,-0.0718 0.10689,-0.12984 0.0918,-0.12305 z m 4.21094,3.4043 c 0.005,0.009 0.0109,0.0179 0.0156,0.0273 0.002,-0.009 0.004,-0.0182 0.006,-0.0273 -0.008,3.1e-4 -0.0138,-2.4e-4 -0.0215,0 z" />
  <path
     id="path2"
     style="stroke-width:0.992419"
     d="m 456.63086,108 c -27.99013,0.86674 -56.08882,8.76715 -79.49805,22.98047 -34.64594,21.03611 -61.53202,55.10764 -71.14648,94.72461 l -6.06641,1.74804 c -8.13575,2.79862 -14.44744,8.43826 -18.10937,16.22071 l -0.32617,0.70898 c -1.63551,3.51118 -2.88877,7.68377 -3.49415,11.52344 -1.61754,10.25952 -2.13361,20.57528 -2.14453,30.9668 -0.0109,10.90063 0.44593,21.19477 3.22461,31.80859 2.37188,9.05969 8.73077,21.26655 18.31446,24.14258 1.73663,0.52201 3.53656,0.81927 5.34375,0.94531 0.64994,0.0447 2.30338,-0.0895 2.75195,0.13281 0.52499,0.261 2.11393,5.75 2.37891,6.55078 1.33173,4.02029 2.79546,7.97348 4.6621,11.7793 8.42266,17.17362 21.09094,30.22883 35.03125,42.99024 l -1.51171,5.59179 -2.52149,8.53125 c -21.9134,0.28383 -43.85377,1.52313 -65.66992,-1.33008 -13.49977,-1.7664 -26.69396,-5.87284 -39.49805,-10.35351 l -50.32617,-20.00977 c -9.44475,-3.94377 -18.90089,-7.60485 -28.96094,-9.66015 -4.44991,-0.90906 -9.24605,-1.6887 -13.77734,-1.06446 -3.24818,0.44758 -6.48882,2.06317 -9.51172,3.30469 l -10.37305,-5.8418 c -8.35011,-4.0976 -17.78032,-6.71958 -27.074215,-7.33984 -3.351369,-0.2233 -6.958801,-0.25526 -10.150391,0.92969 -5.166473,1.91735 -9.187611,5.46652 -11.443359,10.50195 l -0.376953,0.86914 -0.435547,0.88867 c -1.134325,2.45722 -0.921507,8.52065 0.15625,10.95704 l 0.261719,0.56054 c 3.921008,8.9803 12.580832,15.57401 19.933594,21.70508 1.862751,1.55313 4.282782,3.1009 5.898442,4.85352 0.15869,0.17268 0.32813,0.35966 0.38867,0.58593 0.20146,0.75722 -0.65176,3.71316 -0.81055,4.61914 -0.74233,4.25847 -1.56433,8.49612 -1.57227,12.83399 -0.0189,9.6859 4.53176,18.00276 11.34571,24.68164 8.6528,8.48012 20.09669,11.97844 32.08203,10.39453 2.51777,-0.33246 6.51936,-1.6536 8.91406,-1.26953 0.87135,0.13993 2.45531,1.11082 3.29688,1.50977 l 10.24023,5.3457 23.88281,10.9707 c 27.988,12.32475 58.63667,25.42476 89.40235,27.99414 20.90709,1.74566 41.66028,0.1816 62.56836,0.0547 1.07579,10.01936 0.4042,20.63789 0.41015,30.7168 l 0.0176,57.58203 c 0.0179,15.4984 2.09303,31.51547 0.91602,46.93945 -0.43766,5.74204 -2.59163,11.76398 -3.58008,17.49609 l -6.73633,47.5586 c -0.63713,4.43899 -0.59641,8.97542 -0.79688,13.45312 l -0.87304,26.75391 -0.70508,50.85547 0.81641,12.75195 c 0.0655,4.30214 -0.67649,8.47478 -0.87696,12.74219 l -0.0645,12.2832 c 0.0277,2.43934 0.18791,4.95899 -0.38867,7.34766 0.14485,0.32025 0.22931,0.66219 0.32422,1 0.0873,0.31079 0.13354,0.59711 0.14648,0.86133 l 0.63477,0.85351 c 0.0258,0.006 0.048,0.0118 0.0742,0.0176 0.0108,0.002 0.0195,0.0484 0.0254,0.11719 l 0.6289,0.84375 c 0.70661,0.87135 0.66777,0.95523 0.86328,1.98437 0.70164,3.69378 0.8282,5.30536 -0.58203,8.875 l -0.97851,0.82422 c -0.0416,0.30427 -0.10474,0.60654 -0.14844,0.91016 -0.038,0.29565 -0.0483,0.59296 -0.0586,0.89062 -0.0239,0.83027 10e-4,0.98208 -0.68946,0.875 -0.57637,3.23721 -0.066,7.13614 -0.0234,10.0918 l 0.20313,18.00977 c 0.007,0.71147 0.28927,3.60112 0.041,4.11718 -0.53194,1.10456 -5.05398,4.03652 -6.25977,5.17383 -3.26704,3.08146 -6.15736,6.98543 -8.34961,10.89258 -5.11384,9.11428 -7.00124,18.03156 -6.74023,28.4082 0.0863,3.40697 0.15675,6.94272 1.16406,10.22266 1.0986,3.57559 2.36058,6.60673 4.97461,9.40039 4.59778,4.91337 13.04541,8.54871 19.74414,9.04492 4.25142,0.3146 8.56963,-0.19529 12.83008,-0.13476 l 20.64062,0.50976 23.9375,0.29688 c 13.81635,0.0645 31.42842,0.72235 42.08789,-9.59375 3.50919,-3.39605 6.36673,-7.99745 7.37305,-12.80274 0.77011,-3.68088 0.61344,-7.57207 0.60351,-11.3125 l -0.0371,-16.54101 0.20703,-58.44336 1.17578,-0.0352 c -0.0255,-0.21598 -0.0298,-0.43402 -0.0527,-0.65039 -0.3004,-0.32667 -0.52255,-0.72872 -0.70312,-1.15625 -0.24171,-0.60267 -0.39763,-1.23477 -0.55469,-1.86328 -0.1848,-0.77379 -0.23941,-1.56785 -0.28711,-2.35938 -0.0599,-0.68163 -0.10466,-1.36332 -0.13476,-2.04687 -0.0238,-0.56116 -0.035,-1.12398 -0.043,-1.68555 -0.006,-0.46588 -0.007,-0.93057 -0.008,-1.39648 -5.6e-4,-0.48627 1.9e-4,-0.97271 0,-1.45899 -0.0323,-0.41114 -0.0751,-0.82096 -0.10351,-1.23242 -0.0154,-0.2529 -0.0242,-0.50657 -0.0332,-0.75977 -0.0317,-0.93112 0.22323,-1.59248 0.59765,-1.99609 -0.0595,-0.0122 -0.1302,-0.0129 -0.17968,-0.0352 -0.58652,-6.62439 -0.36165,-13.39191 -0.3418,-20.04102 0.0943,-31.45243 5.41349,-62.39626 9.18359,-93.53906 l 1.4336,-13.26953 c 0.11909,-1.38542 0.0173,-4.34065 0.71093,-5.39063 l 10.37696,-0.28906 c 5.93258,35.02306 11.8799,70.77142 13.77929,106.24414 0.49522,9.23734 1.70628,18.74093 1.14258,27.99414 h -0.0176 c 0.003,0.4161 -0.10958,0.84577 -0.15234,1.24609 -0.11316,0.56834 -0.25955,1.12787 -0.37695,1.69532 -0.0941,0.382 -0.15214,0.77206 -0.20704,1.16211 0.16012,0.5996 0.28239,1.20661 0.22657,1.83203 -0.0657,0.36268 -0.17142,0.70618 -0.31641,1.02929 0.0173,0.30256 0.0411,0.60316 0.0762,0.9043 0.0827,0.66567 0.16885,1.33065 0.21875,2 0.0546,0.63869 0.0969,1.28061 0.0703,1.92188 -0.0163,0.52531 -0.0431,1.05008 -0.10547,1.57226 -0.0251,0.18917 -0.0553,0.37408 -0.0898,0.55664 l 0.24805,-0.008 0.0117,62.40234 0.006,17.38672 c 0.0198,3.19956 -0.23218,6.69124 0.79101,9.76367 l 0.28711,0.7793 c 1.50848,4.18304 4.51681,8.14392 7.86524,11.05469 5.30934,4.61465 12.34639,6.49195 19.15429,7.48437 14.31455,2.08706 28.41399,0.62882 42.78907,0.45117 10.31312,-0.12703 20.44761,0.4526 30.76172,-0.24804 9.23436,-0.62721 19.33364,-2.26049 25.65039,-9.67188 6.3752,-7.47976 5.9122,-18.45951 5.05078,-27.66211 -1.46878,-15.68995 -10.02032,-27.97201 -22.01758,-37.73632 l -0.50781,-0.40821 2.00976,-33.0039 1.36328,-0.0332 c -0.57021,-0.45835 -0.70685,-1.24103 -0.61914,-2.16211 0.0941,-0.58582 0.24399,-1.16157 0.33399,-1.74804 0.006,-0.45093 -0.009,-0.90075 -0.0176,-1.35157 -0.0114,-0.56499 -0.0165,-1.13023 -0.0215,-1.69531 -0.005,-0.70808 -0.005,-1.4169 -0.006,-2.125 -0.006,-0.72422 -0.007,-1.4468 0.0352,-2.16992 0.0366,-0.55352 0.0702,-1.10787 0.0937,-1.66211 0.0155,-0.4514 0.0788,-0.89919 0.14453,-1.3457 0.0257,-0.14863 0.0464,-0.29789 0.0664,-0.44727 -0.0706,-0.24104 -0.11706,-0.48884 -0.19922,-0.72656 -0.18701,10e-4 -0.39196,0.005 -0.57812,0.006 l -1.6836,-115.67774 c 10.81131,2.97428 23.90658,5.2087 34.34375,-0.002 15.88555,-7.93131 24.64445,-29.19502 29.9668,-45.11133 l 11.75391,-39.55078 11.60546,-38.82617 c 3.05476,-11.78785 4.99192,-23.7534 6.78125,-35.77734 1.7009,-11.4286 3.15286,-23.10514 2.27735,-34.6836 -0.70184,-9.28199 -3.78908,-18.52794 -7.96875,-26.80859 -9.4249,-18.67216 -22.62644,-35.25282 -36.9668,-50.36914 -17.06444,-17.9874 -37.1455,-35.77325 -61.30078,-43.30274 l -0.93164,-0.2832 c -0.69668,-5.85021 -0.9265,-11.54308 -2.6543,-17.22656 -0.10322,-0.33842 -1.0459,-2.91707 -0.98437,-3.09571 0.15482,-0.45056 1.77453,-1.72186 2.19531,-2.13867 l 8.41406,-8.59375 c 5.54068,-6.02289 10.92585,-12.46384 15.51172,-19.25 5.3144,-7.86383 8.67307,-16.79081 11.47656,-25.79492 l 9.20117,-3.60937 1.76172,-0.83789 c 11.02468,-6.08948 16.28192,-16.97776 19.36328,-28.64454 2.30043,-8.70937 2.74955,-17.77196 2.7168,-26.73242 -0.0655,-18.07671 -2.61064,-39.74578 -16.47851,-52.85156 -2.55945,-2.41853 -5.63454,-4.1569 -8.88868,-5.46094 -1.49548,-0.59942 -6.11807,-1.44983 -7.04101,-2.32812 -0.31659,-0.29971 -0.85178,-2.28738 -1.02734,-2.75977 l -4.24805,-11.54492 c -3.09635,-8.43646 -6.35554,-16.65347 -10.93555,-24.41211 -21.28421,-36.05219 -56.31277,-63.49294 -97.08789,-73.78125 -10.1191,-2.55299 -20.61845,-4.02964 -31.23242,-4.4707 -3.98027,-0.1654 -7.97599,-0.18397 -11.97461,-0.0606 z m 129.44922,434.58594 14.32226,15.49218 -11.80859,55.85157 -3.10937,12.9375 z m 24.75,309.56836 c -8.3e-4,0.0287 -0.002,0.0352 -0.004,0.0527 0.0118,0.0268 0.0169,0.0399 0.0273,0.0644 -0.003,-0.0386 -0.007,-0.0768 -0.01,-0.11718 -0.005,-2.7e-4 -0.009,2.6e-4 -0.0137,0 z m -10.06641,5.25195 c 5.6e-4,0.1237 8.4e-4,0.24739 0.002,0.37109 0.0231,0.0362 0.0453,0.0731 0.0684,0.10938 -0.0254,-0.15988 -0.0451,-0.32057 -0.0703,-0.48047 z" />
  <path
     fill="#fefefe"
     d="m 601.00426,627.82709 -2.62296,-0.25704 c -2.83038,2.1724 -3.76722,5.77687 -4.92041,9.0062 15.99084,3.6392 32.39652,7.08488 46.66254,15.56808 3.09337,1.83994 5.92475,4.2148 8.74719,6.4408 0.77706,0.45056 1.2693,0.65202 2.10889,0.89714 l 0.46246,-0.31658 c 2.87901,-2.48501 3.64317,-8.04653 4.2555,-11.65794 -18.00645,-8.3919 -35.09988,-15.67824 -54.69321,-19.68066 z"
     id="path3"
     style="stroke-width:0.992419" />
  <path
     fill="#2c7ea5"
     d="m 96.923888,378.77755 c -1.200827,-0.16077 -2.493949,-0.20344 -3.700731,-0.0992 -1.797271,0.15581 -3.587594,1.24648 -4.686202,2.67258 -1.404273,1.82109 -2.115838,3.60745 -1.735741,5.94062 1.174032,7.21291 19.911896,19.93969 26.039086,23.99967 l 0.99242,-1.55512 c 3.69676,-8.20234 7.45505,-15.14729 12.89351,-22.3582 -8.4703,-4.65643 -20.3039,-7.25856 -29.802342,-8.60031 z"
     id="path4"
     style="stroke-width:0.992419" />
  <path
     fill="#474a4e"
     d="m 431.09221,952.47414 c -3.9538,-1.18396 -10.05916,3.18368 -14.04472,4.01731 -4.01533,0.84058 -8.0108,1.1512 -12.10156,1.34175 -8.1815,0.3791 -16.41858,-0.17765 -24.61397,-0.12405 -13.35201,0.0873 -26.82608,1.16212 -40.14732,-0.21536 -7.4352,-0.76912 -14.5042,-2.53265 -21.63076,-4.72888 l 2.96137,6.51623 1.24748,1.43404 c 3.30971,3.34445 8.68763,4.77949 13.18627,5.41762 9.29202,1.31694 18.43319,0.10817 27.72521,0.0149 l 44.19738,-0.0645 c 7.4094,-0.17963 16.19727,-1.39435 21.37174,-7.28634 1.70894,-1.94614 2.02751,-3.80792 1.84888,-6.3227 z"
     id="path5"
     style="stroke-width:0.992419" />
  <path
     fill="#474a4e"
     d="m 491.60098,952.18137 c -1.22563,-0.13497 -1.35266,-0.34536 -2.47211,0.29277 -0.0407,1.89949 0.56766,3.7305 1.51642,5.37394 2.25179,3.9012 7.01541,6.38424 11.26891,7.44315 4.59986,1.14525 9.39027,0.94081 14.09335,1.00035 l 19.46828,0.23422 c 15.94023,0.19054 32.93144,1.99674 48.70991,-0.32651 5.29257,-0.77905 8.9933,-2.36593 13.57927,-5.06332 l 3.47148,-8.14776 c -2.96535,-0.87532 -10.11275,3.32956 -13.77676,3.78012 -14.69376,1.80918 -29.16323,0.95669 -43.90958,0.96066 -12.67716,0.003 -25.46547,1.34969 -38.06225,-0.76317 -4.9214,-0.8247 -9.32377,-2.83732 -13.88692,-4.78445 z"
     id="path6"
     style="stroke-width:0.992419" />
  <path
     fill="#c9b496"
     d="m 619.31241,238.92487 -1.35962,-0.0516 c -1.41122,5.73618 0.34735,12.15713 0.99441,17.91515 0.87333,7.77758 1.71291,15.82709 1.81017,23.64537 0.22925,18.29723 -1.54123,36.18161 -4.28328,54.24165 l 7.63666,-5.77786 1.31397,-1.79132 c 2.6577,-3.77416 5.21714,-7.72895 6.73654,-12.11644 3.79699,-10.96127 3.34743,-23.2752 2.65571,-34.69993 -0.35429,-5.86023 -0.64706,-11.76513 -1.71887,-17.54696 -1.83498,-9.89541 -5.33425,-17.94393 -13.78569,-23.81806 z"
     id="path7"
     style="stroke-width:0.992419" />
  <path
     fill="#c9b496"
     d="m 302.0688,236.94004 -0.54682,-0.17368 c -0.69271,-0.10222 -1.44298,-0.14886 -2.05728,0.18955 -7.02931,3.8754 -10.4988,12.51838 -12.49357,19.86724 -2.33417,8.6003 -2.16347,17.48444 -2.19721,26.3259 -0.0387,10.12962 -0.24414,20.62346 2.35997,30.48612 1.52634,5.77885 4.15427,11.07143 7.13351,16.22307 2.35104,2.25776 6.06963,3.75333 8.95559,5.2241 0.0298,-5.7868 -1.4539,-11.4545 -1.89255,-17.2016 -1.4519,-19.00979 -2.65571,-38.40662 -0.77011,-57.42434 l 1.86475,-14.97858 c 0.36025,-2.76786 1.21969,-6.06468 -0.35628,-8.53778 z"
     id="path8"
     style="stroke-width:0.992419" />
  <path
     fill="#2c7ea5"
     d="m 139.455,405.52225 c -4.28924,-0.43666 -9.48554,-0.20344 -13.47805,1.58489 -6.79509,3.04574 -10.86301,9.18881 -13.18726,16.04345 -2.487,7.33398 -2.92863,16.13078 0.76912,23.14023 4.18901,7.94233 11.93583,11.7175 20.14016,14.25015 4.39046,1.01326 8.97246,0.67187 12.90641,-1.67322 8.77596,-5.23402 12.30004,-15.77152 14.76719,-25.11415 1.58192,-5.99124 1.07677,-11.26098 -2.18233,-16.66074 -4.40435,-7.29725 -11.88918,-9.80113 -19.73524,-11.57061 z"
     id="path9"
     style="stroke-width:0.992419" />
  <path
     fill="#fefefe"
     d="m 150.26045,386.57201 c -1.23853,-0.0585 -2.38676,-0.0526 -3.61339,0.16375 -6.61051,1.16808 -11.08929,6.43088 -14.67689,11.66489 7.43818,-0.0605 16.33423,0.70264 22.91893,4.50062 6.93998,4.00342 12.38539,10.96723 14.45359,18.75275 3.85455,14.5052 -3.22239,27.71033 -10.40552,39.82181 l 23.99471,10.66552 3.40598,1.50352 c 5.12188,-7.23275 10.20505,-14.54192 14.00601,-22.57853 6.23736,-13.18825 8.6539,-27.29946 10.63576,-41.61709 -0.98845,-0.9676 -2.87802,-1.39831 -4.19297,-1.87865 l -9.79419,-3.61339 z"
     id="path10"
     style="stroke-width:0.992419" />
  <path
     fill="#fefefe"
     d="m 432.12829,903.58063 c -17.16091,0.49125 -33.97546,3.35834 -51.22569,3.20452 -5.16852,-0.0457 -10.22192,-0.43369 -15.35471,-1.05891 -5.64091,-0.68874 -11.71848,-1.95209 -17.30381,-0.43865 l -0.94479,0.26299 c -4.8956,1.3348 -9.84182,3.98258 -13.70133,7.28237 -6.68494,5.71534 -13.0265,14.91507 -13.59118,23.93913 -0.21139,3.36926 0.43865,5.72626 2.73014,8.28769 5.30448,3.12712 12.1224,3.33751 18.11165,3.4953 l 27.21907,0.13398 25.21042,0.51804 c 7.46597,0.0844 15.33685,0.14688 22.6867,-1.31793 4.48077,-0.89219 8.81368,-2.61403 12.09064,-5.90489 5.21417,-5.23898 4.11557,-14.90316 4.1106,-21.69428 z"
     id="path11"
     style="stroke-width:0.992419" />
  <path
     fill="#fefefe"
     d="m 573.25623,904.6058 -84.50944,0.005 -0.0318,16.43049 c 0.008,6.89632 -0.67286,16.04344 4.51154,21.42632 5.34318,5.54763 14.96071,5.59824 22.10812,5.85031 13.9673,2.02057 28.17576,0.0387 42.21551,-0.0486 l 18.91353,-0.0218 c 3.09634,-9.9e-4 6.70478,0.36521 9.74952,-0.16573 4.79934,-0.8386 9.41111,-2.97924 13.68744,-5.23898 0.13795,-4.80132 -0.94676,-10.06809 -2.60311,-14.56474 -4.29817,-11.66589 -13.11085,-18.54037 -24.04135,-23.67217 z"
     id="path12"
     style="stroke-width:0.992419" />
  <path
     fill="#2c7ea5"
     d="m 594.6369,644.26551 c -0.85249,-0.14787 -1.39534,-0.0407 -2.21011,0.30964 -2.80557,1.20479 -6.07063,7.89668 -7.92943,10.42139 -3.25315,4.41924 -6.99953,8.58145 -9.71678,13.37582 -1.61764,2.85519 -2.70037,5.81459 -3.61736,8.95361 0.12008,1.15418 0.39895,1.98285 1.15021,2.87007 1.14525,1.35366 2.75892,2.00469 4.48276,2.09401 5.62503,-2.28654 10.99104,-9.11339 14.98354,-13.59813 l -11.72246,28.81985 -0.18756,0.655 c -1.50947,5.04049 -1.33084,11.76215 1.15517,16.47415 4.15228,7.86889 11.97552,10.83424 19.90892,13.38972 7.79049,1.55611 14.03975,0.6808 20.88844,-3.51813 17.42687,-10.68636 23.02908,-38.14064 27.55451,-56.39321 -3.67791,-3.61241 -7.45108,-7.22878 -11.79292,-10.04428 -12.79922,-8.30059 -28.09736,-11.48526 -42.94693,-13.80951 z"
     id="path13"
     style="stroke-width:0.992419" />
  <path
     fill="#b8b6b6"
     d="m 412.84063,126.11164 c -35.95435,9.9232 -65.63959,36.61332 -83.78696,68.66051 -16.97136,29.97006 -21.29533,64.24226 -21.16929,98.11948 0.0546,14.74734 0.87531,29.74974 4.83209,44.03462 8.6916,31.38128 30.95652,59.02809 59.47567,74.68251 25.34539,13.91272 51.7606,21.33403 80.57648,23.13229 11.60733,0.72348 23.15016,0.7334 34.54114,-2.00369 -2.76289,0.34139 -4.20984,-0.53988 -6.80303,-1.06784 -2.29348,-0.46644 -4.67628,-0.77211 -6.99754,-1.05892 l -22.50112,-2.26271 c -10.80546,-1.42511 -51.58098,-9.28805 -58.06544,-17.75934 l -1.9769,-0.73836 c -11.14685,-3.9796 -23.30101,-10.70225 -32.06109,-18.65946 -25.70464,-23.35261 -39.78012,-57.47892 -41.26875,-91.87121 -0.6808,-15.74472 1.20281,-31.64923 4.94026,-46.94042 3.22933,-13.21208 7.00152,-24.99904 16.36797,-35.17133 l -0.37911,-1.34374 c 3.03482,-7.723 7.30818,-15.45097 11.38106,-22.68471 9.73266,-17.28794 20.91523,-34.03203 36.47835,-46.63972 8.70252,-7.05015 18.86787,-12.06683 26.41621,-20.42796 z"
     id="path14"
     style="stroke-width:0.992419" />
  <path
     fill="#b8b6b6"
     d="m 568.04702,406.12763 c -16.71829,10.80049 -35.79358,21.2467 -54.71107,27.49 -12.78235,4.21977 -26.32788,7.36574 -39.77317,8.31548 -42.49142,3.00009 -83.00097,-12.52333 -120.25241,-31.34754 -2.24386,5.27173 -0.45155,14.05762 0.89219,19.44943 l 0.90707,1.17403 c 5.62305,6.79311 14.96866,11.54878 22.909,15.02622 19.61218,8.59137 40.33786,13.7847 61.69968,15.50655 45.99565,3.70668 93.29632,-4.50459 129.42335,-35.09095 z"
     id="path15"
     style="stroke-width:0.992419" />
  <path
     fill="#fefefe"
     d="m 432.11241,834.8447 c -3.80592,1.38541 -7.53047,3.05764 -11.42572,4.18701 -18.85993,5.4722 -39.0894,7.1474 -58.35622,2.85321 -7.29329,-1.62658 -14.31564,-4.37161 -21.18715,-7.25756 l -0.2888,55.32438 -0.0198,6.18972 c 15.97696,2.79167 31.24929,2.88397 47.37412,2.7619 10.37078,-0.0794 20.99561,0.23619 31.30089,-1.03609 4.26244,-0.52697 8.45641,-1.63451 12.62357,-2.64876 1.15518,-7.48284 0.2749,-15.11157 0.17467,-22.6341 z"
     id="path16"
     style="stroke-width:0.992419" />
  <path
     fill="#fefefe"
     d="m 581.05069,832.39144 c -9.02705,4.10266 -18.62969,7.99889 -28.40403,9.85075 -21.38167,4.05304 -43.61284,-1.31992 -63.94949,-7.75973 l -0.52003,56.83385 c 0.0854,0.87036 -0.01,2.82939 0.62919,3.40996 1.94911,1.77047 7.85599,2.32226 10.49285,2.70533 26.36063,3.82478 52.38583,1.07876 78.69684,-1.4926 z"
     id="path17"
     style="stroke-width:0.992419" />
  <path
     fill="#b8b6b6"
     d="m 574.03131,617.55952 c -8.65985,1.95109 -17.18572,4.39046 -25.94581,5.92275 -20.78125,3.63325 -41.85626,5.1983 -62.91043,6.11331 -30.55658,1.32785 -61.67586,1.03211 -91.9764,-3.39011 -13.56438,-1.97987 -26.82111,-5.31539 -40.08876,-8.68267 0.18756,8.45938 -0.92395,19.51195 3.06161,27.04342 l 9.19476,4.30809 c 27.26473,11.42869 59.26528,11.57855 88.3898,11.5855 27.22106,0.005 54.80535,-0.95967 81.56791,-6.3237 13.43834,-2.69441 26.07482,-6.8983 38.73808,-12.06384 z"
     id="path18"
     style="stroke-width:0.992419" />
  <path
     fill="#fefefe"
     d="m 487.30976,432.73736 32.90465,-8.93376 c 30.57643,-11.32151 67.21356,-42.70577 80.70748,-72.50911 8.37006,-18.48479 9.85572,-38.98321 9.87953,-59.01816 0.0327,-27.19625 -2.81053,-53.74247 -12.3963,-79.3578 -13.877,-37.08372 -45.15308,-66.57444 -80.81467,-82.62979 -31.57579,-14.21641 -72.22627,-16.5863 -104.74982,-4.1771 -7.54834,8.36113 -17.71369,13.37781 -26.41621,20.42796 -15.56312,12.60769 -26.74569,29.35178 -36.47835,46.63972 -4.07288,7.23374 -8.34624,14.96171 -11.38106,22.68471 l 0.37911,1.34374 c 8.11104,-6.45866 16.09803,-13.50682 24.89681,-19.01673 34.83589,-21.81834 76.91744,-30.61613 117.68303,-26.06291 28.99352,3.23826 56.94997,15.8142 79.18313,34.62847 5.77092,4.8837 11.90407,10.50972 16.60416,16.43843 4.60383,5.80466 8.79383,11.79292 12.06186,18.459 9.37042,19.11299 11.7691,42.04085 9.24736,63.03349 -4.23465,35.25271 -18.21386,68.34889 -46.7469,90.65847 -32.80144,25.64708 -78.44874,29.77554 -118.48193,24.67451 -13.77775,-1.75559 -27.05235,-5.91879 -40.44901,-9.43195 6.48446,8.47129 47.25998,16.33423 58.06544,17.75934 l 22.50112,2.26271 c 2.32126,0.28681 4.70406,0.59248 6.99754,1.05892 2.59319,0.52796 4.04014,1.40923 6.80303,1.06784 z"
     id="path19"
     style="stroke-width:0.992419" />
  <path
     fill="#fefefe"
     d="m 573.26317,651.12412 c -12.65036,1.22862 -24.54549,7.21588 -37.2435,9.14812 -47.24311,7.19008 -94.74128,10.44124 -142.02806,1.61764 -13.57133,-2.53265 -26.705,-6.283 -39.94585,-10.12962 -3.61042,12.31592 -5.19532,24.95438 -7.03526,37.62459 -2.68549,18.47884 -5.21219,37.10357 -5.96642,55.77891 l 0.14687,30.24298 0.64309,51.99084 c 6.6889,2.84725 13.30735,5.75603 20.38032,7.55132 22.99534,5.83939 47.11707,-0.45453 68.83319,-8.2341 l 8.6916,-89.88438 2.47013,-20.83485 -22.96358,-19.50103 24.07013,9.74952 c 5.81558,2.26768 12.32088,2.11187 18.48579,2.03943 3.59057,-0.0417 7.2655,0.007 10.73202,-1.03907 3.11222,-0.93883 6.16987,-2.6835 9.13125,-4.04609 l 13.74897,-5.96344 -21.22983,18.60388 15.15722,110.5783 9.47164,4.50856 c 21.63573,8.19838 43.89073,7.16428 65.50859,-0.32055 5.42655,-1.87865 10.66751,-4.46985 15.89657,-6.84372 l -0.76119,-64.02393 -0.28284,-18.85 c -0.0675,-3.52706 0.15978,-7.40742 -0.78401,-10.83325 -0.916,-3.32361 -5.11592,-5.96245 -6.9638,-8.92978 -5.49602,-8.82856 -3.12315,-19.13384 -1.03907,-28.57373 -4.057,-2.27959 -8.60824,-5.12287 -9.96587,-9.86366 -3.44468,-12.02613 7.47887,-21.90268 12.8419,-31.56289 z"
     id="path20"
     style="stroke-width:0.992419" />
  <path
     d="m 392.94263,410.58855 c 13.39666,3.51316 26.67126,7.67636 40.44901,9.43195 40.03319,5.10103 85.68049,0.97257 118.48193,-24.67451 28.53304,-22.30958 42.51225,-55.40576 46.7469,-90.65847 2.52174,-20.99264 0.12306,-43.9205 -9.24736,-63.03349 -3.26803,-6.66608 -7.45803,-12.65434 -12.06186,-18.459 -4.70009,-5.92871 -10.83324,-11.55473 -16.60416,-16.43843 -22.23316,-18.81427 -50.18961,-31.39021 -79.18313,-34.62847 -40.76559,-4.55322 -82.84714,4.24457 -117.68303,26.06291 -8.79878,5.50991 -16.78577,12.55807 -24.89681,19.01673 -9.36645,10.17229 -13.13864,21.95925 -16.36797,35.17133 -3.73745,15.29119 -5.62106,31.1957 -4.94026,46.94042 1.48863,34.39229 15.56411,68.5186 41.26875,91.87121 8.76008,7.95721 20.91424,14.67986 32.06109,18.65946 z"
     id="path21"
     style="stroke-width:0.992419" />
  <path
     fill="#252525"
     d="m 463.05901,181.82605 c -13.11581,-0.69668 -26.43407,1.1641 -39.19955,4.07388 -22.81572,5.20027 -42.40111,13.24879 -61.26401,27.2816 -1.44596,5.57739 -1.7675,11.48228 -2.47311,17.19365 -1.1393,9.22752 -2.41456,18.35678 -2.66068,27.6617 -0.99936,37.65337 12.05492,76.88568 38.42647,104.21491 22.36714,23.17993 55.41667,31.40907 86.60642,32.18812 l 16.23399,-1.70994 c 25.09034,-2.81053 53.60849,-11.37014 69.85538,-32.0462 16.76096,-21.33106 23.37643,-55.55264 20.03098,-82.12962 -2.45723,-19.53081 -9.71479,-36.89318 -22.46538,-51.94917 -15.41128,-18.19699 -38.96237,-32.1117 -61.80786,-38.44035 -13.42842,-3.71959 -27.43046,-5.27967 -41.28265,-6.33858 z"
     id="path22"
     style="stroke-width:0.992419" />
  <path
     fill="#fefefe"
     d="m 484.49229,189.80013 c -0.77111,-0.16275 -1.37649,-0.17268 -2.15851,-0.16871 0.11611,1.35465 2.487,1.91339 3.65508,2.32326 13.75393,4.81918 25.46646,10.67942 37.10456,19.49805 16.85921,12.77343 30.99622,30.52185 41.37791,48.84786 4.98493,8.79878 9.14415,18.19798 13.65867,27.25282 0.61033,0.44956 0.24016,0.21237 1.14723,0.65301 -0.52102,-13.78669 -5.49502,-28.44869 -12.16805,-40.42818 -14.34839,-25.75525 -38.69243,-42.7415 -65.89066,-52.92967 -5.43052,-2.03446 -11.14586,-3.47744 -16.72623,-5.04844 z"
     id="path23"
     style="stroke-width:0.992419" />
  <path
     fill="#fefefe"
     d="m 220.50586,412.84829 c -0.32353,-0.0536 -0.91402,-0.16871 -1.22862,-0.13398 -2.29149,0.25406 -3.12513,6.33759 -3.47148,8.35518 -1.06884,6.22941 -2.04438,12.28218 -3.94884,18.3399 -4.22472,13.43735 -11.21135,25.16675 -18.74977,36.93585 20.69392,9.7664 42.22743,19.60028 64.58564,24.88987 28.91016,6.83876 58.64799,5.15462 87.99481,2.88794 1.33878,-13.96234 7.20497,-25.22828 15.35372,-36.40193 -2.1476,9.42302 -5.78977,18.37762 -7.19702,27.97927 -2.56442,17.48741 -1.7943,35.48196 -1.60375,53.09739 l 0.51109,60.56932 c 14.25213,3.84959 28.39906,7.85202 43.01144,10.13557 22.79388,3.5618 45.8706,3.94189 68.88976,3.70371 22.71548,-0.23619 45.48058,-1.11548 67.9807,-4.42718 14.16182,-2.08408 28.10034,-5.36799 41.87909,-9.19774 l 0.35032,-62.86875 0.23223,-16.06429 c 0.0159,-0.99142 0.40391,-4.03021 0.0824,-4.84995 -0.26994,-0.68874 -1.84094,-2.14858 -2.37585,-2.7877 -1.7407,-2.07614 -3.50026,-4.20786 -5.0137,-6.45767 -4.66636,-6.938 -7.11366,-15.84893 -9.27217,-23.83394 3.56179,5.20822 6.83181,10.63774 10.63873,15.67328 6.4795,8.57053 13.83333,16.41262 21.03631,24.36884 4.9214,5.43548 10.06709,12.32486 16.34811,16.18239 2.30242,1.4142 3.75532,1.69505 6.35149,1.07578 l 10.60399,-3.86349 c -4.15327,4.21481 -8.7571,8.39388 -11.45351,13.73707 -2.20019,4.35969 -2.97328,9.25133 -3.80691,14.01494 l -3.46156,20.61949 -6.24926,25.50219 c 8.02668,1.65932 16.16352,3.18666 23.97684,5.69847 12.32584,3.96174 23.89249,9.91823 35.10583,16.33522 l 9.36853,-35.65067 c 7.09967,-27.05235 14.01415,-56.47758 2.14055,-83.30465 -5.15919,-11.65596 -13.01061,-22.17858 -20.86263,-32.1504 -20.06076,-25.47738 -42.36339,-47.94575 -73.2048,-59.9828 -8.74817,6.86258 -17.61742,13.95639 -27.60314,18.96314 -41.69351,20.90829 -90.73984,24.98713 -135.91773,14.69574 -15.23959,-3.47148 -30.24993,-8.46434 -44.10211,-15.77152 -5.59427,-2.95145 -11.64405,-6.08948 -15.95115,-10.84118 -1.69605,-1.87171 -2.85718,-4.03518 -4.04709,-6.24827 -0.0883,-0.16474 -0.81974,-1.70498 -0.93684,-1.77048 -0.73836,-0.41483 -7.59201,0.18062 -8.86627,0.1836 l -28.0666,-0.0705 c -5.7213,-0.0258 -11.54779,0.1568 -17.24725,-0.31857 -25.04668,-2.09301 -48.10752,-9.04987 -71.8035,-16.94853 z"
     id="path24"
     style="stroke-width:0.992419" />
  <path
     d="m 439.55059,477.61951 -18.98696,-0.20444 c -3.57965,0.0883 -7.63567,0.0854 -11.05555,1.16014 -4.34977,1.36854 -8.09615,3.74539 -11.57458,6.65317 -5.18043,4.33191 -8.97544,11.18655 -9.51928,17.95783 l -0.79394,42.22345 c -0.34139,13.12475 -2.25676,33.60927 7.71705,43.75377 3.62829,3.69081 8.65191,6.8209 13.66264,8.19441 3.66996,1.00631 8.06142,0.8247 11.87429,1.03211 18.93138,1.02914 38.01262,-0.0278 56.97676,0.17864 7.57513,0.10916 15.21676,0.40292 22.77701,-0.10917 4.27335,-0.28978 8.47526,-0.49819 12.46081,-2.22798 6.10338,-2.64678 11.05753,-7.80637 13.54255,-13.9415 1.77643,-4.38848 2.01858,-8.86627 2.27661,-13.53858 0.48827,-8.83154 -0.0377,-17.673 0.0347,-26.51049 0.11711,-14.138 1.01029,-28.17874 -0.58949,-42.283 -0.2888,-2.54457 -1.01425,-5.11692 -2.03049,-7.46994 -3.28392,-7.60392 -10.07405,-10.88485 -17.28099,-13.89387 -2.85023,-1.18991 -6.36339,-0.74332 -9.42501,-0.75126 l -16.58828,-0.0169 z"
     id="path25"
     style="stroke-width:0.992419" />
  <path
     fill="#b8b6b6"
     d="m 395.35024,555.41027 c -0.78699,5.93566 -1.23358,12.175 -0.11612,18.09577 1.09266,5.79672 3.98754,11.36419 9.07369,14.65108 3.79699,2.45326 8.48717,3.1807 12.91534,3.55981 11.13693,0.9557 22.38401,-0.14589 33.53582,-0.22429 l 44.02768,-0.2094 c 3.97365,-0.14886 8.44449,0.16772 12.2921,-0.77309 5.87115,-1.43504 10.11871,-5.52381 13.06917,-10.64072 1.11845,-1.94018 1.9114,-4.01831 2.15752,-6.25125 1.18991,-10.79454 0.1955,-21.71909 0.17268,-32.53943 l 0.0546,-25.70663 c 0.0109,-5.12188 0.6282,-11.37213 -0.77508,-16.30644 l -1.1909,-3.73546 c -1.89651,-4.93133 -6.35148,-7.46597 -10.89676,-9.57685 2.25279,4.63857 5.24791,8.66481 6.39217,13.78967 2.54952,11.41976 1.16212,24.50084 0.94478,36.11512 -0.14886,7.91851 -0.0516,15.73579 -0.72645,23.64041 -0.32651,3.82081 -0.60934,7.94828 -1.88063,11.59542 -1.44596,4.15129 -4.14236,7.5533 -8.14975,9.38233 -4.70307,2.1476 -9.74456,2.35203 -14.80193,2.79565 -12.26332,1.07578 -24.90971,0.48827 -37.23953,0.49323 -8.24998,0.003 -16.7818,0.47834 -25.004,-0.1568 -4.97797,-0.38506 -11.4674,-0.98746 -16.08115,-2.85916 -11.78796,-4.78247 -11.7036,-15.9065 -17.77323,-25.13897 z"
     id="path26"
     style="stroke-width:0.992419" />
  <path
     fill="#fefefe"
     d="m 509.66996,485.75337 c -4.69712,-0.8247 -9.4657,-1.74963 -14.23129,-2.0156 -13.11283,-0.73439 -26.35071,0.82768 -39.4695,0.79592 -11.90704,-0.0288 -24.1912,-1.75956 -36.07344,-0.43269 -5.5893,0.62423 -11.00791,1.41022 -15.67525,4.84499 -5.41563,3.98555 -8.67871,9.88846 -9.58379,16.50194 -0.58752,4.28923 -0.25406,9.01017 -0.19253,13.3391 0.17566,12.21271 1.4003,24.39664 0.90608,36.62324 6.06963,9.23247 5.98527,20.3565 17.77323,25.13897 4.61375,1.8717 11.10318,2.4741 16.08115,2.85916 8.2222,0.63514 16.75402,0.15977 25.004,0.1568 12.32982,-0.005 24.97621,0.58255 37.23953,-0.49323 5.05737,-0.44362 10.09886,-0.64805 14.80193,-2.79565 4.00739,-1.82903 6.70379,-5.23104 8.14975,-9.38233 1.27129,-3.64714 1.55412,-7.77461 1.88063,-11.59542 0.67485,-7.90462 0.57759,-15.7219 0.72645,-23.64041 0.21734,-11.61428 1.60474,-24.69536 -0.94478,-36.11512 -1.14426,-5.12486 -4.13938,-9.1511 -6.39217,-13.78967 z"
     id="path27"
     style="stroke-width:0.992419" />
  <path
     d="m 424.82706,534.39778 c -2.0543,-0.0605 -4.41031,0.20146 -6.41003,0.72943 -4.67132,1.23259 -8.06936,4.88766 -10.30528,9.02704 -2.14462,3.97167 -2.01461,7.593 -0.56667,11.76315 2.00469,5.7729 7.3965,8.67076 12.51043,11.26494 2.38181,0.0457 4.87278,-0.17367 7.13351,-0.96661 4.45894,-1.56405 8.1299,-4.59292 10.12665,-8.91391 1.70497,-3.68684 1.54718,-8.52289 0.11512,-12.28019 -2.16447,-5.67565 -7.38559,-8.30953 -12.60373,-10.62385 z"
     id="path28"
     style="stroke-width:0.992419" />
  <path
     fill="#2c7ea5"
     d="m 423.37218,540.83263 c -3.42285,0.43269 -5.90092,0.57759 -8.16364,3.534 -0.75225,0.9815 -3.5211,5.66175 -3.25116,6.85762 0.93783,4.15724 5.48807,7.38856 8.8494,9.50439 1.42809,0.37216 3.3633,0.68974 4.79735,0.2888 1.77643,-0.49621 4.08182,-3.47148 4.93728,-5.03554 1.24053,-2.26569 2.41357,-5.66969 1.40428,-8.23906 -1.43107,-3.64019 -5.31044,-5.28562 -8.57351,-6.91021 z"
     id="path29"
     style="stroke-width:0.992419" />
  <path
     d="m 424.80424,493.72746 c -3.09833,0.0199 -5.81955,0.37513 -8.7184,1.52634 -4.25053,1.68811 -7.35283,5.15859 -9.05781,9.34363 -1.41916,3.48438 -0.90211,8.65488 0.66294,12.00926 2.39073,5.12286 7.42726,7.17618 12.39729,8.99429 2.62495,0.26398 5.65778,0.38506 8.19143,-0.4456 3.74737,-1.23059 7.53643,-4.8688 9.15804,-8.42861 2.01958,-4.43611 1.13632,-9.61158 -0.6808,-13.93852 -2.21508,-5.27471 -7.01938,-7.06107 -11.95269,-9.06079 z"
     id="path30"
     style="stroke-width:0.992419" />
  <path
     fill="#2c7ea5"
     d="m 423.75624,499.59166 c -4.5284,0.91303 -7.71109,2.095 -10.51964,5.99124 -1.04104,1.44397 -1.17998,3.25612 -0.78004,4.95614 1.12441,4.7775 4.5433,6.7147 8.42266,9.03002 1.46481,0.16474 3.12215,0.17367 4.57307,-0.11413 1.84689,-0.3662 3.93692,-2.14263 4.96309,-3.66401 1.67421,-2.48204 2.36791,-6.16292 1.59878,-9.06873 -0.9031,-3.40796 -5.48311,-5.51189 -8.25792,-7.13053 z"
     id="path31"
     style="stroke-width:0.992419" />
</svg>
