<?xml version="1.0" encoding="utf-8" ?>
<svg xmlns="http://www.w3.org/2000/svg" xmlns:xlink="http://www.w3.org/1999/xlink" width="620" height="381">
	<path transform="scale(0.574533 0.574533)" d="M1026.14 486.716C1027.92 489.705 1028.65 492.329 1027.83 495.794C1027.34 497.863 1026.17 499.934 1024.88 501.613L1023.67 499.293C1025.81 495.25 1025.83 493.475 1024.7 489.041C1025.31 488.277 1025.79 487.647 1026.14 486.716Z"/>
	<path transform="scale(0.574533 0.574533)" d="M405.762 593.749C405.881 594.28 406.056 595.829 406.318 596.234C406.754 596.907 407.089 596.684 407.46 597.726C406.971 604.991 407.645 611.815 410.086 618.712L409.222 619.112L408.361 618.375C408.007 618.784 407.669 619.23 407.255 619.577C404.573 611.718 403.371 601.826 405.762 593.749Z"/>
	<path fill="#165073" transform="scale(0.574533 0.574533)" d="M173.194 362.589C174.6 362.066 175.812 362.012 177.271 362.273C178.954 362.575 180.169 363.571 181.091 364.966C182 366.344 182.354 368.001 181.97 369.621C181.413 371.967 179.889 373.257 177.979 374.483C176.923 374.876 175.366 375.307 174.234 375.125C172.651 374.87 170.863 373.489 170.019 372.157C169.095 370.697 169.033 368.19 169.48 366.574C170.039 364.554 171.508 363.577 173.194 362.589Z"/>
	<path fill="#FEFEFE" transform="scale(0.574533 0.574533)" d="M174.93 364.699L177.102 364.605C177.642 365.05 178.487 365.664 178.854 366.281C179.632 367.588 179.861 369.051 179.327 370.5C178.783 371.978 177.718 372.202 176.396 372.74C174.802 372.696 174.018 372.685 172.845 371.408C171.612 370.067 171.626 369.038 171.538 367.336C172.527 365.913 173.348 365.378 174.93 364.699Z"/>
	<path fill="#165073" transform="scale(0.574533 0.574533)" d="M1012.46 204.896C1013.57 204.548 1015.14 204.469 1016.29 204.717C1018.08 205.104 1019.81 206.366 1020.79 207.916C1021.63 209.25 1021.86 211.805 1021.35 213.293C1020.59 215.509 1018.6 216.57 1016.68 217.618C1015.42 217.778 1014.13 217.94 1012.86 217.706C1011.19 217.397 1009.83 216.372 1008.88 214.977C1007.81 213.399 1007.54 211.319 1008.01 209.477C1008.63 207.046 1010.46 206.106 1012.46 204.896ZM1013.19 207.533C1011.6 208.542 1011.29 208.771 1010.43 210.434C1010.55 212.085 1010.82 213.019 1011.76 214.389C1012.88 215.148 1014.05 215.58 1015.44 215.416C1015.99 215.351 1016.01 215.313 1016.46 215.137C1018.11 213.87 1018.44 213.534 1019.2 211.488C1018.78 209.892 1018.41 208.911 1017.28 207.699C1015.87 207 1014.68 207.314 1013.19 207.533Z"/>
	<path fill="#165073" transform="scale(0.574533 0.574533)" d="M981.9 100.734C980.767 99.3717 980.339 97.655 980.505 95.8957C980.67 94.1483 981.547 92.6034 982.907 91.5044C984.454 90.2541 986.501 89.4565 988.498 89.8001C990.667 90.1733 992.766 91.2517 994.058 93.0866C995.128 94.6068 995.012 96.6153 994.678 98.3664C994.412 99.7619 993.568 100.674 992.655 101.702C992.353 102.039 992.36 102.055 991.939 102.383C990.287 103.667 988.571 104.049 986.525 103.718C984.398 103.374 983.094 102.493 981.9 100.734ZM983.549 99.1059C984.837 100.244 985.685 100.967 987.451 101.267C989.385 100.96 990.385 100.259 991.868 99.0901C992.338 97.3102 992.556 96.3417 991.752 94.5702C990.263 93.2037 989.748 92.7823 987.715 92.2798C985.964 92.6205 985.153 93.0823 983.897 94.3445C983.148 96.1593 983.23 97.2495 983.549 99.1059Z"/>
	<path transform="scale(0.574533 0.574533)" d="M1024.88 501.613L1024.5 501.96C1021.48 504.648 1018.05 506.739 1013.92 506.459C1009.96 506.192 1006.38 504.645 1003.8 501.606C1001.43 498.811 1000.59 495.404 1000.9 491.803C1001.16 488.776 1002.57 485.483 1004.98 483.563C1008.22 480.978 1010.97 479.492 1015.16 480.029C1019.97 480.647 1023.23 482.956 1026.14 486.716C1025.79 487.647 1025.31 488.277 1024.7 489.041C1023.11 486.536 1021.01 483.973 1017.93 483.359C1014.85 482.744 1011.48 482.522 1008.9 484.359C1006.14 486.32 1004.49 488.256 1003.88 491.671C1003.44 494.115 1004.24 497.092 1005.68 499.107C1007.17 501.188 1010.38 503.278 1012.91 503.631C1016.89 504.184 1019.23 502.892 1022.28 500.448L1023.67 499.293L1024.88 501.613Z"/>
	<path fill="#FEFEFE" transform="scale(0.574533 0.574533)" d="M1023.67 499.293L1022.28 500.448C1019.23 502.892 1016.89 504.184 1012.91 503.631C1010.38 503.278 1007.17 501.188 1005.68 499.107C1004.24 497.092 1003.44 494.115 1003.88 491.671C1004.49 488.256 1006.14 486.32 1008.9 484.359C1011.48 482.522 1014.85 482.744 1017.93 483.359C1021.01 483.973 1023.11 486.536 1024.7 489.041C1025.83 493.475 1025.81 495.25 1023.67 499.293Z"/>
	<path fill="#165073" transform="scale(0.574533 0.574533)" d="M448.207 61.9698C449.997 61.5732 452.478 61.9663 454.219 62.538C456.908 63.421 459.3 65.9146 460.54 68.4035C461.696 70.7246 461.821 74.0741 460.959 76.5112C459.48 80.6922 456.639 82.4452 452.814 84.2542C450.773 84.39 448.671 84.1377 446.772 83.3459C443.94 82.1652 441.59 79.6064 440.505 76.748C439.484 74.0552 439.653 70.9063 440.843 68.2986C442.266 65.1787 445.067 63.1371 448.207 61.9698Z"/>
	<path fill="#FEFEFE" transform="scale(0.574533 0.574533)" d="M448.287 65.1342C449.458 64.8361 451.035 64.6498 452.238 64.8779C454.302 65.269 456.819 67.2333 457.879 69.004C459.021 70.9139 459.015 73.7627 458.33 75.8438C457.48 78.4253 455.068 80.1666 452.725 81.2923C451.55 81.5332 450.413 81.5039 449.238 81.2794C446.925 80.8376 445.033 79.2163 443.76 77.2955C442.592 75.5344 442.047 72.8673 442.616 70.8049C443.402 67.956 445.839 66.4279 448.287 65.1342Z"/>
	<path transform="scale(0.574533 0.574533)" d="M320.19 90.3054C323.302 90.2295 326.674 90.4944 329.504 91.9132C333.304 93.8183 335.88 97.6099 337.014 101.644C338.252 106.053 337.137 110.63 334.966 114.52C332.708 118.566 329.132 120.203 324.823 121.445C321.234 121.467 318.338 121.387 315.028 119.779C311.46 118.045 309.016 115.053 307.729 111.338C306.294 107.196 306.542 102.253 308.561 98.3606C311.055 93.5537 315.26 91.8035 320.19 90.3054Z"/>
	<path fill="#FEFEFE" transform="scale(0.574533 0.574533)" d="M319.125 95.4542C321.063 95.2593 323.541 95.1341 325.416 95.659C328.239 96.4493 330.389 98.4961 331.813 100.998C333.093 103.247 333.238 106.621 332.516 109.095C331.415 112.866 328.282 114.999 325.019 116.826C322.855 117.092 321.098 117.102 318.977 116.474C316.218 115.656 314.008 113.307 312.694 110.823C311.448 108.467 311.002 104.882 311.948 102.345C313.32 98.6696 315.71 97.0793 319.125 95.4542Z"/>
	<path transform="scale(0.574533 0.574533)" d="M106.322 446.129C104.258 445.069 102.35 444.09 100.074 443.573C92.2967 446.446 84.7769 448.437 76.4423 448.381C72.74 443.521 69.6159 438.227 66.5194 432.967C64.7242 429.918 63.04 426.527 60.729 423.848C56.2951 418.709 50.4492 415.131 45.3954 410.648C34.4119 400.905 23.7416 389.176 15.9372 376.729C13.6543 373.088 10.9919 368.876 9.91147 364.699C10.1705 364.104 10.1387 363.72 10.7732 363.47C13.7649 362.294 17.5119 363.085 20.6412 363.448C34.4057 365.045 49.8457 369.277 62.4137 375.098L72.5503 380.088C73.9246 380.8 75.8419 382.179 77.2749 382.537C78.16 382.759 80.1395 382.384 81.1017 382.328L93.8003 381.288C95.0718 381.185 97.1892 380.729 98.3496 380.959C102.498 381.781 108.738 395.711 110.872 399.178C112.799 402.308 115.036 405.428 117.94 407.722C118.41 408.094 119.498 409.062 120.052 409.215C121.26 409.547 126.58 407.584 128.315 407.438C132.36 407.097 136.558 407.755 140.394 409.049C146.885 411.239 152.565 415.469 158.302 419.12L177.846 431.791C193.653 442.954 207.368 457.135 220.772 470.998L252.605 503.692C281.078 530.472 315.499 550.3 353.742 559.101L354.172 558.934L367.038 508.635L353.305 504.549C351.176 503.897 348.276 502.635 346.057 502.632C343.092 502.627 339.129 504.472 336.392 505.591C330.393 508.043 324.571 509.536 318.042 508.691C315.306 508.337 312.549 507.352 311.228 504.724C310.325 502.928 310.854 500.947 311.529 499.159C312.408 496.828 313.928 494.528 315.404 492.523C302.379 487.579 289.288 482.885 277.572 475.144C262.525 465.202 252.292 450.877 245.026 434.626C240.131 423.68 236.822 412.007 234.06 400.365C223.532 355.981 224.455 306.199 240.941 263.391C252.085 234.453 275.747 217.887 303.171 205.848L341.922 190.888L396.023 171.562L467.769 146.643L610.664 108.58C661.018 97.1507 711.471 87.3178 762.852 81.7801L797.988 78.2267C811.841 77.245 825.539 77.0626 838.699 82.1821C871.725 95.0303 891.553 126.051 905.178 157.166C913.197 175.478 918.614 194.45 923.208 213.862C925.868 225.1 928.483 236.678 929.405 248.216C949.165 249.668 967.198 259.24 980.162 274.211C994.43 290.688 999.669 311.801 998.049 333.296C996.683 351.413 986.79 370.637 972.972 382.424C962.638 391.24 950.145 397.326 936.573 399.036C935.082 399.224 929.883 398.932 928.901 399.502C928.672 399.635 927.126 406.338 926.968 407.042L921.366 435.265C913.748 467.67 901.819 499.387 884.119 527.673C869.926 550.355 853.503 569.275 827.137 577.314C815.929 580.731 802.978 580.53 791.434 579.59L769.012 576.669L724.031 570.444L563.149 548.138L511.323 541.029C503.651 539.974 495.239 537.997 487.568 537.788C478.543 557.934 467.213 575.051 451.161 590.372L440.722 599.883C439.258 601.096 436.565 602.489 435.459 603.85C435.035 604.371 434.694 607.703 434.507 608.549C432.909 615.779 429.25 627.826 421.545 630.904C419.547 631.702 417.525 631.359 415.627 630.46C411.423 628.469 408.917 623.696 407.255 619.577C407.669 619.23 408.007 618.784 408.361 618.375L409.222 619.112L410.086 618.712C407.645 611.815 406.971 604.991 407.46 597.726C407.089 596.684 406.754 596.907 406.318 596.234C406.056 595.829 405.881 594.28 405.762 593.749C408.088 589.159 411.711 585.994 415.051 582.189C417.428 579.48 419.399 576.549 421.299 573.496C409.515 576.23 398.044 579.743 386.067 575.817C384.571 578.471 383.12 581.216 381.436 583.752C380.357 585.377 378.058 587.793 377.586 589.638C377.168 591.269 377.205 593.293 377.065 594.981C376.414 602.866 372.936 613.901 366.688 619.04C364.263 621.034 361.299 622.544 358.066 622.138C354.834 621.731 352.724 620.137 350.812 617.577C345.953 611.07 343.959 596.539 345.245 588.445C346.018 583.578 347.655 581.69 351.613 578.872L352.965 565.775C350.063 564.244 345.821 563.784 342.608 562.947L328.716 558.634C302.815 549.707 279.28 535.916 258.621 517.926C246.896 507.716 236.314 495.989 225.674 484.674C207.154 464.98 188.729 446.271 166.455 430.698C161.454 427.201 155.587 422.557 149.543 421.2C147.362 420.71 145.318 420.679 143.418 422.017C142.394 422.739 141.683 423.485 141.48 424.753C141.314 425.795 141.125 427.134 140.273 427.811C138.853 427.098 138.028 426.781 136.431 427.072L136.055 427.15C134.725 426.196 133.323 425.294 132.369 423.942C131.574 422.814 130.668 421.996 129.644 421.084C130.183 422.955 130.656 425.32 131.623 427.012C135.732 434.201 142.819 438.677 143.433 447.765C143.051 448.374 142.597 449.431 141.99 449.79C138.275 451.982 133.461 450.395 129.564 449.449C128.66 451.798 127.816 454.914 128.605 457.369C130.661 463.766 137.545 466.222 143.045 468.923C136.745 469.097 131.427 468.556 125.495 466.132C117.893 463.025 110.598 458.023 107.304 450.244C106.614 449.079 106.535 447.457 106.322 446.129ZM127.437 408.934L122.064 409.64C122.704 411.606 126.916 414.418 128.276 416.648C128.525 417.056 129.112 418.225 129.463 418.499C130.176 419.057 131.816 418.982 132.553 419.64C133.946 420.884 134.089 424.244 136.087 424.688L137.637 423.022L138.593 423.241L139.316 424.945C140.77 424.135 141.192 422.481 142.3 421.303C143.308 420.233 145.07 419.837 146.464 419.61C150.287 420.17 153.854 420.85 157.542 422.026C149.991 414.664 141.932 408.559 130.85 408.666C129.827 408.676 128.393 408.567 127.437 408.934Z"/>
	<path fill="#95C1C7" transform="scale(0.574533 0.574533)" d="M387.501 380.033C388.656 378.65 389.638 377.353 391.553 377.115L394.717 377.112L395.524 378.148C395.344 379.17 395.197 380.203 394.903 381.2C392.613 381.082 389.445 381.309 387.501 380.033Z"/>
	<path fill="#2A779A" transform="scale(0.574533 0.574533)" d="M343.52 492.242C344.392 494.377 345.109 496.401 345.59 498.659L343.301 500.486C341.468 499.229 340.996 497.006 340.333 494.938L343.52 492.242Z"/>
	<path fill="#FEFEFE" transform="scale(0.574533 0.574533)" d="M361.544 492.594L370.686 495.831L369.932 497.393C367.77 498.24 361.706 495.613 359.385 494.656L359.385 494.123L361.544 492.594Z"/>
	<path fill="#5B848C" transform="scale(0.574533 0.574533)" d="M515.603 397.774L522.889 400.438L522.465 406.092L521.911 404.584C519.718 402.926 518.096 402.178 515.338 401.933L515.603 397.774Z"/>
	<path fill="#F1B1A6" transform="scale(0.574533 0.574533)" d="M538.995 454.648L539.17 453.436C539.426 453.155 539.494 453.041 539.879 452.848C544.522 450.523 552.334 452.202 556.969 453.777C552.97 454.257 549.005 453.89 545.01 454.181C543.213 454.312 540.549 455.448 538.995 454.648Z"/>
	<path fill="#95C1C7" transform="scale(0.574533 0.574533)" d="M390.758 444.101L389.397 443.22C391.267 441.838 394.115 441.216 396.39 440.769C398.796 442.315 400.587 443.715 402.242 446.069L401.481 446.591C399.667 446.577 397.637 445.362 396.035 444.545C394.382 443.702 392.573 444.019 390.758 444.101Z"/>
	<path fill="#5B848C" transform="scale(0.574533 0.574533)" d="M535.555 461.257C536.945 461.873 538.175 462.13 539.68 462.321C539.61 464.53 539.724 467.144 538.779 469.183C538.082 470.688 537.854 470.657 536.371 471.234C534.806 468.839 535.485 464.138 535.555 461.257Z"/>
	<path fill="#95C1C7" transform="scale(0.574533 0.574533)" d="M515.603 397.774L515.894 393.02L516.797 392.505C518.34 393.141 521.304 394.167 521.974 395.809C522.627 397.409 522.788 398.734 522.889 400.438L515.603 397.774Z"/>
	<path fill="#165073" transform="scale(0.574533 0.574533)" d="M511.134 420.909L519.93 420.538L519.056 422.006C516.632 425.386 513.382 425.777 509.587 426.464L511.134 420.909Z"/>
	<path fill="#5B848C" transform="scale(0.574533 0.574533)" d="M512.979 414.827L520.761 416.11C520.373 417.566 519.875 419.018 519.93 420.538L511.134 420.909L512.979 414.827Z"/>
	<path fill="#2A779A" transform="scale(0.574533 0.574533)" d="M512.979 414.827C513.706 412.895 513.952 410.374 514.385 408.328C516.755 410.161 518.716 410.314 521.708 410.551L520.761 416.11L512.979 414.827Z"/>
	<path fill="#75A5AC" transform="scale(0.574533 0.574533)" d="M535.555 461.257C534.996 458.881 534.427 456.594 533.466 454.344C533.256 453.853 532.051 451.509 532.102 451.193C532.155 450.856 532.445 450.604 532.617 450.309C534.449 450.597 535.448 450.648 536.635 452.248C538.543 454.821 539.125 459.244 539.68 462.321C538.175 462.13 536.945 461.873 535.555 461.257Z"/>
	<path fill="#75A5AC" transform="scale(0.574533 0.574533)" d="M515.338 401.933C518.096 402.178 519.718 402.926 521.911 404.584L522.465 406.092L521.708 410.551C518.716 410.314 516.755 410.161 514.385 408.328L515.338 401.933Z"/>
	<path fill="#F1B1A6" transform="scale(0.574533 0.574533)" d="M314.679 500.974C315.036 499.623 315.592 498.495 316.314 497.306C319.134 492.665 324.9 486.16 330.381 484.798L332.869 486.344C327.864 489.127 322.868 491.891 319.184 496.41C317.683 498.251 316.69 500.448 314.898 502.033L314.679 500.974Z"/>
	<path fill="#5B848C" transform="scale(0.574533 0.574533)" d="M385.94 462.488C386.504 462.292 386.976 462.131 387.575 462.092C389.383 461.976 390.907 461.334 392.578 460.688L393.615 468.854L388.176 471.462C386.79 469.357 386.669 465.041 385.94 462.488Z"/>
	<path fill="#F02727" transform="scale(0.574533 0.574533)" d="M361.544 492.594L374.678 485.053C373.43 488.432 372.393 492.729 370.686 495.831L361.544 492.594Z"/>
	<path fill="#75A5AC" transform="scale(0.574533 0.574533)" d="M340.333 494.938C338.166 490.947 335.553 487.497 332.613 484.053C333.799 483.276 335.151 482.763 336.445 482.193C339.942 484.135 341.764 488.823 343.52 492.242L340.333 494.938Z"/>
	<path fill="#2A779A" transform="scale(0.574533 0.574533)" d="M398.516 454.804L401.137 462.51L395.288 467.56L393.131 457.761L398.516 454.804Z"/>
	<path fill="#5B848C" transform="scale(0.574533 0.574533)" d="M446.391 451.782C448.082 451.869 452.457 451.605 453.723 452.536C453.444 454.994 453.408 457.935 452.296 460.159L451.956 460.231C449.885 460.51 447.223 460.67 445.439 459.421C445.499 456.866 446 454.305 446.391 451.782Z"/>
	<path fill="#75A5AC" transform="scale(0.574533 0.574533)" d="M355.086 578.297C356.352 578.802 357.829 580.298 358.948 581.141C361.688 583.203 365.704 585.53 369.26 585.463C371.268 585.425 373.192 584.586 375.217 584.525C376.088 584.499 376.021 584.546 376.65 585.153L375.732 586.437L374.906 586.95C371.605 588.596 365.873 588.337 362.444 587.196C359.827 586.325 356.125 583.772 354.958 581.214C354.332 579.843 354.574 579.638 355.086 578.297Z"/>
	<path fill="#75A5AC" transform="scale(0.574533 0.574533)" d="M417.015 584.626L417.871 584.408C419.81 585.451 420.205 589.58 422.069 591.385C424.343 593.587 427.212 595.889 430.083 597.258C431.841 598.096 433.875 598.557 435.488 599.64L434.385 600.448L433.935 600.555C430.514 601.225 425.379 598.299 422.666 596.504C419.437 594.368 416.965 591.115 416.267 587.244C416.01 585.814 416.22 585.763 417.015 584.626Z"/>
	<path fill="#FEFEFE" transform="scale(0.574533 0.574533)" d="M128.155 465.119C124.915 460.878 121.278 457.09 120.036 451.72L121.015 450.666C123.186 450.006 124.733 449.884 126.986 450.138L127.429 451.884C126.623 455.107 126.375 457.158 128.091 460.133C129.868 463.213 133.907 465.738 136.701 467.927C133.837 467.122 130.827 466.447 128.155 465.119Z"/>
	<path fill="#75A5AC" transform="scale(0.574533 0.574533)" d="M390.758 444.101C392.573 444.019 394.382 443.702 396.035 444.545C397.637 445.362 399.667 446.577 401.481 446.591L402.242 446.069C402.861 446.817 403.445 447.667 403.84 448.556C405.66 452.647 403.995 457.065 402.496 460.94C399.651 453.862 396.342 449.272 390.758 444.101Z"/>
	<path fill="#2A779A" transform="scale(0.574533 0.574533)" d="M391.792 396.153C391.519 400.551 391.785 405.226 390.82 409.528L389.971 409.895C388.443 409.462 387.21 409.124 386.085 407.914L385.752 407.534L385.464 407.213C383.235 404.542 384.292 398.26 384.692 395.142C386.756 396.467 389.356 396.085 391.792 396.153Z"/>
	<path fill="#75A5AC" transform="scale(0.574533 0.574533)" d="M393.131 457.761C389.72 452.648 386.544 450.09 381.538 446.637C383.173 445.533 384.76 444.178 386.807 444.109C392.073 446.415 395.713 449.807 398.516 454.804L393.131 457.761Z"/>
	<path fill="#931A18" transform="scale(0.574533 0.574533)" d="M339.049 495.601L341.079 500.575C334.627 503.097 328.491 504.875 321.573 505.593C319.948 505.762 317.492 506.078 315.978 505.358C314.81 504.803 314.748 504.267 314.294 503.142C314.382 502.427 314.396 501.638 314.679 500.974L314.898 502.033L315.839 502.869C323.841 502.576 331.899 498.964 339.049 495.601Z"/>
	<path fill="#EC5B00" transform="scale(0.574533 0.574533)" d="M118.872 438.074C125.047 441.413 134.441 446.249 141.587 446.321L141.679 447.721C141.306 448.25 140.979 449.014 140.35 449.195C132.922 451.337 122.878 445.447 116.461 441.984L118.872 438.074Z"/>
	<path fill="#75A5AC" transform="scale(0.574533 0.574533)" d="M384.692 395.142C385.255 390.628 385.345 384.012 387.501 380.033C389.445 381.309 392.613 381.082 394.903 381.2L391.792 396.153C389.356 396.085 386.756 396.467 384.692 395.142Z"/>
	<path fill="#75A5AC" transform="scale(0.574533 0.574533)" d="M385.94 462.488C382.518 457.484 379.49 454.917 374.539 451.528L380.097 447.238C386.038 451.102 389.573 454.036 392.578 460.688C390.907 461.334 389.383 461.976 387.575 462.092C386.976 462.131 386.504 462.292 385.94 462.488Z"/>
	<path fill="#931A18" transform="scale(0.574533 0.574533)" d="M540.885 462.863C547.959 463.684 555.804 461.09 561.622 457.218C562.007 458.566 562.406 459.347 561.662 460.686C559.21 465.104 550.858 468.263 546.176 469.249L540.343 470.112C540.475 468.101 540.227 464.672 540.885 462.863Z"/>
	<path fill="#5B848C" transform="scale(0.574533 0.574533)" d="M470.712 536.342L482.493 542.311L477.703 551.986L465.731 544.859L470.712 536.342Z"/>
	<path fill="#F02727" transform="scale(0.574533 0.574533)" d="M556.969 453.777C558.7 454.404 560.007 454.868 561.304 456.257L561.622 457.218C555.804 461.09 547.959 463.684 540.885 462.863L538.995 454.648C540.549 455.448 543.213 454.312 545.01 454.181C549.005 453.89 552.97 454.257 556.969 453.777Z"/>
	<path fill="#75A5AC" transform="scale(0.574533 0.574533)" d="M106.322 446.129C108.746 447.013 111.36 448.235 113.919 448.556C114.948 447.086 114.033 445.189 115.534 444.374C119.466 445.567 123.955 446.885 127.443 449.083C127.699 450.167 127.674 450.803 127.429 451.884L126.986 450.138C124.733 449.884 123.186 450.006 121.015 450.666L120.036 451.72C121.278 457.09 124.915 460.878 128.155 465.119C123.757 463.582 118.99 461.227 115.534 458.049C112.865 455.595 110.558 452.682 107.655 450.503L107.304 450.244C106.614 449.079 106.535 447.457 106.322 446.129Z"/>
	<path fill="#F02727" transform="scale(0.574533 0.574533)" d="M332.869 486.344C335.075 489.245 337.354 492.371 339.049 495.601C331.899 498.964 323.841 502.576 315.839 502.869L314.898 502.033C316.69 500.448 317.683 498.251 319.184 496.41C322.868 491.891 327.864 489.127 332.869 486.344Z"/>
	<path fill="#5B848C" transform="scale(0.574533 0.574533)" d="M407.381 441.868C414.856 444.242 421.67 447.239 429.398 449.086C432.52 449.832 435.645 450.441 438.829 450.862C440.506 451.084 443.238 451.089 444.665 451.895L443.76 457.566C443.311 458.315 443.198 458.435 442.441 458.869C433.181 457.264 422.741 453.685 414.947 448.299C412.261 446.442 409.815 444.043 407.381 441.868Z"/>
	<path fill="#95C1C7" transform="scale(0.574533 0.574533)" d="M95.1898 382.591L97.8223 382.458C99.7859 383.399 100.938 385.566 102.102 387.334L111.073 402.364C107.927 400.757 105.092 398.716 102.2 396.701L80.6331 383.96L95.1898 382.591Z"/>
	<path fill="#931A18" transform="scale(0.574533 0.574533)" d="M416.084 595.042C421.408 599.298 425.607 602.485 432.514 603.735C430.702 611.502 428.508 622.891 421.373 627.592C420.257 628.328 419.172 628.849 417.821 628.4C416.29 627.892 414.882 626.579 413.767 625.471C417.198 623.762 420.034 621.717 421.906 618.324C423.092 616.176 425.421 610.776 425.192 608.373C424.987 606.219 421.467 602.832 420.088 601.361C418.378 599.536 416.876 597.971 416.205 595.504L416.084 595.042Z"/>
	<path fill="#95C1C7" transform="scale(0.574533 0.574533)" d="M375.524 492.124C377.681 484.5 380.702 477.369 387.861 473.146C389.935 471.923 392.267 471.142 394.291 469.843C397.463 467.807 400.455 464.87 403.359 462.44C401.647 471.875 390.685 482.121 383.033 487.443L375.524 492.124Z"/>
	<path fill="#F1B1A6" transform="scale(0.574533 0.574533)" d="M16.4758 365.333C22.6727 365.576 28.4063 366.944 34.4336 368.308C43.5539 370.372 52.6302 372.809 61.1689 376.676C63.1356 377.567 65.9313 378.574 67.4547 380.093C69.3962 382.029 69.495 384.94 69.7064 387.513C58.4989 381.603 47.1321 376.208 35.2654 371.741C29.1503 369.44 22.2802 368.333 16.4758 365.333Z"/>
	<path fill="#931A18" transform="scale(0.574533 0.574533)" d="M354.903 586.191C359.022 588.028 363.101 590.105 367.68 590.371C370.016 590.507 372.762 589.792 375.079 589.388C373.733 599.352 372.324 610.921 363.867 617.636C362.027 619.097 359.649 619.374 357.381 619.063C356.525 618.946 355.877 618.626 355.194 618.106C361.337 613.791 365.657 608.371 367.461 600.975C369.861 591.135 358.596 592.569 355.117 586.576L354.903 586.191Z"/>
	<path fill="#75A5AC" transform="scale(0.574533 0.574533)" d="M63.0453 425.105L78.9815 434.225C83.1661 436.514 87.6934 438.233 91.9297 440.47C93.0807 441.078 94.6774 441.617 95.2916 442.755L93.2222 443.594L82.427 445.673C81.2601 445.918 79.2225 446.668 78.0676 446.391C77.5054 446.256 76.8371 445.292 76.4641 444.877C71.3482 439.18 67.1745 431.569 63.0453 425.105Z"/>
	<path fill="#FEA51E" transform="scale(0.574533 0.574533)" d="M118.872 438.074L126.62 424.394L129.884 427.64C134.538 432.728 138.986 437.408 141.309 444.054L141.587 446.321C134.441 446.249 125.047 441.413 118.872 438.074Z"/>
	<path fill="#FED5A2" transform="scale(0.574533 0.574533)" d="M141.309 444.054L140.909 444.008L140.307 443.921C135.093 443.201 130.555 438.796 127.436 434.844C127.47 431.889 127.963 429.896 129.884 427.64C134.538 432.728 138.986 437.408 141.309 444.054Z"/>
	<path fill="#5B848C" transform="scale(0.574533 0.574533)" d="M484.355 450.12L486.974 450.147L487.645 451.193C487.448 451.959 487.418 452.594 486.859 453.176C480.853 459.434 466.761 460.254 458.45 460.493C456.984 460.463 455.962 460.688 454.748 459.775C454.452 457.223 454.968 454.677 455.351 452.157L484.355 450.12Z"/>
	<path fill="#FEFEFE" transform="scale(0.574533 0.574533)" d="M399.577 554.306C407.989 558.234 416.456 560.975 425.49 563.106C422.781 565.169 417.579 566.452 414.316 567.703C405.963 569.366 398.931 569.997 390.371 569.204L399.577 554.306Z"/>
	<path fill="#95C1C7" transform="scale(0.574533 0.574533)" d="M495.804 468.07L533.253 462.815L533.146 470.753L497.31 478.736L495.804 468.07Z"/>
	<path fill="#F02727" transform="scale(0.574533 0.574533)" d="M407.46 597.726C408.82 593.65 410.702 591.088 413.595 587.989L416.084 595.042L416.205 595.504C416.876 597.971 418.378 599.536 420.088 601.361C421.467 602.832 424.987 606.219 425.192 608.373C425.421 610.776 423.092 616.176 421.906 618.324C420.034 621.717 417.198 623.762 413.767 625.471C412.273 623.407 411.219 620.99 410.086 618.712C407.645 611.815 406.971 604.991 407.46 597.726Z"/>
	<path fill="#95C1C7" transform="scale(0.574533 0.574533)" d="M383.441 461.216C385.136 464.212 385.91 467.74 386.866 471.029C375.912 479.151 364.999 486.395 353.083 493.048C351.829 493.748 348.342 496.158 347.079 496.08L343.807 488.742C358.427 482.33 371.427 471.558 383.441 461.216Z"/>
	<path fill="#95C1C7" transform="scale(0.574533 0.574533)" d="M444.782 460.79L452.629 461.997L436.308 522.741L429.04 520.748L444.782 460.79Z"/>
	<path fill="#95C1C7" transform="scale(0.574533 0.574533)" d="M387.169 543.347L396.95 552.319L388.731 565.228C386.853 568.419 381.044 580.866 378.621 582.474C377.955 582.916 376.03 583.203 375.205 583.379C370.025 584.483 363.818 583.245 359.45 580.253C357.791 579.118 356.35 577.795 355.166 576.172L354.947 573.988C356.937 575.116 359.055 576.469 361.221 577.204C363.685 578.04 367.326 578.537 369.726 577.295C380.595 571.674 383.921 554.113 387.169 543.347Z"/>
	<path fill="#F02727" transform="scale(0.574533 0.574533)" d="M355.194 618.106C354.158 616.966 353.389 615.804 352.713 614.426C349.53 607.931 348.177 600.286 348.125 593.098C348.11 590.866 348.012 588.261 348.797 586.148C349.394 584.542 350.176 583.649 351.738 582.972C353.211 583.77 353.954 584.869 354.903 586.191L355.117 586.576C358.596 592.569 369.861 591.135 367.461 600.975C365.657 608.371 361.337 613.791 355.194 618.106Z"/>
	<path fill="#FEFEFE" transform="scale(0.574533 0.574533)" d="M495.804 468.07L491.038 452.704C503.547 450.269 516.951 450.983 529.586 451.749C531.745 455.291 532.496 458.797 533.253 462.815L495.804 468.07Z"/>
	<path fill="#931A18" transform="scale(0.574533 0.574533)" d="M12.9653 367.449C18.0298 369.159 22.6588 374.592 26.8657 377.855L43.0796 389.996C49.8317 395.116 57.0146 400.693 64.5186 404.662C60.6658 408.978 56.3808 411.261 50.9493 413.07C45.6156 409.79 41.6321 405.293 37.3777 400.774C28.3042 391.134 18.0604 379.765 12.9653 367.449Z"/>
	<path fill="#165073" transform="scale(0.574533 0.574533)" d="M231.843 488.198L209.166 465.103C202.964 458.723 196.918 452.212 190.198 446.368C179.787 437.315 168.075 429.936 157.377 421.242C164.199 424.087 169.978 428.362 175.946 432.652C197.414 448.084 214.88 466.638 232.668 486.075L256.412 509.616C274.872 526.418 296.104 539.649 318.835 549.83C325.303 552.727 332.158 555.307 339.014 557.134C342.687 558.113 346.629 558.546 350.172 559.945C351.385 560.425 352.192 560.751 352.785 561.948C352.54 562.433 352.529 562.859 351.941 562.978C349.504 563.472 344.031 561.49 341.62 560.812C314.625 553.218 289.265 539.496 267.236 522.261C254.184 512.049 243.103 500.254 231.843 488.198Z"/>
	<path fill="#FEFEFE" transform="scale(0.574533 0.574533)" d="M343.807 488.742L337.791 480.783L373.39 453.04C377.553 455.1 380.49 457.706 383.441 461.216C371.427 471.558 358.427 482.33 343.807 488.742Z"/>
	<path fill="#F02727" transform="scale(0.574533 0.574533)" d="M12.9653 367.449L12.3303 365.912L12.9199 365.088L16.4758 365.333C22.2802 368.333 29.1503 369.44 35.2654 371.741C47.1321 376.208 58.4989 381.603 69.7064 387.513C69.2143 394.079 67.6223 398.895 64.5186 404.662C57.0146 400.693 49.8317 395.116 43.0796 389.996L26.8657 377.855C22.6588 374.592 18.0298 369.159 12.9653 367.449Z"/>
	<path fill="#95C1C7" transform="scale(0.574533 0.574533)" d="M485.482 455.889L489.171 453.277C499.027 482.194 492.461 512.792 483.187 540.868L471.503 534.888C481.509 515.085 487.512 490.097 486.683 467.878C486.536 463.92 486.559 459.708 485.482 455.889Z"/>
	<path fill="#75A5AC" transform="scale(0.574533 0.574533)" d="M66.844 406.702C72.5866 411.126 78.8291 414.131 84.8151 418.086C85.6713 420.933 86.6056 423.477 88.1312 426.037C88.9694 427.443 92.9101 429.041 94.545 429.34C97.9884 429.97 100.63 430.144 103.841 428.535C108.672 431.497 113.503 433.302 118.696 435.461C116.042 438.815 113.919 442.296 111.996 446.112C107.689 444.78 103.493 442.88 99.3002 441.221C82.3606 434.518 67.6844 426.512 53.1356 415.529C58.5733 413.329 62.5751 410.718 66.844 406.702Z"/>
	<path fill="#95C1C7" transform="scale(0.574533 0.574533)" d="M465.731 544.859C455.555 540.374 444.937 535.913 434.267 532.763C412.533 526.345 389.414 523.466 367.005 520.45L368.987 512.266C404.574 515.095 437.434 523.697 470.712 536.342L465.731 544.859Z"/>
	<path fill="#95C1C7" transform="scale(0.574533 0.574533)" d="M487.231 350.991C490.08 352.208 492.363 354.487 494.576 356.604C501.194 362.935 506.313 369.982 509.745 378.505C515.339 392.397 514.189 409.435 508.341 423.082C505.843 428.911 502.232 433.902 498.264 438.806C496.161 441.405 493.872 444.339 490.693 445.638C485.772 447.65 480.115 447.96 474.867 448.378C470.258 448.745 465.525 449.275 460.898 449.262C447.678 449.223 434.443 446.949 421.627 443.923C424.343 442.991 427.306 442.936 430.146 442.552C437.938 441.497 444.466 440.006 450.422 434.564C452.456 434.845 455.841 435.833 457.781 435.432C461.328 434.7 465.43 435.253 469.083 434.994C476.801 434.445 487.831 431.162 493.948 426.52C501.981 420.427 505.193 409.742 506.468 400.1C506.729 398.131 506.918 396.546 506.456 394.585L506.308 393.97C505.632 390.934 504.444 388.617 502.908 385.935C503.249 383.697 502.542 380.906 502.063 378.709C499.585 367.339 493.695 360.344 487.231 350.991Z"/>
	<path fill="#FEFEFE" transform="scale(0.574533 0.574533)" d="M66.844 406.702C70.1907 400.812 73.3505 394.938 72.7343 387.905C72.5629 385.948 71.7105 383.802 71.8061 381.887C86.27 388.9 100.719 397.177 113.918 406.343C118.083 409.235 124.143 413.048 126.486 417.703L125.896 420.803C124.656 425.787 121.665 431.297 118.696 435.461C113.503 433.302 108.672 431.497 103.841 428.535C100.63 430.144 97.9884 429.97 94.545 429.34C92.9101 429.041 88.9694 427.443 88.1312 426.037C86.6056 423.477 85.6713 420.933 84.8151 418.086C78.8291 414.131 72.5866 411.126 66.844 406.702Z"/>
	<path fill="#165073" transform="scale(0.574533 0.574533)" d="M84.8151 418.086C85.4516 413.929 86.2624 410.925 89.4832 408.038C92.0545 405.734 95.8375 404.845 99.2332 405.064C103.544 405.342 106.795 409.352 109.39 412.394C113.184 414.041 116.74 416.242 120.359 418.235C121.975 419.124 124.079 420.572 125.896 420.803C124.656 425.787 121.665 431.297 118.696 435.461C113.503 433.302 108.672 431.497 103.841 428.535C100.63 430.144 97.9884 429.97 94.545 429.34C92.9101 429.041 88.9694 427.443 88.1312 426.037C86.6056 423.477 85.6713 420.933 84.8151 418.086Z"/>
	<path fill="#2A779A" transform="scale(0.574533 0.574533)" d="M88.4983 412.963C90.3663 415.026 94.4327 416.396 97.14 416.548C97.852 416.588 98.538 416.431 99.2384 416.34L102.786 416.03C101.805 418.251 99.3353 421.083 97.0154 421.922L96.511 422.083C94.6639 422.701 91.2934 422.514 89.5092 421.778C89.1458 421.629 88.8895 421.496 88.731 421.128C87.7828 418.924 87.6598 415.209 88.4983 412.963Z"/>
	<path fill="#25A6DF" transform="scale(0.574533 0.574533)" d="M88.4983 412.963C89.4454 410.724 91.2627 408.763 93.5649 407.849C95.8244 406.952 99.1679 406.709 101.429 407.684C104.48 409 106.728 412.55 108.453 415.235L102.786 416.03L99.2384 416.34C98.538 416.431 97.852 416.588 97.14 416.548C94.4327 416.396 90.3663 415.026 88.4983 412.963Z"/>
	<path fill="#95C1C7" transform="scale(0.574533 0.574533)" d="M109.39 412.394C113.184 414.041 116.74 416.242 120.359 418.235C121.975 419.124 124.079 420.572 125.896 420.803C124.656 425.787 121.665 431.297 118.696 435.461C113.503 433.302 108.672 431.497 103.841 428.535C105.875 427.003 107.863 425.521 109.099 423.241C110.949 419.827 110.48 415.964 109.39 412.394Z"/>
	<path fill="#95C1C7" transform="scale(0.574533 0.574533)" d="M384.596 539.695C382.408 538.276 380.68 535.358 379.801 532.94L380.479 532.606C402.446 547.976 429.697 554.424 456.271 549.7C459.085 549.199 462.532 548.228 464.633 546.179L476.986 553.462C469.128 564.91 461.066 575.617 451.376 585.619C446.969 590.168 442.785 594.503 437.305 597.793L429.671 595.336C424.239 592.006 421.574 588.24 419.157 582.484C421.583 576.526 425.53 568.488 429.727 563.623C430.274 562.99 431.424 563.151 432.25 563.086C438.749 563.549 444.994 562.51 451.301 561.043C454.38 560.338 457.145 559.651 459.851 557.967L451.985 559.583C434.93 563.702 412.626 559.786 397.885 550.238C393.224 547.219 389.558 542.631 384.963 539.902L384.596 539.695Z"/>
	<path fill="#FEFEFE" transform="scale(0.574533 0.574533)" d="M455.175 561.845L456.554 561.963C450.352 571.067 442.536 579.482 435.543 588.037C433.887 590.062 430.564 593.11 429.671 595.336C424.239 592.006 421.574 588.24 419.157 582.484C421.583 576.526 425.53 568.488 429.727 563.623C430.274 562.99 431.424 563.151 432.25 563.086C432.775 563.91 433.402 565.337 434.352 565.646C435.473 566.011 437.515 565.675 438.731 565.583C444.014 565.182 450.393 564.167 455.175 561.845Z"/>
	<path fill="#8EA2BF" transform="scale(0.574533 0.574533)" d="M985.341 294.956C993.321 310.932 993.722 331.074 988.094 347.919C982.646 364.229 969.998 378.677 954.607 386.35C946.367 390.459 938.65 392.146 929.628 393.519L932.133 371.263C932.534 367.612 932.575 363.695 933.41 360.125C942.636 360.174 955.267 352.2 962.138 346.264C972.561 337.26 980.122 325.462 983.245 311.99C984.537 306.42 984.936 300.645 985.341 294.956Z"/>
	<path fill="#FEFEFE" transform="scale(0.574533 0.574533)" d="M354.947 573.988C355.682 572.465 355.905 570.282 356.292 568.59L358.962 556.441L366.498 522.42C378.249 522.869 390.058 525.154 401.572 527.375C423.462 531.597 444.357 536.659 464.633 546.179C462.532 548.228 459.085 549.199 456.271 549.7C429.697 554.424 402.446 547.976 380.479 532.606L379.801 532.94C380.68 535.358 382.408 538.276 384.596 539.695L387.169 543.347C383.921 554.113 380.595 571.674 369.726 577.295C367.326 578.537 363.685 578.04 361.221 577.204C359.055 576.469 356.937 575.116 354.947 573.988Z"/>
	<path fill="#FEFEFE" transform="scale(0.574533 0.574533)" d="M471.503 534.888L438.117 522.973C444.889 502.869 450.765 483.033 453.971 462.01C464.664 463.324 475.84 460.372 485.482 455.889C486.559 459.708 486.536 463.92 486.683 467.878C487.512 490.097 481.509 515.085 471.503 534.888Z"/>
	<path fill="#FEFEFE" transform="scale(0.574533 0.574533)" d="M403.359 462.44C405.17 458.269 407.162 452.924 405.347 448.413C404.407 446.074 402.787 444.324 401.071 442.534C400.783 442.234 399.272 440.857 399.226 440.645C399.154 440.309 399.428 439.989 399.53 439.661C400.144 439.26 400.767 438.586 401.501 438.768C402.756 439.08 404.39 441.003 405.417 441.921C408.295 444.494 411.127 447.065 414.367 449.186C422.926 454.79 433.295 458.762 443.313 460.754C440.338 475.499 436.984 490.157 432.567 504.544C430.919 509.911 429.405 515.392 427.244 520.579C408.231 515.653 389.116 512.646 369.567 510.999L374.052 496.79C374.408 495.673 375.555 493.215 375.524 492.124L383.033 487.443C390.685 482.121 401.647 471.875 403.359 462.44Z"/>
	<path fill="#504F50" transform="scale(0.574533 0.574533)" d="M887.842 426.805C890.431 414.042 891.883 401.232 893.559 388.327L898.317 347.738C900.087 322.994 899.751 298.494 898.707 273.737C897.397 242.688 894.637 211.405 889.392 180.767L878.355 130.518C884.699 137.198 887.908 145.396 891.522 153.733C897.719 168.03 902.905 182.537 907.2 197.512C909.121 204.21 911.448 211.115 912.294 218.041C911.503 224.109 912.873 230.204 913.157 236.276L913.947 269.708C913.998 274.009 914.465 278.213 914.33 282.528C913.953 294.627 912.972 306.691 911.275 318.68L899.728 379.692L893.189 412.053C892.178 416.196 891.265 420.945 889.593 424.88C889.285 425.603 888.742 426.108 888.137 426.586L887.842 426.805Z"/>
	<path fill="#FEFEFE" transform="scale(0.574533 0.574533)" d="M421.627 443.923C417.169 442.829 412.398 441.052 408.428 438.736C400.948 434.374 396.957 424.507 394.823 416.489C390.845 401.541 393.219 384.884 401.007 371.555C409.553 356.93 424.289 346.981 440.499 342.819C457.225 338.525 472.683 342.455 487.231 350.991C493.695 360.344 499.585 367.339 502.063 378.709C502.542 380.906 503.249 383.697 502.908 385.935C500.08 383.203 497.241 380.167 493.899 378.067C483.214 371.356 470.211 368.463 457.894 366.564C452.939 365.8 447.787 364.935 442.761 365.048C432.948 365.27 421.059 367.676 414.127 375.141C407.472 382.306 405.387 393.11 405.9 402.609C406.332 410.607 410.004 417.286 415.885 422.594C424.903 430.733 438.781 433.033 450.422 434.564C444.466 440.006 437.938 441.497 430.146 442.552C427.306 442.936 424.343 442.991 421.627 443.923Z"/>
	<path fill="#FEFEFE" transform="scale(0.574533 0.574533)" d="M933.41 360.125L934.356 340.111C935.08 310.857 934.82 282.02 930.576 253.002C936.188 253.911 941.602 255.415 946.846 257.616C963.98 264.809 978.24 277.668 985.341 294.956C984.936 300.645 984.537 306.42 983.245 311.99C980.122 325.462 972.561 337.26 962.138 346.264C955.267 352.2 942.636 360.174 933.41 360.125Z"/>
	<path fill="#373737" transform="scale(0.574533 0.574533)" d="M912.294 218.041C917.876 234.698 919.223 253.363 920.835 270.727C928.108 349.108 919.151 434.815 883.77 506.014C876.303 521.04 867.39 535.602 855.423 547.489C851.418 551.467 846.898 555.552 841.955 558.33C861.872 527.584 873.162 493.339 881.414 457.862L885.412 439.121C886.185 435.063 886.694 430.767 887.842 426.805L888.137 426.586C888.742 426.108 889.285 425.603 889.593 424.88C891.265 420.945 892.178 416.196 893.189 412.053L899.728 379.692L911.275 318.68C912.972 306.691 913.953 294.627 914.33 282.528C914.465 278.213 913.998 274.009 913.947 269.708L913.157 236.276C912.873 230.204 911.503 224.109 912.294 218.041Z"/>
	<path fill="#8E8484" transform="scale(0.574533 0.574533)" d="M450.422 434.564C438.781 433.033 424.903 430.733 415.885 422.594C410.004 417.286 406.332 410.607 405.9 402.609C405.387 393.11 407.472 382.306 414.127 375.141C421.059 367.676 432.948 365.27 442.761 365.048C447.787 364.935 452.939 365.8 457.894 366.564C470.211 368.463 483.214 371.356 493.899 378.067C497.241 380.167 500.08 383.203 502.908 385.935C504.444 388.617 505.632 390.934 506.308 393.97L506.456 394.585C506.918 396.546 506.729 398.131 506.468 400.1C505.193 409.742 501.981 420.427 493.948 426.52C487.831 431.162 476.801 434.445 469.083 434.994C465.43 435.253 461.328 434.7 457.781 435.432C455.841 435.833 452.456 434.845 450.422 434.564Z"/>
	<path transform="scale(0.574533 0.574533)" d="M437.306 425.733C429.143 423.929 419.531 420.253 414.866 412.824C411.31 407.162 411.58 396.912 413.117 390.609C414.596 384.542 417.814 379.045 423.26 375.79C434.6 369.014 460.26 372.461 472.614 375.756C481.371 378.092 494.46 383.019 499.188 391.187C501.865 395.811 500.905 401.815 499.52 406.697C497.375 414.257 493.744 419.913 486.742 423.821C474.431 430.693 458.942 430.597 445.489 427.991C446.478 427.922 447.52 427.812 448.503 427.982C453.402 428.832 458.321 428.138 463.185 427.372C464.737 427.76 466.272 427.771 467.864 427.752C475.858 427.655 485.859 424.93 491.528 418.909C497.516 412.548 499.71 402.526 499.337 394.053C496.332 388.698 492.799 386.389 487.354 383.814C485.524 382.948 483.866 382.588 481.891 382.239C468.236 376.025 455.702 372.7 440.602 373.5C435.967 373.746 431.124 374.083 426.75 375.774C421.877 377.659 418.179 381.537 416.128 386.285C413.16 393.155 412.304 403.1 415.217 410.11C418.056 416.942 424.708 420.461 431.229 423.089L437.221 425.399L437.306 425.733Z"/>
	<path fill="#02213B" transform="scale(0.574533 0.574533)" d="M481.891 382.239C483.866 382.588 485.524 382.948 487.354 383.814C492.799 386.389 496.332 388.698 499.337 394.053C499.71 402.526 497.516 412.548 491.528 418.909C485.859 424.93 475.858 427.655 467.864 427.752C466.272 427.771 464.737 427.76 463.185 427.372C472.375 423.051 480.407 420.337 486.973 411.925C490.17 407.831 494.176 400.811 493.315 395.39C492.304 389.034 486.59 385.852 481.891 382.239Z"/>
	<path fill="#165073" transform="scale(0.574533 0.574533)" d="M437.306 425.733L437.221 425.399L431.229 423.089C424.708 420.461 418.056 416.942 415.217 410.11C412.304 403.1 413.16 393.155 416.128 386.285C418.179 381.537 421.877 377.659 426.75 375.774C431.124 374.083 435.967 373.746 440.602 373.5C455.702 372.7 468.236 376.025 481.891 382.239C486.59 385.852 492.304 389.034 493.315 395.39C494.176 400.811 490.17 407.831 486.973 411.925C480.407 420.337 472.375 423.051 463.185 427.372C458.321 428.138 453.402 428.832 448.503 427.982C447.52 427.812 446.478 427.922 445.489 427.991C442.669 427.546 439.897 426.963 437.306 425.733Z"/>
	<path fill="#FEFEFE" transform="scale(0.574533 0.574533)" d="M432.115 377.1L433.445 377.016C435.668 376.978 436.2 377.464 437.714 378.939C437.795 379.534 437.836 379.928 437.717 380.521C436.734 385.413 430.82 389.353 426.885 391.688C426.038 392.144 425.175 392.297 424.248 391.953C422.466 391.293 422.119 390.525 421.245 388.959C421.149 387.813 421.229 386.854 421.651 385.783C423.538 381.002 427.688 379.031 432.115 377.1Z"/>
	<path fill="#FEFEFE" transform="scale(0.574533 0.574533)" d="M329.793 481.402L324.438 484.005C303.608 476.752 282.01 469.399 267.347 451.91C250.465 431.777 244.646 404.169 241.017 378.812C238.236 359.385 236.8 339.724 238.543 320.133C241.193 290.357 248.473 256.074 272.446 235.935C292.135 219.395 318.538 211.113 342.102 201.645C393.348 181.052 445.902 163.77 498.868 148.204C581.626 123.881 665.943 104.068 751.601 93.4024C773.71 90.6495 797.332 86.1331 819.602 88.1276C833.515 89.3736 846.092 94.8568 855.13 105.748C881.58 137.622 885.36 206.948 888.926 247.092C890.712 267.197 893.582 288.098 891.68 308.266L888.228 267.279L877.516 194.723C874.255 177.092 870.808 159.52 865.414 142.399C862.014 131.607 857.833 120.242 850.301 111.618C837.554 98.9753 823.917 93.1702 805.863 93.273C790.714 93.3592 776.136 96.5489 761.221 98.6467L726.278 103.725L650.427 118.982L606.131 128.019L539.464 146.174L472.405 164.892C426.033 179.057 380.071 195.989 336.114 216.48C315.746 225.976 292.83 235.279 276.884 251.586C253.183 275.823 250.628 308.48 251.057 340.62C251.592 380.72 258.737 427.641 288.781 456.789C296.914 464.68 306.942 470.989 317.246 475.654C321.29 477.485 326.174 478.872 329.793 481.402Z"/>
	<path fill="#FED5A2" transform="scale(0.574533 0.574533)" d="M582.493 237.548L582.725 237.49C588.454 236.78 595.14 237.575 600.786 238.576C617.884 241.606 633.758 248.889 647.282 259.809C669.372 277.644 681.347 303.161 684.257 331.091C686.836 355.84 676.598 382.73 661.044 401.659C642.812 423.846 616.842 434.057 588.979 436.673C567.647 437.153 546.359 430.179 529.02 417.902C528.373 417.444 524.528 414.753 524.372 414.24C524.148 413.503 524.999 410.555 525.167 409.633C525.916 405.505 526.889 401.057 526.083 396.871C525.227 392.423 522.215 390.602 518.204 389.234C517.986 389.16 516.23 388.667 516.151 388.561C515.966 388.311 515.788 386.846 515.705 386.466C515.221 384.261 514.723 382.059 513.99 379.921C509.14 365.774 499.854 355.505 487.608 347.272L487.513 346.472C484.832 321.32 492.881 294.254 508.766 274.701C523.439 256.64 543.281 244.637 565.985 239.669C571.363 238.492 577.016 238.116 582.493 237.548Z"/>
	<path fill="#2A779A" transform="scale(0.574533 0.574533)" d="M633.331 272.931C633.796 272.828 634.233 272.746 634.71 272.851C636.653 273.276 638.708 275.454 639.825 276.993C642.937 281.282 644.24 288.408 643.234 293.648C642.507 297.435 640.453 300.043 637.295 302.126C636.545 302.233 635.743 302.338 634.995 302.165C632.742 301.644 630.849 299.039 629.755 297.163C626.876 292.228 626.108 284.865 627.721 279.381C628.619 276.329 630.575 274.368 633.331 272.931Z"/>
	<path fill="#C91917" transform="scale(0.574533 0.574533)" d="M597.179 389.028L620.868 374.913C626.463 378.909 632.983 381.457 639.946 380.267L647.184 378.398C643.795 387.466 640.348 395.334 630.963 399.606C624.491 402.552 617.512 403.069 610.824 400.472C604.921 398.18 600.96 393.924 597.179 389.028Z"/>
	<path transform="scale(0.574533 0.574533)" d="M597.179 389.028L576.665 401.659C568.073 406.934 556.655 416.189 546.054 414.41C541.099 413.579 536.509 409.582 533.807 405.516C531.498 402.042 530.675 398.313 530.172 394.239C529.265 386.907 529.301 379.433 529.128 372.056L528.286 339.221L527.165 308.969C526.906 302.66 525.862 295.521 527.132 289.293C528.289 283.621 531.096 278.871 536.045 275.7C540.634 272.76 546.994 271.807 552.285 272.996C561.035 274.962 569.085 280.306 576.983 284.383L603.394 297.705L634.513 313.339C640.712 316.457 647.214 319.395 653.115 323.036C656.196 324.938 658.979 327.33 660.91 330.423C663.371 334.363 664.394 339.306 663.213 343.853C662.449 346.793 660.408 349.819 658.194 351.863C654.479 355.291 649.348 357.68 645.026 360.289L620.868 374.913L597.179 389.028Z"/>
	<path fill="#FEFEFE" transform="scale(0.574533 0.574533)" d="M545.956 409.661C542.656 408.066 539.513 405.778 537.435 402.729C535.971 400.581 534.999 398.146 534.653 395.566C533.721 388.615 533.824 381.516 533.683 374.515L532.908 348.051L531.639 314.696C531.287 306.249 530.064 296.783 531.722 288.452C532.473 284.677 534.514 281.416 537.76 279.29C541.906 276.574 547.077 276.229 551.809 277.344C557.383 278.658 562.801 281.508 567.864 284.113L585.328 293.114L633.279 317.734C639.291 320.872 646.384 323.588 651.968 327.34C655.332 329.6 657.146 332.743 659.196 336.124C660.316 338.783 660.205 342.436 659.112 345.07C658.189 347.295 656.279 348.916 654.349 350.255C648.435 354.355 641.941 357.741 635.778 361.458L599.394 383.534L571.17 400.842C566.122 403.93 560.88 407.84 555.347 409.902C553.032 410.764 549.424 411.486 547.11 410.361L545.956 409.661Z"/>
	<path fill="#B2B1B1" transform="scale(0.574533 0.574533)" d="M659.196 336.124C660.316 338.783 660.205 342.436 659.112 345.07C658.189 347.295 656.279 348.916 654.349 350.255C648.435 354.355 641.941 357.741 635.778 361.458L599.394 383.534L571.17 400.842C566.122 403.93 560.88 407.84 555.347 409.902C553.032 410.764 549.424 411.486 547.11 410.361L545.956 409.661L546.733 408.982C546.275 406.288 544.912 403.589 543.893 401.057C552.142 395.074 561.077 390.438 569.872 385.333L610.685 361.615L635.17 347.422C640.074 344.445 644.79 340.869 649.944 338.362C653.002 336.874 655.835 336.496 659.196 336.124Z"/>
	<path fill="#C91917" transform="scale(0.574533 0.574533)" d="M850.301 111.618C857.833 120.242 862.014 131.607 865.414 142.399C870.808 159.52 874.255 177.092 877.516 194.723L888.228 267.279L891.68 308.266L891.739 321.824C891.917 329.561 892.424 337.319 892.118 345.06C890.31 390.871 883.056 437.693 869.939 481.608C862.441 506.712 853.475 532.372 835.469 552.014C825.72 562.65 813.303 568.329 798.903 568.918C784.996 569.487 770.819 567.26 756.955 566.239L721.143 563.59L660.009 555.658L613.016 549.682C621.235 543.234 628.513 534.643 635.987 527.254C670.261 493.372 700.836 456.014 728.462 416.54C760.543 370.699 788.513 321.743 811.124 270.534L822.724 243.294C826.02 235.393 829.332 227.632 831.473 219.322C828.223 221.564 824.964 224.193 821.444 225.957C812.5 230.439 803.325 230.303 794.003 227.149C785.057 224.122 778.787 217.203 774.717 208.927C769.542 198.404 768.57 190.154 772.348 179.031C776.379 167.887 780.953 157.863 792.401 152.577C799.754 149.182 808.776 148.904 816.356 151.738C825.24 155.061 833.381 161.754 837.307 170.532C838.917 174.13 839.644 178.183 840.61 181.994C843.67 177.996 844.052 170.47 844.943 165.53C846.707 155.745 848.666 146.338 849.296 136.369C849.825 127.996 849.1 119.999 850.301 111.618Z"/>
	<path fill="#931A18" transform="scale(0.574533 0.574533)" d="M843.234 411.267C844.678 415.447 844.338 419.05 842.429 423.051C840.271 427.575 837.532 430.006 832.818 431.669C828.789 433.091 823.738 432.866 819.917 430.96C817.387 429.698 813.901 427.012 813.019 424.208L812.649 422.668C814.908 424.16 817.813 426.192 820.385 427.024C824.398 428.321 829.115 427.532 832.846 425.665C838.722 422.723 841.269 417.195 843.234 411.267Z"/>
	<path fill="#931A18" transform="scale(0.574533 0.574533)" d="M807.743 486.115C807.906 487.831 807.955 489.634 808.558 491.257C810.013 495.169 808.501 501.607 806.804 505.211C804.9 509.256 801.546 512.76 797.27 514.2C792.785 515.711 787.253 515.505 783.001 513.361C779.976 511.836 775.683 508.519 774.579 505.179L774.22 503.812C777.886 506.017 781.471 508.272 785.808 508.78C790.142 509.288 795.628 508.113 799.055 505.289C804.782 500.571 807.157 493.276 807.743 486.115Z"/>
	<path transform="scale(0.574533 0.574533)" d="M812.649 422.668C809.128 418.037 806.916 412.744 807.241 406.892C807.506 402.118 809.823 397.786 813.443 394.685C817.029 391.612 821.899 389.864 826.636 390.343C830.99 390.783 835.651 393.504 838.389 396.89C841.167 400.325 843.758 406.779 843.234 411.267C841.269 417.195 838.722 422.723 832.846 425.665C829.115 427.532 824.398 428.321 820.385 427.024C817.813 426.192 814.908 424.16 812.649 422.668Z"/>
	<path fill="#FEFEFE" transform="scale(0.574533 0.574533)" d="M812.87 415.141C811.476 411.611 810.829 407.815 811.955 404.099C813.109 400.291 816.735 396.926 820.222 395.197C822.774 393.932 826.201 394.138 828.868 395.036L828.883 395.575L828.478 395.749C822.362 398.325 817.7 398.399 814.825 405.309C814.119 407.007 813.599 410.338 814.223 412.06L812.87 415.141Z"/>
	<path fill="#504F50" transform="scale(0.574533 0.574533)" d="M828.868 395.036C832.573 396.725 836.629 400.525 838.033 404.436C839.245 407.813 838.296 411.922 836.722 415.023C835.019 418.38 832.316 420.787 828.721 421.936C825.886 422.842 822.216 422.864 819.569 421.448C816.776 419.954 814.231 418.099 812.87 415.141L814.223 412.06L814.56 412.066C818.192 411.906 821.459 415.004 825.343 415.137C827.722 415.218 829.426 414.896 831.159 413.156C831.986 412.325 834.244 408.886 834.201 407.837C834.115 405.747 832.023 402.201 830.911 400.47C829.969 399.002 828.829 397.714 828.861 395.889L828.883 395.575L828.868 395.036Z"/>
	<defs>
		<linearGradient id="gradient_0" gradientUnits="userSpaceOnUse" x1="817.50531" y1="401.85126" x2="831.62421" y2="410.31415">
			<stop offset="0" stop-color="#716C6D"/>
			<stop offset="1" stop-color="#8E8989"/>
		</linearGradient>
	</defs>
	<path fill="url(#gradient_0)" transform="scale(0.574533 0.574533)" d="M814.223 412.06C813.599 410.338 814.119 407.007 814.825 405.309C817.7 398.399 822.362 398.325 828.478 395.749L828.883 395.575L828.861 395.889C828.829 397.714 829.969 399.002 830.911 400.47C832.023 402.201 834.115 405.747 834.201 407.837C834.244 408.886 831.986 412.325 831.159 413.156C829.426 414.896 827.722 415.218 825.343 415.137C821.459 415.004 818.192 411.906 814.56 412.066L814.223 412.06Z"/>
	<path transform="scale(0.574533 0.574533)" d="M774.22 503.812C772.423 501.439 770.932 498.828 769.794 496.077C767.879 491.45 767.902 486.008 769.807 481.398C771.899 476.335 775.782 472.385 780.853 470.294C785.722 468.286 790.771 468.278 795.6 470.393C802.38 473.361 805.285 479.619 807.743 486.115C807.157 493.276 804.782 500.571 799.055 505.289C795.628 508.113 790.142 509.288 785.808 508.78C781.471 508.272 777.886 506.017 774.22 503.812Z"/>
	<path fill="#504F50" transform="scale(0.574533 0.574533)" d="M789.116 473.836C793.616 474.82 797.127 476.6 799.713 480.548C801.99 484.027 802.639 488.929 801.776 492.956C800.957 496.777 798.65 499.495 795.375 501.506C792.336 503.371 788.11 504.223 784.628 503.289C779.799 501.994 776.094 498.649 773.705 494.315L773.178 493.3L774.823 490.542C777.905 492.225 780.758 494.847 784.188 495.761C786.634 496.413 790.54 495.93 792.646 494.485C794.426 493.264 795.793 491.198 796.137 489.065C796.923 484.187 791.869 477.58 789.116 473.836Z"/>
	<defs>
		<linearGradient id="gradient_1" gradientUnits="userSpaceOnUse" x1="778.76447" y1="481.72092" x2="795.10876" y2="489.0625">
			<stop offset="0" stop-color="#756A6B"/>
			<stop offset="1" stop-color="#A19392"/>
		</linearGradient>
	</defs>
	<path fill="url(#gradient_1)" transform="scale(0.574533 0.574533)" d="M784.801 474.439L784.84 474.356L789.116 473.836C791.869 477.58 796.923 484.187 796.137 489.065C795.793 491.198 794.426 493.264 792.646 494.485C790.54 495.93 786.634 496.413 784.188 495.761C780.758 494.847 777.905 492.225 774.823 490.542L773.178 493.3C772.267 489.07 772.467 485.241 774.699 481.443C777.081 477.388 780.381 475.607 784.801 474.439Z"/>
	<path fill="#FEFEFE" transform="scale(0.574533 0.574533)" d="M784.801 474.439C785.939 474.538 786.977 474.602 788.115 474.475L787.947 475.259C782.063 478.698 776.63 482.064 774.931 489.234C774.82 489.705 774.818 490.061 774.823 490.542L773.178 493.3C772.267 489.07 772.467 485.241 774.699 481.443C777.081 477.388 780.381 475.607 784.801 474.439Z"/>
	<path transform="scale(0.574533 0.574533)" d="M772.348 179.031C776.379 167.887 780.953 157.863 792.401 152.577C799.754 149.182 808.776 148.904 816.356 151.738C825.24 155.061 833.381 161.754 837.307 170.532C838.917 174.13 839.644 178.183 840.61 181.994L840.677 182.51C841.704 190.848 838.571 200.34 833.324 206.82C827.902 213.517 819.86 217.69 811.288 218.457C800.496 219.423 792.383 216.482 784.092 209.411C775.176 201.807 773.237 190.068 772.348 179.031Z"/>
	<path fill="#FEFEFE" transform="scale(0.574533 0.574533)" d="M782.351 199.995C778.518 192.985 776.482 185.066 778.036 177.11C779.46 169.825 783.224 163.437 789.443 159.294C796.564 154.55 804.432 153.452 812.738 155.101C801.125 157.678 792.327 159.132 785.41 169.953C783.13 173.519 781.718 177.098 781.046 181.275C781.003 184.519 780.843 187.871 781.1 191.104C781.327 193.974 782.817 197.162 782.351 199.995Z"/>
	<path fill="#504F50" transform="scale(0.574533 0.574533)" d="M820.278 158.283C827.545 163.376 833.703 170.067 835.322 179.164C836.759 187.242 835.062 195.78 830.284 202.491C826.362 207.999 819.26 212.462 812.523 213.434C803.679 214.71 794.774 212.003 787.742 206.582C785.384 204.764 783.735 202.642 782.331 200.04L782.351 199.995C782.817 197.162 781.327 193.974 781.1 191.104C780.843 187.871 781.003 184.519 781.046 181.275L781.183 181.334L781.804 180.682C783.401 181.062 784.723 182.826 785.899 183.936C788.499 186.387 791.183 188.942 794.34 190.656C800.551 194.027 808.773 195.091 815.537 192.99C819.176 191.86 822.729 189.008 824.415 185.575C827.357 179.588 825.785 171.516 822.246 166.122C820.843 163.984 818.605 161.687 817.822 159.276C818.616 158.818 819.412 158.56 820.278 158.283Z"/>
	<path fill="#8E8484" transform="scale(0.574533 0.574533)" d="M812.738 155.101L820.278 158.283C819.412 158.56 818.616 158.818 817.822 159.276C818.605 161.687 820.843 163.984 822.246 166.122C825.785 171.516 827.357 179.588 824.415 185.575C822.729 189.008 819.176 191.86 815.537 192.99C808.773 195.091 800.551 194.027 794.34 190.656C791.183 188.942 788.499 186.387 785.899 183.936C784.723 182.826 783.401 181.062 781.804 180.682L781.183 181.334L781.046 181.275C781.718 177.098 783.13 173.519 785.41 169.953C792.327 159.132 801.125 157.678 812.738 155.101Z"/>
	<path fill="#F02727" transform="scale(0.574533 0.574533)" d="M329.793 481.402C326.174 478.872 321.29 477.485 317.246 475.654C306.942 470.989 296.914 464.68 288.781 456.789C258.737 427.641 251.592 380.72 251.057 340.62C250.628 308.48 253.183 275.823 276.884 251.586C292.83 235.279 315.746 225.976 336.114 216.48C380.071 195.989 426.033 179.057 472.405 164.892L539.464 146.174L606.131 128.019L650.427 118.982L726.278 103.725L761.221 98.6467C776.136 96.5489 790.714 93.3592 805.863 93.273C823.917 93.1702 837.554 98.9753 850.301 111.618C849.1 119.999 849.825 127.996 849.296 136.369C848.666 146.338 846.707 155.745 844.943 165.53C844.052 170.47 843.67 177.996 840.61 181.994C839.644 178.183 838.917 174.13 837.307 170.532C833.381 161.754 825.24 155.061 816.356 151.738C808.776 148.904 799.754 149.182 792.401 152.577C780.953 157.863 776.379 167.887 772.348 179.031C768.57 190.154 769.542 198.404 774.717 208.927C778.787 217.203 785.057 224.122 794.003 227.149C803.325 230.303 812.5 230.439 821.444 225.957C824.964 224.193 828.223 221.564 831.473 219.322C829.332 227.632 826.02 235.393 822.724 243.294L811.124 270.534C788.513 321.743 760.543 370.699 728.462 416.54C700.836 456.014 670.261 493.372 635.987 527.254C628.513 534.643 621.235 543.234 613.016 549.682L491.813 526.171C495.694 511.481 497.931 497.524 497.508 482.256L530.06 474.83C532.386 474.276 535.624 474.265 537.732 473.348C540.453 472.165 543.18 472.393 546.064 471.985C551.706 471.187 559.118 467.895 562.884 463.622C564.34 461.97 565.469 460.175 565.324 457.901C565.218 456.244 564.29 454.825 563.04 453.748C556.922 448.484 548.838 448.762 541.312 449.5C540.44 449.585 538.133 450.111 537.4 449.924C535.975 449.56 534.311 447.356 532.917 447.106C531.992 446.94 528.897 448.348 527.545 448.403C524.213 448.537 520.825 447.636 517.451 447.625C508.786 447.599 500.117 448.384 491.475 448.96C496.162 445.533 500.107 441.89 503.494 437.147C504.422 435.847 507.416 430.272 508.482 429.706C510.738 428.509 514.553 428.971 517.21 427.822C520.978 426.192 522.215 422.69 523.65 419.129C542.904 432.84 563.942 441.784 587.967 440.818C615.688 439.704 642.65 427.613 661.497 407.14C679.427 387.663 689.775 360.057 688.661 333.564C687.54 306.89 674.8 278.75 655.052 260.731C636.474 243.78 610.045 231.844 584.581 233.177C555.344 234.707 528.322 246.282 508.583 268.153C489.783 288.982 481.543 316.881 482.928 344.61L469.566 339.578C447.934 333.757 421.481 341.677 406.586 358.603C404.46 361.02 402.276 363.643 400.541 366.349C399.31 368.27 397.833 372.55 396.332 373.933C395.681 374.533 389.67 373.735 387.812 374.983C385.886 376.278 384.448 378.749 383.915 380.966C383.159 384.112 382.824 387.516 382.357 390.724C381.554 396.237 379.723 403.995 382.793 409.001C384.636 412.006 387.295 412.718 390.529 413.49C392.658 421.719 395.223 428.06 399.441 435.51C393.521 437.432 387.056 439.393 381.665 442.547C377.487 444.991 373.774 448.393 369.812 451.193C362.378 456.448 354.895 461.144 347.934 467.065C343.269 471.034 339.041 475.743 334.23 479.484C332.961 480.47 331.818 481.011 330.239 481.325L329.793 481.402Z"/>
	<path fill="#C91917" transform="scale(0.574533 0.574533)" d="M379.693 276.708C381.36 280.264 380.497 285.427 379.16 289.041C377.402 293.793 373.948 298.043 369.287 300.165C364.255 302.456 359.379 302.936 354.152 300.847C349.375 298.939 345.427 294.999 343.515 290.224C342.881 288.64 342.509 286.992 342.167 285.325L342.052 284.786C341.786 283.505 341.749 282.34 341.791 281.036L342.336 282.146C345.587 288.026 349.891 292.739 356.596 294.549C360.738 295.668 366.287 294.236 369.921 292.141C376.141 288.557 377.992 283.273 379.693 276.708Z"/>
	<path fill="#C91917" transform="scale(0.574533 0.574533)" d="M282.683 396.575C286.178 409.094 291.493 419.662 303.223 426.251C311.669 430.995 322.775 433.377 332.313 430.645C342.834 427.631 352.789 421.541 358.121 411.72C360.464 407.404 361.923 402.813 363.35 398.138L363.541 398.405C365.492 401.449 364.162 408.331 363.389 411.72C360.808 423.046 354.016 430.9 344.314 436.968C335.033 442.773 323.85 443.777 313.33 441.277C303.129 438.854 293.529 431.143 288.109 422.305C283.589 414.936 280.591 405.218 282.683 396.575Z"/>
	<path transform="scale(0.574533 0.574533)" d="M341.791 281.036C341.451 279.445 341.269 277.72 341.274 276.095C341.291 270.727 343.764 265.071 347.631 261.358C351.02 258.104 355.734 256.158 360.439 256.324C365.688 256.51 371.397 258.522 374.915 262.507C378.301 266.343 380.005 271.676 379.693 276.708C377.992 283.273 376.141 288.557 369.921 292.141C366.287 294.236 360.738 295.668 356.596 294.549C349.891 292.739 345.587 288.026 342.336 282.146L341.791 281.036Z"/>
	<path fill="#FEFEFE" transform="scale(0.574533 0.574533)" d="M349.486 285.342L349.013 284.72C346.511 281.273 344.939 277.546 345.655 273.228C346.372 268.901 349.162 265.068 352.681 262.553C355.504 260.536 360.248 260.514 363.548 261.061L363.111 261.333C361.186 262.51 359.422 262.751 357.357 263.484C353.286 264.928 350.566 268.498 348.421 272.064C347.897 275.897 347.734 278.863 349.334 282.457L349.472 282.479L349.486 285.342Z"/>
	<path fill="#373737" transform="scale(0.574533 0.574533)" d="M349.472 282.479L349.663 281.23C353.246 280.854 356.485 284.639 360.439 284.759C367.887 284.985 370.888 279.616 375.662 275.145C375.15 280.378 373.719 284.339 369.551 287.766C366.706 290.105 362.463 291.06 358.857 290.579C355.452 290.124 352.012 287.563 349.491 285.377L349.486 285.342L349.472 282.479Z"/>
	<path fill="#504F50" transform="scale(0.574533 0.574533)" d="M370.478 264.283C373.582 267.717 375.435 270.391 375.662 275.145C370.888 279.616 367.887 284.985 360.439 284.759C356.485 284.639 353.246 280.854 349.663 281.23L349.472 282.479L349.334 282.457C347.734 278.863 347.897 275.897 348.421 272.064C351.005 274.568 353.276 276.632 356.535 278.267C358.825 277.643 361.313 277.086 363.352 275.835C368.099 272.923 369.191 269.475 370.478 264.283Z"/>
	<path fill="#8E8484" transform="scale(0.574533 0.574533)" d="M363.548 261.061C366.139 261.809 368.184 262.877 370.478 264.283C369.191 269.475 368.099 272.923 363.352 275.835C361.313 277.086 358.825 277.643 356.535 278.267C353.276 276.632 351.005 274.568 348.421 272.064C350.566 268.498 353.286 264.928 357.357 263.484C359.422 262.751 361.186 262.51 363.111 261.333L363.548 261.061Z"/>
	<defs>
		<linearGradient id="gradient_2" gradientUnits="userSpaceOnUse" x1="286.50076" y1="376.43048" x2="359.26126" y2="406.04172">
			<stop offset="0" stop-color="black"/>
			<stop offset="1" stop-color="#290D0A"/>
		</linearGradient>
	</defs>
	<path fill="url(#gradient_2)" transform="scale(0.574533 0.574533)" d="M282.683 396.575C282.568 383.476 285.635 371.648 295.137 362.151C302.371 354.921 313.125 351.203 323.237 351.276C334.281 351.356 345.046 356.174 352.722 364.106C360.602 372.249 363.926 383.393 363.588 394.537L363.35 398.138C361.923 402.813 360.464 407.404 358.121 411.72C352.789 421.541 342.834 427.631 332.313 430.645C322.775 433.377 311.669 430.995 303.223 426.251C291.493 419.662 286.178 409.094 282.683 396.575Z"/>
	<path fill="#FEFEFE" transform="scale(0.574533 0.574533)" d="M288.827 394.9C288.039 391.422 288.027 388.097 288.593 384.575C289.851 376.757 294.642 368.285 301.144 363.642C311.179 356.478 321.247 356.84 332.775 358.67L332.478 358.877C329.615 360.765 325.445 360.406 322.17 361.07C308.093 363.924 297.02 373.187 293.699 387.463C293.068 390.173 292.863 394.104 293.689 396.767C293.69 400.735 295.139 404.672 296.312 408.415C292.947 404.438 290.981 399.59 288.827 394.9Z"/>
	<path fill="#504F50" transform="scale(0.574533 0.574533)" d="M332.775 358.67C336.313 358.427 341.161 361.068 343.853 363.286C350.774 370.239 356.561 377.416 357.87 387.516C358.304 398.61 356.817 408.071 348.885 416.505C342.701 423.08 332.452 426.996 323.525 427.049C319.777 427.071 314.122 426.615 311.119 424.081L311.035 423.945C306.173 421.109 301.473 419.404 297.432 415.206C292.155 409.725 288.666 402.599 288.827 394.9C290.981 399.59 292.947 404.438 296.312 408.415C295.139 404.672 293.69 400.735 293.689 396.767C292.863 394.104 293.068 390.173 293.699 387.463C297.02 373.187 308.093 363.924 322.17 361.07C325.445 360.406 329.615 360.765 332.478 358.877L332.775 358.67Z"/>
	<path fill="#373737" transform="scale(0.574533 0.574533)" d="M357.87 387.516C358.304 398.61 356.817 408.071 348.885 416.505C342.701 423.08 332.452 426.996 323.525 427.049C319.777 427.071 314.122 426.615 311.119 424.081L311.035 423.945L312.096 422.45C308.184 417.607 299.587 415.191 297.158 409.006C297.51 408.77 297.812 408.434 298.213 408.296C299.896 407.716 304.885 410.967 306.57 411.707C308.319 412.475 310.246 413.049 312.124 413.392C315.838 414.07 320.578 413.709 324.316 413.197C335.172 411.711 346.057 407.236 352.158 397.587C354.146 394.442 355.352 390.73 357.643 387.797L357.87 387.516Z"/>
	<path fill="#8E8484" transform="scale(0.574533 0.574533)" d="M332.775 358.67C336.313 358.427 341.161 361.068 343.853 363.286C343.314 373.85 342.573 383.657 334.107 391.172C329.116 395.603 321.925 397.908 315.264 397.433C306.98 396.842 300.63 393.34 293.796 389.032L293.689 396.767C292.863 394.104 293.068 390.173 293.699 387.463C297.02 373.187 308.093 363.924 322.17 361.07C325.445 360.406 329.615 360.765 332.478 358.877L332.775 358.67Z"/>
</svg>
