<?xml version="1.0" encoding="utf-8" ?>
<svg xmlns="http://www.w3.org/2000/svg" xmlns:xlink="http://www.w3.org/1999/xlink" width="466" height="306">
	<path fill="#FFD252" fill-opacity="0.79215688" transform="scale(0.431725 0.431725)" d="M59.0832 36.7263L61.4355 36.4219L62.7471 38.1331C61.0191 40.1373 61.7635 43.7471 61.4355 46.4002C60.8776 46.0707 60.3755 45.8036 59.8931 45.3718C60.1449 42.4403 58.7545 40.4931 58.0344 37.7317L59.0832 36.7263Z"/>
	<path fill="#FFB923" fill-opacity="0.82352942" transform="scale(0.431725 0.431725)" d="M61.6834 33.158L70.383 35.5158L62.7471 38.1331L61.4355 36.4219L59.0832 36.7263L57.6642 35.4821C58.9613 34.4156 60.1228 33.773 61.6834 33.158Z"/>
	<path fill="#FFB923" fill-opacity="0.71764708" transform="scale(0.431725 0.431725)" d="M110.656 272.279L110.986 271.674C111.991 269.705 111.669 267.059 112.307 264.925L116.027 271.511C118.477 270.815 120.873 270.421 123.397 270.093L118.698 274.015L116.807 272.958C115.17 274.217 115.056 274.144 114.743 276.162L114.17 276.531C114.109 276.138 114.088 275.86 113.962 275.497C113.576 274.384 112.377 272.971 111.28 272.511L110.656 272.279Z"/>
	<path fill="#FFB923" fill-opacity="0.76078433" transform="scale(0.431725 0.431725)" d="M51.8424 35.2583L52.7344 36.3184C54.574 36.4192 55.9458 36.031 57.6642 35.4821L59.0832 36.7263L58.0344 37.7317C58.7545 40.4931 60.1449 42.4403 59.8931 45.3718C58.8822 44.2746 57.0984 41.7175 55.9027 41.0407C55.2524 40.6726 49.2952 43.4831 47.8179 43.4079C49.2489 40.9508 50.9795 38.4077 51.7431 35.6545L51.8424 35.2583Z"/>
	<path fill="#FFB923" transform="scale(0.431725 0.431725)" d="M152.738 665.762C153.292 663.188 152.914 660.079 152.868 657.438C153.544 658.238 158.047 664.006 158.472 664.079C158.695 664.117 159.852 663.582 160.189 663.466C161.951 662.859 165.519 661.182 167.285 661.786L166.214 663.644L164.79 663.144C162.971 664.188 158.037 669.055 156.502 668.579C155.205 668.177 153.756 666.679 152.738 665.762Z"/>
	<path fill="#FFD252" fill-opacity="0.75294119" transform="scale(0.431725 0.431725)" d="M51.8424 35.2583L46.824 28.8949C49.6692 30.1228 52.5517 30.8292 55.5503 31.5548L60.18 25.5303C61.264 28.202 59.6449 30.7206 61.6834 33.158C60.1228 33.773 58.9613 34.4156 57.6642 35.4821C55.9458 36.031 54.574 36.4192 52.7344 36.3184L51.8424 35.2583Z"/>
	<path fill="#FFD252" fill-opacity="0.70588237" transform="scale(0.431725 0.431725)" d="M118.698 274.015L118.109 275.119C118.791 277.374 120.092 279.522 121.181 281.611L114.522 278.315L110.396 283.301L110.735 276.717L104.811 273.448L110.656 272.279L111.28 272.511C112.377 272.971 113.576 274.384 113.962 275.497C114.088 275.86 114.109 276.138 114.17 276.531L114.743 276.162C115.056 274.144 115.17 274.217 116.807 272.958L118.698 274.015Z"/>
	<path fill="#FFB923" transform="scale(0.431725 0.431725)" d="M884.925 606.642C887.35 604.535 885.787 599.289 887.783 596.642L888.894 598.06C888.663 598.727 887.944 600.247 888.078 600.877C888.789 604.225 888.785 607.65 890.034 610.879C889.625 611.499 889.305 611.716 888.654 612.005C886.99 612.744 885.495 613.244 884.654 614.997C882.473 613.442 876.52 611.426 875.496 609.415L878.569 608.325L884.925 606.642Z"/>
	<path fill="#FFD252" transform="scale(0.431725 0.431725)" d="M878.569 608.325L884.925 606.642L887.955 609.824L887.52 610.74C883.699 611.022 881.701 610.526 878.569 608.325Z"/>
	<path fill="#FFD252" transform="scale(0.431725 0.431725)" d="M152.738 665.762C153.756 666.679 155.205 668.177 156.502 668.579C158.037 669.055 162.971 664.188 164.79 663.144L166.214 663.644L162.706 668.666L168.024 676.448L159.447 674.257L154.134 681.723L153.343 672.379L144.862 670.434C147.052 669.222 151.187 667.608 152.738 665.762Z"/>
	<path fill="#FFD252" transform="scale(0.431725 0.431725)" d="M888.894 598.06C890.126 600.077 891.868 604.473 893.825 605.577L904.883 604.206C904.23 604.836 902.14 607.258 901.414 607.363C899.925 608.895 898.135 610.449 897.093 612.315L900.643 619.733L901.781 621.958L901.494 622.583L892.352 618.656L891.175 618.538L883.801 626.436L884.654 614.997C885.495 613.244 886.99 612.744 888.654 612.005C889.305 611.716 889.625 611.499 890.034 610.879C888.785 607.65 888.789 604.225 888.078 600.877C887.944 600.247 888.663 598.727 888.894 598.06Z"/>
	<path fill="#FFB923" transform="scale(0.431725 0.431725)" d="M892.352 618.656C891.018 616.608 890.857 614.577 890.567 612.207C893.676 615.354 896.141 619.084 900.643 619.733L901.781 621.958L901.494 622.583L892.352 618.656Z"/>
	<path fill="#FFB923" transform="scale(0.431725 0.431725)" d="M893.825 605.577L904.883 604.206C904.23 604.836 902.14 607.258 901.414 607.363L900.785 607.321C896.771 606.941 893.168 609.921 889.806 611.918C890.983 609.595 892.162 607.584 893.825 605.577Z"/>
	<path transform="scale(0.431725 0.431725)" d="M528.299 380.839C530.735 381.088 533.405 381.142 535.789 381.636L549.687 384.056C562.692 388.676 572.633 394.703 582.022 404.925L589.733 416.077L596.529 435.169C600.06 436.463 604.215 437.666 605.933 441.377C607.573 444.922 606.583 449.434 606.068 453.148C605.316 458.576 604.818 464.722 602.642 469.765C601.363 472.732 599.113 475.077 596.089 476.246C594.443 476.883 589.008 476.919 588.184 477.562C587.609 478.011 586.752 479.785 586.314 480.455C584.614 483.06 582.88 485.631 580.953 488.075C577.742 492.15 574.035 495.273 570.023 498.518C578.189 497.606 586.746 496.784 594.959 496.891C599.298 496.948 603.612 497.691 607.938 497.639C609.34 497.622 613.227 496.611 614.205 496.897C615.627 497.314 617.269 499.496 618.663 499.783C619.746 500.007 622.391 499.315 623.592 499.184C630.774 498.395 639.188 498.709 645.157 503.372C646.364 504.315 647.243 505.696 648.086 506.958C647.719 511.045 645.735 513.53 642.691 516.108C639.238 519.032 632.858 521.577 628.33 522.093C626.26 522.328 623.922 522.08 621.908 522.518C620.267 522.875 619.14 524.701 617.219 524.614C612.15 524.384 607.732 526.331 602.855 527.432L576.289 533.042L576.195 548.062C575.8 551.815 574.862 555.978 574.868 559.695C569.967 592.821 552.944 622.29 529.264 645.499C524.982 649.696 520.671 653.95 516.064 657.79C515.024 658.656 511.557 660.521 511.024 661.34C509.949 662.991 509.702 666.727 509.329 668.73C508.752 671.841 507.918 674.797 506.688 677.722C504.686 682.48 501.652 688.317 496.494 690.209C494.158 691.066 491.384 690.678 489.188 689.579C485.306 687.636 482.639 682.285 481.347 678.379C478.184 668.814 475.814 653.432 483.033 645.226C485.653 642.248 488.929 639.828 491.514 636.824C493.107 634.973 494.229 632.491 495.325 630.326C494.174 630 491.923 630.787 490.706 631.041C486.465 631.927 482.051 632.946 477.743 633.361C471.568 633.955 465.048 633.767 458.993 632.401C457.467 635.065 455.997 637.861 454.232 640.373C453.318 641.674 450.294 644.52 449.968 645.766C449.41 647.907 449.968 651.185 449.699 653.515C448.74 661.844 444.84 672.662 438.049 677.987C435.831 679.726 432.914 681.288 430.022 680.908C426.454 680.439 424.077 678.55 422.017 675.661C416.649 668.134 414.353 653.34 416.127 644.437C416.878 640.668 418.937 638.176 422.063 636.117L422.604 635.765L424.023 621.611C381.86 611.665 344.242 591.036 313.323 560.559L268.154 513.39C258.452 503.826 219.109 467.713 206.346 468.489C204.036 468.63 201.156 470.543 200.654 472.913C200.408 474.074 200.621 475.461 199.863 476.371C197.868 475.187 196.053 475.716 194.408 474.43C192.347 472.821 191.843 470.216 189.316 469.265L187.471 470.14C187.214 470.543 186.531 470.902 186.701 471.348C186.952 472.009 189.12 473.809 189.68 474.415C194.572 479.714 203.479 489.109 203.352 496.669C203.334 497.741 203.026 498.075 202.246 498.765C198.169 502.369 193.731 499.805 189.053 499.486C188.641 500.084 188.287 500.685 187.998 501.355C186.954 503.777 187.031 506.005 188.185 508.39C191.195 514.617 198.655 517.375 204.725 519.574C197.148 519.198 190.588 518.684 183.439 515.916C175.211 512.729 168.3 507.111 164.67 498.998L164.142 495.056L163.776 494.814C162.356 493.904 159.333 492.292 157.647 492.527C155.395 492.842 152.694 494.122 150.489 494.814C145.204 496.472 138.718 497.864 133.154 497.413C130.428 495.685 128.857 492.546 127.213 489.859C123.536 483.846 120.044 476.463 115.576 471.12C111.222 465.913 104.401 462.151 99.243 457.66C86.1422 446.254 74.3162 432.62 65.9181 417.369C64.7264 415.205 62.9268 412.597 62.4027 410.178L62.2622 409.363C63.2256 408.265 64.1934 407.921 65.6543 407.819C71.1575 407.436 77.1144 408.526 82.4977 409.606C95.6475 412.243 108.539 416.519 120.782 421.981L130.63 426.922C131.681 427.435 133.222 428.4 134.324 428.614C135.158 428.777 137.34 428.209 138.282 428.085C142.76 427.495 154.299 424.751 157.578 427.767C159.618 429.643 161.073 432.531 162.504 434.891C166.835 442.034 171.31 452.208 178.64 456.523C187.408 454.054 196.1 453.783 204.334 458.355C225.158 469.916 245.03 483.023 262.734 498.999C276.232 511.179 288.145 525.251 300.703 538.38C325.803 564.621 354.107 588.193 387.861 602.404C399.819 607.438 412.668 611.105 425.16 614.543L439.947 557.672L413.412 557.045C409.472 556.43 406.415 558.102 402.777 559.319C397.631 561.04 389.394 562.771 384.109 560.86C381.461 559.902 380.756 558.323 379.638 555.939C380.264 549.001 383.385 544.986 388.117 540.188C390.607 538.11 394.145 535.017 397.155 533.81C399.178 532.999 401.319 533.203 403.236 531.974C405.469 530.541 407.437 528.132 409.455 526.343L425.338 512.242L441.693 500.937C445.866 497.944 449.894 494.462 454.405 492.009C460.559 488.663 466.93 486.446 473.559 484.243C470.041 477.949 467.149 472.14 465.092 465.176C464.784 464.131 464.402 461.663 463.833 460.837C463.388 460.189 458.649 458.996 457.303 457.778C455.108 455.791 454.07 452.871 453.989 449.958C453.893 446.526 454.479 442.973 454.876 439.567C455.478 434.407 455.654 425.593 459.58 421.861C462.293 419.282 466.093 419.732 469.557 419.678C472.927 413.297 476.924 407.696 481.502 402.129C485.1 399.23 488.563 396.074 492.422 393.523C500.047 388.483 509.598 384.121 518.575 382.195C521.734 381.518 525.091 381.29 528.299 380.839ZM197.287 470.46L196.461 469.926C194.961 468.766 193.903 467.188 193.687 465.281C193.307 461.923 196.198 459.212 198.197 456.872C192.829 455.27 185.04 455.001 179.74 457.069C183.565 459.949 186.902 462.487 187.998 467.341L190.635 466.843C191.986 468.151 194.298 472.83 195.585 472.93L197.287 470.46Z"/>
	<path fill="#174E6F" transform="scale(0.431725 0.431725)" d="M458.125 454.174C460.364 454.145 462.941 454.659 464.595 453.114C464.402 454.598 464.505 456.147 463.535 457.306C461.424 457.225 459.829 455.981 458.422 454.496L458.125 454.174Z"/>
	<path fill="#B7E2E6" transform="scale(0.431725 0.431725)" d="M456.445 494.456C457.907 493.79 459.001 492.926 460.635 493.597C462.813 494.49 464.956 496.259 466.738 497.781L465.717 497.913C463.831 497.847 457.854 495.721 456.445 494.456Z"/>
	<path fill="#811A18" transform="scale(0.431725 0.431725)" d="M436.498 542.663C439.734 540.03 443.273 538.067 447.077 536.38C446.231 538.529 445.477 541.099 444.123 542.966L436.498 542.663Z"/>
	<path fill="#508FB8" transform="scale(0.431725 0.431725)" d="M414.111 543.756C414.97 545.98 416.109 548.376 416.416 550.741C415.511 551.731 415.004 552.112 413.701 552.461C412.087 551.159 411.263 548.138 410.582 546.205L414.111 543.756Z"/>
	<path fill="#5B848A" transform="scale(0.431725 0.431725)" d="M620.587 510.048C620.737 513.457 620.902 517.27 619.893 520.568C618.821 521.291 618.393 521.446 617.101 521.463C615.855 519.651 616.574 514.338 616.609 512.036L619.893 512.074L620.587 510.048Z"/>
	<path fill="#5B848A" transform="scale(0.431725 0.431725)" d="M592.887 463.017C595.601 463.963 598.11 463.897 600.957 463.847L599.763 468.145C596.872 468.358 593.763 468.361 590.936 468.987L592.887 463.017Z"/>
	<path fill="#FE9392" transform="scale(0.431725 0.431725)" d="M620.663 504.244L620.347 502.909C620.729 502.607 620.831 502.498 621.225 502.276C625.898 499.647 633.697 501.657 638.521 503.096C636.83 504.153 634.759 503.887 632.821 503.923C628.845 503.997 624.605 503.756 620.663 504.244Z"/>
	<path fill="#174E6F" transform="scale(0.431725 0.431725)" d="M590.936 468.987C593.763 468.361 596.872 468.358 599.763 468.145C599.124 469.977 598.44 471.461 596.648 472.402C594.495 473.532 591.541 474.062 589.18 474.684L590.936 468.987Z"/>
	<path fill="#B7E2E6" transform="scale(0.431725 0.431725)" d="M459.379 427.95C460.599 425.811 461.913 423.204 464.479 422.483C465.821 422.106 467.401 422.532 468.734 422.815L469.233 423.606C468.867 425.069 468.565 426.591 467.982 427.984L459.379 427.95Z"/>
	<path fill="#B7E2E6" transform="scale(0.431725 0.431725)" d="M463.542 493.262L462.259 492.185C463.532 490.546 467.027 489.989 469.025 489.731C470.161 489.585 471.305 490.021 472.236 490.704C473.462 491.602 474.709 493.008 475.653 494.202C475.414 494.987 475.241 495.747 474.687 496.378C474.244 496.883 474.108 496.525 473.58 496.25C470.258 494.518 467.356 493.09 463.542 493.262Z"/>
	<path fill="#74A4AB" transform="scale(0.431725 0.431725)" d="M616.609 512.036C616.02 507.787 614.856 504.056 613.066 500.17L613.564 499.353L615.674 499.64C618.849 502.227 619.659 506.268 620.587 510.048L619.893 512.074L616.609 512.036Z"/>
	<path fill="#508FB8" transform="scale(0.431725 0.431725)" d="M594.093 456.598L601.923 458.243L600.957 463.847C598.11 463.897 595.601 463.963 592.887 463.017L594.093 456.598Z"/>
	<path fill="#FE9392" transform="scale(0.431725 0.431725)" d="M383.802 553.388C384.097 552.1 384.575 550.729 385.19 549.557C387.964 544.272 394.462 537.867 400.254 536.169L401.817 537.097C399.961 540.57 394.159 542.539 391.108 545.397C388.346 547.984 386.527 551.055 384.405 554.143L383.802 553.388Z"/>
	<path fill="#74A4AB" transform="scale(0.431725 0.431725)" d="M595.446 448.305C598.138 448.939 600.829 450.587 603.002 452.278L601.923 458.243L594.093 456.598L595.446 448.305Z"/>
	<path fill="#5B848A" transform="scale(0.431725 0.431725)" d="M465.569 510.186C466.498 512.845 466.899 515.962 466.782 518.777L461.16 521.943L458.707 512.436C460.784 512.058 464.198 511.879 465.569 510.186Z"/>
	<path fill="#74A4AB" transform="scale(0.431725 0.431725)" d="M410.582 546.205C408.309 541.932 405.426 538.605 402.044 535.209L406.673 532.828C409.935 536.207 411.984 539.617 414.111 543.756L410.582 546.205Z"/>
	<path fill="#508FB8" transform="scale(0.431725 0.431725)" d="M466.283 507.497C468.413 506.938 470.249 505.666 472.126 504.548C472.915 506.75 474.889 510.581 474.779 512.828C473.093 514.26 470.687 516.934 468.669 517.664L466.283 507.497Z"/>
	<path fill="#174E6F" transform="scale(0.431725 0.431725)" d="M496.487 624.331L497.521 624.22L497.394 624.859C487.281 631.311 473.701 630.519 462.217 630.336C461.548 629.72 461.56 629.718 461.431 628.815C463.395 626.771 467.294 628.396 470.001 628.615C479.244 629.36 487.726 626.885 496.487 624.331Z"/>
	<path fill="#5B848A" transform="scale(0.431725 0.431725)" d="M522.566 501.167L530.705 501.77L529.22 510.708L521.648 509.281C521.029 507.52 522.263 503.151 522.566 501.167Z"/>
	<path fill="#74A4AB" transform="scale(0.431725 0.431725)" d="M425.944 634.882C427.608 634.732 430.071 637.555 431.425 638.584C437.049 642.859 442.278 641.874 448.77 641.049L449.297 641.74L448.254 642.795C444.642 644.992 440.712 644.989 436.615 644.659C433.213 644.385 429.467 641.816 427.358 639.159C426.1 637.576 425.724 636.89 425.944 634.882Z"/>
	<path fill="#5B848A" transform="scale(0.431725 0.431725)" d="M595.851 440.033L596.919 439.169C598.86 439.614 600.956 440.183 602.169 441.912C602.976 443.063 603.324 444.525 603.65 445.871L603.002 452.278C600.829 450.587 598.138 448.939 595.446 448.305C595.373 445.678 594.954 442.519 595.851 440.033Z"/>
	<path fill="#B7E2E6" transform="scale(0.431725 0.431725)" d="M595.851 440.033L596.919 439.169C598.86 439.614 600.956 440.183 602.169 441.912C602.976 443.063 603.324 444.525 603.65 445.871C603.125 446.505 603.007 446.56 602.227 446.835C600.007 445.927 597.919 445.132 596.047 443.594L595.851 440.033Z"/>
	<path fill="#74A4AB" transform="scale(0.431725 0.431725)" d="M491.98 641.212L493.271 641.11C493.433 641.945 493.639 642.682 493.996 643.455C497.505 651.067 503.528 654.103 510.983 656.9L511.087 657.566L509.678 658.188C505.476 658.687 500.549 655.812 497.247 653.495C493.576 650.918 491.206 647.208 490.425 642.795L491.98 641.212Z"/>
	<path fill="#508FB8" transform="scale(0.431725 0.431725)" d="M458.125 454.174C456.381 450.113 456.845 446.401 457.443 442.179C459.794 443.363 462.442 443.1 465.003 443.064L464.595 453.114C462.941 454.659 460.364 454.145 458.125 454.174Z"/>
	<path fill="#74A4AB" transform="scale(0.431725 0.431725)" d="M466.283 507.497C463.567 503.189 460.36 499.959 456.073 497.2C455.458 496.804 455.12 496.53 454.735 495.878L456.445 494.456C457.854 495.721 463.831 497.847 465.717 497.913L466.738 497.781C469.028 499.807 470.514 501.963 472.126 504.548C470.249 505.666 468.413 506.938 466.283 507.497Z"/>
	<path fill="#FEFEFE" transform="scale(0.431725 0.431725)" d="M186.592 514.838C183.503 510.027 180.052 506.26 177.981 500.777C180.581 499.627 182.592 498.907 185.346 499.617L186.231 500.648C185.565 503.977 184.974 507.067 186.932 510.071C188.948 513.165 191.805 515.077 194.659 517.315C195.191 517.732 195.013 517.544 195.329 518.144C192.355 517.178 189.377 516.283 186.592 514.838Z"/>
	<path fill="#74A4AB" transform="scale(0.431725 0.431725)" d="M463.542 493.262C467.356 493.09 470.258 494.518 473.58 496.25C474.108 496.525 474.244 496.883 474.687 496.378C475.241 495.747 475.414 494.987 475.653 494.202C476.53 495.579 477.445 497.073 478.037 498.595C479.687 502.834 477.904 506.941 476.29 510.855C473.292 503.006 469.319 498.942 463.542 493.262Z"/>
	<path fill="#EA5C01" transform="scale(0.431725 0.431725)" d="M201.131 494.303C201.436 494.646 201.35 496.147 201.377 496.669C200.871 497.608 200.768 498.276 199.63 498.566C192.623 500.349 180.845 494.09 174.714 490.583L177.231 486.833C180.27 488.976 197.105 496.216 200.292 495.848C200.519 495.822 200.846 495.681 201.04 495.609L201.131 494.303Z"/>
	<path fill="#74A4AB" transform="scale(0.431725 0.431725)" d="M459.379 427.95L467.982 427.984L465.003 443.064C462.442 443.1 459.794 443.363 457.443 442.179L459.379 427.95Z"/>
	<path fill="#811A18" transform="scale(0.431725 0.431725)" d="M383.486 554.889C392.161 555.702 401.658 550.951 409.364 547.518L411.473 552.78C404.159 555.525 397.491 558.096 389.535 558.182C388.157 558.197 386.087 558.382 384.841 557.849C384.196 557.573 383.831 557.275 383.64 556.612C383.452 555.963 383.442 555.549 383.486 554.889Z"/>
	<path fill="#74A4AB" transform="scale(0.431725 0.431725)" d="M458.707 512.436C455.39 507.503 451.774 504.464 446.899 501.247L452.735 496.764C459.122 499.729 462.472 503.897 465.569 510.186C464.198 511.879 460.784 512.058 458.707 512.436Z"/>
	<path fill="#811A18" transform="scale(0.431725 0.431725)" d="M643.985 506.362C644.778 507.928 645.057 508.589 644.437 510.385C643.243 513.843 637.208 516.59 634.084 517.791C630.176 519.293 625.803 519.89 621.66 520.309L621.991 512.782C624.247 513.852 629.884 512.469 632.321 511.897C635.813 511.077 642.041 509.478 643.985 506.362Z"/>
	<path fill="#5B848A" transform="scale(0.431725 0.431725)" d="M548.227 590.442L560.549 596.5C559.193 600.152 557.444 603.385 555.516 606.755L543.12 599.388L548.227 590.442Z"/>
	<path fill="#D83231" transform="scale(0.431725 0.431725)" d="M638.521 503.096C640.782 503.811 642.543 504.333 643.985 506.362C642.041 509.478 635.813 511.077 632.321 511.897C629.884 512.469 624.247 513.852 621.991 512.782L620.663 504.244C624.605 503.756 628.845 503.997 632.821 503.923C634.759 503.887 636.83 504.153 638.521 503.096Z"/>
	<path fill="#FEFEFE" transform="scale(0.431725 0.431725)" d="M198.197 456.872C206.463 460.042 212.121 464.16 218.145 470.547C214.023 468.69 208.489 465.979 203.89 467.581C201.814 468.304 200.585 470.659 199.6 472.482L198.828 472.403L197.287 470.46L196.461 469.926C194.961 468.766 193.903 467.188 193.687 465.281C193.307 461.923 196.198 459.212 198.197 456.872Z"/>
	<path fill="#74A4AB" transform="scale(0.431725 0.431725)" d="M164.142 495.056C166.7 496.036 169.636 497.533 172.351 497.831C172.597 496.265 172.385 494.473 173.496 493.333C176.606 493.783 184.232 496.343 186.16 498.759L186.563 499.315L186.231 500.648L185.346 499.617C182.592 498.907 180.581 499.627 177.981 500.777C180.052 506.26 183.503 510.027 186.592 514.838C177.25 512.944 171.393 504.853 164.67 498.998L164.142 495.056Z"/>
	<path fill="#5B848A" transform="scale(0.431725 0.431725)" d="M481.796 490.96C485.955 492.52 489.941 494.356 494.192 495.693C502.864 498.42 511.434 499.874 520.44 500.881C521.005 502.499 520.155 505.962 519.936 507.747L519.119 508.73C516.008 508.599 512.805 507.501 509.829 506.601C499.071 503.347 490.373 498.087 481.796 490.96Z"/>
	<path fill="#B7E2E6" transform="scale(0.431725 0.431725)" d="M148.718 428.579L156.094 428.274L169.052 449.275L161.648 444.561L137.503 429.525L148.718 428.579Z"/>
	<path fill="#D83231" transform="scale(0.431725 0.431725)" d="M401.817 537.097C404.961 539.948 407.261 543.863 409.364 547.518C401.658 550.951 392.161 555.702 383.486 554.889L383.802 553.388L384.405 554.143C386.527 551.055 388.346 547.984 391.108 545.397C394.159 542.539 399.961 540.57 401.817 537.097Z"/>
	<path fill="#811A18" transform="scale(0.431725 0.431725)" d="M490.096 651.439C492.352 653.271 494.488 655.465 496.926 657.029C500.43 659.279 504.174 660.318 508.171 661.27C506.076 669.269 503.642 682.433 495.967 686.831C494.86 687.465 493.668 687.57 492.428 687.251C490.704 686.807 489.091 685.303 487.934 684.027C492.373 682.286 495.599 679.916 497.691 675.502C498.663 673.449 500.43 668.494 500.282 666.158C500.251 665.678 499.476 664.473 499.235 664.033C496.745 659.494 492.111 657.071 490.279 651.962L490.096 651.439Z"/>
	<path fill="#B7E2E6" transform="scale(0.431725 0.431725)" d="M447.823 544.147C448.947 539.692 450.831 533.682 453.727 530.05C457.744 525.013 464.431 522.428 469.616 518.787C472.41 516.825 474.99 514.391 477.551 512.131C475.003 523.885 462.243 534.952 452.512 541.197L447.823 544.147Z"/>
	<path fill="#FE9392" transform="scale(0.431725 0.431725)" d="M70.2452 409.709C84.6685 411.19 100.105 416.271 113.656 421.393C116.583 422.5 121.255 423.754 123.321 426.102C124.904 427.899 125.317 431.466 125.639 433.778C115.091 427.678 102.776 422.11 91.3606 417.813L70.1367 410.336L70.2452 409.709Z"/>
	<path fill="#811A18" transform="scale(0.431725 0.431725)" d="M426.579 643.261C432.829 646.094 437.468 648.62 444.622 646.944L447.275 646.402C445.915 656.752 444.33 670.151 435.073 676.743C433.58 677.806 431.306 678.008 429.551 677.679C428.447 677.473 427.445 676.831 426.524 676.215L428.127 675.415C434.048 671.702 437.793 664.987 439.365 658.343C441.686 648.53 430.634 649.984 426.816 643.671L426.579 643.261Z"/>
	<path fill="#74A4AB" transform="scale(0.431725 0.431725)" d="M118.166 473.33L152.666 491.22L152.666 491.832L150.728 492.563L134.04 495.794C130.917 492.874 128.873 489.282 126.551 485.739L118.166 473.33Z"/>
	<path fill="#FFB923" transform="scale(0.431725 0.431725)" d="M177.231 486.833C178.891 483.572 182.618 475.053 185.889 473.465L188.202 475.397C193.091 480.46 198.554 485.812 200.873 492.656L201.131 494.303L201.04 495.609C200.846 495.681 200.519 495.822 200.292 495.848C197.105 496.216 180.27 488.976 177.231 486.833Z"/>
	<path fill="#FFD252" transform="scale(0.431725 0.431725)" d="M188.202 475.397C193.091 480.46 198.554 485.812 200.873 492.656L199.601 492.73C194.598 492.658 189.194 486.642 185.971 483.307C186.442 480.46 186.995 478.025 188.202 475.397Z"/>
	<path fill="#010163" transform="scale(0.431725 0.431725)" d="M413.412 557.045C416.278 555.449 417.935 552.934 420.516 551.066C425.145 547.717 431.362 545.16 436.498 542.663L444.123 542.966C442.792 547.751 440.654 552.796 439.947 557.672L413.412 557.045Z"/>
	<path fill="#5B848A" transform="scale(0.431725 0.431725)" d="M563.529 499.302C565.015 499.411 565.163 499.292 566.295 500.362L565.841 502.208C564.252 504.157 562.878 505.002 560.624 506.067C557.839 507.383 554.801 508.144 551.803 508.778C546.281 509.944 540.56 510.253 534.937 510.576C533.661 510.638 532.816 510.685 531.653 510.119C531.305 507.399 531.883 504.438 532.19 501.718L563.529 499.302Z"/>
	<path fill="#FEFEFE" transform="scale(0.431725 0.431725)" d="M473.34 609.223C481.366 614.129 491.441 616.555 500.499 618.675L489.297 623.208C480.9 625.755 472.141 626.036 463.481 625.011L473.34 609.223Z"/>
	<path fill="#B7E2E6" transform="scale(0.431725 0.431725)" d="M614.058 512.946L613.903 521.256L576.333 529.789L574.555 517.971C582.747 518.052 591.167 516.177 599.307 515.164C603.924 514.589 609.801 514.795 614.058 512.946Z"/>
	<path fill="#D83231" transform="scale(0.431725 0.431725)" d="M487.934 684.027C486.271 681.595 485.019 678.886 484.033 676.113C482.034 670.497 479.597 658.319 482.34 652.627C483.798 649.603 485.652 647.538 487.952 645.145L490.096 651.439L490.279 651.962C492.111 657.071 496.745 659.494 499.235 664.033C499.476 664.473 500.251 665.678 500.282 666.158C500.43 668.494 498.663 673.449 497.691 675.502C495.599 679.916 492.373 682.286 487.934 684.027Z"/>
	<path fill="#B7E2E6" transform="scale(0.431725 0.431725)" d="M456.075 511.046C458.178 514.187 458.874 517.783 459.634 521.432C446.292 531.7 433.056 540.141 418.122 547.958L414.513 540.141C429.732 532.098 443.079 522.29 456.075 511.046Z"/>
	<path fill="#B7E2E6" transform="scale(0.431725 0.431725)" d="M459.665 597.492C463.022 600.852 466.585 604.362 470.571 606.972L451.058 639.271C442.82 640.491 436.537 640.836 429.501 635.5C428.075 634.418 427.097 633.263 426.203 631.717L426.262 630.094C428.282 631.47 429.951 632.468 432.295 633.209C432.977 633.424 433.609 633.716 434.325 633.826C437.127 634.259 440.467 634.341 442.8 632.695C453.172 625.379 457.682 609.466 459.665 597.492Z"/>
	<path fill="#D83231" transform="scale(0.431725 0.431725)" d="M426.524 676.215C421.933 671.431 420.829 665.132 419.877 658.795C419.116 653.727 417.355 645.188 420.753 640.888C421.663 639.737 421.744 639.649 423.193 639.436L426.579 643.261L426.816 643.671C430.634 649.984 441.686 648.53 439.365 658.343C437.793 664.987 434.048 671.702 428.127 675.415L426.524 676.215Z"/>
	<path fill="#B7E2E6" transform="scale(0.431725 0.431725)" d="M520.965 510.723L529.14 511.929L512.121 575.867L504.582 573.538L520.965 510.723Z"/>
	<path fill="#FEFEFE" transform="scale(0.431725 0.431725)" d="M574.555 517.971L569.742 502.303C579.176 500.629 588.832 500.075 598.404 500.369C602.46 500.493 606.623 500.539 610.588 501.445C612.549 505.404 613.531 508.57 614.058 512.946C609.801 514.795 603.924 514.589 599.307 515.164C591.167 516.177 582.747 518.052 574.555 517.971Z"/>
	<path fill="#811A18" transform="scale(0.431725 0.431725)" d="M65.2356 411.862C69.9548 414.633 73.5802 418.317 77.8878 421.599L98.8983 437.275C105.639 442.351 112.432 447.73 119.83 451.808C115.524 456.265 111.224 458.417 105.518 460.67C100.388 456.794 95.8558 452.018 91.3795 447.419C81.5584 437.329 70.6119 425.073 65.2356 411.862Z"/>
	<path fill="#FEFEFE" transform="scale(0.431725 0.431725)" d="M414.513 540.141L408.105 531.757C420.28 521.253 432.083 509.5 446.701 502.47C450.603 505.069 453.22 507.289 456.075 511.046C443.079 522.29 429.732 532.098 414.513 540.141Z"/>
	<path fill="#174E6F" transform="scale(0.431725 0.431725)" d="M219.375 469.765C221.729 469.641 227.389 474.083 229.38 475.454C242.675 484.613 255.555 494.421 267.194 505.631C292.836 530.329 314.584 558.409 343.717 579.408C359.536 590.81 377.602 600.839 395.852 607.724L410.671 612.598C414.164 613.585 420.897 614.232 423.611 616.571L423.721 618.161C423.01 618.607 422.451 618.796 421.611 618.753C419.091 618.624 415.908 617.331 413.456 616.622C406.109 614.495 399.089 612.273 392.02 609.333C363.681 597.548 338.566 581.402 316.156 560.334C308.562 553.194 301.68 545.209 294.503 537.649L256.037 499.026C248.922 492.316 240.949 486.279 233.099 480.463C228.577 477.113 223.186 473.905 219.375 469.765Z"/>
	<path fill="#D83231" transform="scale(0.431725 0.431725)" d="M65.2356 411.862C64.8267 411.295 64.827 411.064 64.7385 410.389C66.3892 409.356 68.3786 409.448 70.2452 409.709L70.1367 410.336L91.3606 417.813C102.776 422.11 115.091 427.678 125.639 433.778C124.868 440.344 123.543 446.19 119.83 451.808C112.432 447.73 105.639 442.351 98.8983 437.275L77.8878 421.599C73.5802 418.317 69.9548 414.633 65.2356 411.862Z"/>
	<path fill="#B7E2E6" transform="scale(0.431725 0.431725)" d="M563.792 505.481L567.78 503.039C569.821 508.515 570.68 514.009 571.522 519.77C574.473 539.96 572.026 560.09 566.392 579.597C565.02 584.347 563.787 589.361 561.714 593.85L561.206 594.916L548.902 588.825C550.923 585.802 552.225 582.155 553.578 578.79C561.568 558.921 564.934 539.719 564.882 518.406C564.873 514.409 565.382 509.21 563.792 505.481Z"/>
	<path fill="#74A4AB" transform="scale(0.431725 0.431725)" d="M122.489 453.725C123.562 455.683 126.279 456.73 128.197 457.784L140.537 464.939C141.148 464.601 141.32 464.405 141.62 463.775C141.994 468.228 142.426 471.89 146.087 474.898C148.959 477.259 153.147 478.708 156.883 478.349C158.419 478.201 160.138 477.382 161.567 476.807C166.455 480.013 171.389 482.19 176.738 484.441C174.097 487.843 172.185 491.415 170.222 495.232C159.662 491.169 148.829 487.175 138.691 482.136C127.519 476.582 117.589 470.036 107.574 462.651C113.812 460.828 117.98 458.347 122.489 453.725Z"/>
	<path fill="#B7E2E6" transform="scale(0.431725 0.431725)" d="M543.12 599.388C532.451 595.059 521.792 590.633 510.789 587.213C487.737 580.048 462.895 575.921 438.873 573.822L441.169 564.985L467.774 567.773C495.526 571.764 522.345 579.773 548.227 590.442L543.12 599.388Z"/>
	<path fill="#B7E2E6" transform="scale(0.431725 0.431725)" d="M565.713 395.413C577.374 401.43 586.882 415.172 590.81 427.517C595.506 442.275 593.539 460.687 586.369 474.376C582.913 480.974 574.901 493.243 567.68 495.403C561.426 497.274 554.989 497.658 548.52 498.058C531.692 499.099 515.35 497.99 499.131 493.252L499.485 493.13C502.265 492.062 504.91 491.933 507.818 491.438C515.333 490.16 521.245 488.086 527.405 483.411C542.458 484.173 557.849 483.912 571.122 475.572C580.296 469.808 583.042 459.361 585.502 449.455C585.748 448.468 585.908 447.665 585.943 446.637C586.132 441.02 585.572 435.308 581.518 430.947L581.609 430.663C582.075 428.607 581.383 425.959 580.988 423.925C579.522 416.352 576.552 409.611 571.736 403.532C569.749 401.023 567.452 398.593 565.907 395.781L565.713 395.413Z"/>
	<path fill="#FEFEFE" transform="scale(0.431725 0.431725)" d="M122.489 453.725C126.412 447.217 129.516 440.304 128.362 432.511C128.175 431.252 127.323 428.961 127.638 427.797C139.719 433.436 150.967 440.492 162.239 447.569C170.147 452.534 178.516 457.172 185.03 463.962C185.263 465.625 184.953 466.93 184.566 468.527C182.635 474.188 179.899 479.38 176.738 484.441C171.389 482.19 166.455 480.013 161.567 476.807C160.138 477.382 158.419 478.201 156.883 478.349C153.147 478.708 148.959 477.259 146.087 474.898C142.426 471.89 141.994 468.228 141.62 463.775C141.32 464.405 141.148 464.601 140.537 464.939L128.197 457.784C126.279 456.73 123.562 455.683 122.489 453.725Z"/>
	<path fill="#B7E2E6" transform="scale(0.431725 0.431725)" d="M167.357 459.775C173.375 462.049 178.55 466.624 184.566 468.527C182.635 474.188 179.899 479.38 176.738 484.441C171.389 482.19 166.455 480.013 161.567 476.807C163.254 475.3 165.17 473.754 166.434 471.86C168.928 468.124 168.109 463.878 167.357 459.775Z"/>
	<path transform="scale(0.431725 0.431725)" d="M141.62 463.775C142.459 460.623 143.229 457.678 145.706 455.368C148.342 452.911 152.699 451.939 156.198 452.123C161.191 452.386 164.275 456.334 167.357 459.775C168.109 463.878 168.928 468.124 166.434 471.86C165.17 473.754 163.254 475.3 161.567 476.807C160.138 477.382 158.419 478.201 156.883 478.349C153.147 478.708 148.959 477.259 146.087 474.898C142.426 471.89 141.994 468.228 141.62 463.775Z"/>
	<path fill="#508FB8" transform="scale(0.431725 0.431725)" d="M144.343 460.674L145.03 459.399C147.371 455.302 151.337 454.331 155.634 453.153C158.319 454.351 160.629 455.499 162.91 457.369C164.091 458.937 165.202 460.384 165.954 462.213C164.629 463.643 162.392 463.767 160.549 464.143L160.138 464.211C157.11 464.049 153.388 464.222 150.48 463.423C148.445 462.864 146.253 461.594 144.343 460.674Z"/>
	<path fill="#0477C5" transform="scale(0.431725 0.431725)" d="M162.91 457.369C164.091 458.937 165.202 460.384 165.954 462.213C164.629 463.643 162.392 463.767 160.549 464.143L162.91 457.369Z"/>
	<path fill="#174E6F" transform="scale(0.431725 0.431725)" d="M144.343 460.674C146.253 461.594 148.445 462.864 150.48 463.423C153.388 464.222 157.11 464.049 160.138 464.211L160.549 464.143C162.392 463.767 164.629 463.643 165.954 462.213C166.39 466.031 166.245 469.431 163.701 472.543C162.01 474.612 159.232 476.105 156.583 476.33C153.45 476.596 150.141 475.587 147.745 473.509C146.623 472.536 145.45 471.402 144.67 470.13C143.374 466.483 143.457 464.428 144.343 460.674Z"/>
	<path fill="#0477C5" transform="scale(0.431725 0.431725)" d="M144.343 460.674C146.253 461.594 148.445 462.864 150.48 463.423C153.388 464.222 157.11 464.049 160.138 464.211C157.997 467.219 156.525 468.863 153.146 470.47L147.163 469.682C146.091 469.522 145.622 469.698 144.67 470.13C143.374 466.483 143.457 464.428 144.343 460.674Z"/>
	<path fill="#B7E2E6" transform="scale(0.431725 0.431725)" d="M456.796 593.151C454.116 591.285 452.537 587.895 451.116 585.06C456.456 588.417 461.606 592.461 467.243 595.275C473.604 598.452 479.885 600.157 486.738 601.919C501.916 605.82 517.148 607.78 532.659 604.335C536.133 603.563 539.072 602.517 542.252 600.908C546.779 602.896 550.814 605.364 554.806 608.274C543.855 625.473 530.315 642.97 513.66 654.971L504.551 652.457L501.504 650.377C498.283 648.001 494.893 644.158 494.361 640.035C493.942 636.793 496.257 633.636 497.706 630.91C499.642 627.266 501.514 623.128 504.121 619.922C505.396 618.354 505.635 618.454 507.607 618.24C517.005 619.638 529.344 618.004 537.531 613.026C531.644 614.294 525.525 615.895 519.519 616.409C503.265 617.798 484.234 613.24 470.506 604.4C468.157 602.887 465.83 601.319 463.799 599.391C461.677 597.377 459.705 594.728 457.124 593.318L456.796 593.151Z"/>
	<path fill="#FEFEFE" transform="scale(0.431725 0.431725)" d="M507.607 618.24C508.547 619.718 508.974 621.165 510.759 621.628C512.112 621.979 514.133 621.626 515.535 621.498C521.875 620.919 528.745 618.777 534.538 616.156L517.765 636.662C513.516 641.958 509.492 647.786 504.551 652.457L501.504 650.377C498.283 648.001 494.893 644.158 494.361 640.035C493.942 636.793 496.257 633.636 497.706 630.91C499.642 627.266 501.514 623.128 504.121 619.922C505.396 618.354 505.635 618.454 507.607 618.24Z"/>
	<path fill="#FEFEFE" transform="scale(0.431725 0.431725)" d="M426.262 630.094L438.476 575.469C447.777 575.934 457.414 577.717 466.603 579.292C492.68 583.761 518.15 589.599 542.252 600.908C539.072 602.517 536.133 603.563 532.659 604.335C517.148 607.78 501.916 605.82 486.738 601.919C479.885 600.157 473.604 598.452 467.243 595.275C461.606 592.461 456.456 588.417 451.116 585.06C452.537 587.895 454.116 591.285 456.796 593.151L459.665 597.492C457.682 609.466 453.172 625.379 442.8 632.695C440.467 634.341 437.127 634.259 434.325 633.826C433.609 633.716 432.977 633.424 432.295 633.209C429.951 632.468 428.282 631.47 426.262 630.094Z"/>
	<path fill="#FEFEFE" transform="scale(0.431725 0.431725)" d="M548.902 588.825L513.914 576.236C517.345 566.177 520.883 556.12 523.589 545.834L530.737 512.281C542.696 512.451 552.828 510.022 563.792 505.481C565.382 509.21 564.873 514.409 564.882 518.406C564.934 539.719 561.568 558.921 553.578 578.79C552.225 582.155 550.923 585.802 548.902 588.825Z"/>
	<path fill="#FEFEFE" transform="scale(0.431725 0.431725)" d="M477.551 512.131C479.185 507.549 481.303 502.065 479.05 497.302C477.456 493.931 474.923 491.623 472.658 488.756C473.49 487.839 474.216 487.714 475.4 487.449C479.318 489.998 482.58 493.49 486.211 496.429C489.97 499.472 494.634 501.817 499.012 503.856C503.199 505.806 507.627 507.241 512.051 508.554C514.384 509.247 517.28 509.705 519.395 510.883L502.656 573.814C482.648 567.95 462.38 565.089 441.663 563.258L447.823 544.147L452.512 541.197C462.243 534.952 475.003 523.885 477.551 512.131Z"/>
	<path fill="#FEFEFE" transform="scale(0.431725 0.431725)" d="M499.131 493.252C492.802 491.693 486.576 489.919 481.069 486.28C472.961 480.922 469.118 469.422 467.365 460.237C464.368 444.544 467.467 427.123 476.525 413.824C486.759 398.798 502.66 389.004 520.416 385.662C536.696 382.598 552.038 386.124 565.713 395.413L565.907 395.781C567.452 398.593 569.749 401.023 571.736 403.532C576.552 409.611 579.522 416.352 580.988 423.925C581.383 425.959 582.075 428.607 581.609 430.663L581.518 430.947C578.555 428.33 575.545 425.623 572.21 423.486C560.058 415.699 544.686 412.23 530.508 410.928C526.486 410.559 522.276 409.793 518.238 410.02C507.049 410.65 496.209 412.316 488.419 421.041C481.257 429.062 479.337 439.692 480.072 450.158C480.616 457.907 484.083 465.06 489.963 470.132C500.61 479.314 514.189 480.778 527.405 483.411C521.245 488.086 515.333 490.16 507.818 491.438C504.91 491.933 502.265 492.062 499.485 493.13L499.131 493.252Z"/>
	<path fill="#9D908F" transform="scale(0.431725 0.431725)" d="M527.405 483.411C514.189 480.778 500.61 479.314 489.963 470.132C484.083 465.06 480.616 457.907 480.072 450.158C479.337 439.692 481.257 429.062 488.419 421.041C496.209 412.316 507.049 410.65 518.238 410.02C522.276 409.793 526.486 410.559 530.508 410.928C544.686 412.23 560.058 415.699 572.21 423.486C575.545 425.623 578.555 428.33 581.518 430.947C585.572 435.308 586.132 441.02 585.943 446.637C585.908 447.665 585.748 448.468 585.502 449.455C583.042 459.361 580.296 469.808 571.122 475.572C557.849 483.912 542.458 484.173 527.405 483.411Z"/>
	<path fill="#02223B" transform="scale(0.431725 0.431725)" d="M513.907 417.472C516.213 416.868 519.93 417.251 522.323 417.325C537.475 417.792 552.693 420.65 566.353 427.547C571.065 429.926 577.771 434.343 579.341 439.749C581.37 446.739 578.555 456.386 575.101 462.531C570.567 470.601 560.98 474.39 552.486 476.748L549.699 477.313C536.833 479.357 523.142 477.272 510.846 473.38C505.058 471.547 499.707 469.604 494.774 465.912C490.004 462.342 487.471 457.459 486.652 451.623C485.405 442.736 487.314 432.544 492.893 425.355C497.626 419.257 506.786 418.309 513.907 417.472Z"/>
	<path fill="#174E6F" transform="scale(0.431725 0.431725)" d="M516.222 418.545C527.615 417.893 539.832 420.222 550.421 424.229C557.616 426.952 568.22 431.322 571.436 438.858C572.984 442.487 572.134 446.731 570.684 450.247C565.363 463.144 554.801 469.422 542.631 474.693L536.899 475.758C526.302 477.032 514.923 474.195 505.195 470.079C501.632 468.572 498.04 467.061 494.998 464.611C489.894 460.501 488.504 454.322 487.884 448.066C487.225 441.419 489.932 431.62 494.217 426.535C499.805 419.903 508.189 419.274 516.222 418.545Z"/>
	<path fill="#FEFEFE" transform="scale(0.431725 0.431725)" d="M493.7 441.279C494.746 441.288 494.876 441.647 495.629 442.334C495.685 444.339 495.574 445.279 494.385 446.986C492.866 446.329 492.889 446.207 492.144 444.708C492.309 443.153 492.668 442.446 493.7 441.279Z"/>
	<path fill="#FEFEFE" transform="scale(0.431725 0.431725)" d="M509.058 422.288L509.672 422.265C511.218 422.354 512.334 423.313 513.369 424.347C513.732 425.635 513.499 426.518 512.986 427.746C511.038 432.408 505.818 436.513 501.24 438.43L499.509 438.133C497.634 437.717 497.12 436.993 496.165 435.476C495.943 433.209 496.426 431.466 497.626 429.539C500.192 425.419 504.518 423.352 509.058 422.288Z"/>
	<path fill="#010163" transform="scale(0.431725 0.431725)" d="M379.638 555.939C376.178 555.562 372.855 554.342 369.503 553.451L349.926 547.619C340.955 544.537 331.605 541.904 322.949 538.016C306.611 530.677 291.553 516.261 280.453 502.454C269.164 488.411 262.533 470.85 258.823 453.362C252.454 423.344 253.337 392.11 252.284 361.592C250.041 296.571 247.211 230.831 254.338 165.998C256.927 142.446 261.12 116.85 272.572 95.8063C279.574 82.9397 289.685 71.5829 301.071 62.4449C320.501 46.8523 344.24 37.8421 368.501 33.1795C401.368 26.8628 434.266 26.2561 467.573 24.9506L532.798 22.4493L580.43 22.9779L671.309 24.0178L861.891 28.4511L922.815 32.2409C961.562 36.5718 999.648 49.8906 1024.67 81.3954C1038.02 98.1932 1047.11 117.575 1052.09 138.418C1057.68 161.817 1057.45 186.802 1058.74 210.748L1061.77 268.502L1063.17 293.307C1063.42 306.076 1061.87 318.793 1061.48 331.541C1060.53 362.48 1060.3 394.042 1056.71 424.789C1052.27 462.848 1040.51 499.879 1009.38 524.462C976.542 550.392 931.132 553.705 891.248 558.39C871.626 560.695 851.952 563.4 832.189 564.164C822.062 564.556 811.814 563.944 801.685 563.676L758.626 562.776L636.868 560.529L574.868 559.695C574.862 555.978 575.8 551.815 576.195 548.062L576.289 533.042L602.855 527.432C607.732 526.331 612.15 524.384 617.219 524.614C619.14 524.701 620.267 522.875 621.908 522.518C623.922 522.08 626.26 522.328 628.33 522.093C632.858 521.577 639.238 519.032 642.691 516.108C645.735 513.53 647.719 511.045 648.086 506.958C653.871 508.525 659.08 507.238 664.955 507.084L698.596 506.081L730.516 504.965L790.974 503.768C831.156 502.163 871.125 498.86 910.754 491.844C932.263 488.037 954.212 483.961 973.443 473.104C993.329 461.877 1004.12 442.673 1010.06 421.139C1013.21 409.765 1015.23 397.821 1017.2 386.185C1024.36 343.925 1025.54 301.457 1027.22 258.719C1028.08 236.721 1030.07 214.306 1028.68 192.305C1027.09 166.989 1023.09 141.646 1015.01 117.556C1011.14 106.006 1005.67 94.4227 998.397 84.599C994.972 79.9712 990.741 75.8897 987.933 70.8221L987.693 70.3846C984.123 67.4724 979.651 65.0554 975.682 62.6973C968.853 58.632 959.921 56.1788 952.276 54.2041C929.526 48.328 906.764 45.7842 883.295 45.9693L883.035 46.1469C878.628 48.8693 817.185 47.4716 808.537 47.4909L782.051 48.4569L707.266 48.5371L679.93 50.4475L627.539 51.5799L549.774 55.2879L529.032 55.5179L470.337 58.3985C443.516 59.859 417.213 61.6214 390.652 66.0273C372.572 69.0265 353.796 74.2132 337.437 82.6206C311.188 96.1111 295.906 120.037 288.405 148.025C285.448 159.06 283.674 170.177 282.088 181.47C280.953 189.551 279.847 197.808 279.532 205.966L279.427 237.709C279.358 241.931 278.615 246.096 278.494 250.313L278.424 286.09L277.44 303.433L277.387 384.132L276.953 417.317L277.545 445.222C277.788 450.48 278.507 455.489 278.469 460.814C278.453 463.172 278.652 463.222 276.979 464.909C278.893 473.532 282.86 481.56 288.754 488.135C304.852 513.233 331.723 528.859 360.561 535.045L378.557 538.126C381.711 538.649 385.167 538.916 388.117 540.188C383.385 544.986 380.264 549.001 379.638 555.939Z"/>
	<path fill="#FE9392" transform="scale(0.431725 0.431725)" d="M276.979 464.909C273.915 455.481 271.421 446.011 270.264 436.141C267.43 411.961 267.444 387.837 267.363 363.538L266.767 323.058C265.975 273.618 262.861 223.624 268.051 174.378C272.019 136.721 278.494 98.458 309.796 73.2834C326.546 59.8115 347.982 51.7418 368.86 47.4304C389.139 43.2424 409.676 42.2713 430.293 41.1533L484.344 38.3744L533.845 36.0058L643.334 35.8009L715.428 35.9007L758.39 36.0068C773.811 36.5062 789.319 38.9187 804.719 40.0878L883.295 45.9693L883.035 46.1469C878.628 48.8693 817.185 47.4716 808.537 47.4909L782.051 48.4569L707.266 48.5371L679.93 50.4475L627.539 51.5799L549.774 55.2879L529.032 55.5179L470.337 58.3985C443.516 59.859 417.213 61.6214 390.652 66.0273C372.572 69.0265 353.796 74.2132 337.437 82.6206C311.188 96.1111 295.906 120.037 288.405 148.025C285.448 159.06 283.674 170.177 282.088 181.47C280.953 189.551 279.847 197.808 279.532 205.966L279.427 237.709C279.358 241.931 278.615 246.096 278.494 250.313L278.424 286.09L277.44 303.433L277.387 384.132L276.953 417.317L277.545 445.222C277.788 450.48 278.507 455.489 278.469 460.814C278.453 463.172 278.652 463.222 276.979 464.909Z"/>
	<path fill="#811A18" transform="scale(0.431725 0.431725)" d="M987.693 70.3846C992.268 72.3275 996.043 75.1832 999.866 78.3035C1013.18 89.1704 1023.06 104.296 1029.47 120.128C1034.67 132.988 1038.19 146.693 1040.18 160.415C1046.36 202.836 1045.33 245.794 1045.46 288.532L1044.36 387.573C1042.83 416.71 1040.39 447.288 1028.87 474.432C1017.76 500.63 998.005 517.955 971.895 528.408C959.142 533.513 944.856 536.2 931.317 538.111C904.702 541.868 877.684 542.331 850.869 543.675L794.301 546.638L722.084 547.149L576.195 548.062L576.289 533.042L602.855 527.432C607.732 526.331 612.15 524.384 617.219 524.614C619.14 524.701 620.267 522.875 621.908 522.518C623.922 522.08 626.26 522.328 628.33 522.093C632.858 521.577 639.238 519.032 642.691 516.108C645.735 513.53 647.719 511.045 648.086 506.958C653.871 508.525 659.08 507.238 664.955 507.084L698.596 506.081L730.516 504.965L790.974 503.768C831.156 502.163 871.125 498.86 910.754 491.844C932.263 488.037 954.212 483.961 973.443 473.104C993.329 461.877 1004.12 442.673 1010.06 421.139C1013.21 409.765 1015.23 397.821 1017.2 386.185C1024.36 343.925 1025.54 301.457 1027.22 258.719C1028.08 236.721 1030.07 214.306 1028.68 192.305C1027.09 166.989 1023.09 141.646 1015.01 117.556C1011.14 106.006 1005.67 94.4227 998.397 84.599C994.972 79.9712 990.741 75.8897 987.933 70.8221L987.693 70.3846Z"/>
	<path fill="#D83231" transform="scale(0.431725 0.431725)" d="M975.682 62.6973C979.651 65.0554 984.123 67.4724 987.693 70.3846L987.933 70.8221C990.741 75.8897 994.972 79.9712 998.397 84.599C1005.67 94.4227 1011.14 106.006 1015.01 117.556C1023.09 141.646 1027.09 166.989 1028.68 192.305C1030.07 214.306 1028.08 236.721 1027.22 258.719C1025.54 301.457 1024.36 343.925 1017.2 386.185C1015.23 397.821 1013.21 409.765 1010.06 421.139C1004.12 442.673 993.329 461.877 973.443 473.104C954.212 483.961 932.263 488.037 910.754 491.844C871.125 498.86 831.156 502.163 790.974 503.768L730.516 504.965L698.596 506.081L664.955 507.084C659.08 507.238 653.871 508.525 648.086 506.958C647.243 505.696 646.364 504.315 645.157 503.372C639.188 498.709 630.774 498.395 623.592 499.184C622.391 499.315 619.746 500.007 618.663 499.783C617.269 499.496 615.627 497.314 614.205 496.897C613.227 496.611 609.34 497.622 607.938 497.639C603.612 497.691 599.298 496.948 594.959 496.891C586.746 496.784 578.189 497.606 570.023 498.518C574.035 495.273 577.742 492.15 580.953 488.075C582.88 485.631 584.614 483.06 586.314 480.455C586.752 479.785 587.609 478.011 588.184 477.562C589.008 476.919 594.443 476.883 596.089 476.246C599.113 475.077 601.363 472.732 602.642 469.765C604.818 464.722 605.316 458.576 606.068 453.148C606.583 449.434 607.573 444.922 605.933 441.377C604.215 437.666 600.06 436.463 596.529 435.169L589.733 416.077C596.464 413.83 603.14 410.695 609.292 407.169L641.039 387.538L697.186 352.775L725.833 335.192C735.028 329.643 744.331 324.315 752.522 317.308C761.318 309.783 769.862 300.748 772.875 289.239C775.58 278.905 773.207 269.555 767.899 260.496C771.381 258.617 774.628 255.859 777.877 253.566L793.125 243.274L815.58 228.298C823.756 223.043 832.147 217.968 839.664 211.775C842.902 209.107 845.765 205.805 848.778 202.871L871.877 180.053C899.415 153.494 928.326 128.006 952.264 98.0294C957.276 91.7527 962.227 85.2291 966.416 78.3786C969.48 73.3675 972.1 67.8713 975.43 63.0538L975.682 62.6973Z"/>
	<path fill="#FC5958" transform="scale(0.431725 0.431725)" d="M883.295 45.9693C906.764 45.7842 929.526 48.328 952.276 54.2041C959.921 56.1788 968.853 58.632 975.682 62.6973L975.43 63.0538C972.1 67.8713 969.48 73.3675 966.416 78.3786C962.227 85.2291 957.276 91.7527 952.264 98.0294C928.326 128.006 899.415 153.494 871.877 180.053L848.778 202.871C845.765 205.805 842.902 209.107 839.664 211.775C832.147 217.968 823.756 223.043 815.58 228.298L793.125 243.274L777.877 253.566C774.628 255.859 771.381 258.617 767.899 260.496C773.207 269.555 775.58 278.905 772.875 289.239C769.862 300.748 761.318 309.783 752.522 317.308C744.331 324.315 735.028 329.643 725.833 335.192L697.186 352.775L641.039 387.538L609.292 407.169C603.14 410.695 596.464 413.83 589.733 416.077L582.022 404.925C572.633 394.703 562.692 388.676 549.687 384.056L535.789 381.636C533.405 381.142 530.735 381.088 528.299 380.839C525.091 381.29 521.734 381.518 518.575 382.195C509.598 384.121 500.047 388.483 492.422 393.523C488.563 396.074 485.1 399.23 481.502 402.129C476.924 407.696 472.927 413.297 469.557 419.678C466.093 419.732 462.293 419.282 459.58 421.861C455.654 425.593 455.478 434.407 454.876 439.567C454.479 442.973 453.893 446.526 453.989 449.958C454.07 452.871 455.108 455.791 457.303 457.778C458.649 458.996 463.388 460.189 463.833 460.837C464.402 461.663 464.784 464.131 465.092 465.176C467.149 472.14 470.041 477.949 473.559 484.243C466.93 486.446 460.559 488.663 454.405 492.009C449.894 494.462 445.866 497.944 441.693 500.937L425.338 512.242L409.455 526.343C407.437 528.132 405.469 530.541 403.236 531.974C401.319 533.203 399.178 532.999 397.155 533.81C394.145 535.017 390.607 538.11 388.117 540.188C385.167 538.916 381.711 538.649 378.557 538.126L360.561 535.045C331.723 528.859 304.852 513.233 288.754 488.135C282.86 481.56 278.893 473.532 276.979 464.909C278.652 463.222 278.453 463.172 278.469 460.814C278.507 455.489 277.788 450.48 277.545 445.222L276.953 417.317L277.387 384.132L277.44 303.433L278.424 286.09L278.494 250.313C278.615 246.096 279.358 241.931 279.427 237.709L279.532 205.966C279.847 197.808 280.953 189.551 282.088 181.47C283.674 170.177 285.448 159.06 288.405 148.025C295.906 120.037 311.188 96.1111 337.437 82.6206C353.796 74.2132 372.572 69.0265 390.652 66.0273C417.213 61.6214 443.516 59.859 470.337 58.3985L529.032 55.5179L549.774 55.2879L627.539 51.5799L679.93 50.4475L707.266 48.5371L782.051 48.4569L808.537 47.4909C817.185 47.4716 878.628 48.8693 883.035 46.1469L883.295 45.9693Z"/>
	<path fill="#D83231" transform="scale(0.431725 0.431725)" d="M535.522 375.125L535.789 381.636C533.405 381.142 530.735 381.088 528.299 380.839L534.99 377.154L535.522 375.125Z"/>
	<path fill="#D83231" transform="scale(0.431725 0.431725)" d="M289.634 487.807C293.382 486.645 297.06 484.039 300.627 482.333L321.584 473.039L442.161 419.181L464.116 409.006C469.877 406.325 475.303 403.676 481.502 402.129C476.924 407.696 472.927 413.297 469.557 419.678C466.093 419.732 462.293 419.282 459.58 421.861C455.654 425.593 455.478 434.407 454.876 439.567C454.479 442.973 453.893 446.526 453.989 449.958C454.07 452.871 455.108 455.791 457.303 457.778C458.649 458.996 463.388 460.189 463.833 460.837C464.402 461.663 464.784 464.131 465.092 465.176C467.149 472.14 470.041 477.949 473.559 484.243C466.93 486.446 460.559 488.663 454.405 492.009C449.894 494.462 445.866 497.944 441.693 500.937L425.338 512.242L409.455 526.343C407.437 528.132 405.469 530.541 403.236 531.974C401.319 533.203 399.178 532.999 397.155 533.81C394.145 535.017 390.607 538.11 388.117 540.188C385.167 538.916 381.711 538.649 378.557 538.126L360.561 535.045C331.723 528.859 304.852 513.233 288.754 488.135L289.634 487.807Z"/>
	<path fill="#811A18" transform="scale(0.431725 0.431725)" d="M289.634 487.807C296.565 488.667 302.537 494.329 308.588 497.443C313.464 499.953 318.436 501.773 323.642 503.453C346.696 510.896 372.719 510.499 396.695 511.279L425.338 512.242L409.455 526.343C407.437 528.132 405.469 530.541 403.236 531.974C401.319 533.203 399.178 532.999 397.155 533.81C394.145 535.017 390.607 538.11 388.117 540.188C385.167 538.916 381.711 538.649 378.557 538.126L360.561 535.045C331.723 528.859 304.852 513.233 288.754 488.135L289.634 487.807Z"/>
	<path fill="#010163" transform="scale(0.431725 0.431725)" d="M535.522 375.125C534.818 365.868 535.183 356.261 535.04 346.964L534.3 288.021C533.972 257.888 530.561 227.129 535.29 197.21C536.575 189.075 539.353 180.9 544.455 174.349C551.061 165.864 562.056 159.42 572.832 158.285C580.055 157.524 587.12 158.905 593.904 161.3C622.283 171.319 647.344 188.125 673.41 202.787C705.244 220.693 739.554 237.236 767.899 260.496C773.207 269.555 775.58 278.905 772.875 289.239C769.862 300.748 761.318 309.783 752.522 317.308C744.331 324.315 735.028 329.643 725.833 335.192L697.186 352.775L641.039 387.538L609.292 407.169C603.14 410.695 596.464 413.83 589.733 416.077L582.022 404.925C572.633 394.703 562.692 388.676 549.687 384.056L535.789 381.636L535.522 375.125Z"/>
	<path fill="#FEFEFE" transform="scale(0.431725 0.431725)" d="M738.294 252.925C742.81 255.786 747.451 258.896 751.351 262.566L750.761 262.678C747.592 263.163 744.173 260.497 741.859 258.643C741.221 257.123 739.16 255.312 738.018 254.044L738.294 252.925Z"/>
	<path fill="#FEFEFE" transform="scale(0.431725 0.431725)" d="M546.467 338.261L544.62 243.522C544.649 230.207 543.811 216.789 545.52 203.54C546.448 196.341 548.118 188.908 552.206 182.789C557.013 175.594 564.732 170.359 573.261 168.792C578.591 167.813 584.048 169.369 588.994 171.314C602.058 176.453 614.027 183.786 626.313 190.477L665.06 211.526C668.281 213.396 671.04 215.988 674.287 217.796C676.839 219.217 679.684 220.166 682.291 221.533L710.859 237.274C718.573 241.491 726.74 245.451 734.033 250.364L733.756 250.443C730.245 251.259 673.6 228.056 668.618 224.678C665.344 222.457 662.353 219.907 658.81 218.111C649.359 213.319 639.086 210.478 629.142 206.925C615.381 202.008 598.453 192.261 583.338 195.393L582.188 195.689L581.532 195.863C573.157 198.167 566.676 203.869 562.483 211.387C557.084 221.069 557.618 234.448 556.618 245.294L553.315 282.3C552.607 291.359 551.119 333.463 547.646 338.724L547.052 338.477L546.467 338.261Z"/>
	<path fill="#508FB8" transform="scale(0.431725 0.431725)" d="M741.859 258.643C744.173 260.497 747.592 263.163 750.761 262.678L751.351 262.566C755.765 266.233 761.759 270.788 762.364 276.953C763.172 285.188 757.532 293.854 752.396 299.777C748.452 304.326 743.721 308.232 738.817 311.695C729.127 318.538 718.874 324.179 708.76 330.322L668.329 355.544C644.489 370.442 621.333 387.117 596.318 400.043C591.787 402.384 586.989 403.834 582.022 404.925C572.633 394.703 562.692 388.676 549.687 384.056C546.721 375.937 547.197 364.28 547.913 355.776C549.862 359.79 551.802 363.988 554.786 367.35C560.45 373.729 567.755 377.139 576.179 377.539C584.507 377.934 594.185 373.768 601.519 370.019C624.616 358.215 645.104 341.799 666.797 327.744L708.872 300.993C720.964 293.352 733.342 286.136 743.976 276.468C744.691 274.716 742.111 261.89 741.859 258.643Z"/>
	<path fill="#B7E2E6" transform="scale(0.431725 0.431725)" d="M546.467 338.261L547.052 338.477L547.646 338.724C551.119 333.463 552.607 291.359 553.315 282.3L556.618 245.294C557.618 234.448 557.084 221.069 562.483 211.387C566.676 203.869 573.157 198.167 581.532 195.863L582.188 195.689L583.338 195.393C598.453 192.261 615.381 202.008 629.142 206.925C639.086 210.478 649.359 213.319 658.81 218.111C662.353 219.907 665.344 222.457 668.618 224.678C673.6 228.056 730.245 251.259 733.756 250.443L734.033 250.364C735.585 251.118 736.915 251.869 738.294 252.925L738.018 254.044C739.16 255.312 741.221 257.123 741.859 258.643C742.111 261.89 744.691 274.716 743.976 276.468C733.342 286.136 720.964 293.352 708.872 300.993L666.797 327.744C645.104 341.799 624.616 358.215 601.519 370.019C594.185 373.768 584.507 377.934 576.179 377.539C567.755 377.139 560.45 373.729 554.786 367.35C551.802 363.988 549.862 359.79 547.913 355.776L546.467 338.261Z"/>
</svg>
