<?xml version="1.0" encoding="utf-8" ?>
<svg xmlns="http://www.w3.org/2000/svg" xmlns:xlink="http://www.w3.org/1999/xlink" width="312" height="312">
	<path fill="#021430" transform="scale(0.304779 0.304779)" d="M506.392 54.7159L508.991 54.598C524.927 54.1929 541.241 55.7758 557.062 57.4843C627.528 65.0941 695.414 88.871 755.373 126.583C779.304 141.635 802.14 158.77 822.602 178.317C886.527 239.388 933.701 315.937 953.91 402.475L957.464 421.125C961.329 441.543 964.491 461.894 964.953 482.713C965.363 501.169 966.363 520.254 965.304 538.674C963.43 571.269 958.473 604.153 949.988 635.682C930.414 708.421 892.402 775.035 840.332 829.385C782.928 889.303 704.714 933.179 624.238 952.866C588.54 961.598 552.026 965.693 515.324 966.451C500.794 966.44 486.414 966.287 471.924 965.023C373.409 956.43 278.776 915.468 205.486 849.06C144.192 793.522 98.368 720.795 74.8862 641.489C64.3054 605.754 58.406 567.533 56.5977 530.336C50.9746 414.673 93.3288 294.279 171.32 208.488C238.069 135.064 327.146 83.332 424.607 63.8115C451.646 58.396 478.902 56.0575 506.392 54.7159Z"/>
	<path fill="#FEFEFE" transform="scale(0.304779 0.304779)" d="M210.994 766.032C210.044 764.169 210.424 760.806 210.423 758.717L210.423 742.964L210.471 679.277L273.124 714.429L273.084 715.925L273.053 732.938L232.106 754.948L217.367 762.779C215.377 763.823 213.144 765.448 210.994 766.032Z"/>
	<path fill="#063060" transform="scale(0.304779 0.304779)" d="M273.124 714.429C280.98 716.578 288.243 720.896 295.643 724.247L327.894 737.744C369.41 753.627 413.11 760.947 457.468 761.097C475.711 761.159 492.969 760.387 510.91 756.815L511.357 844.593C502.289 840.697 494.155 835.331 485.475 830.7L435.349 804.17L348.636 757.821L309.5 737.992L283.545 723.661C281.721 722.716 277.498 720.15 275.5 720.132C275.034 720.128 273.974 720.611 273.492 720.773L273.084 715.925L273.124 714.429Z"/>
	<path fill="#357F96" transform="scale(0.304779 0.304779)" d="M747.012 288.553C750.602 288.507 754.46 286.257 757.591 284.624L770.75 278.008L811.057 258.29L810.937 535.46C790.451 550.696 770.429 566.967 747.565 578.54L747.71 560.778C747.73 558.03 748.098 554.804 747.529 552.117C747.535 552.052 748.529 551.462 748.78 551.305C756.34 546.568 763.183 541.738 768.054 534.07C776.107 521.394 778.588 504.507 775.284 489.956C771.61 473.782 761.044 464.77 747.595 456.29C748.783 450.599 748.038 444.066 747.996 438.25L747.581 405.19C752.949 407.102 758.047 410.084 762.764 413.249C764.937 411.433 766.787 405.621 768.01 403L777.758 382.997C776.31 381.556 773.762 380.644 771.921 379.745C763.776 375.771 755.264 373.041 746.642 370.316L747.467 369.732C748.834 351.477 747.941 332.643 747.955 314.312L747.951 297.659C747.946 294.756 748.348 291.2 747.012 288.553Z"/>
	<path fill="#FEFEFE" transform="scale(0.304779 0.304779)" d="M747.529 552.117C738.922 555.902 731.214 558.562 721.885 559.945C717.163 560.646 712.213 560.623 707.441 560.616C684.228 560.584 662.091 554.203 643.426 540.287L658.704 510.79C669.703 517.449 680.626 523.558 693.151 526.924C704.968 530.099 721.041 530.536 731.781 523.92C736.395 521.079 739.744 516.076 740.946 510.832C745.782 489.73 713.875 481.343 699.553 476.016C692.172 473.27 684.787 470.249 677.787 466.631C669.288 462.238 660.597 455.861 655.34 447.736C648.189 436.681 646.381 421.157 649.226 408.455C652.255 394.934 660.55 383.461 672.383 376.196C694.571 362.573 722.368 364.33 746.642 370.316C755.264 373.041 763.776 375.771 771.921 379.745C773.762 380.644 776.31 381.556 777.758 382.997L768.01 403C766.787 405.621 764.937 411.433 762.764 413.249C758.047 410.084 752.949 407.102 747.581 405.19L747.996 438.25C748.038 444.066 748.783 450.599 747.595 456.29C761.044 464.77 771.61 473.782 775.284 489.956C778.588 504.507 776.107 521.394 768.054 534.07C763.183 541.738 756.34 546.568 748.78 551.305C748.529 551.462 747.535 552.052 747.529 552.117Z"/>
	<path fill="#021430" transform="scale(0.304779 0.304779)" d="M747.595 456.29L724.885 446.675C713.025 441.961 693.104 436.855 686.989 424.25C685.026 420.201 684.375 414.489 686.102 410.25C687.692 406.346 691.517 402.838 695.309 401.129C711.882 393.658 731.525 398.968 747.581 405.19L747.996 438.25C748.038 444.066 748.783 450.599 747.595 456.29Z"/>
	<path fill="#FEFEFE" transform="scale(0.304779 0.304779)" d="M338.514 367.784L348.63 367.526L423.919 558.733L386.398 558.8L370.786 520.009L320.75 520.023L290.827 520.032L273.276 565.506L242.266 551.142C242.77 544.886 247.076 537.629 249.4 531.792L264.542 493.837L314.781 367.978L338.514 367.784Z"/>
	<path fill="#021430" transform="scale(0.304779 0.304779)" d="M307.923 487.54C306.446 487.492 305.4 487.76 304.208 486.823C306.91 476.849 311.647 466.828 315.355 457.119C320.594 443.403 325.324 429.019 331.412 415.687C332.498 417.729 333.143 420.105 333.901 422.291C328.492 432.214 325.08 443.932 320.979 454.5L307.923 487.54Z"/>
	<path fill="#063060" transform="scale(0.304779 0.304779)" d="M307.923 487.54L320.979 454.5C325.08 443.932 328.492 432.214 333.901 422.291L359.057 487.682L307.923 487.54Z"/>
	<path fill="#68C3EE" transform="scale(0.304779 0.304779)" d="M511.562 89.0153C515.433 89.5815 519.579 92.1146 523.02 93.9329L558.734 114.189L686.926 185.61L769.155 231.766C783.622 239.955 798.526 247.622 812.423 256.75L811.057 258.29L770.75 278.008L757.591 284.624C754.46 286.257 750.602 288.507 747.012 288.553L571.652 191.637L535.527 171.609L520.877 163.258C517.976 161.65 515.173 159.898 511.975 158.944C512.328 154.36 512.036 149.549 512.033 144.946L512.008 119.524L511.965 98.9169C511.954 95.8129 512.378 91.9746 511.562 89.0153Z"/>
	<path fill="#68C3EE" transform="scale(0.304779 0.304779)" d="M273.084 715.925L273.492 720.773L273.504 733.554L510.966 868.067L511.428 936.889L510.756 936.926C504.581 936.663 314.71 826.632 295.894 815.835L242.764 785.338L214.16 768.859C212.905 768.081 211.931 767.164 210.994 766.032C213.144 765.448 215.377 763.823 217.367 762.779L232.106 754.948L273.053 732.938L273.084 715.925Z"/>
	<path fill="#357F96" transform="scale(0.304779 0.304779)" d="M510.966 868.067L511.418 867.983C517.402 866.743 523.346 862.099 528.5 858.985L543.54 850.39L673.996 776.235L723.387 748.682C732.404 743.753 742.025 739.497 750.493 733.647L750.503 716.958L810.972 684.269L811.087 742.441L811.133 758.428C811.139 761.032 811.461 764.047 810.991 766.606L591.375 892.028L542 920.21L524.533 930.332C520.398 932.749 516.054 935.521 511.428 936.889L510.966 868.067Z"/>
	<path fill="#FEFEFE" transform="scale(0.304779 0.304779)" d="M386.961 368.024L425.534 367.982L466.568 490.041L506.512 368.228L528.407 368.243L569.497 491.55L608.27 368.493L646.443 368.311L628.517 421.642L597.093 514.699L586.839 545.949C585.293 550.718 584.216 555.781 582.095 560.322L556.895 560.764L515.587 436.974L477.784 558.579C475.438 559.186 472.167 558.73 469.722 558.706L451.552 558.517L386.961 368.024Z"/>
	<path fill="#FEFEFE" transform="scale(0.304779 0.304779)" d="M511.975 158.944L358.99 244.373L289.338 282.87L275.88 290.337C275.255 290.693 272.807 291.813 272.454 292.301C272.006 292.92 272.444 302.04 272.443 303.347L272.365 393.058L272.411 416.97C272.421 420.748 272.864 425.218 272.157 428.908C271.415 432.779 269.374 436.881 267.941 440.574L259.995 461.26L227.784 545.07L209.269 531.03L209.012 255.946L281.294 215.564L439.824 127.811L490.869 99.8782L500.255 94.5446C503.7 92.4025 507.503 89.7088 511.562 89.0153C512.378 91.9746 511.954 95.8129 511.965 98.9169L512.008 119.524L512.033 144.946C512.036 149.549 512.328 154.36 511.975 158.944Z"/>
	<path fill="#FD9C07" transform="scale(0.304779 0.304779)" d="M511.019 705.494L466.442 702.18C448.274 700.302 430.01 696.729 412.25 692.53C333.549 673.925 259.592 636.319 198.013 583.866L172.997 560.495L156.184 544.355L120.75 503.858L108.433 487.436L119.812 508.634L137.488 537C152.238 558.549 169.472 579.049 187.711 597.728C200.319 610.64 214.359 622.565 228.571 633.664C280.117 673.919 341.474 703.869 404.84 720.066C420.098 723.967 435.429 727.853 451.089 729.787L479.826 733.139C484.37 733.712 488.808 733.915 493.279 735.004C484.302 736.564 474.042 735.95 464.941 735.982C409.907 736.179 353.571 726.395 302.471 705.695C216.809 670.995 143.952 607.754 98.2261 527.253C86.4235 506.474 76.9704 484.656 67.6577 462.693L203.831 373.273L120.813 458.507L145.093 486.46C155.495 497.984 166.977 508.43 178.708 518.573C243.781 574.837 326.21 613.185 411.051 627.23C444.239 632.724 477.432 633.333 510.936 635.005L511.019 705.494Z"/>
	<path fill="#F9700A" transform="scale(0.304779 0.304779)" d="M510.936 635.005L550.455 634.046C554.739 633.879 559.055 634.046 563.328 633.69C651.785 626.319 740.624 598.26 812.439 545.043C819.826 539.569 826.348 533.753 833.25 527.735C844.569 517.865 855.603 508.277 866.14 497.54L901.16 458.792L854.102 406.983C844.872 396.727 835.119 386.779 827.108 375.518L955.572 461.516C946.113 487.216 935.579 512.576 921.884 536.345C881.739 606.027 816.249 661.872 743.5 695.449C705.289 713.084 664.455 725.616 622.75 731.505C603.055 734.286 583.605 735.483 563.734 735.802C556.142 735.924 548.586 736.145 541 735.711C537.868 735.532 534.738 735.55 531.75 734.489C563.327 731.837 594.881 726.765 625.492 718.462C714.385 694.353 799.689 644.166 859.433 573.481C881.147 547.789 900.378 520.194 913.769 489.223C908.283 495.912 903.829 503.243 898.687 510.173C892.429 518.608 885.108 526.908 877.999 534.625C858.203 556.112 836.84 576.611 813.929 594.756C738.073 654.832 646.653 693.577 550.217 703.22L511.019 705.494L510.936 635.005Z"/>
</svg>
