<?xml version="1.0" encoding="utf-8" ?>
<svg xmlns="http://www.w3.org/2000/svg" xmlns:xlink="http://www.w3.org/1999/xlink" width="1024" height="1024">
	<path fill="#0099FD" transform="scale(1.6 1.6)" d="M330.707 169.29L488.514 169.28C494.58 169.278 501.284 168.709 507.262 169.467C532.549 172.672 553.258 190.151 558.903 215.469C560.653 223.318 560.388 230.805 560.391 238.789L560.395 408.625C560.392 412.125 560.563 415.769 560.179 419.247C556.934 448.61 530.66 470.262 501.753 470.405L309.844 470.414L148.207 470.414C142.575 470.413 136.112 471.066 130.609 470.039C99.4855 464.233 80.2971 439.745 80.1569 408.194L80.1397 245.724C80.1381 235.46 79.4884 225.048 81.6227 214.96C86.5235 191.797 106.275 174.414 129.16 170.053C136.541 168.647 144.797 169.29 152.314 169.29L330.707 169.29ZM314.254 254.499C277.867 258.469 262.298 284.566 260.232 317.85L259.51 349.874C259.506 360.792 259.622 371.536 262.74 382.11C268.513 401.683 284.167 416.413 304.708 418.366C311.264 418.99 318.268 418.597 324.858 418.568C330.363 418.519 336.231 418.74 341.562 417.15C363.281 410.673 373.608 394.027 378.77 373.359C379.983 368.504 379.641 363.018 379.641 358.044L379.591 320.259C379.568 311.779 378.981 303.593 376.455 295.436C367.721 267.237 343.295 252.181 314.278 254.483L314.254 254.499ZM317.793 198.111C272.113 198.4 222.769 216.315 199.864 258.423C180.948 293.197 181.198 353.94 186.43 391.84C186.921 395.401 187.188 399.144 188.193 402.607C191.352 413.488 204.707 409.909 204.072 400.74C203.903 398.305 203.315 395.832 202.922 393.421L201.125 379.688C200.181 368.5 200.012 357.49 200.043 346.275C200.162 303.871 204.199 262.229 241.875 236.886C261.17 223.906 283.464 217.228 306.521 215.347L323.057 215.026C328.229 215.115 333.728 214.911 338.812 215.896L351.207 218.133C410.892 231.564 436.21 263.653 439.798 323.522L439.882 366.912C439.343 376.769 438.023 386.552 436.675 396.318C435.938 401.658 437.035 407.974 443.594 409.039C452.528 410.489 452.817 396.738 453.524 391.25C456.21 370.399 457.006 353.291 456.201 332.031L455.872 321.74C453.799 292.595 446.412 261.332 426.592 239.112C402.888 212.536 366.406 200.016 331.437 198.22L317.793 198.111ZM410.299 349.117C402.127 350.688 403.728 355.336 403.545 362.532C403.221 375.313 401.244 387.84 397.634 400.117C396.152 405.156 394.058 410.078 392.775 415.156L392.617 415.768C391.132 421.635 395.266 427.962 401.9 425.909C415.167 419.674 419.388 376.152 419.744 363.795C419.944 356.844 420.088 348.502 410.299 349.117ZM231.508 381.619C220.395 383.693 222.51 392.177 223.85 401.041L225.825 413.48C227.008 419.151 228.495 424.396 234.774 425.436C246.492 423.681 243.096 414.85 241.614 406.817L238.233 388.125C237.372 383.972 236.288 381.485 231.508 381.619Z"/>
	<path fill="white" transform="scale(1.6 1.6)" d="M313.613 219.82C337.242 218.877 361.977 223.075 380.668 238.721C403.689 257.991 415.552 284.353 418.177 313.992C419.484 328.749 406.415 330.453 403.088 323.126C402.125 321.005 402.005 318.533 401.765 316.25L400.716 307.687C393.504 260.262 358.223 232.368 310.21 236.446C309.642 236.494 309.576 236.484 308.988 236.294C265.791 241.679 238.554 278.66 238.101 321.322L237.995 333.723C237.974 335.959 238.307 339.743 237.205 341.72L236.901 342.188C232.729 348.814 223.73 347.448 222.157 339.368L221.884 337.641C221.471 332.39 221.816 326.681 222.031 321.422C224.385 263.963 254.126 224.042 313.613 219.82Z"/>
	<path fill="#0099FD" transform="scale(1.6 1.6)" d="M318.045 270.446L320.156 270.385C344.903 270.879 360.658 288.382 362.795 312.97C363.281 318.571 362.987 324.421 362.993 330.048L362.865 353.013C358.722 354.268 353.807 352.882 349.844 354.706C347.212 355.917 340.59 362.099 339.633 364.877C337.129 372.143 341.893 395.004 336.582 400.624C335.073 402.22 333.079 401.817 331.078 401.822L322.68 401.791L305.625 401.682C299.254 401.269 301.237 388.911 301.234 384.712L301.081 367.927C300.432 356.863 286.113 353.687 277.058 353.221L276.884 331.238C276.879 322.78 276.086 313.62 278.018 305.405C282.749 285.291 296.828 271.869 318.045 270.446ZM318.35 288.253C303.369 289.887 289.296 303.927 296.913 319.454L299.123 323.748C300.786 326.982 294.016 328.732 293.063 331.533C291.738 335.43 298.848 349.33 300.949 352.611C304.497 358.151 306.409 358.276 312.84 359.153C311.604 370.304 311.329 377.525 311.287 388.972L318.906 388.791C321.825 388.768 324.537 388.465 327.41 387.952C329.097 380.251 328.436 365.903 327.379 358.132C331.806 357.71 334.476 357.705 337.459 354.041C340.952 349.75 351.275 332.643 344.516 327.969C332.11 319.389 335.663 313.369 337.698 299.258C339.339 287.88 326.923 287.41 318.35 288.253Z"/>
</svg>
