<?xml version="1.0" encoding="utf-8" ?>
<svg xmlns="http://www.w3.org/2000/svg" xmlns:xlink="http://www.w3.org/1999/xlink" width="910" height="512">
	<path fill="white" transform="scale(0.5 0.5)" d="M417.896 395.237C418.12 396.148 417.926 396.172 418.76 396.702C420.57 397.852 421.379 398.473 422.232 400.444C422.037 402.583 421.905 404.284 420.894 406.222C426.697 428.545 436.602 453.082 451.618 470.829L450.756 472.301C439.625 458.542 431.995 443.14 425.764 426.639C423.451 420.517 420.662 413.885 419.641 407.416L419.529 406.667L416.343 406.247C413.853 405.565 413.325 404.729 411.989 402.697C412.647 398.268 414.581 398.7 416.779 395.285L417.015 394.901L417.896 395.237Z"/>
	<path fill="#146AFC" fill-opacity="0.98823529" transform="scale(0.5 0.5)" d="M1445.59 516C1446.55 507.906 1445.9 499.07 1445.92 490.899C1445.96 466.632 1444.63 441.523 1446.34 417.354L1448.29 417.923L1448.41 631.429C1448 631.797 1446.67 631.542 1446.09 631.514C1444.76 619.315 1445.69 605.837 1445.61 593.517L1445.59 516Z"/>
	<path fill="#1970F4" transform="scale(0.5 0.5)" d="M1448.41 631.429C1461.57 633.601 1471.02 642.153 1482.27 648.618L1481.11 652.302C1471.22 646.218 1455.31 632.687 1443.5 635.568C1438.68 636.744 1434.28 639.966 1430.13 642.566L1411.52 653.787C1405.54 657.279 1398.53 660.237 1393.05 664.427C1390.81 666.14 1389.08 668.469 1387.66 670.89C1384.43 676.432 1385.05 683.16 1385.04 689.376L1385.11 715.83C1385.15 721.833 1384.23 730.005 1385.88 735.708C1387.85 742.51 1392.71 747.407 1398.81 750.692L1430.89 767.47L1428.91 770.438C1417.2 764.678 1404.28 759.072 1393.45 751.831C1387.79 748.045 1383.44 742.573 1382.2 735.744C1380.68 727.377 1381.55 717.289 1381.43 708.743C1381.3 698.491 1379.94 686.421 1381.6 676.344C1382.25 672.375 1383.48 669.422 1385.8 666.093C1387.01 664.353 1388.35 662.79 1390.07 661.54C1394.73 658.163 1400.62 655.843 1405.64 652.898C1416.27 646.662 1427.03 638.785 1438.16 633.653C1440.64 632.509 1443.41 631.992 1446.09 631.514C1446.67 631.542 1448 631.797 1448.41 631.429Z"/>
	<path fill="#012ACE" transform="scale(0.5 0.5)" d="M1482.27 648.618C1491.75 654.143 1512.97 662.722 1515.68 673.625C1517.94 682.74 1517.08 693.247 1517.1 702.616C1517.12 712.739 1519.24 729.487 1513.9 738.287C1507.92 748.137 1493.4 753.794 1483.72 759.726L1448.96 780.811L1428.96 770.59L1428.91 770.438L1430.89 767.47C1434.05 769.022 1446.94 776.944 1449.11 776.329C1452.77 775.293 1457.51 771.488 1460.87 769.544L1489.84 752.341C1494.67 749.421 1499.96 746.753 1504.45 743.328C1506.44 741.81 1507.91 740.074 1509.02 737.831L1509.27 737.333C1511.6 732.712 1510.86 726.432 1510.86 721.332L1510.85 693.213C1510.84 687.929 1511.72 680.968 1510.17 675.995C1506.44 664.004 1491.21 658.552 1481.11 652.302L1482.27 648.618Z"/>
	<path fill="#6AA7F6" transform="scale(0.5 0.5)" d="M451.618 470.829C473.184 494.742 498.324 510.484 531.426 512L650.242 512.159C651.891 507.244 653.785 503.64 658.552 501.15C660.632 500.064 663.157 499.814 665.463 499.565C669.653 501.001 674.07 502.79 676.117 507.068C677.884 510.76 678.382 515.403 676.908 519.279C675.786 522.227 673.13 525.479 670.163 526.649L666.837 527.699C663.604 527.396 660.237 527.13 657.339 525.541C652.846 523.078 651.511 518.996 650.069 514.354C643.284 512.365 631.827 513.904 624.611 513.899L563.544 513.857C551.999 513.841 540.003 514.501 528.519 513.316C497.445 510.108 470.534 496.698 450.756 472.301L451.618 470.829Z"/>
	<path fill="#90EBF1" transform="scale(0.5 0.5)" d="M1395.4 407.256L1396.83 406.61L1397.67 407.835C1388.69 444.015 1367.96 473.761 1335.71 493.189C1320.84 502.146 1304.37 508.439 1287.26 511.371C1274.11 513.624 1260.89 513.036 1247.6 513.063L1193.58 513.191L1174.76 513.324C1172.79 513.365 1169.07 512.953 1167.27 513.519C1165.99 513.921 1164.72 518.897 1163.59 520.256C1161.32 522.954 1158.55 524.328 1155.36 525.66C1150.87 525.871 1148.72 524.983 1145.04 522.558C1143.11 519.801 1141.16 516.696 1141.18 513.201C1141.21 509.929 1142.83 506.381 1145.15 504.101C1148.42 500.884 1151.6 500.215 1156.05 500.324L1158.33 501.016C1162.78 502.723 1165.13 506.671 1166.87 510.905L1167.06 511.392L1230.38 511.603C1247.04 511.644 1264.61 512.667 1281.16 510.625C1299.61 508.347 1318.15 501.443 1334.09 491.952C1366.4 472.715 1386.26 443.219 1395.4 407.256Z"/>
	<path fill="#92D1F5" transform="scale(0.5 0.5)" d="M688.034 228.367C707.375 198.87 734.093 179.971 768.875 172.806C797.651 166.878 830.979 174.611 855.306 190.825C882.282 208.804 901.488 234.651 908.095 266.666L910.743 281.642C914.302 282.967 916.71 284.17 919.407 286.871C921.057 291.398 922.025 296.586 919.844 301.161C918.719 303.521 915.747 306.399 913.244 307.259C910.617 308.162 906.863 307.766 904.123 307.483C903.311 307.046 902.617 306.602 901.904 306.012C896.917 301.881 896.35 298.696 895.718 292.405L896.356 290.936C898.965 285.286 902.782 283.206 908.459 281.169L904.252 259.167C896.613 230.287 875.016 203.719 849.255 188.923C821.895 173.208 790.29 168.468 759.814 176.829C729.443 185.161 704.113 204.519 688.508 231.971L687.209 231.369L688.034 228.367Z"/>
	<path fill="#146AFC" transform="scale(0.5 0.5)" d="M358.631 400.848L365.228 398.667L365.374 385.313C355.873 383.902 347.022 380.928 339.085 375.328C328.067 367.555 319.599 354.562 317.43 341.277C315.194 327.59 318.416 314.339 326.55 303.132C334.873 291.664 348.015 284.182 361.942 282.062C375.159 280.051 389.023 284.527 399.646 292.324C410.567 300.34 418.11 312.689 419.957 326.139C421.884 340.17 419.209 352.798 410.498 364.195C399.754 378.253 385.697 383.086 368.786 385.336C367.312 390.218 367.347 394.278 367.61 399.287C371.054 399.153 374.27 399.251 377.693 399.658C373.998 399.817 370.2 399.784 366.641 400.881L366.343 400.744L365.687 400.315L364.121 400.849L358.631 400.848Z"/>
	<path fill="#012ACE" transform="scale(0.5 0.5)" d="M359.668 292.638C369.46 291.657 377.778 291.974 386.718 296.481C397.016 301.673 404.774 310.542 408.253 321.569C411.604 332.186 410.522 343.266 405.352 353.057C399.55 364.044 390.413 369.746 378.865 373.413C368.218 375.356 358.177 374.545 348.359 369.749C339.935 365.634 332.403 356.612 329.495 347.739C325.901 336.772 326.074 324.572 331.502 314.194C337.77 302.209 347.059 296.603 359.668 292.638Z"/>
	<path fill="#1970F4" transform="scale(0.5 0.5)" d="M688.508 231.971C688 236.222 689.173 240.712 689.296 244.998C689.728 260.064 683.847 274.675 673.445 285.458C663.254 296.02 649.783 301.378 635.208 301.527C619.841 301.683 606.201 295.887 595.284 285.058C584.056 273.921 579.114 260.485 579.072 244.842C579.032 229.636 584.345 216.472 595.123 205.746C605.93 194.992 618.914 189.961 634.04 190.005C653.249 190.061 671.016 200.023 681.338 216.265C683.554 219.753 684.852 225.363 687.708 228.081L688.034 228.367L687.209 231.369L688.508 231.971Z"/>
	<path fill="#012ACE" transform="scale(0.5 0.5)" d="M630.705 199.384C641.023 198.23 652.734 202.005 661.013 208.073C670.627 215.12 677.969 226.543 679.539 238.407C681.157 250.625 678.653 263.889 671.027 273.778C662.945 284.258 650.945 290.653 637.931 292.243C626.981 292.949 616.057 290.165 607.164 283.66C597.336 276.471 590.229 265.644 588.485 253.483C586.63 240.554 590.014 227.618 597.869 217.188C606.245 206.067 617.249 201.217 630.705 199.384Z"/>
	<path fill="#092175" transform="scale(0.5 0.5)" d="M630.023 207.381C638.147 206.862 646.29 208.168 653.44 212.221C661.53 216.806 667.74 225.077 670.16 234.033C672.991 244.512 672.008 256.865 666.343 266.197C660.386 276.013 650.974 280.911 640.203 283.585C630.839 284.441 621.836 283.422 613.662 278.425C605.001 273.131 599.136 262.479 597.031 252.78C594.954 243.21 597.275 232.324 602.572 224.17C609.114 214.101 618.635 209.649 630.023 207.381Z"/>
	<path fill="#092175" transform="scale(0.5 0.5)" d="M1430.89 767.47L1398.81 750.692C1392.71 747.407 1387.85 742.51 1385.88 735.708C1384.23 730.005 1385.15 721.833 1385.11 715.83L1385.04 689.376C1385.05 683.16 1384.43 676.432 1387.66 670.89C1389.08 668.469 1390.81 666.14 1393.05 664.427C1398.53 660.237 1405.54 657.279 1411.52 653.787L1430.13 642.566C1434.28 639.966 1438.68 636.744 1443.5 635.568C1455.31 632.687 1471.22 646.218 1481.11 652.302C1491.21 658.552 1506.44 664.004 1510.17 675.995C1511.72 680.968 1510.84 687.929 1510.85 693.213L1510.86 721.332C1510.86 726.432 1511.6 732.712 1509.27 737.333L1509.02 737.831C1507.91 740.074 1506.44 741.81 1504.45 743.328C1499.96 746.753 1494.67 749.421 1489.84 752.341L1460.87 769.544C1457.51 771.488 1452.77 775.293 1449.11 776.329C1446.94 776.944 1434.05 769.022 1430.89 767.47Z"/>
	<path fill="white" transform="scale(0.5 0.5)" d="M1449.21 682.222L1450.59 682.067C1454.06 684.119 1456.69 690.168 1458.71 693.647C1461.18 697.908 1462.97 701.113 1461.52 706.162C1460.02 711.415 1456.63 713.622 1452.03 716.082L1451.65 734.794L1449.61 734.183L1449.47 716.296C1447.65 715.707 1445.59 715.11 1443.98 714.034C1441.6 712.432 1439.45 709.772 1438.9 706.924C1437.26 698.487 1444.58 688.932 1449.21 682.222Z"/>
	<path fill="#146AFC" transform="scale(0.5 0.5)" d="M908.835 738.51L908.227 736.884C907.519 734.171 908.111 730.174 908.125 727.306L908.207 704.845C908.216 702.389 907.594 698.143 908.238 696C908.437 695.338 909.185 694.409 909.556 693.787C912.914 699.231 908.399 728.164 911.144 737.181L911.341 737.766L911.283 738.525C909.67 762.145 923.875 792.542 939.182 809.81C958.143 831.2 987.835 845.36 1016.35 847.034C1047.37 848.855 1076.31 839.09 1103.63 825.27C1112.02 821.027 1121.1 816.519 1128.81 811.148C1125.52 793.167 1128.64 774.896 1139.15 759.728C1149.05 745.445 1164.37 735.3 1181.55 732.219C1199.48 729.005 1218.63 733.322 1233.46 743.838C1247.66 753.907 1257.17 771.038 1259.7 788.116C1262.42 806.432 1257.35 825.753 1246.17 840.425C1235.74 854.125 1220.1 863.073 1203.05 865.316C1185.9 867.572 1167.58 862.847 1153.86 852.289C1141.03 842.413 1133.85 828.547 1129.03 813.404C1089.36 837.763 1043.56 857.361 996.206 845.937C967.608 839.038 941.679 821.518 926.285 796.185C915.631 778.652 909.114 759.143 908.835 738.51Z"/>
	<defs>
		<linearGradient id="gradient_0" gradientUnits="userSpaceOnUse" x1="1535.5801" y1="203.39589" x2="1359.7456" y2="376.1116">
			<stop offset="0" stop-color="#1F72F6"/>
			<stop offset="1" stop-color="#003EFB"/>
		</linearGradient>
	</defs>
	<path fill="url(#gradient_0)" transform="scale(0.5 0.5)" d="M1395.4 407.256L1395.11 404.609C1388.55 400.182 1381.46 396.991 1375.09 392.191C1350.19 373.432 1330.1 344.383 1324.03 313.534C1317.48 280.278 1324.16 245.875 1343.23 217.797C1362.54 189.363 1393.12 171.244 1426.59 164.819C1457.48 158.89 1490.52 167.072 1516.25 184.672C1546.77 205.555 1566.23 236.355 1572.84 272.702C1578.52 303.968 1568.86 339.071 1550.98 364.907C1532.14 392.129 1501.68 409.422 1469.48 415.099C1464.47 415.983 1451.59 415.266 1448.29 417.923L1446.34 417.354C1444.63 441.523 1445.96 466.632 1445.92 490.899C1445.9 499.07 1446.55 507.906 1445.59 516L1445.1 416.919C1435.16 415.946 1425.48 414.403 1415.87 411.604C1410.02 409.901 1404.3 407.407 1398.33 406.281L1397.67 407.835L1396.83 406.61L1395.4 407.256Z"/>
	<path fill="#146AFC" transform="scale(0.5 0.5)" d="M1437.15 343.727L1437.49 341.863L1438.32 344L1439.7 341.188C1440.41 342.728 1440.59 344.113 1442.36 344.669C1446.03 345.817 1452.62 344.855 1456.6 344.783L1459.14 345.871L1456.99 348C1452.59 348.791 1444.58 350.284 1440.54 348.148C1438.36 346.998 1437.98 345.865 1437.15 343.727Z"/>
	<path fill="#012ACE" transform="scale(0.5 0.5)" d="M1494.82 259.778C1498.62 263.897 1497.73 271.844 1499.48 277.096L1498.75 279.111L1500.07 279.81C1498.11 279.707 1496.26 279.641 1494.3 279.855L1492.95 275.56C1492.24 273.08 1490.21 270.542 1489.93 268.089L1489.56 265.474C1492.02 264.153 1493.35 262.041 1494.82 259.778Z"/>
	<path fill="#1970F4" transform="scale(0.5 0.5)" d="M1437.15 343.727C1436.06 341.621 1436.29 338.785 1436.2 336.444C1432.92 334.287 1429.17 333.013 1426 330.734L1425.65 330.473L1413.08 337.77C1406.5 332.398 1401.37 325.711 1396.77 318.622C1398.33 316.32 1401.66 313.276 1402.5 310.823C1403.3 308.468 1401.15 304.135 1400.1 302.036L1392.55 301.063C1390.66 299.895 1389.56 298.835 1388.82 296.698C1387.69 293.463 1387.65 287.053 1389.31 283.965C1390.99 280.835 1395.55 280.163 1398.69 279.32C1400.38 274.651 1402.13 270.289 1404.57 265.937C1402.98 262.678 1401.34 259.491 1400.32 256C1402.95 251.281 1406.03 247.747 1409.88 244.009C1411.45 243.974 1413.14 243.841 1414.68 244.201L1415.65 244.449C1418.41 245.075 1419.27 248.403 1421.78 249.243C1422.88 249.615 1425.93 247.799 1426.99 247.268L1428.77 248.485C1427.68 250.152 1424.82 251.54 1423.21 252.88L1422.65 252.463C1421.7 251.829 1422.1 252.067 1421.02 251.799C1417.09 250.824 1415.53 245.003 1411.09 247.581C1408.85 248.883 1406.89 251.036 1405.87 253.329L1404.54 255.111C1404.54 256.276 1404.26 257.765 1404.9 258.726C1406.31 260.838 1408.11 263.802 1408.83 266.222C1408.23 268.697 1402.55 281.718 1400.95 282.703C1399.07 283.856 1395.99 283.089 1394.51 284C1393.66 284.523 1392.56 285.934 1391.82 286.667C1391.56 290.765 1390.98 294.299 1393.88 297.618C1396.34 298.332 1401.76 298.122 1402.88 300.022C1404.63 302.979 1406.25 307.823 1406.92 311.18C1405.28 313.472 1401.86 317.216 1401.29 319.863C1405.41 324.565 1409.39 329.61 1414.32 333.482C1417.84 330.852 1421.5 327.617 1425.45 325.701C1429.64 328.653 1437.18 330.613 1439.65 334.667L1439.7 341.188L1438.32 344L1437.49 341.863L1437.15 343.727Z"/>
	<defs>
		<linearGradient id="gradient_1" gradientUnits="userSpaceOnUse" x1="1463.7068" y1="238.40416" x2="1431.354" y2="339.013">
			<stop offset="0" stop-color="#1A7CFA"/>
			<stop offset="1" stop-color="#0030FF"/>
		</linearGradient>
	</defs>
	<path fill="url(#gradient_1)" transform="scale(0.5 0.5)" d="M1426.99 247.268L1435.66 243.111C1436.36 241.229 1436.55 239.737 1436.55 237.75C1436.56 236.012 1436.76 235.703 1437.44 234.222L1437.69 233.433C1438.31 232.048 1440.52 230.316 1442.03 229.976C1445.27 229.247 1451.34 229.44 1454.31 230.676L1456.53 231.116C1458.98 234.127 1458.03 235.961 1459.4 239.019C1459.9 240.14 1459.67 241.899 1459.64 243.12C1460.97 244.042 1462.07 244.889 1463.64 245.338C1467.29 246.383 1469.19 249.386 1472.98 249.333C1474.9 247.9 1476.59 246.827 1478.75 245.787L1479.28 245.509C1481 244.651 1482.65 244.814 1484.53 244.898C1485.78 245.903 1488.59 247.587 1489.06 248.989C1490 251.792 1494.08 252.95 1494.74 256.004L1494.87 256.518C1495.19 257.792 1495.23 258.484 1494.82 259.778C1493.35 262.041 1492.02 264.153 1489.56 265.474L1489.93 268.089C1490.21 270.542 1492.24 273.08 1492.95 275.56L1494.3 279.855C1498.4 280.77 1503.22 280.943 1505.85 284.444L1505.85 301.724L1495.28 304.37C1493.96 308.525 1492.67 312.58 1490.77 316.522L1496.17 323.081C1492.1 328.68 1488.66 333.496 1482.81 337.434L1470.93 330.233C1468.92 331.562 1467 332.78 1464.82 333.815C1463.34 334.517 1462.03 335.249 1461.46 336.889C1460.4 339.951 1461.37 343.411 1459.14 345.871L1456.6 344.783C1452.62 344.855 1446.03 345.817 1442.36 344.669C1440.59 344.113 1440.41 342.728 1439.7 341.188L1439.65 334.667C1437.18 330.613 1429.64 328.653 1425.45 325.701C1421.5 327.617 1417.84 330.852 1414.32 333.482C1409.39 329.61 1405.41 324.565 1401.29 319.863C1401.86 317.216 1405.28 313.472 1406.92 311.18C1406.25 307.823 1404.63 302.979 1402.88 300.022C1401.76 298.122 1396.34 298.332 1393.88 297.618C1390.98 294.299 1391.56 290.765 1391.82 286.667C1392.56 285.934 1393.66 284.523 1394.51 284C1395.99 283.089 1399.07 283.856 1400.95 282.703C1402.55 281.718 1408.23 268.697 1408.83 266.222C1408.11 263.802 1406.31 260.838 1404.9 258.726C1404.26 257.765 1404.54 256.276 1404.54 255.111L1405.87 253.329C1406.89 251.036 1408.85 248.883 1411.09 247.581C1415.53 245.003 1417.09 250.824 1421.02 251.799C1422.1 252.067 1421.7 251.829 1422.65 252.463L1423.21 252.88C1424.82 251.54 1427.68 250.152 1428.77 248.485L1426.99 247.268Z"/>
	<path fill="#012ACE" transform="scale(0.5 0.5)" d="M1441.93 284.889C1444.08 284.152 1446.2 284.096 1448.44 284.381C1451.21 284.734 1454.3 286.58 1455.96 288.864C1457.84 291.444 1458.8 294.767 1458.06 297.925C1457.22 301.459 1454.35 303.551 1451.44 305.333C1448.7 306.273 1445.24 306.357 1442.39 305.864C1440.29 305.501 1437.67 303.054 1436.56 301.301C1435.12 299.011 1434.68 295.259 1435.29 292.613C1436.17 288.774 1438.75 286.799 1441.93 284.889Z"/>
	<path fill="#1970F4" transform="scale(0.5 0.5)" d="M1456.6 344.783C1458.33 342.307 1457.94 336.587 1458.36 333.513C1458.44 332.991 1458.7 332.233 1459.16 331.928C1460.42 331.1 1463.02 330.714 1464.51 330.069C1467.06 328.967 1469.43 327.14 1471.67 325.525L1481.86 332.107C1485.82 330.789 1488.93 326.214 1491.6 323.105C1489.99 321.521 1487.01 319.133 1486.02 317.185C1485.24 315.643 1488.79 312.051 1489.35 309.958L1489.72 308.676L1491.25 304.004L1491.67 302.222C1492.8 299.487 1500.34 298.269 1503.19 297.342C1503.21 295.593 1503.58 286.563 1502.31 285.778C1501.23 285.111 1497.58 284.837 1496.17 284.549C1494.86 284.281 1493.5 284.139 1492.53 283.111C1489.52 279.908 1489.99 274.082 1486.65 270.17L1486.31 269.778C1486.31 267.799 1486.08 267.02 1487.19 265.342L1489.56 265.474L1489.93 268.089C1490.21 270.542 1492.24 273.08 1492.95 275.56L1494.3 279.855C1498.4 280.77 1503.22 280.943 1505.85 284.444L1505.85 301.724L1495.28 304.37C1493.96 308.525 1492.67 312.58 1490.77 316.522L1496.17 323.081C1492.1 328.68 1488.66 333.496 1482.81 337.434L1470.93 330.233C1468.92 331.562 1467 332.78 1464.82 333.815C1463.34 334.517 1462.03 335.249 1461.46 336.889C1460.4 339.951 1461.37 343.411 1459.14 345.871L1456.6 344.783Z"/>
	<defs>
		<linearGradient id="gradient_2" gradientUnits="userSpaceOnUse" x1="351.91031" y1="880.57275" x2="382.5845" y2="621.38727">
			<stop offset="0" stop-color="#0048F6"/>
			<stop offset="1" stop-color="#1F73F7"/>
		</linearGradient>
	</defs>
	<path fill="url(#gradient_2)" transform="scale(0.5 0.5)" d="M364.121 400.849L365.687 400.315L366.343 400.744L366.349 619.455C396.013 619.445 425.678 629.093 448.649 648.16C477.295 671.938 494.907 703.368 498.166 740.58C501.341 776.834 491.304 811.42 467.757 839.35C445.935 865.234 414.519 880.622 380.917 883.248C343.544 886.168 309.313 874.173 281.091 849.86C256.101 828.33 238.942 794.604 236.624 761.661C234.09 725.631 245.317 691.376 269.131 664.223C293.852 636.036 327.048 621.796 364.035 619.315C365.341 616.964 364.991 423.52 364.121 400.849Z"/>
	<defs>
		<linearGradient id="gradient_3" gradientUnits="userSpaceOnUse" x1="370.12109" y1="675.55487" x2="370.14209" y2="826.66675">
			<stop offset="0" stop-color="#308AF8"/>
			<stop offset="1" stop-color="#0042FD"/>
		</linearGradient>
	</defs>
	<path fill="url(#gradient_3)" transform="scale(0.5 0.5)" d="M369.452 672.202C370.644 671.961 370.132 671.935 371.272 672.189C373.366 672.657 375.988 672.739 377.711 674.038L378.57 674.671L379.223 674.864C383.188 676.278 385.776 683.878 387.457 687.58C389.555 688.981 391.995 691.014 394.375 691.813L395.015 692.009L396.164 692.707C398.226 693.518 403.144 693.155 405.147 692.26L407.9 691.12C408.955 690.484 409.736 689.67 411.011 689.45C414.515 688.847 419.298 688.759 422.172 690.942L423.003 691.56C426.043 692.882 428.61 696.247 430.963 698.671C431.132 699.499 431.228 700.191 431.743 700.881C432.415 701.781 432.797 702.189 433.006 703.336L433.219 704.444L433.854 705.642C434.539 707.488 434.137 710.955 433.449 712.76L433.219 713.333C432.499 715.255 431.61 716.888 430.562 718.658C430.475 720.941 430.286 723.045 431.191 725.203C432.064 727.285 432.845 728.766 434.107 730.667C434.963 731.956 435.288 732.456 436.753 733.146C440.713 735.013 444.569 737.418 447.04 741.126L447.437 741.778C448.281 743.122 448.867 744.075 449.129 745.666L449.423 747.363L449.624 748.449C450.027 749.983 450.048 750.682 449.753 752.218C448.989 756.187 448.916 761.19 445.089 763.607L437.604 767.973L436.342 768.893C435.092 769.542 436.287 768.552 435.005 769.342C432.461 770.91 430.837 774.095 430.128 776.893C429.874 777.893 429.793 778.555 429.235 779.444L428.844 780C428.643 784.564 429.339 786.22 430.376 790.304C430.627 791.292 430.452 790.995 431.04 791.885C432.057 793.422 431.447 799.227 431.446 801.347C428.706 804.15 425.026 809.065 421.176 810.035C420.14 810.296 420.489 810.087 419.568 810.699L419.018 811.111C416.122 811.114 411.581 811.794 409.233 810.235C407.583 810.306 405.888 810.498 404.346 809.792L403.457 809.354L402.133 810.222C398.132 810.116 395.649 811.453 391.909 812.449C388.108 813.461 385.499 818.684 383.151 821.273C380.58 824.108 377.953 826.18 374.584 828C371.231 828.031 366.729 828.607 363.514 827.812L362.574 827.56C360.59 827.131 359.792 826.394 358.135 825.342C356.197 824.112 354.051 821.485 352.932 819.453C352.089 817.92 351.292 817.142 349.902 816.064L349.248 815.564C347.056 813.837 343.868 811.983 341.164 811.311C340.172 811.065 340.483 811.245 339.584 810.655L339.028 810.245C335.998 810.242 330.809 809.503 328.373 811.111C325.842 811.16 323.472 811.311 321.03 810.484L320.366 810.231C314.627 808.141 312.047 804.438 308.813 799.564C308.75 794.482 308.269 791.131 311.093 786.722L311.436 786.222C311.589 782.946 310.917 780.77 309.693 777.778C309.27 776.743 309.037 776.14 308.097 775.426C305.548 773.493 304.277 769.79 301.713 767.556C298.862 765.071 295.918 764.949 293.369 761.614L292.826 760.889C292.227 760.126 291.548 759.374 291.281 758.411C290.492 755.562 290.278 746.16 291.661 743.606L291.938 743.111C293.174 740.496 294.129 739.399 296.581 737.764C297.803 736.949 299.16 735.872 300.567 735.458C303.127 734.706 305.105 732.639 306.638 730.486C308.625 727.693 310.092 722.217 309.463 718.86L309.334 718.218C309.042 716.705 308.717 715.59 307.934 714.222C306.49 711.702 307.044 707.774 307.091 704.889L308.374 703.116C309.853 699.682 315.287 694.776 318.425 692.441L319.033 692.009L320.449 691.042C322.76 689.717 326.613 689.96 329.135 690.591L329.693 690.736C331.509 691.12 332.478 691.5 334.073 692.55L334.576 692.889C338.508 693.034 340.331 693.004 343.92 691.62C346.921 690.463 348.585 689.278 351.03 687.116C351.63 685.139 352.735 683.381 353.204 681.364L353.405 680.444C355.69 677.979 358.243 674.57 361.507 673.53L362.134 673.342C364.601 672.238 366.775 672.308 369.452 672.202Z"/>
	<path fill="#012ACE" transform="scale(0.5 0.5)" d="M367.683 730.847C371.032 731.173 374.681 731.62 377.648 733.303C382.272 735.926 386.248 740.621 387.444 745.897C388.51 750.601 387.683 756.729 385.186 760.874C381.541 766.925 376.126 768.813 369.632 770.461C365.186 770.06 360.651 769.387 356.802 766.95C352.725 764.369 349.397 759.825 348.474 755.059C347.397 749.496 348.708 744.151 351.973 739.569C355.972 733.958 361.059 731.873 367.683 730.847Z"/>
	<path fill="#092175" transform="scale(0.5 0.5)" d="M919.407 286.871C920.636 288.629 922.046 291.383 924.292 291.769C933.808 293.404 943.722 293.201 953.353 294.801C992.368 301.282 1033.7 316.859 1064.87 341.635C1109.31 374.419 1142.88 422.809 1150.84 478.222C1151.89 485.529 1152.04 492.098 1153.96 499.354L1156.05 500.324C1151.6 500.215 1148.42 500.884 1145.15 504.101C1142.83 506.381 1141.21 509.929 1141.18 513.201C1141.16 516.696 1143.11 519.801 1145.04 522.558C1148.72 524.983 1150.87 525.871 1155.36 525.66C1151.33 529.174 1148.79 557.51 1147.18 564.321C1145.37 572.026 1142.82 579.591 1139.96 586.966C1122.34 632.332 1085.94 673.8 1044.19 698.57C1033.47 704.929 1021.7 709.854 1010.37 715.022C987.786 725.313 963.131 733.986 938.128 735.734L911.341 737.766L911.144 737.181C908.399 728.164 912.914 699.231 909.556 693.787C909.185 694.409 908.437 695.338 908.238 696C907.594 698.143 908.216 702.389 908.207 704.845L908.125 727.306C908.111 730.174 907.519 734.171 908.227 736.884L908.835 738.51L908.271 738.373C903.958 736.461 896.777 737.337 891.926 736.993L874.285 734.897C835.529 729.884 800.875 714.925 768.081 694.091C739.564 675.974 714.952 651.271 697.582 622.199C694.914 617.735 690.848 611.61 689.756 606.555C688.139 599.067 683.021 590.708 680.152 583.482C672.979 565.419 668.773 547.006 666.837 527.699L670.163 526.649C673.13 525.479 675.786 522.227 676.908 519.279C678.382 515.403 677.884 510.76 676.117 507.068C674.07 502.79 669.653 501.001 665.463 499.565L669.019 469.62C670.204 458.88 674.712 448.1 678.839 438.209C695.576 398.1 719.987 369.332 753.764 342.599C762.522 337.225 770.331 330.8 779.333 325.698C814.807 305.592 855.436 296.028 895.718 292.405C896.35 298.696 896.917 301.881 901.904 306.012C902.617 306.602 903.311 307.046 904.123 307.483C906.863 307.766 910.617 308.162 913.244 307.259C915.747 306.399 918.719 303.521 919.844 301.161C922.025 296.586 921.057 291.398 919.407 286.871Z"/>
	<path fill="#146AFC" transform="scale(0.5 0.5)" d="M909.059 587.141L910.974 587.73L910.978 605.738L910.855 649.862C914.793 651.136 919.044 652.496 920.977 656.524C922.502 659.703 922.432 662.982 921.122 666.177C919.937 669.066 917.335 671.887 914.397 673.035C911.33 674.233 908.315 673.976 905.395 672.559C902.05 670.935 899.335 668.306 898.174 664.695C897.11 661.389 898.811 657.469 899.564 654.264C900.545 654.092 900.349 654.236 901.004 653.842C903.59 652.286 906.314 651.138 909.072 649.921L909.059 587.141Z"/>
	<defs>
		<linearGradient id="gradient_4" gradientUnits="userSpaceOnUse" x1="1057.906" y1="419.1026" x2="752.18103" y2="602.89825">
			<stop offset="0" stop-color="#88B0F7"/>
			<stop offset="1" stop-color="#2E66FE"/>
		</linearGradient>
	</defs>
	<path fill="url(#gradient_4)" transform="scale(0.5 0.5)" d="M859.631 392.468C872.983 371.945 892.155 358.266 916.096 353.199C941.667 347.786 965.391 355.353 986.672 369.307C1005.45 385.058 1020.23 405.887 1022.45 431.032L1022.51 431.79C1041.78 432.322 1063.04 439.106 1076.65 453.46L1077.08 453.939L1079.15 456.069C1093.35 469.595 1101.43 488.397 1101.93 508C1102.33 523.87 1098.8 536.39 1091.51 550.302C1080.13 567.981 1062.7 581.1 1041.97 585.728C1030.57 588.273 1018.34 587.56 1006.71 587.539L940.033 587.323C930.869 587.347 920.694 586.49 911.637 587.596L910.974 587.73L909.059 587.141C905.212 587.959 900.307 587.401 896.31 587.411L869.103 587.42L804.351 587.367C791.386 587.344 777.256 588.479 764.48 586.035C745.461 582.397 731.623 569.988 721.04 554.493C718.064 546.966 714.815 540.126 713.662 532C711.259 515.073 715.458 497.613 725.821 483.914C737.032 469.094 753.045 461.522 771.135 459.074C771.175 453.23 771.529 448.251 773.545 442.722C779.027 427.688 790.086 419.045 804.091 412.571L811.412 410.458C824.963 407.203 838.159 410.532 849.744 417.685C851.624 408.235 855.089 400.879 859.631 392.468Z"/>
	<path fill="#6AA7F6" transform="scale(0.5 0.5)" d="M1079.15 456.069C1078.95 458.056 1079.76 462.646 1080.97 464.21C1083.97 468.073 1085.98 472.778 1088.27 477.092C1088.1 478.93 1088.31 480.292 1088.81 482.071C1089.09 483.052 1088.44 483.837 1088.02 484.745L1086.65 484.363C1085.97 485.754 1085.04 486.131 1083.74 486.808C1081.15 486.027 1079.55 485.164 1077.63 483.257C1072.69 478.337 1055.23 458.417 1055.21 451.83C1056.45 451.298 1057.32 451.291 1058.63 451.348L1059.11 451.373L1060.26 449.749C1062.95 450.97 1065.46 451.079 1068 451.976C1070.43 452.837 1070.89 453.802 1073.71 453.768L1074.42 453.756L1077.08 453.939L1079.15 456.069Z"/>
</svg>
