<?xml version="1.0" encoding="utf-8" ?>
<svg xmlns="http://www.w3.org/2000/svg" xmlns:xlink="http://www.w3.org/1999/xlink" width="448" height="359">
	<defs>
		<linearGradient id="gradient_0" gradientUnits="userSpaceOnUse" x1="399.43353" y1="504.09341" x2="403.01572" y2="110.38797">
			<stop offset="0" stop-color="#6985FD"/>
			<stop offset="1" stop-color="#A3D2F6"/>
		</linearGradient>
	</defs>
	<path fill="url(#gradient_0)" transform="scale(0.56125 0.56125)" d="M272.255 175.934C276.178 170.444 281.985 165.441 286.912 160.839C360.871 91.7535 478.525 94.5265 547.775 167.763C550.372 170.51 553.276 173.413 555.395 176.56C578.872 205.127 590.211 231.708 598.095 268.246L614.526 270.134C645.79 275.779 673.707 293.554 691.809 319.735C742.18 392.585 696.067 492.387 608.984 502.481C601.514 503.346 593.464 502.812 585.934 502.813L232.58 502.816C225.136 502.811 216.826 503.419 209.518 502L193.984 499.553C112.84 482.766 66.7012 393.324 100.133 318.197C118.5 276.921 156.853 246.301 201.633 238.964C212.785 237.137 223.53 236.95 234.809 236.634C235.886 234.813 236.54 232.723 237.437 230.797L243.782 217.482C251.179 202.627 260.987 188.139 272.255 175.934Z"/>
	<defs>
		<linearGradient id="gradient_1" gradientUnits="userSpaceOnUse" x1="401.86072" y1="450.25174" x2="402.23529" y2="154.31908">
			<stop offset="0" stop-color="#86A9F8"/>
			<stop offset="1" stop-color="#B8F0F5"/>
		</linearGradient>
	</defs>
	<path fill="url(#gradient_1)" transform="scale(0.56125 0.56125)" d="M319.843 182.693C323.25 181.735 326.835 178.861 329.877 177.017C377.538 148.127 439.49 145.538 487.993 174.544L497.855 181.099C501.011 183.044 503.769 186.261 507.033 187.935C510.559 189.742 513.205 194.433 516.712 196.484C537.417 216.995 550.911 243.742 555.754 272.446C557.779 284.448 555.159 301.06 566.652 308.96L567.038 309.217C577.553 316.404 592.788 311.827 604.95 313.13C638.585 316.733 664.72 349.849 664.84 383.055C664.952 414.292 647.25 443.439 614.882 449.48C603.806 451.547 592.258 450.873 581.031 450.884L238.137 450.889C216.473 450.919 195.574 449.441 177.064 436.55C138.771 409.882 126.6 359.968 154.902 321.208C172.576 297.002 200.851 279.804 231.563 283.168C235.984 283.653 240.922 285.401 245.352 284.64L245.898 284.536C257.388 282.624 260.724 272.053 263.766 262.475L268.328 250.061C275.973 231.674 287.652 213.667 301.367 199.225C304.879 195.527 315.54 184.592 319.843 182.693Z"/>
	<path fill="white" transform="scale(0.56125 0.56125)" d="M317.604 291.203L318.108 291.174C333.556 290.515 343.991 307.164 336.187 320.35C332.14 327.19 325.343 333.403 319.923 339.202L305.81 354.34L323.14 373.887C328.143 379.277 337.681 386.851 339.104 394.516L339.186 395.018C339.654 397.67 339.729 400.844 338.937 403.438L338.753 404.005C335.544 414.161 325.164 419.509 314.895 418.008C307.767 416.404 302.377 409.764 297.561 404.761L281.782 388.09C275.901 381.926 268.818 375.821 263.836 368.967C249.648 349.448 270.611 333.658 282.43 321.226L296.039 306.607C302.143 300.02 308.243 292.595 317.604 291.203Z"/>
	<path fill="white" transform="scale(0.56125 0.56125)" d="M478.167 291.518C480.801 291.182 483.973 291.2 486.507 292.024L487.109 292.225C498.423 295.863 507.237 309.037 515.228 317.174L528.834 330.762C544.151 345.868 549.474 356.826 532.217 375.231L516.649 391.361C508.361 399.802 500.595 410.288 490.504 416.585C474.052 423.72 455.947 406.049 464.206 390.121C467.442 383.881 473.643 378.055 478.486 372.987L495.911 354.748L472.852 330.621C468.86 326.187 463.697 321.026 462.148 315.129C459.23 304.018 467.938 294.151 478.167 291.518Z"/>
	<path fill="white" transform="scale(0.56125 0.56125)" d="M423.449 247.844C441.787 246.064 447.099 261.513 443.614 276.627C441.429 286.103 438.281 295.417 435.591 304.762L406.362 404.275C401.461 420.581 401.107 436.817 381.389 440.371C362.947 440.551 356.368 425.877 360.434 409.923L398.427 285.38C402.738 269.984 404.275 250.895 423.449 247.844Z"/>
</svg>
