<?xml version="1.0" encoding="utf-8" ?>
<svg xmlns="http://www.w3.org/2000/svg" xmlns:xlink="http://www.w3.org/1999/xlink" width="448" height="359">
	<defs>
		<linearGradient id="gradient_0" gradientUnits="userSpaceOnUse" x1="450.73596" y1="542.36969" x2="330.64182" y2="118.74108">
			<stop offset="0" stop-color="#6D8FFB"/>
			<stop offset="1" stop-color="#A6D3F6"/>
		</linearGradient>
	</defs>
	<path fill="url(#gradient_0)" transform="scale(0.56125 0.56125)" d="M395.936 105.696C399.293 105.42 402.782 105.629 406.151 105.666C487.971 106.552 555.452 166.34 575.928 243.734C576.87 247.293 577.293 251.447 578.705 254.804L595.578 254.854C660.97 255.621 708.426 310.302 708.241 375.002C708.065 436.031 669.678 486.349 608.32 498.236C601.658 499.526 595.177 500.639 588.362 500.702L409.18 500.777L242.367 500.74C235.36 500.729 227.838 501.207 220.898 500.257C160.826 492.032 116.296 463.368 100.734 401.843C99.1506 395.584 98.439 389.386 97.1299 383.123L96.8128 381.401C88.7539 314.543 137.29 246.009 201.201 227.567C210.745 224.814 220.387 223.368 230.232 222.261C232.27 217.035 235.141 212.048 237.829 207.13C270.326 147.674 327.501 107.558 395.936 105.696Z"/>
	<path fill="#99BCF7" transform="scale(0.56125 0.56125)" d="M589.101 474.171C591.008 473.93 592.965 473.993 594.885 473.972C591.048 475.272 587.764 476.279 583.696 476.397C582.331 476.358 581.023 476.058 579.688 475.791L579.435 475.296C582.276 474.313 586.077 474.417 589.101 474.171Z"/>
	<defs>
		<linearGradient id="gradient_1" gradientUnits="userSpaceOnUse" x1="324.91782" y1="304.18246" x2="220.67992" y2="214.8373">
			<stop offset="0" stop-color="#8FD5F2"/>
			<stop offset="1" stop-color="#C9F7FC"/>
		</linearGradient>
	</defs>
	<path fill="url(#gradient_1)" transform="scale(0.56125 0.56125)" d="M325.048 247.265L323.047 247.511C321.997 247.661 321.039 247.713 320.02 247.324L317.773 246.345C314.012 244.521 310.17 240.731 308.596 236.775L307.621 234.042C307.358 233.331 307.137 231.793 306.639 231.305L305.664 231.498C305.679 232.503 305.726 233.448 305.467 234.43L304.883 234.432C302.721 236.681 296.791 235.96 293.189 238.958L292.48 238.828C291.424 239.615 290.085 239.49 288.94 240.294L287.107 241.463C286.237 241.848 284.144 243.588 283.374 244.363L283.08 244.661C280.777 246.965 279.216 249.854 276.951 252.013C274.612 252.492 275.507 255.991 273.633 257.875L273.629 258.462C272.966 259.1 271.485 260.542 271.092 261.39C269.942 263.868 260.801 274.972 259.764 275.456C257.423 276.549 253.364 281.112 252.145 283.468C251.821 284.093 245.445 290.4 244.336 291.477L244.332 292.063C243.615 292.64 242.406 293.521 241.998 294.33L241.602 295.185C240.422 295.74 240.358 296.82 239.451 297.727L238.867 297.729C238.558 298.018 238.309 298.236 238.115 298.62L237.986 298.901C237.6 299.519 237.748 299.037 237.578 299.706L237.498 300.071C236.645 300.074 236.708 300.279 236.133 300.855L236.129 301.441C235.195 302.341 234.424 303.376 233.592 304.369L233.008 304.371C233.004 304.903 221.962 317.306 220.117 318.828L216.207 324.884C215.356 325.613 214.874 326.877 214.254 327.814L212.107 330.938C211.737 331.771 211.44 331.919 210.742 332.503L208.201 337.19C207.802 338.019 207.547 338.16 206.836 338.755L196.58 350.476C193.194 353.476 187.189 362.1 183.887 363.759L183.398 363.952C182.934 364.791 182.459 365.085 181.836 365.714L181.832 366.3C181.491 366.492 181.268 366.602 180.872 366.658L180.66 367.473L178.316 369.817L175.973 372.552L173.633 374.31L171.289 377.045C171.283 377.916 170.286 378.455 169.854 379.32L168.945 379.389L166.988 382.32L165.82 382.906L163.477 385.832L161.914 386.422C161.909 387.223 161.851 387.068 161.326 387.593L159.961 388.376C159.956 389.176 159.898 389.021 159.373 389.546L154.883 393.065L154.879 393.651C154.368 393.889 154.102 394.017 153.838 394.546L152.148 395.409C152.143 396.209 152.085 396.054 151.561 396.579L150.191 397.949C149.681 398.187 149.415 398.315 149.151 398.844L148.242 398.926L147.264 400.486C146.365 400.489 146.12 401.048 145.508 401.661L143.848 402.93C143.944 403.632 143.947 403.606 143.555 404.196L142.58 404.003C142.481 403.211 142.545 403.082 142.871 402.344L142.578 401.856C141.791 402.497 140.872 403.598 140.625 404.591L139.453 405.763C139.235 406.116 139.043 406.381 138.745 406.677L138.477 406.931C138.206 407.971 137.65 409.908 136.914 410.647L136.91 411.233C135.709 412.435 135.308 412.039 134.18 412.792L133.201 412.603C133.208 414.529 136.158 419.775 137.316 421.512L144.629 432.821C149.037 440.864 157.399 445.697 164.325 451.252L166.406 453.157C128.964 431.152 116.11 378.987 127.604 339.164C141.544 290.87 185.729 254.987 235.323 249.823C255.972 247.673 251.503 244.618 259.606 227.265C280.001 183.584 317.88 149.105 364.867 136.986L376.172 134.529C389.534 130.938 416.383 131.756 428.93 135.562L451.758 142.023L453.127 143.392C453.626 143.572 454.072 144.074 454.272 144.542L454.395 144.86C454.905 144.604 454.932 144.685 455.469 144.762L456.445 145.348L458.496 146.227L459.375 147.302C458.859 148.181 458.577 148.322 457.617 148.083L456.152 148.962C453.77 150.07 450.302 149.076 448.035 150.696L447.473 150.848C446.548 150.716 445.794 151.266 445.068 151.755L442.969 151.6L441.211 152.182L440.039 152.182L436.621 151.893L433.203 150.427L431.055 149.255L428.711 149.255L427.539 148.083C425.493 148.672 422.539 148.076 420.74 149.276L420.508 149.447C419.397 149.348 418.904 149.979 417.925 150.102L416.211 150.427L415.039 149.255L413.086 149.646L412.695 150.427L409.668 149.548L408.984 149.06L406.836 149.837C400.412 153.516 397.553 159.641 392.292 164.294L395.312 164.302C396.006 164.867 396.671 164.826 397.522 164.747L398.047 164.693C399.417 166.049 402.671 166.056 404.645 168.285C412.734 175.491 417.792 187.593 409.392 196.734C402.001 204.775 393.245 205.337 383.683 209.172C370.63 214.408 358.832 221.253 348.653 230.982L339.918 240.192C337.854 242.396 335.676 245.01 332.812 246.167L332.325 246.369C330.111 247.207 327.399 247.144 325.048 247.265Z"/>
	<path fill="white" transform="scale(0.56125 0.56125)" d="M325.048 247.265C310.376 245.813 303.544 231.029 310.257 217.855C321.449 195.89 377.765 154.676 404.645 168.285C412.734 175.491 417.792 187.593 409.392 196.734C402.001 204.775 393.245 205.337 383.683 209.172C370.63 214.408 358.832 221.253 348.653 230.982L339.918 240.192C337.854 242.396 335.676 245.01 332.812 246.167L332.325 246.369C330.111 247.207 327.399 247.144 325.048 247.265Z"/>
</svg>
