<?xml version="1.0" encoding="utf-8" ?>
<svg xmlns="http://www.w3.org/2000/svg" xmlns:xlink="http://www.w3.org/1999/xlink" width="448" height="359">
	<defs>
		<linearGradient id="gradient_0" gradientUnits="userSpaceOnUse" x1="386.64557" y1="544.28107" x2="410.70663" y2="75.943672">
			<stop offset="0" stop-color="#0008FF"/>
			<stop offset="1" stop-color="#FF00F9"/>
		</linearGradient>
	</defs>
	<path fill="url(#gradient_0)" transform="scale(0.56125 0.56125)" d="M280.837 141.792C290.414 140.389 301.587 141.944 310.909 144.361L317.117 146.162C318.07 146.479 319.275 147.099 320.252 147.036C325.571 138.589 332.366 130.749 339.358 123.646C375.632 86.798 420.833 71.99 471.621 80.2133C513.227 86.95 544.848 110.522 567.57 144.82C571.613 150.922 575.752 157.333 578.249 164.247C582.414 173.011 585.256 183.156 587.73 192.527C593.971 193.675 600.27 194.163 606.409 195.866C642.727 205.943 680.408 236.381 694.765 272.204C709.917 303.031 710.107 341.497 699.301 373.65C682.843 422.624 634.752 458.055 583.643 461.973C577.602 462.436 571.393 462.114 565.33 462.062L536.411 461.932L536.455 515.308C536.494 533.543 527.789 539.283 511.771 539.252L301.796 539.245C286.824 539.241 265.723 542.564 261.757 522.589C260.781 517.673 261.35 511.587 261.339 506.545L261.286 477.843C261.277 472.569 261.526 467.154 261.161 461.904L226.881 461.978C215.687 461.967 204.632 462.105 193.543 460.244C138.174 450.955 95.5402 404.182 89.4669 348.661C87.81 333.514 88.2245 312.676 93.8857 298.065C93.9119 296.768 94.5519 295.338 94.9602 294.099L98.5496 284.501C116.731 242.051 152.43 218.354 196.785 212.717C199.091 212.424 198.616 209.753 199.348 207.766C211.756 174.068 243.689 143.553 280.837 141.792ZM293.104 158.704C258.702 158.017 229.013 179.024 216.921 210.928C210.698 227.344 214.765 227.631 196.402 229.483C162.698 232.883 131.625 255.897 116.508 285.969C112.19 294.558 110.057 303.135 107.373 312.251C107.479 315.178 106.302 318.97 105.977 322C99.7246 380.395 142.244 436.995 200.918 443.681C212.079 444.953 223.417 444.66 234.632 444.661L251.023 444.646C254.422 444.639 257.895 444.798 261.269 444.356L261.291 304.482L261.302 289.695C261.416 259.858 283.335 262.404 306.476 262.404L511.265 262.469C526.934 262.676 536.338 273.154 536.365 288.196L536.364 336.821L536.202 444.62L564.925 444.7C578.228 444.713 590.854 444.509 603.793 440.932C656.585 426.338 694.941 374.584 689.587 319.45C688.695 310.27 686.571 301.245 684.116 292.375C669.858 251.71 633.681 217.6 590.903 209.709C572.282 206.274 573.451 209.763 568.894 190.628C551.476 126.532 487.024 85.084 421.842 97.3873C387.969 103.781 358.236 125.019 337.979 152.461C325.44 169.449 329.359 169.813 310.514 162.923C304.814 160.839 299.087 159.631 293.104 158.704ZM278.452 427.217L278.445 487.185C278.447 494.134 276.609 516.345 279.814 521.498C282.984 522.656 287.552 522.111 290.939 522.109L514.303 522.047C515.292 522.032 516.657 522.064 517.534 521.529L518.048 521.026C520.633 518.086 519.375 511.411 519.363 507.791L519.234 427.767C518.566 427.126 515.99 427.447 515.016 427.448L278.452 427.217ZM278.442 317.697C278.444 326.661 278.217 409.6 278.751 410.222L519.275 410.134L519.286 317.827L278.442 317.697ZM279.737 279.805C278.335 283.128 278.472 286.318 278.462 289.85L278.477 300.899L510.851 300.912C513.442 300.927 516.277 301.168 518.84 300.876C518.908 299.463 518.785 291.561 519.005 290.998C517.84 290.31 521.677 280.086 512.695 279.503C505.148 279.012 497.35 279.394 489.781 279.39L287.066 279.388C284.629 279.404 282.151 279.915 279.737 279.805Z"/>
	<path fill="#2400EE" transform="scale(0.56125 0.56125)" d="M486.467 355.898L494.321 355.295C502.681 356.083 505.444 366.115 498.147 370.912L497.656 371.23C494.264 373.46 478.878 372.485 474.364 372.496C471.258 370.547 464.926 373.744 460.678 370.32C456.76 367.164 457.397 360.545 460.639 357.188C463.111 354.629 466.721 355.745 469.922 355.782L486.467 355.898Z"/>
	<path fill="#2400EE" transform="scale(0.56125 0.56125)" d="M306.893 356.114L388.053 355.899C392.323 355.902 396.804 355.591 401.037 355.946C411.218 356.801 410.669 371.446 400.828 372.537L317.838 372.567C312.454 372.577 303.165 374.745 300.779 368.117C298.551 361.93 300.913 357.954 306.893 356.114Z"/>
	<path fill="#2400EE" transform="scale(0.56125 0.56125)" d="M463.54 465.445L486.584 465.455C489.3 465.462 494.071 464.883 496.474 465.848C504.331 469.004 503.4 479.637 495.267 482.46C489.369 484.204 468.393 484.622 462.936 482.624C455.042 479.733 456.16 468.601 463.54 465.445Z"/>
	<path fill="#2400EE" transform="scale(0.56125 0.56125)" d="M305.976 466.594L401.172 466.836C410.163 467.314 410.284 481.213 401.055 483.68L316.272 483.718C312.94 483.713 307.814 484.285 304.716 483.055L304.297 482.875C295.555 479.293 298.04 469.409 305.976 466.594Z"/>
</svg>
