<?xml version="1.0" encoding="utf-8" ?>
<svg xmlns="http://www.w3.org/2000/svg" xmlns:xlink="http://www.w3.org/1999/xlink" width="449" height="359">
	<path fill="#7294F7" transform="scale(0.56125 0.56125)" d="M509.152 484.536C510.412 484.446 512.27 485.322 513.464 485.752L522.183 488.763C541.866 494.933 561.955 493.777 580.462 484.675L589.151 480.028C590.492 479.236 592.514 477.51 594.013 477.793C594.962 488.192 597.378 498.536 600.143 508.592L604.886 526.904C606.341 532.648 608.424 539.28 607.796 545.25C606.514 557.446 590.841 565.469 580.307 559.016C571.429 553.577 563.641 542.924 554.164 536.555C540.745 543.263 527.456 566.018 511.191 560.362C496.664 555.31 496.526 543.578 499.577 530.785L501.987 520.934L509.152 484.536Z"/>
	<defs>
		<linearGradient id="gradient_0" gradientUnits="userSpaceOnUse" x1="104.63434" y1="168.66084" x2="681.17548" y2="438.17429">
			<stop offset="0" stop-color="#6785FA"/>
			<stop offset="1" stop-color="#B7E9F4"/>
		</linearGradient>
	</defs>
	<path fill="url(#gradient_0)" transform="scale(0.56125 0.56125)" d="M501.987 520.934C492.059 515.275 482.38 508.905 473.389 501.85L466.379 495.995C463.1 492.975 463.11 491.505 458.513 491.407L189.702 491.422C180.478 491.423 170.719 492.073 161.574 491.112C135.783 488.403 114.833 469.56 107.832 444.708C104.403 432.537 105.476 419.093 105.47 406.558L105.485 201.515C105.49 192.282 104.836 182.498 105.65 173.317C108.219 144.327 132.336 119.112 161.142 115.231C165.48 114.647 170.049 114.862 174.422 114.852L595.991 114.805C604.127 114.806 612.433 114.476 620.55 114.984C645.798 116.562 668.371 135.352 677.058 158.725C680.619 168.307 681.21 177.368 681.224 187.474L681.239 413.501C681.218 443.729 679.672 461.637 649.435 473.295C641.945 476.183 637.776 477.941 631.593 482.95L604.988 504.607C603.658 505.611 601.292 506.862 600.392 508.194L600.143 508.592C597.378 498.536 594.962 488.192 594.013 477.793C592.514 477.51 590.492 479.236 589.151 480.028L580.462 484.675C561.955 493.777 541.866 494.933 522.183 488.763L513.464 485.752C512.27 485.322 510.412 484.446 509.152 484.536L501.987 520.934Z"/>
	<path fill="white" transform="scale(0.56125 0.56125)" d="M200.282 280.225L431.465 280.24C441.249 280.242 451.593 279.578 461.312 280.422C474.65 281.579 477.573 303.252 461.131 305.484L200.871 305.567C185.058 304.697 185.453 283.51 200.282 280.225Z"/>
	<path fill="white" transform="scale(0.56125 0.56125)" d="M247.239 348.29C264.548 347.667 282.613 349.744 296.894 360.556C312.152 372.108 316.766 390.747 304.523 406.422C294.579 419.154 277.515 424.906 262.015 426.764C238.915 428.003 200.151 419.775 197.397 391.428C194.714 363.82 224.018 350.625 247.239 348.29Z"/>
	<path fill="white" transform="scale(0.56125 0.56125)" d="M337.098 174.17L499.558 174.181C504.758 174.186 525.471 172.452 528.978 175.8C537.802 184.222 538.144 198.47 525.255 199.939C522.209 200.286 518.989 200.092 515.923 200.095L442.871 200.11L275.431 200.157C269.096 200.163 262.298 200.684 256.02 200.078C242.911 198.812 242.365 176.767 256.281 174.503C259.376 173.999 262.773 174.201 265.909 174.197L337.098 174.17Z"/>
	<path fill="white" transform="scale(0.56125 0.56125)" d="M215.952 228.547L575.586 228.563C579.646 228.603 582.37 229.258 585.259 232.283C594.428 241.88 588.055 253.881 573.86 253.448L563.77 253.145L211.128 253.158C206.851 253.153 202.347 253.444 198.109 252.932C188.725 251.799 185.403 233.488 198.294 229.189C200.355 228.502 202.929 228.656 205.085 228.631L215.952 228.547Z"/>
	<defs>
		<linearGradient id="gradient_1" gradientUnits="userSpaceOnUse" x1="630.10522" y1="425.76038" x2="461.65604" y2="389.20847">
			<stop offset="0" stop-color="#A2C1F0"/>
			<stop offset="1" stop-color="#6D93FB"/>
		</linearGradient>
	</defs>
	<path fill="url(#gradient_1)" transform="scale(0.56125 0.56125)" d="M509.152 484.536L508.711 484.541C507.246 484.509 505.054 483.194 503.749 482.544C452.043 456.83 444.246 384.285 486.807 346.757C523.51 314.395 579.782 315.772 612.456 353.17C644.489 389.835 639.027 447.879 598.247 475.249C597.064 476.043 595.335 476.529 594.334 477.474L594.013 477.793C592.514 477.51 590.492 479.236 589.151 480.028L580.462 484.675C561.955 493.777 541.866 494.933 522.183 488.763L513.464 485.752C512.27 485.322 510.412 484.446 509.152 484.536Z"/>
	<path fill="#B1E3F8" transform="scale(0.56125 0.56125)" d="M542.068 362.729C553.059 360.991 566.697 365.459 575.643 371.786C609.668 395.853 595.866 447.78 552.391 454.728C487.306 460.506 480.025 371.677 542.068 362.729Z"/>
</svg>
