<?xml version="1.0" encoding="utf-8" ?>
<svg xmlns="http://www.w3.org/2000/svg" xmlns:xlink="http://www.w3.org/1999/xlink" width="323" height="323">
	<path fill="#7294F7" transform="scale(0.505839 0.505839)" d="M191.171 380.684C192.947 381.129 195.172 383.504 196.513 384.772L251.395 439.436C253.449 441.427 259.477 446.113 259.524 449.106L171.2 539.936C166.136 545.276 161.12 550.797 155.115 555.111C107.493 589.32 51.4672 530.259 85.1108 483.906C88.7351 478.913 93.3942 474.693 97.9149 470.535L162.741 408.67C172.287 399.46 182.278 390.539 191.171 380.684Z"/>
	<defs>
		<linearGradient id="gradient_0" gradientUnits="userSpaceOnUse" x1="565.89435" y1="302.7634" x2="171.68114" y2="243.60857">
			<stop offset="0" stop-color="#637CFE"/>
			<stop offset="1" stop-color="#B6EAF2"/>
		</linearGradient>
	</defs>
	<path fill="url(#gradient_0)" transform="scale(0.505839 0.505839)" d="M191.171 380.684L190.69 380.356C187.873 378.377 185.087 375.467 182.585 373.064C166.257 357.39 156.567 333.535 161.154 310.908L162.5 302.561C169.407 268.26 203.618 220.576 233.14 200.544C240.853 195.31 249.22 191.09 256.822 185.705C269.44 176.768 280.836 166.34 292.782 156.559C308.469 143.715 324.473 131.484 339.376 117.694L379.809 77.3963C382.722 74.3231 385.57 71.1426 389.062 68.7048C403.902 58.3456 425.014 66.0506 428.179 84.375L428.255 84.8C429.874 94.6285 426.087 100.693 419.609 107.174L281.654 244.134C276.901 248.948 271.308 254.058 267.744 259.837C256.36 278.299 274.059 307.329 295.918 303.95L298.26 303.425C308.054 300.841 331.338 273.107 339.43 265.156L457.418 147.704C460.512 144.614 463.61 141.452 467.537 139.414C480.741 132.561 497.287 140.464 501.278 154.471L501.577 155.625C505.462 170.749 493.934 178.483 484.621 188.116L469.338 204.347L351.479 320.729C348.014 324.409 344.532 328.202 342.074 332.653C330.553 353.52 363.309 383.239 384.662 365.254C390.164 360.62 394.947 355.206 400.082 350.186L525.083 227.337C529.526 222.859 533.763 216.999 539.362 213.98C560.513 202.575 584.963 225.082 573.633 247.155C570.38 253.492 564.55 258.327 559.505 263.205L545.04 277.236C533.495 288.546 521.553 299.966 510.975 312.188C501.381 323.273 492.92 335.27 484.145 347.001L436.019 411.009C413.012 439.463 383.612 463.167 348.299 474.262C328.609 480.449 305.891 482.494 287.001 472.632C281.109 469.557 261.914 455.547 259.524 449.106C259.477 446.113 253.449 441.427 251.395 439.436L196.513 384.772C195.172 383.504 192.947 381.129 191.171 380.684Z"/>
</svg>
