<?xml version="1.0" encoding="utf-8" ?>
<svg xmlns="http://www.w3.org/2000/svg" xmlns:xlink="http://www.w3.org/1999/xlink" width="493" height="493">
	<defs>
		<linearGradient id="gradient_0" gradientUnits="userSpaceOnUse" x1="557.54053" y1="341.88297" x2="275.56442" y2="356.60785">
			<stop offset="0" stop-color="#1B07FF"/>
			<stop offset="1" stop-color="#9500FF"/>
		</linearGradient>
	</defs>
	<path fill="url(#gradient_0)" transform="scale(0.771462 0.771462)" d="M394.186 206.47L509.697 206.589C513.39 206.578 517.731 206.087 521.331 206.735C541.373 210.341 552.481 225.796 552.511 245.344L552.468 450.13C552.136 468.66 542.499 485.017 522.812 488.54C519.362 489.157 515.266 488.766 511.739 488.771L489.513 488.755L303.227 488.75C302.274 487.959 300.987 488.097 299.95 488.098L293.366 488.083C291.264 488.05 289.7 487.867 287.972 486.719L287.422 486.797C286.852 486.455 286.726 486.612 286.094 486.716L283.986 485.938C283.631 485.406 283.747 485.511 283.127 485.234L282.716 484.443C281.468 483.189 282.343 482.086 282.347 480.625L282.734 480.234C282.455 479.86 282.502 480.052 282.502 479.689L282.891 477.814L284.375 478.125C285.692 476.821 288.009 477.306 289.688 477.291L331.041 477.158L485.173 476.529L505.517 476.497C521.894 476.449 539.67 474.327 539.786 452.53L539.72 247.554C539.708 234.573 535.555 222.21 520.814 219.216C517.264 218.495 513.24 218.837 509.622 218.834L423.927 218.85L385.11 218.283C383.656 215.152 384.19 212.383 384.469 209.189L385.041 206.846C387.932 207.068 390.938 207.207 393.783 206.567L394.186 206.47Z"/>
	<defs>
		<linearGradient id="gradient_1" gradientUnits="userSpaceOnUse" x1="92.851051" y1="295.67337" x2="421.39441" y2="302.46512">
			<stop offset="0" stop-color="#F400F5"/>
			<stop offset="1" stop-color="#6800FF"/>
		</linearGradient>
	</defs>
	<path fill="url(#gradient_1)" transform="scale(0.771462 0.771462)" d="M303.227 488.402L130.211 488.763C127.609 488.758 124.9 488.845 122.352 488.241L120.004 487.691C105.491 484.087 94.8517 470.36 93.871 455.641C93.6166 451.822 93.7853 447.889 93.7892 444.06L93.8177 255.949C93.8296 249.368 93.1961 241.821 95.0146 235.441C101.582 212.401 115.237 206.67 138.77 206.681L221.978 206.68C234.749 206.676 247.858 207.292 260.57 206.056L260.162 195.482C259.675 184.678 261.156 183.533 272.565 182.93L272.49 162.782C272.488 144.215 276.858 129.598 292.879 117.701C305.389 108.411 327.85 104.684 342.269 112.296C357.336 116.951 370.305 134.754 372.479 150.312C372.943 153.632 372.666 157.251 372.65 160.605L372.742 182.85C376.28 182.846 382.4 182.382 384.962 185.245C386.33 186.774 385.693 203.404 385.691 206.376L394.186 206.581L393.783 206.567C390.938 207.207 387.932 207.068 385.041 206.846L384.469 209.189C384.19 212.383 383.656 215.152 385.11 218.283L423.927 218.872L385.363 218.89C385.43 231.255 384.497 242.694 371.406 247.164L370.858 247.359C367.315 248.562 363.136 248.379 359.419 248.391L345.693 248.388L285.896 248.384C266.112 248.303 260.28 241.829 260.261 222.231C260.257 218.078 260.751 218.901 256.578 218.856L129.218 218.991C114.684 219.729 106.438 230.128 105.791 244.48L105.751 452.456C106.179 462.156 110.74 470.694 120.191 474.454L122.2 475.181C131.01 478.294 144.214 476.529 153.512 476.529L331.041 476.533L289.688 477.291C288.009 477.306 285.692 476.821 284.375 478.125L282.891 477.814L282.502 479.689C282.502 480.052 282.455 479.86 282.734 480.234L282.347 480.625C282.343 482.086 281.468 483.189 282.716 484.443L283.127 485.234C283.747 485.511 283.631 485.406 283.986 485.938L286.094 486.716C286.726 486.612 286.852 486.455 287.422 486.797L287.972 486.719C289.7 487.867 291.264 488.05 293.366 488.083L299.95 488.098C300.987 488.097 302.274 487.959 303.227 488.402ZM318.678 236.008L347.561 235.994C353.23 235.978 367.217 237.421 371.585 232.785C373.302 230.963 372.53 222.936 372.532 220.41L372.51 195.762C360.796 194.699 360.992 192.795 360.975 182.411L360.958 164.977C360.789 149.037 355.841 136.916 342.734 126.784C324.112 116.705 300.591 120.243 289.762 140.066C284.915 148.939 285.174 157.803 285.187 167.591L285.246 185.654C285.279 195.679 284.91 195.717 273.189 196.184L273.244 219.595C273.265 226.39 270.671 234.339 279.278 235.619C284.082 236.333 289.208 236.005 294.064 236.016L318.678 236.008Z"/>
	<path fill="#9004FE" transform="scale(0.771462 0.771462)" d="M313.606 145.743L325.308 145.574C328.146 145.579 331.973 145.15 334.593 146.364L336.534 147.246C340.943 149.507 342.926 157.473 336.719 158.711L333.351 158.946L318.201 158.745C315.472 158.74 311.221 159.271 308.856 157.832C301.64 153.44 304.78 146.774 313.606 145.743Z"/>
	<path fill="#9004FE" transform="scale(0.771462 0.771462)" d="M335.705 436.898C342.359 435.982 345.214 444.187 339.038 447.706C331 449.003 329.941 440.482 335.705 436.898Z"/>
	<defs>
		<linearGradient id="gradient_2" gradientUnits="userSpaceOnUse" x1="332.27307" y1="331.6973" x2="401.62766" y2="263.15009">
			<stop offset="0" stop-color="#9700F9"/>
			<stop offset="1" stop-color="#5701FF"/>
		</linearGradient>
	</defs>
	<path fill="url(#gradient_2)" transform="scale(0.771462 0.771462)" d="M322.516 291.339L417.248 291.302C422.9 291.293 433.827 288.979 433.84 297.656C433.85 304.301 427.684 303.943 422.754 303.915L411.697 303.838L318.877 303.823C314.592 303.819 310.194 304.01 305.923 303.763C299.146 303.372 298.393 294.553 304.297 291.721C305.489 291.15 307.977 291.4 309.341 291.391L322.516 291.339Z"/>
	<path fill="#2400EE" transform="scale(0.771462 0.771462)" d="M508.327 435.822C520.492 435.444 518.821 448.504 512.5 448.713L366.167 448.729C351.924 448.949 356.085 436.919 362.188 436.151C366.372 435.624 371.018 435.995 375.252 435.993L508.327 435.822Z"/>
	<defs>
		<linearGradient id="gradient_3" gradientUnits="userSpaceOnUse" x1="476.28406" y1="340.43286" x2="337.31732" y2="444.36841">
			<stop offset="0" stop-color="#2804FF"/>
			<stop offset="1" stop-color="#8C00FF"/>
		</linearGradient>
	</defs>
	<path fill="url(#gradient_3)" transform="scale(0.771462 0.771462)" d="M350.199 386.258L491.932 386.242C497.351 386.244 503.137 385.835 508.521 386.331C515.56 386.98 514.918 398.444 507.95 398.844C502.489 399.158 496.778 398.762 491.289 398.759L337.673 398.745L316.065 398.75C312.641 398.746 308.781 399.081 305.404 398.577C299.633 397.715 295.388 386.288 309.451 386.257L350.199 386.258Z"/>
	<defs>
		<linearGradient id="gradient_4" gradientUnits="userSpaceOnUse" x1="473.27255" y1="292.12814" x2="340.83725" y2="398.39719">
			<stop offset="0" stop-color="#2603FF"/>
			<stop offset="1" stop-color="#9400FE"/>
		</linearGradient>
	</defs>
	<path fill="url(#gradient_4)" transform="scale(0.771462 0.771462)" d="M463.244 351.559L323.839 351.591C318.067 351.588 312.092 351.885 306.338 351.508C297.905 350.955 298.355 339.768 306.519 338.991C311.805 338.488 317.366 338.84 322.686 338.838L454.461 338.839L490.94 338.859C496.977 338.865 503.479 338.387 509.453 339.049C515.078 339.672 516.188 350.388 509.776 351.403C505.331 352.107 499.946 351.558 495.386 351.562L463.244 351.559Z"/>
	<path fill="#D400F1" transform="scale(0.771462 0.771462)" d="M197.598 257.299C213.43 255.024 232.732 264.888 240.44 278.808C246.592 289.917 246.067 301.736 242.708 313.701C240.221 322.56 240.395 325.345 240.014 334.534C239.147 355.444 225.831 370.379 204.617 371.909C171.562 374.551 163.649 352.425 159.214 324.437L156.487 309.759C152.855 283.143 171.188 260.506 197.598 257.299ZM196.325 300.387C165.433 305.786 166.671 365.574 205.49 358.488C224.273 353.405 226.754 342.303 226.641 325.005C226.518 306.064 215.191 298.9 196.325 300.387ZM197.331 269.749C180.888 272.966 166.787 286.916 167.241 304.202C176.213 295.156 183.598 289.287 196.485 288.133C201.482 287.801 206.619 287.72 211.562 288.642L211.934 288.709C218.899 290.013 224.312 292.729 229.635 297.35C229.989 297.657 230.901 298.647 231.294 298.561C231.117 280.875 217.832 269.368 200.312 269.596L197.331 269.749Z"/>
	<path fill="#D400F1" transform="scale(0.771462 0.771462)" d="M233.84 381.719C235.93 381.744 238.201 382.533 240.191 383.157C256.141 388.156 272.976 397.834 277.709 414.999C278.902 419.327 281.745 445.171 279.428 449.23C278.204 450.146 275.683 450.014 274.192 450.072L150.156 450.128L135.469 450.166C122.9 450.331 124.644 450.601 124.692 436.466C124.781 410.44 127.785 398.88 152.856 387.344C169.33 379.764 168.541 380.564 176.99 392.969C186.792 407.36 210.912 407.345 222.051 394.585C225.376 390.777 228.646 382.936 233.84 381.719ZM237.33 396.719C234.859 399.408 232.713 402.359 230.138 404.956C215.823 419.394 189.117 422.577 173.621 408.183C170.209 405.014 167.642 401.439 165.013 397.622C154.367 399.305 140.58 404.958 138.297 416.65C136.986 423.36 137.446 430.721 137.463 437.545L147.749 437.555L266.992 437.569C266.594 425.892 265.414 414.472 256.375 405.966C253.915 403.651 241.01 395.07 237.33 396.719Z"/>
</svg>
