<?xml version="1.0" encoding="utf-8" ?>
<svg xmlns="http://www.w3.org/2000/svg" xmlns:xlink="http://www.w3.org/1999/xlink" width="448" height="359">
	<path fill="#7294F7" transform="scale(0.56125 0.56125)" d="M594.236 304.912C606.077 304.203 616.785 311.397 618.129 323.77L618.177 324.298C619.087 333.614 618.875 344.469 617.901 353.738C622.671 355.42 627.078 357.771 631.298 360.541C634.469 362.622 634.745 364.499 638.088 362.514L650.999 353.997C657.496 349.47 664.087 344.357 672.522 345.392C685.992 347.043 694.03 360.546 692.174 373.333C690.03 388.108 671.527 392.575 660.817 400.35C662.954 409.372 662.991 418.519 661.217 427.589L685.442 441.023C702.071 452.446 691.674 479.377 673.587 482.401C661.157 484.479 648.681 473.909 639.203 467.119C636.382 469.494 633.524 471.93 630.427 473.944C622.735 478.946 616.648 477.749 617.005 485.6L617.292 503.443C617.326 517.21 614.159 526.58 598.209 529.802C573.386 531.994 571.272 511.199 572.91 492.184L573.344 480.803C571.458 479.167 569.11 478.685 566.946 477.507C545.536 465.848 558.81 462.716 531.826 478.522C511.009 490.715 492.306 469.898 498.118 450.406C500.062 443.886 505.469 440.894 510.917 437.604L526.389 429.029C531.614 426.212 530.134 426.817 529.761 421.023C529.322 414.189 529.911 407.64 531.883 401.071C523.494 393.419 511.26 390.653 504.942 380.472C494.664 363.909 510.975 341.476 526.535 345.981L526.953 346.113C535.38 348.683 548.194 358.637 555.159 364.129C561.137 359.999 567.503 357.157 574.121 354.237C574.506 351.029 573.473 341.897 573.446 337.693C573.34 320.674 574.356 307.235 594.236 304.912ZM592.248 392.76C560.583 400.37 568.146 447.637 600.395 441.407C631.254 434.601 623.975 389.703 592.248 392.76Z"/>
	<path fill="#B1E3F8" transform="scale(0.56125 0.56125)" d="M198.672 288.387L144.789 288.522C134.842 288.651 137.324 276.201 137.319 269.698L137.306 161.621C137.32 157.352 136.94 152.525 137.801 148.339C142.969 123.196 161.166 102.289 186.79 96.8168C196.43 94.758 206.878 95.4095 216.695 95.4214L384.568 95.4264L321.573 159.012L209.077 275.336L198.672 288.387Z"/>
	<defs>
		<linearGradient id="gradient_0" gradientUnits="userSpaceOnUse" x1="458.69638" y1="331.31393" x2="323.92703" y2="139.15712">
			<stop offset="0" stop-color="#7AA0F8"/>
			<stop offset="1" stop-color="#A2C6F5"/>
		</linearGradient>
	</defs>
	<path fill="url(#gradient_0)" transform="scale(0.56125 0.56125)" d="M384.568 95.6939L487.516 95.4168C520.202 95.5067 543.787 114.28 550.445 147.212C551.225 151.072 550.848 155.56 550.857 159.488L550.827 258.163C550.601 275.153 544.782 271.586 529.952 276.691C522.248 279.344 514.77 282.708 506.926 284.936C491.004 289.461 474.88 288.317 458.516 288.322L198.672 288.318L209.077 275.336L321.573 159.012L384.568 95.6939Z"/>
	<defs>
		<linearGradient id="gradient_1" gradientUnits="userSpaceOnUse" x1="397.33823" y1="550.85254" x2="237.44817" y2="267.86612">
			<stop offset="0" stop-color="#6385F9"/>
			<stop offset="1" stop-color="#A1C4F5"/>
		</linearGradient>
	</defs>
	<path fill="url(#gradient_1)" transform="scale(0.56125 0.56125)" d="M414.249 318.787C416.004 318.495 418.31 318.783 420.144 318.783L475.195 318.616C488.212 318.851 471.44 336.617 469.665 338.931L463.707 347.304C438.525 384.482 431.937 438.992 456.018 478.522L470.273 498.352C476.898 506.633 475.485 510.303 465.768 510.24L236.523 510.203L208.14 510.238C200.965 510.238 193.6 510.728 186.552 509.24C163.263 504.324 141.236 483.769 137.854 459.499C136.476 449.612 137.28 438.799 137.285 428.806L137.288 343.246C137.293 334.454 135.235 319.312 148.392 318.822L414.249 318.787Z"/>
</svg>
