<?xml version="1.0" standalone="no"?>
<!DOCTYPE svg PUBLIC "-//W3C//DTD SVG 20010904//EN"
 "http://www.w3.org/TR/2001/REC-SVG-20010904/DTD/svg10.dtd">
<svg version="1.0" xmlns="http://www.w3.org/2000/svg"
 width="650.000000pt" height="673.000000pt" viewBox="0 0 650.000000 673.000000"
 preserveAspectRatio="xMidYMid meet">

<g transform="translate(0.000000,673.000000) scale(0.100000,-0.100000)"
fill="#000000" stroke="none">
<path d="M3040 6627 c-3 -3 -34 -7 -70 -11 -98 -10 -122 -14 -200 -35 -247
-69 -481 -204 -656 -379 -195 -195 -350 -471 -399 -708 -5 -27 -13 -33 -73
-53 -76 -26 -163 -72 -272 -145 -62 -41 -207 -188 -269 -273 -53 -72 -54 -73
-136 -98 -229 -70 -480 -249 -630 -450 -83 -112 -182 -311 -210 -425 -2 -8
-12 -42 -21 -75 -13 -46 -18 -101 -18 -240 -1 -194 5 -236 56 -395 80 -253
204 -439 397 -598 151 -124 229 -174 356 -224 105 -43 138 -51 265 -73 81 -14
181 -17 696 -15 l602 1 74 -65 75 -66 6 -82 c4 -46 7 -138 7 -205 l0 -122 87
-91 c63 -67 84 -95 77 -105 -5 -7 -46 -54 -91 -104 l-83 -91 0 -88 0 -87 110
-110 110 -109 -105 -107 -105 -106 0 -76 0 -75 242 -236 c234 -228 244 -236
282 -236 39 0 47 7 273 234 l233 234 0 78 0 78 -77 78 -76 79 71 72 72 72 1
545 0 545 85 72 85 73 634 0 c599 0 638 1 736 21 246 48 456 150 627 302 62
56 178 184 219 243 53 77 166 327 176 391 3 17 8 36 11 41 3 5 8 29 10 53 3
24 8 55 12 69 10 42 13 284 3 336 -5 27 -12 65 -15 84 -10 68 -65 229 -101
297 -101 190 -230 342 -393 463 -104 76 -298 172 -401 197 l-76 18 -54 73
c-136 186 -340 341 -538 409 l-78 27 -18 71 c-24 96 -95 264 -157 371 -89 156
-238 320 -395 438 -138 103 -418 234 -554 259 -13 3 -36 8 -51 12 -15 4 -42 9
-60 11 -60 6 -304 15 -308 11z m275 -282 c262 -45 481 -159 685 -357 120 -116
241 -320 294 -498 15 -47 47 -230 44 -249 -4 -34 4 -41 45 -41 119 0 283 -59
401 -145 125 -90 244 -224 287 -326 l21 -49 49 0 c58 0 168 -29 244 -64 139
-63 307 -206 399 -337 64 -92 130 -238 152 -334 27 -120 25 -375 -3 -470 -60
-202 -174 -379 -340 -529 -79 -70 -208 -142 -328 -181 -156 -51 -212 -55 -729
-55 -455 0 -478 1 -465 18 24 27 85 133 104 177 33 78 75 221 85 290 22 154 4
368 -40 480 -6 17 -14 39 -16 50 -8 40 -115 242 -158 300 -146 191 -351 339
-566 405 l-85 27 -2 117 c-1 97 -5 124 -23 161 -39 81 -140 145 -228 145 -74
0 -139 -28 -187 -82 -57 -63 -75 -122 -75 -245 0 -66 -4 -95 -12 -97 -124 -35
-241 -84 -303 -126 -24 -16 -46 -30 -50 -30 -9 0 -87 -60 -153 -118 -85 -74
-201 -233 -254 -350 -95 -209 -131 -458 -93 -654 28 -150 87 -303 155 -403 14
-22 30 -46 34 -53 6 -11 -84 -12 -496 -10 -489 4 -505 4 -583 27 -44 12 -111
36 -149 52 -271 115 -516 409 -592 709 -15 60 -19 107 -17 230 1 136 4 166 28
245 80 272 244 490 459 610 82 45 214 92 286 100 30 4 55 7 56 8 124 246 287
399 507 476 68 24 106 31 162 31 l72 0 6 48 c33 288 164 561 366 763 98 98
138 129 236 187 128 75 259 120 450 155 57 10 240 6 320 -8z m-121 -1696 c14
-17 26 -36 26 -42 0 -7 0 -196 0 -422 0 -382 -1 -412 -19 -435 -13 -18 -29
-26 -58 -28 -35 -3 -44 1 -67 28 l-26 32 0 415 0 415 34 34 c43 43 76 44 110
3z m-314 -550 l0 -181 -34 -39 c-56 -66 -98 -159 -101 -227 -6 -105 33 -213
106 -296 186 -211 548 -139 648 129 26 70 28 190 5 260 -9 26 -39 77 -66 112
l-49 65 3 175 3 174 26 -5 c96 -19 302 -149 400 -253 120 -128 216 -297 245
-434 21 -100 24 -137 23 -233 -3 -289 -119 -527 -344 -712 -77 -63 -164 -116
-230 -140 l-60 -22 -3 -618 -2 -619 -96 -96 -96 -97 107 -111 108 -111 -133
-138 c-74 -75 -148 -152 -165 -170 l-31 -33 -169 171 c-94 94 -171 174 -173
179 -2 5 40 53 92 107 l95 99 1 78 0 79 -105 111 c-58 61 -105 116 -105 121 0
6 47 58 104 115 l105 103 3 64 3 64 -103 103 -102 102 0 246 0 245 -60 27
c-201 93 -360 258 -470 489 -59 124 -72 183 -77 353 -4 137 -2 159 21 250 62
242 195 430 413 582 67 47 207 110 251 112 9 1 12 -41 12 -180z m70 -461 c0
-12 19 -40 44 -64 105 -100 281 -69 343 61 13 29 14 28 10 -31 -3 -51 -8 -68
-35 -102 -64 -80 -158 -101 -261 -59 -80 33 -114 79 -119 164 -3 47 -1 64 7
59 6 -4 11 -17 11 -28z"/>
</g>
</svg>
