<?xml version="1.0" encoding="utf-8" ?>
<svg xmlns="http://www.w3.org/2000/svg" xmlns:xlink="http://www.w3.org/1999/xlink" width="493" height="493">
	<path fill="#8400FB" transform="scale(0.771462 0.771462)" d="M359.053 229.731C366.101 229.941 370.298 241.463 359.145 243.794C347.93 242.432 349.726 232.323 359.053 229.731Z"/>
	<path fill="#8400FB" transform="scale(0.771462 0.771462)" d="M356.595 181.3C366.562 180.511 369.895 192.073 360.61 195.134C350.463 195.909 347.889 185.747 356.595 181.3Z"/>
	<path fill="#8400FB" transform="scale(0.771462 0.771462)" d="M207.96 426.959L325.173 426.953C329.76 426.951 334.689 426.59 339.238 427.094C346.414 427.889 347.566 436.021 340.625 438.513L340.148 438.688C337.744 439.505 334.947 439.328 332.438 439.337L290.868 439.362L291.697 438.83C292.056 438.666 292.201 438.514 292.61 438.467L292.969 438.438C299.934 437.413 316.27 439.702 320.808 438.148L321.094 438.043C326.063 436.454 328.075 433.143 328.909 428.38L328.55 428.007C325.622 427.4 322.438 427.643 319.457 427.644L302.845 427.62C300.265 427.569 297.72 427.047 295.156 427.012L207.96 426.959Z"/>
	<path fill="#8400FB" transform="scale(0.771462 0.771462)" d="M271.539 537.89L367.263 537.491L366.975 538.022C363.332 538.663 356.701 536.862 357.157 539.867C357.552 542.47 355.02 546.781 353.175 548.468L349.702 549.587C352.486 550.154 355.873 549.729 358.75 549.818L345.57 549.84L251.383 549.87C256.56 549.478 262.001 549.847 267.207 549.822L311.875 549.769C315.634 549.758 317.312 549.2 320.774 548.646L321.094 548.597C321.543 548.148 321.584 548.284 322.188 548.284L323.906 547.347C324.454 546.705 324.9 546.087 325.11 545.255L325.547 544.609C325.484 544.206 325.454 543.919 325.535 543.512L325.627 543.127C325.82 542.183 326.77 539.823 327.344 539.222L327.034 538.539C326.57 538.568 326.173 538.587 325.703 538.505L325.286 538.388C324.089 538.122 322.639 538.266 321.407 538.266L285.385 538.257C280.798 538.209 276.102 538.358 271.539 537.89Z"/>
	<path fill="#D400F1" transform="scale(0.771462 0.771462)" d="M393.165 231.27L433.709 231.503C443.859 231.331 442.445 241.832 435.968 243.749C428.044 244.101 419.835 243.599 411.866 243.618L398.922 243.649C397.099 243.653 394.809 243.901 393.04 243.504C388.199 242.419 386.699 234.84 393.165 231.27Z"/>
	<path fill="#8400FB" transform="scale(0.771462 0.771462)" d="M315.886 329.507L380.455 329.024C383.077 329.025 385.86 328.844 388.463 329.132C395.037 329.858 396.735 338.454 390.312 340.98L389.801 341.191C387.482 341.928 384.132 341.536 381.69 341.538L308.569 341.532L318.569 341.39C320.858 341.275 323.044 340.81 325.359 340.788C329.763 340.747 345.896 343.249 346.976 336.938L347.547 333.457C347.625 332.776 347.647 332.151 347.823 331.483L347.4 330.143C342.748 329.449 337.702 329.845 332.999 329.847L315.886 329.507Z"/>
	<path fill="#D400F1" transform="scale(0.771462 0.771462)" d="M395.256 181.98C400.083 181.677 434.678 181.431 436.875 182.637C443.891 186.49 441.938 193.226 434.766 194.688L405.277 194.813C401.59 194.818 397.144 195.382 393.555 194.804C386.506 193.669 385.592 183.285 395.256 181.98Z"/>
	<path fill="#D400F1" transform="scale(0.771462 0.771462)" d="M272.423 280.111L417.431 280.086C423.095 280.089 429.176 279.651 434.797 280.193C442.895 280.974 442.284 291.463 434.73 292.698C431.489 293.227 427.866 293.016 424.58 293.028L348.671 293.053C353.022 291.76 357.683 292.039 362.127 292.037L379.926 292.037C389.85 292.037 392.017 293.082 392.031 281.483C389.287 279.12 382.362 280.191 378.977 280.184L272.423 280.111Z"/>
	<path fill="#2400EE" transform="scale(0.771462 0.771462)" d="M290.868 439.14L166.658 439.426C163.059 439.442 159.138 439.846 155.59 439.404C149.209 438.61 149.357 427.112 156.094 426.734C161.098 426.453 166.377 426.893 171.422 426.903L207.96 426.957L295.156 427.012C297.72 427.047 300.265 427.569 302.845 427.62L319.457 427.644C322.438 427.643 325.622 427.4 328.55 428.007L328.909 428.38C328.075 433.143 326.063 436.454 321.094 438.043L320.808 438.148C316.27 439.702 299.934 437.413 292.969 438.438L292.61 438.467C292.201 438.514 292.056 438.666 291.697 438.83L290.868 439.14Z"/>
	<path fill="#2400EE" transform="scale(0.771462 0.771462)" d="M295.711 490.244L169.372 490.293C165.243 490.305 160.97 490.663 156.864 490.455C148.987 490.055 150.55 478.088 156.287 477.284C161.06 476.615 166.027 477.773 170.781 477.914L305.786 478.018L326.657 477.997C329.589 477.998 333.199 477.597 336.065 478.123C342.82 479.362 343.419 488.635 336.152 489.952C332.018 490.701 327.062 490.204 322.83 490.212L295.711 490.244Z"/>
	<path fill="#8400FB" transform="scale(0.771462 0.771462)" d="M305.786 478.159L326.657 477.997C329.589 477.998 333.199 477.597 336.065 478.123C342.82 479.362 343.419 488.635 336.152 489.952C332.018 490.701 327.062 490.204 322.83 490.212L295.711 490.244L297.656 489.847C299.81 489.58 302.112 489.534 304.297 489.453L302.969 488.924L304.219 488.909C305.068 489.47 310.568 488.946 311.877 488.975L330.367 488.915C335.634 488.908 335.672 490.53 338.483 486.05C340.688 482.536 339.994 479.334 335.695 478.937L335.156 478.903C326.115 477.656 316.242 480.279 306.039 478.214L305.786 478.159Z"/>
	<path fill="#2400EE" transform="scale(0.771462 0.771462)" d="M308.569 341.529L171.389 341.556C166.623 341.56 161.375 342.034 156.672 341.535C149.714 340.797 149.668 329.277 156.406 328.83C161.23 328.51 166.407 328.948 171.273 328.955L315.886 329.029L332.999 329.847C337.702 329.845 342.748 329.449 347.4 330.143L347.823 331.483C347.647 332.151 347.625 332.776 347.547 333.457L346.976 336.938C345.896 343.249 329.763 340.747 325.359 340.788C323.044 340.81 320.858 341.275 318.569 341.39L308.569 341.529Z"/>
	<path fill="#2400EE" transform="scale(0.771462 0.771462)" d="M287.623 390.338L168.386 390.379C164.554 390.391 160.353 390.863 156.562 390.495C149.639 389.822 149.157 378.518 155.328 377.58C158.801 377.053 163.017 377.533 166.573 377.537L288.019 377.589L335.03 377.57C336.83 377.574 338.826 377.421 340.603 377.709C345.942 378.575 347.688 385.835 343.125 388.774L342.793 388.99C339.031 391.329 295.686 390.337 287.623 390.338Z"/>
	<path fill="#2400EE" transform="scale(0.771462 0.771462)" d="M348.671 292.803L157.224 293.34C149.488 292.643 148.708 280.521 156.719 280.033C160.473 279.804 164.394 280.064 168.167 280.067L272.423 280.099L378.977 280.184C382.362 280.191 389.287 279.12 392.031 281.483C392.017 293.082 389.85 292.037 379.926 292.037L362.127 292.037C357.683 292.039 353.022 291.76 348.671 292.803Z"/>
	<defs>
		<linearGradient id="gradient_0" gradientUnits="userSpaceOnUse" x1="494.19525" y1="239.91763" x2="302.27792" y2="212.14555">
			<stop offset="0" stop-color="#F500F7"/>
			<stop offset="1" stop-color="#3A00FF"/>
		</linearGradient>
	</defs>
	<path fill="url(#gradient_0)" transform="scale(0.771462 0.771462)" d="M405.838 137.334L446.413 137.314C453.155 137.323 459.284 138.104 465.371 141.182C484.685 150.948 481.416 170.853 481.421 188.444L481.536 319.971C481.641 325.411 483.087 337.069 472.855 333.385C466.044 330.932 468.291 316.926 468.286 310.612L468.308 179.6C468.335 169.033 468.72 156.393 457.031 151.326L454.688 150.575C451.1 149.583 447.69 149.689 444.001 149.679L403.959 150.297L317.316 150.29L360.939 149.532C361.491 149.453 362.291 149.2 362.814 149.19L363.203 149.263C363.853 148.674 367.848 148.284 368.75 148.284L369.219 147.972C372.155 148.041 373.61 145.933 374.847 143.438L375.314 142.502C375.641 141.698 376.129 141.272 376.719 140.625L377.031 139.222C376.49 138.46 376.045 138.835 375.234 138.194L374.844 138.31C369.776 135.531 358.146 138.121 352.148 137.912L312.74 137.359L405.838 137.334Z"/>
	<path fill="#2400EE" transform="scale(0.771462 0.771462)" d="M156.565 181.945C163.702 181.552 171.057 181.899 178.214 181.906L317.041 181.935C325.616 182.111 325.139 188.052 325.125 194.437L325.189 228.539C325.225 234.296 328.138 242.61 320.647 244.343L159.945 244.628C147.958 244.783 151.209 237.826 151.2 227.796L151.14 190.644C151.128 185.63 151.636 184.107 156.565 181.945ZM164.105 194.734L164.1 220.927C164.101 224.156 163.607 228.474 164.259 231.576L312.044 231.697L312.052 194.946L164.105 194.734Z"/>
	<defs>
		<linearGradient id="gradient_1" gradientUnits="userSpaceOnUse" x1="88.521233" y1="286.45264" x2="524.75983" y2="353.75549">
			<stop offset="0" stop-color="#0702F7"/>
			<stop offset="1" stop-color="#EB00FF"/>
		</linearGradient>
	</defs>
	<path fill="url(#gradient_1)" transform="scale(0.771462 0.771462)" d="M251.383 549.875L158.353 549.882C153.647 549.88 148.733 550.113 144.054 549.597C124.82 547.48 107.986 529.548 107.002 510.168L106.899 173.351C106.955 164.709 108.155 155.79 113.692 148.723C121.495 138.764 129.497 138.177 140.622 136.853L140.584 132.735C140.439 107.379 143.376 93.6386 171.498 93.6699L274.011 93.7376L456.27 93.7343L475.451 93.7186C490.713 93.7155 501.466 94.1582 513.392 105.994C526.434 118.938 524.7 136 524.704 152.722L524.707 354.222C524.672 364.133 512.143 364.121 511.406 354.891C510.912 348.704 511.338 342.157 511.352 335.939L511.352 141.059C511.33 135.746 511.399 130.171 509.408 125.156L509.207 124.637C501.446 104.985 487.001 105.766 469.493 106.128C465.573 106.209 461.323 105.819 457.461 106.249L267.835 106.242L175.273 106.289C171.65 106.297 167.609 105.997 164.042 106.593L161.765 107.186C151.385 110.297 152.861 127.95 153.749 137.13L312.74 137.352L352.148 137.912C358.146 138.121 369.776 135.531 374.844 138.31L375.234 138.194C376.045 138.835 376.49 138.46 377.031 139.222L376.719 140.625C376.129 141.272 375.641 141.698 375.314 142.502L374.847 143.438C373.61 145.933 372.155 148.041 369.219 147.972L368.75 148.284C367.848 148.284 363.853 148.674 363.203 149.263L362.814 149.19C362.291 149.2 361.491 149.453 360.939 149.532L317.316 150.281L160.748 150.32C148.575 150.325 128.097 147.371 121.783 160.921L121.547 161.417C120.321 164.096 120.111 167.308 120.02 170.214L119.933 497.3C119.926 502.929 119.409 509.063 120.839 514.531C124.561 528.767 136.596 536.819 150.997 537.389L271.539 537.502C276.102 538.358 280.798 538.209 285.385 538.257L321.407 538.266C322.639 538.266 324.089 538.122 325.286 538.388L325.703 538.505C326.173 538.587 326.57 538.568 327.034 538.539L327.344 539.222C326.77 539.823 325.82 542.183 325.627 543.127L325.535 543.512C325.454 543.919 325.484 544.206 325.547 544.609L325.11 545.255C324.9 546.087 324.454 546.705 323.906 547.347L322.188 548.284C321.584 548.284 321.543 548.148 321.094 548.597L320.774 548.646C317.312 549.2 315.634 549.758 311.875 549.769L267.207 549.822C262.001 549.847 256.56 549.478 251.383 549.875Z"/>
	<path fill="#D400F1" transform="scale(0.771462 0.771462)" d="M367.263 537.966L392.506 537.443C397.854 537.424 405.429 538.655 410.204 535.781C408.487 533.321 404.314 531.437 401.929 529.44C386.973 516.918 377.029 501.536 372.209 482.753C358.02 427.46 393.214 376.905 450.469 369.809C456.339 369.081 469.711 368.865 475.469 369.948L477.067 370.349C481.473 371.49 485.966 371.957 490.36 373.379C521.846 383.571 545.078 410.26 551.124 442.59C560.644 493.501 526.659 541.346 475.938 549.257C469.897 550.2 463.556 549.883 457.453 549.88L345.57 549.84L358.75 549.818C355.873 549.729 352.486 550.154 349.702 549.587L353.175 548.468C355.02 546.781 357.552 542.47 357.157 539.867C356.701 536.862 363.332 538.663 366.975 538.022L367.263 537.966ZM455.505 382.629C410.412 386.305 377.991 421.751 382.363 467.351L382.597 468.999C387.334 499.851 408.952 528.069 440.257 535.173L450.065 536.906C452.307 537.405 466.264 537.12 466.64 537.19C510.807 533.927 542.625 494.83 539.202 451.168C536.46 416.182 506.704 387.053 472.344 382.742C466.878 382.057 461.013 382.411 455.505 382.629Z"/>
	<path fill="#D400F1" transform="scale(0.771462 0.771462)" d="M507.035 433.832C512.327 433.518 514.196 435.658 515.533 440.772C514.203 444.053 511.896 445.664 509.106 447.671L464.403 482.074L456.055 489.711C446.377 498.594 445.206 490.463 439.345 482.055L427.233 466.115C424.648 462.773 419.799 457.562 419.964 453.152C420.215 446.446 427.242 446.671 431.065 450.057C433.474 452.192 435.425 455.157 437.384 457.714L450.849 476.071C459.667 467.89 469.192 460.737 478.658 453.343L493.495 441.89C497.667 438.785 501.995 435.325 507.035 433.832Z"/>
</svg>
