<?xml version="1.0" encoding="utf-8" ?>
<svg xmlns="http://www.w3.org/2000/svg" xmlns:xlink="http://www.w3.org/1999/xlink" width="493" height="493">
	<path fill="#D400F1" transform="scale(0.771462 0.771462)" d="M261.828 109.509C262.963 109.162 273.382 109.468 275.049 110.009C280.092 111.645 282.211 117.021 276.269 118.752C273.353 118.934 270.258 118.59 267.326 118.496C263.591 118.376 255.412 117.762 259.407 111.25C260.137 110.059 260.568 109.873 261.828 109.509Z"/>
	<path fill="#D400F1" transform="scale(0.771462 0.771462)" d="M205.537 109.169C208.776 109.06 213.339 108.796 216.337 110.189C221.385 112.536 220.942 118.851 212.266 119.39C208.754 119.348 203.923 120.065 200.599 118.92L200.156 118.758C193.465 116.377 198.613 109.929 205.537 109.169Z"/>
	<path fill="#D400F1" transform="scale(0.771462 0.771462)" d="M231.953 109.107C235.815 108.843 239.23 110.186 242.969 109.906C251.216 109.289 251.874 118.182 245.025 119.897C240.301 120.679 234.469 121.005 230.134 118.842C224.918 116.238 227.091 110.196 231.953 109.107Z"/>
	<path fill="#D400F1" transform="scale(0.771462 0.771462)" d="M221.843 131.3C227.055 130.658 232.526 131.016 232.761 137.5C232.975 143.413 225.602 141.934 221.641 141.892C200.813 142.235 210.679 127.792 221.843 131.3Z"/>
	<path fill="#D400F1" transform="scale(0.771462 0.771462)" d="M249.799 131.383C252.17 131.322 267.959 130.912 269.73 132.049C272.228 137.36 270.576 141.138 264.875 141.721C260.683 141.77 249.511 142.808 246.361 140.662C242.335 137.919 242.957 131.909 249.799 131.383Z"/>
	<path fill="#D400F1" transform="scale(0.771462 0.771462)" d="M428.841 109.707C454.865 108.845 451.284 137.497 435.014 142.466L434.475 142.623C430.688 143.757 426.82 143.225 422.944 143.032L345.427 142.744C344.079 142.769 342.794 143.169 341.49 143.158L340.181 142.81C321.002 143.408 313.923 124.932 325.037 114.062C330.305 108.91 338.629 109.742 345.376 109.727L428.841 109.707ZM352.157 119.227C348.299 119.196 334.369 118.228 332.05 120.486C329.008 123.449 330.026 129.517 332.969 132.188C335.676 132.649 338.449 132.526 341.188 132.53L410.324 132.553C411.939 132.554 414.326 132.889 415.846 132.569L422.619 132.869C441.47 133.974 440.409 119.277 428.333 119.24L375.997 119.244C368.164 119.234 359.939 118.605 352.157 119.227Z"/>
	<path fill="#2400EE" transform="scale(0.771462 0.771462)" d="M372.954 359.784L508.111 359.829C517.966 359.979 522.846 365.519 522.978 374.732L523.046 423.574C523.058 437.528 520.693 437.965 527.088 450.211L542.516 477.812C545.543 483.203 550.615 490.263 550.658 496.689C550.757 511.685 537.802 515.2 525.942 515.253L510.321 515.293L363.894 515.292C351.763 515.287 335.907 516.188 332.811 499.929L332.712 499.375C330.679 488.383 339.008 479.456 344.259 470.671C346.558 466.825 360.384 443.187 360.104 439.319C359.843 435.708 360.023 431.981 360.023 428.357L359.983 374.284C359.997 372.207 359.894 369.688 360.66 367.717L360.912 367.188C363.241 362.043 367.511 360.463 372.954 359.784ZM370.819 443.563L369.062 443.757C367.998 445.394 367.324 447.955 366.406 449.787L349.615 481.308C344.871 488.835 335.449 503.388 351.809 504.625C356.478 504.978 361.345 504.701 366.035 504.705L513.407 504.699L525.781 504.695C532.54 504.68 537.908 505.064 541.241 498.165C539.867 491.876 536.03 486.476 533 480.873L520.433 456.763C518.203 452.435 515.527 448.065 513.814 443.518L370.819 443.563ZM373.636 370.144L369.886 370.338L369.789 433.858L511.435 433.759L513.483 433.716C513.903 431.176 513.639 428.289 513.64 425.695L513.609 384.724C513.6 379.941 513.829 374.976 513.372 370.221L373.636 370.144Z"/>
	<path fill="#2400EE" transform="scale(0.771462 0.771462)" d="M373.39 457.227L512.432 457.474C515.04 460.518 530.954 482.534 524.332 484.728L523.976 484.844C520.496 486.016 515.135 485.372 511.406 485.365L374.225 485.423C362.04 485.465 354.914 489.515 361.804 474.658C364.769 468.267 367.951 461.845 373.39 457.227ZM377.221 467.656C374.664 468.848 372.769 473.606 371.811 476.087C378.048 475.403 384.386 475.631 390.654 475.626L509.297 475.516L514.443 475.336C509.492 465.629 510.341 467.787 499.761 467.756L377.221 467.656Z"/>
	<path fill="#2400EE" transform="scale(0.771462 0.771462)" d="M174.067 359.757L270.469 359.85C272.16 359.897 274.229 359.832 275.808 360.51L276.186 360.681C281.173 362.797 283.809 366.543 283.938 371.86L284.053 432.012C284.096 444.533 286.589 447.415 292.508 458.438L302.653 476.992C306.087 482.939 311.009 489.518 310.958 496.706C310.851 511.679 299.281 515.246 287.241 515.28L228.236 515.303L121.421 515.302C117.195 515.31 112.387 515.75 108.218 515.149C98.3606 513.728 90.3246 502.327 91.6739 492.636C92.6163 485.869 97.9706 479.837 101.271 474.092L115.966 447.799C117.076 445.856 120.287 441.549 120.171 439.405L120.1 438.594C119.884 434.431 120.093 430.131 120.093 425.955L120.117 382.19C120.197 359.804 123.35 359.825 144.72 359.788L174.067 359.757ZM128.352 504.706L273.031 504.7L286.538 504.702C311.264 504.656 299.039 490.7 291.567 477.719C285.312 466.851 279.019 455.384 274.904 443.532L131.791 443.439C130.725 443.437 129.501 443.292 128.507 443.678L107.081 484.243C105.439 486.939 103.594 489.739 102.773 492.812L102.656 493.228C101.441 497.813 103.151 502.35 107.656 504.069L108.077 504.237C110.366 505.096 113.295 504.807 115.713 504.8L128.352 504.706ZM133.086 370.139L130.336 370.286C129.73 371.882 129.999 374.322 129.989 376.037L129.987 433.92L272.894 433.527L274.253 433.59C274.555 431.554 274.351 429.355 274.332 427.29L274.283 370.43L133.086 370.139Z"/>
	<path fill="#2400EE" transform="scale(0.771462 0.771462)" d="M137.992 456.636L138.131 456.614C144.269 456.331 150.226 456.965 156.323 457.215L271.417 457.382C277.082 457.481 285.848 479.156 286.291 484.589C283.434 485.541 280.514 485.35 277.546 485.36L266.217 485.368L123.091 485.539C114.192 485.737 119.03 477.542 121.251 473.125C125.043 465.587 128.816 458.119 137.992 456.636ZM146.143 467.648C136.827 467.791 133.7 465.608 131.208 475.709L260.391 475.689L274.485 475.304C273.618 473.635 271.694 468.483 270.087 467.771L146.143 467.648Z"/>
	<defs>
		<linearGradient id="gradient_0" gradientUnits="userSpaceOnUse" x1="319.24905" y1="344.87668" x2="320.97345" y2="87.020699">
			<stop offset="0" stop-color="#3F01FF"/>
			<stop offset="1" stop-color="#FF00FE"/>
		</linearGradient>
	</defs>
	<path fill="url(#gradient_0)" transform="scale(0.771462 0.771462)" d="M174.445 211.441L174.455 129.802C174.464 122.835 173.821 115.518 175.807 108.789C179.657 95.7464 191.867 87.6841 205.074 87.7096L384.935 87.8081C387.027 87.8326 390.52 87.5389 392.371 88.4507C395.861 90.1705 397.149 98.138 389.225 98.0797L207.918 97.9059C193.041 97.9181 185.435 104.268 185.345 120.59L186.141 132.335C189.425 131.848 194.238 130.456 197.429 131.499C207.87 143.268 188.879 142.212 184.703 143.735C184.47 157.75 184.149 154.893 198.814 154.927L456.348 154.623L456.383 131.642C456.368 124.821 456.674 117.973 455.301 111.25L455.212 110.781C452.82 99.4108 441.891 97.8811 432.676 97.915L418.514 98.0964C414.359 98.2818 408.933 99.7308 407.661 94.0527C405.875 86.0861 421.307 87.8235 425.209 87.8028C431.227 87.7708 437.689 87.2024 443.594 88.5574C455.292 91.2419 465.035 101.84 466.372 113.811C466.73 117.017 466.257 120.321 466.213 123.543L466.112 218.305L466.097 227.7L466.093 310.89C466.065 325.555 462.951 341.764 444.844 343.968C440.962 344.44 436.924 344.377 433.019 344.398L200.781 344.4C179.25 344.301 174.434 328.713 174.424 311.303L174.442 233.636L174.445 211.441ZM184.589 225.471L184.62 250.851L184.558 312.909C184.514 320.245 185.221 332.569 195.127 333.929L195.55 333.978C199.714 334.554 204.269 334.267 208.482 334.278L429.741 334.31C434.614 334.308 439.909 334.691 444.715 333.937L445.156 333.863C456.149 332.098 456.509 320.062 456.476 311.482L456.448 238.273L456.4 205.805C456.391 203.215 456.929 198.755 456.182 196.386L455.718 196.436C449.291 197.098 442.47 196.693 436.002 196.698L380.735 196.695C375.18 196.684 369.151 198.361 369.987 189.601C370.419 185.084 382.797 186.498 385.755 186.488L455.478 186.41L455.244 165.32L184.816 165.331L184.668 179.134C184.692 181.123 184.528 183.844 185.155 185.711C190.957 186.352 196.963 186.116 202.8 186.129L346.401 186.084C349.185 186.056 353.247 185.367 355.9 185.905C362.335 187.211 359.699 195.616 351.152 196.523C346.841 196.98 342.173 196.684 337.825 196.685L199.934 196.768C194.88 196.772 189.667 196.525 184.633 196.931L184.589 225.471Z"/>
	<path fill="#D400F1" transform="scale(0.771462 0.771462)" d="M456.414 205.805L456.336 206.139C456.699 207.266 456.918 208.332 457.073 209.503C460.389 207.497 462.721 206.922 465.415 209.062L465.586 218.305L466.097 227.7L465.81 227.438C464.548 223.258 466.821 218.288 460.312 219.527L458.448 219.891C457.923 220.28 457.381 220.556 456.799 220.848C456.099 226.542 456.53 232.531 456.45 238.273L456.414 205.805Z"/>
	<path fill="#2400EE" transform="scale(0.771462 0.771462)" d="M207.856 268.906C210.076 268.597 212.494 268.784 214.733 268.788L240.62 268.799C244.891 268.799 254.934 268.654 251.406 276.645C250.963 277.649 250.169 278.07 249.219 278.499C245.923 279.585 241.166 278.772 237.709 278.771L217.878 278.754C216.028 278.751 208.027 279.188 206.719 278.466C203.978 276.954 205.176 270.105 207.856 268.906Z"/>
	<path fill="#2400EE" transform="scale(0.771462 0.771462)" d="M391.659 268.852L426.095 268.782C428.496 268.783 431.317 268.469 433.563 269.385C436.754 273.3 435.89 277.781 430.947 278.71L403.112 278.691C398.665 278.682 393.943 279.027 389.533 278.566C385.068 278.099 384.328 269.703 391.659 268.852Z"/>
	<path fill="#D400F1" transform="scale(0.771462 0.771462)" d="M387.006 239.474L427.082 239.744C429.51 239.764 433.829 239.247 434.728 242.323C435.729 245.749 435.3 248.276 431.865 249.064L393.128 249.196C390.484 249.169 385.239 249.587 383.871 246.556C382.428 243.359 383.934 240.643 387.006 239.474Z"/>
	<path fill="#D400F1" transform="scale(0.771462 0.771462)" d="M242.484 239.63C250.848 239.506 259.17 236.382 255.844 248.692C254.264 249.306 252.297 249.229 250.617 249.236L219.844 249.252L211.733 249.283C210.087 249.287 208.291 249.478 206.719 248.94C203.914 245.932 204.567 240.479 209.206 239.841C212.841 239.341 216.879 239.698 220.575 239.698L242.484 239.63Z"/>
	<path fill="#2400EE" transform="scale(0.771462 0.771462)" d="M385.527 300.349C390.905 300.479 430.548 299.647 432.477 300.931C434.946 302.574 437.195 308.714 431.21 309.909C425.213 310.755 418.8 310.34 412.748 310.343L386.552 310.293C379.65 310.083 379.388 302.013 385.527 300.349Z"/>
	<path fill="#2400EE" transform="scale(0.771462 0.771462)" d="M208.305 300.067L252.276 300.308C253.775 300.311 255.733 300.1 257.188 300.508C261.277 301.655 262.798 307.296 257.845 309.807C253.888 310.833 249.154 310.342 245.08 310.347L214.098 310.365C208.77 310.369 202.895 310.624 205.803 302.217C206.228 300.988 207.19 300.565 208.305 300.067Z"/>
	<defs>
		<linearGradient id="gradient_1" gradientUnits="userSpaceOnUse" x1="328.2623" y1="315.96426" x2="308.85181" y2="218.28302">
			<stop offset="0" stop-color="#5001FF"/>
			<stop offset="1" stop-color="#E700FF"/>
		</linearGradient>
	</defs>
	<path fill="url(#gradient_1)" transform="scale(0.771462 0.771462)" d="M275.082 246.607C272.566 242.005 279.7 238.474 281.884 235.112C285.196 230.014 287.251 230.142 292.771 232.795L298.207 231.42C300.169 230.88 301.623 226.188 305.723 223.209L308.325 224.418C309.467 222.979 310.115 221.403 311.094 219.881C313.556 216.053 322.229 215.644 325.523 218.061C326.465 218.752 327.322 221.035 328.031 222.032C331.724 227.226 343.266 233.917 349.378 232.046L351.904 231.382C360.257 230.214 356.918 235.848 361.623 240.639C364.552 243.155 367.391 246.327 363.335 249.214L360.354 250.98C355.411 265.986 371.524 261.165 371.568 269.424C371.622 279.639 369.366 279.903 360.448 279.712L358.092 281.959C352.143 287.732 352.678 289.373 357.415 294.518C364.469 302.178 356.465 302.543 350.516 306.133C342.618 310.899 331.117 322.981 329.278 307.348C325.059 306.064 317.193 309.234 314.148 305.332L313.973 305.097C312.687 305.803 312.582 311.85 308.751 314.672C304.399 314.234 281.387 303.257 280.361 298.906C278.708 291.893 291.913 288.935 281.234 282.224C271.687 276.224 265.498 287.256 268.193 265.445L273.591 263.499C276.644 262.273 280.829 258.114 280.224 254.368C279.833 251.946 276.2 248.987 275.082 246.607ZM289.179 247.882C292.666 258.121 287.248 263.007 282.399 269.739C286.383 273.148 289.773 277.006 292.876 281.222C302.609 294.445 290.06 294.009 302.62 302.439C306.748 294.155 312.183 296.779 320.932 296.831C325.603 296.858 330.727 296.44 335.305 297.261C336.55 298.845 337.654 300.362 338.554 302.172L338.78 302.632C340.787 300.744 345.628 297.89 344.03 294.832C342.442 291.793 341.936 290.901 343.567 287.974L349.097 278.75C350.824 275.571 351.904 272.353 355.112 270.282L355.41 270.097C350.953 264.134 349.836 255.282 350.613 247.969C350.761 246.576 351.493 244.617 351.109 243.281L350.322 243.088C340.001 241.486 328.932 238.126 320.506 231.699C319.789 231.152 318.947 230.279 318.12 229.966C311.657 236.241 308.135 238.534 299.226 241.036L288.284 244.335C288.603 245.491 289.021 246.692 289.179 247.882Z"/>
</svg>
