<?xml version="1.0" encoding="utf-8" ?>
<svg xmlns="http://www.w3.org/2000/svg" xmlns:xlink="http://www.w3.org/1999/xlink" width="493" height="493">
	<defs>
		<linearGradient id="gradient_0" gradientUnits="userSpaceOnUse" x1="352.31015" y1="89.372391" x2="214.56877" y2="413.99942">
			<stop offset="0" stop-color="#0207FF"/>
			<stop offset="1" stop-color="#C600FE"/>
		</linearGradient>
	</defs>
	<path fill="url(#gradient_0)" transform="scale(0.771462 0.771462)" d="M118.233 200.966C110.671 157.556 142.993 110.524 183.217 95.4302C191.805 92.2078 201.864 89.7354 211.119 89.3912L220.481 89.3149C221.933 89.3035 223.499 89.4878 224.73 88.5841C236.134 80.2098 248.336 73.7368 262.146 70.4094C314.716 57.7437 370.097 96.2059 378.783 149.121C379.16 151.423 379.263 153.729 379.803 156.005L394.422 156.053C398.503 156.181 402.392 156.941 406.38 157.763C450.719 166.901 480.381 207.227 478.67 252.06C477.158 291.673 460.001 283.363 460.727 276.875C461.097 273.576 462.874 270.047 463.906 266.887C479.335 219.642 437.69 168.881 388.577 168.748C367.84 168.691 343.051 175.496 330.42 193.221C328.681 195.663 326.891 200.102 324.282 201.569C318.921 204.584 313.353 197.971 315.666 192.637C320.91 180.539 339.106 167.455 350.636 162.733C356.064 160.51 361.848 159.4 367.246 157.245C358.162 92.8834 296.274 64.3784 237.796 93.0034C240.143 93.57 242.592 93.7087 244.98 94.3125C251.364 95.9262 276.452 106.848 277.709 114.488C278.295 118.046 274.573 123.98 269.099 120.894C264.145 118.1 259.651 114.665 254.581 111.989C212.046 89.5381 157.997 109.99 138.071 153.508C134.943 160.34 132.903 167.582 131.303 174.904C128.538 194.325 128.992 205.596 138.011 224.465C143.292 235.513 145.077 230.609 157.344 232.326C173.903 234.645 188.483 243.223 198.984 256.094C200.698 258.196 203.123 261.226 202.844 264.09C202.552 267.082 197.936 269.954 195.159 269.707C192.466 269.468 187.89 263.29 185.797 261.286C164.919 241.295 135.078 240.069 111.608 255.508L103.425 261.769C81.1427 284.972 80.0579 319.946 100.793 344.762C111.082 357.076 129.31 366.771 145.611 367.589L165.832 367.711C168.788 367.713 171.86 367.554 174.798 367.864L175.312 367.927C181.32 368.626 180.941 377.706 175.344 379.215L174.844 379.344C170.485 380.495 165.11 380.283 160.599 380.305C138.305 380.414 115.688 376.499 98.6692 360.722C73.3904 337.29 65.9431 298.002 83.2601 267.951C84.6008 265.625 86.0642 263.065 87.9004 261.097C95.1188 248.572 116.65 237.673 129.51 233.074C123.127 224.288 119 212.07 118.25 201.265L118.233 200.966Z"/>
	<defs>
		<linearGradient id="gradient_1" gradientUnits="userSpaceOnUse" x1="314.96863" y1="283.25644" x2="237.21796" y2="484.14429">
			<stop offset="0" stop-color="#4701FF"/>
			<stop offset="1" stop-color="#F100FF"/>
		</linearGradient>
	</defs>
	<path fill="url(#gradient_1)" transform="scale(0.771462 0.771462)" d="M189.006 427.784C188.106 420.598 188.458 413.142 188.452 405.928L188.431 336.019C188.448 317.86 188.379 299.397 211.89 297.795C221.872 297.115 232.106 297.554 242.124 297.555L333.14 297.553C338.894 297.554 345.317 297.001 351.001 297.783C373.627 300.895 370.066 327.351 370.062 343.545L370.024 417.587C370.021 423.671 370.356 429.986 369.552 436.025C368.605 443.135 356.971 449.223 350.781 449.444L312.997 449.651L314.349 460.781C314.609 463.281 314.381 467.12 315.277 469.372L329.95 469.538C333.883 469.526 341.606 468.637 341.205 475C340.577 484.963 326.504 482.056 319.937 482.072L302.16 482.066L237.651 482.045C235.53 482.018 233.158 482.154 231.067 481.783C226.016 480.887 222.81 475.561 227.009 471.683C230.684 468.29 237.697 469.309 242.331 469.443C242.953 464.577 243.712 459.449 245.244 454.773C245.463 453.367 246.106 451.53 245.888 450.156L244.115 449.913C224.925 448.312 190.72 455.967 189.006 427.784ZM224.466 310.452C203.183 310.498 200.819 310.298 200.973 331.623L201.158 414.097L332.891 414.165L352.673 414.064C353.939 414.035 355.711 414.207 356.858 413.681L356.836 328.261C356.818 321.007 358.595 316.093 351.562 311.899L351.222 311.686C349.603 310.707 347.362 310.584 345.508 310.488L224.466 310.452ZM200.922 427.957C201.462 431.136 201.921 433.035 203.997 435.622C205.475 436.394 207.081 436.423 208.714 436.463L337.559 436.588C346.559 436.626 358.288 439.841 356.412 426.312L355.93 426.109C352.963 425.228 348.435 425.874 345.289 425.876L203.199 425.991C202.398 425.985 201.745 425.863 201.041 426.308L200.922 427.957ZM257.043 449.702L256.706 469.502L274.788 469.614L302.032 469.624C302.051 467.922 301.74 466.106 301.6 464.398L300.144 449.842L257.043 449.702Z"/>
	<path fill="#D400F1" transform="scale(0.771462 0.771462)" d="M189.006 427.784C192.085 432.802 188.002 435.938 196.719 442.812L197.5 443.281C198.067 443.73 198.442 444.124 199.062 444.531L199.481 444.843C201.042 445.985 203.296 446.903 205.106 447.55L205.431 447.681C206.356 448.041 207.148 448.193 208.125 448.324L209.303 448.578C213.21 449.467 224.202 447.638 226.35 448.726C231.399 451.282 238.668 448.174 244.115 449.721C224.925 448.312 190.72 455.967 189.006 427.784Z"/>
	<defs>
		<linearGradient id="gradient_2" gradientUnits="userSpaceOnUse" x1="478.70169" y1="282.00464" x2="431.07333" y2="554.37">
			<stop offset="0" stop-color="#3003FF"/>
			<stop offset="1" stop-color="#FF00FE"/>
		</linearGradient>
	</defs>
	<path fill="url(#gradient_2)" transform="scale(0.771462 0.771462)" d="M376.305 480.463L376.254 312.284C376.27 288.808 383.898 288.883 405.269 288.857L516.663 288.87C529.171 289.484 534.23 298.919 534.179 309.932L534.121 364.011L533.984 530.874C533.594 539.761 526.789 547.121 517.581 547.628L412.288 547.792C392.015 547.809 375.932 551.458 376.19 523.779L376.305 480.463ZM389.041 489.679L484.648 489.777L499.767 489.669L500.544 489.528C500.887 488.532 500.74 487.391 500.731 486.352L500.621 341.979C499.006 341.596 496.821 341.854 495.146 341.854L416.579 341.757C413.901 341.72 410.966 341.829 408.325 341.383C400.006 339.978 402.226 329.287 410.036 328.777C414.761 328.469 419.673 328.732 424.414 328.732L499.171 328.771C501.156 328.778 503.491 328.649 505.407 329.165L505.781 329.271C516.302 332.011 513.703 343.789 513.703 352.037L513.708 482.702C513.809 501.496 513.576 501.87 494.268 501.874L388.81 501.974L388.837 520.663C388.777 529.638 387.196 535.585 399.197 535.674L501.799 535.686C508.907 535.685 521.321 538.423 521.885 528.308C522.245 521.84 521.98 515.216 521.975 508.733L522.001 362.076L522.058 311.735C522.061 308.402 522.887 304.966 519.749 302.817L519.375 302.571C515.954 300.272 499.674 301.747 494.88 301.754L450.292 301.752L399.612 301.791C394.09 301.81 388.113 300.968 388.109 308.086L389.041 489.679Z"/>
	<path fill="#2400EE" transform="scale(0.771462 0.771462)" d="M447.402 307.327C454.907 307.243 462.527 306.943 470 307.629L471.035 307.725C476.21 308.518 475.372 313.788 473.838 317.253C470.983 319.528 467.927 319.352 464.487 319.423L448.614 319.421C445.328 319.416 440.174 320.133 437.432 318.159C434.887 316.328 436.062 311.396 437.931 309.538C440.216 307.268 444.418 307.451 447.402 307.327Z"/>
	<path fill="#D400F1" transform="scale(0.771462 0.771462)" d="M442.104 513.262L462.37 513.123C467.39 513.122 479.159 510.662 478.039 518.446L477.969 518.837C476.995 524.612 475.576 525.727 470.201 525.95L448.906 525.948C443.831 526.007 434.784 527.355 433.655 520.076C432.775 514.403 437.709 513.543 442.104 513.262Z"/>
</svg>
