<?xml version="1.0" encoding="utf-8" ?>
<svg xmlns="http://www.w3.org/2000/svg" xmlns:xlink="http://www.w3.org/1999/xlink" width="869" height="869">
	<path transform="scale(0.848633 0.848633)" d="M949.038 878.678L949.062 879.1C949.324 886.387 944.427 894.764 939.508 899.859C935.199 904.323 928.964 908.385 922.897 909.896C914.374 912.018 905.073 910.752 896.365 910.794L845.631 911.134C845.203 920.955 847.177 932.011 844.248 941.515L844.008 942.25L843.491 943.737L843.278 944.25C841.567 948.523 839.187 952.032 835.594 954.938C832.007 957.838 827.664 959.997 823.063 960.585C815.478 961.555 807.298 960.969 799.648 960.977L753.84 961.002L709.17 960.995C701.915 960.99 694.128 961.562 686.934 960.693C679.254 959.766 673.326 958.057 667.769 952.25C657.663 941.688 659.911 925.013 660.058 911.545L391.496 911.993C390.522 921.304 392.302 931.451 390.272 940.535L390.047 941.5C389.606 943.548 388.945 945.36 388.006 947.25C385.102 953.095 379.459 957.388 373.313 959.412L372.537 959.658C370.782 960.233 369.196 960.482 367.357 960.536L335.027 960.565L272.669 960.535L245.75 960.547C242.254 960.583 238.638 961.204 235.175 960.689L234.5 960.579C228.528 959.711 223.591 957.375 219.263 953.125C211.601 945.601 211.403 937.36 211.248 927.286L211.09 910.944C196.229 909.908 180.73 910.549 165.813 910.688C158.05 910.76 150.144 911.33 142.426 910.167C138.264 909.54 134.274 908.233 130.719 905.951C122.942 900.959 116.312 892.015 114.477 882.883L114.311 882.025C113.086 875.894 113.528 869.49 113.519 863.258L113.48 835.771L113.35 735.173C106.73 735.128 100.001 735.856 93.4902 734.292L92.5 734.05C89.1345 733.245 85.7979 731.886 82.9999 729.803C75.7218 724.386 69.7645 716.589 63.3884 710.11C55.6734 702.27 47.1848 694.804 39.8788 686.615C34.6388 680.742 32.456 672.211 32.8985 664.497C33.157 659.992 35.1151 654.997 37.5643 651.25C43.5372 642.112 52.8065 634.251 60.4646 626.477C67.7491 619.083 74.8863 611.158 82.6769 604.309C92.1829 595.952 101.281 596.133 113.392 596.931L113.034 366.145C105.839 365.887 98.7189 366.688 92.1955 362.97C87.1115 360.072 82.7579 354.617 78.6403 350.467L58.5346 330.425L46.7906 319.165C44.247 316.777 41.3975 314.436 39.1582 311.759C36.4639 308.537 34.2649 304.611 33.2634 300.509C31.759 294.348 32.4513 286.987 35.9728 281.649C38.8216 277.33 42.9912 273.751 46.6652 270.131L65.6054 251.549C71.7539 245.4 77.5924 237.86 84.5372 232.704C87.3503 230.616 90.505 229.436 93.9179 228.75C100.247 227.478 107.06 228.003 113.49 228.054C114.059 226.241 113.666 223.551 113.651 221.628L113.573 205.336L113.442 131.921L113.417 109.608C113.423 104.433 113.221 99.2274 114.228 94.125C115.71 86.61 119.513 79.0081 124.931 73.5615C131.333 67.1253 140.043 63.4854 149.019 62.6394C157.605 61.8302 166.778 62.4042 175.419 62.3871L227.698 62.4102L384.909 62.5261L886.325 62.4783L905.757 62.0095C917.601 61.962 928.733 63.5034 937.414 72.2453C944.712 79.5947 948.508 88.8097 948.426 99.1628L948.646 264.087L949.401 705.425L949.477 829.463L949.557 860C949.589 865.742 950.479 873.174 949.038 878.678ZM949.038 878.678C950.479 873.174 949.589 865.742 949.557 860L949.477 829.463L949.401 705.425L948.646 264.087L948.426 99.1628L947.797 99.5727L947.917 395.087L947.744 479.871L947.783 503.07C947.86 508.476 948.243 514.137 947.84 519.509C947.344 526.122 947.797 533.127 947.791 539.786L947.768 580.976L948.341 631.065L948.346 723.225L948.43 832.033L948.774 862.631C948.844 867.743 948.157 873.693 949.038 878.678Z"/>
	<path fill="#B6B5B8" transform="scale(0.848633 0.848633)" d="M137.5 214.063L176.654 213.998L176.828 227.979L137.498 227.979L137.5 214.063Z"/>
	<path transform="scale(0.848633 0.848633)" d="M949.038 878.678C948.157 873.693 948.844 867.743 948.774 862.631L948.43 832.033L948.346 723.225L948.341 631.065L947.768 580.976L947.791 539.786C947.797 533.127 947.344 526.122 947.84 519.509C948.243 514.137 947.86 508.476 947.783 503.07L947.744 479.871L947.917 395.087L947.797 99.5727L948.426 99.1628L948.646 264.087L949.401 705.425L949.477 829.463L949.557 860C949.589 865.742 950.479 873.174 949.038 878.678Z"/>
	<path fill="#585757" transform="scale(0.848633 0.848633)" d="M137.958 390.927L137.926 364.778L177.173 364.511L176.999 390.987L137.958 390.927Z"/>
	<path fill="#FEFEFE" transform="scale(0.848633 0.848633)" d="M67.1791 304.716L56.5991 293.822C60.1982 288.103 66.6459 283.425 71.4881 278.737L98.9788 251.998L168.801 252.414L186.017 252.506C187.826 252.516 190.795 252.124 192.5 252.539C192.765 252.603 193.628 253.285 193.75 253.407C196.323 255.989 195.166 265.402 195.105 268.941L103.809 269.032C95.182 278.848 85.214 287.816 75.8205 296.902C73.9798 298.682 69.3953 304.196 67.1791 304.716Z"/>
	<path fill="#FEFEFE" transform="scale(0.848633 0.848633)" d="M65.7591 678.375C63.3021 676.061 60.2184 673.455 58.2155 670.748C56.5069 668.438 57.1018 666.356 57.6478 663.75L79.5008 641.018L92.8223 627.661C95.5191 625.115 98.056 622.465 101.372 620.725L172.563 620.994L187.469 621.039C188.699 621.049 191.123 620.746 192.25 621.08C192.755 621.23 193.144 621.639 193.592 621.918C194.63 623.546 194.944 624.728 195.229 626.629L195.104 627.235C194.606 630.58 195.058 634.519 194.893 637.965L123.613 637.951L108.682 637.959C107.543 637.96 104.448 637.693 103.437 638.172C102.576 638.58 101.244 640.041 100.542 640.75L84.6637 657.483C81.2502 661.02 77.1141 664.586 74.1677 668.499L65.7591 678.375Z"/>
	<path fill="#202E39" transform="scale(0.848633 0.848633)" d="M236.646 913.226L367.539 913.044L367.405 928.444C367.38 931.067 367.685 934.24 367.016 936.75L365.25 936.978L235.044 937.004C235.015 929.555 234.053 920.772 235.25 913.49L236.646 913.226Z"/>
	<path fill="#FEFEFE" transform="scale(0.848633 0.848633)" d="M202.575 163.577C203.234 161.781 203.873 160.632 205.772 159.881C208.412 158.839 212.659 159.322 215.459 159.38L231.311 159.491L301.847 159.337L729.66 158.998L822.18 158.998L841.345 158.979C844.33 158.947 848.169 158.201 850.937 159.25C851.585 160.795 851.511 162.303 851.534 163.945C842.752 164.475 833.645 164.015 824.831 164.02L771.097 164.03L607.048 164.029L297.41 164.032L228.717 164.039L211.426 164.026C208.667 164.024 205.158 164.467 202.575 163.577Z"/>
	<path fill="#202E39" transform="scale(0.848633 0.848633)" d="M813.008 912.244L820.904 912.374L820.745 935.986L694.625 935.976L685.452 935.991C684.518 928.313 684.981 920.253 685.022 912.516L813.008 912.244Z"/>
	<path fill="#B6B5B8" transform="scale(0.848633 0.848633)" d="M195.229 626.629C195.866 630.49 195.463 634.715 195.39 638.63L195.199 639.042C194.498 641.09 194.96 644.622 194.956 646.901L194.96 668.036L74.1677 668.499C77.1141 664.586 81.2502 661.02 84.6637 657.483L100.542 640.75C101.244 640.041 102.576 638.58 103.437 638.172C104.448 637.693 107.543 637.96 108.682 637.959L123.613 637.951L194.893 637.965C195.058 634.519 194.606 630.58 195.104 627.235L195.229 626.629Z"/>
	<path fill="#74898F" transform="scale(0.848633 0.848633)" d="M67.3779 304.915L195.158 304.987L195.205 338.703L101.832 338.971L67.3779 304.915Z"/>
	<path fill="#B6B5B8" transform="scale(0.848633 0.848633)" d="M195.105 268.941L195.158 304.987L67.3779 304.915L67.1791 304.716C69.3953 304.196 73.9798 298.682 75.8205 296.902C85.214 287.816 95.182 278.848 103.809 269.032L195.105 268.941Z"/>
	<path fill="#585757" transform="scale(0.848633 0.848633)" d="M74.1677 668.499L194.96 668.036L194.956 646.901C194.96 644.622 194.498 641.09 195.199 639.042L195.39 638.63L195.481 701.63C195.435 703.769 195.388 707.738 193.883 709.407C193.727 709.58 192.819 710.348 192.5 710.443C191.055 710.872 188.103 710.503 186.515 710.506L170.441 710.525L97.824 710.729L65.7591 678.375L74.1677 668.499Z"/>
	<path fill="#B6B5B8" transform="scale(0.848633 0.848633)" d="M137.958 390.927L176.999 390.987L176.885 596.503L138.082 596.481L137.958 390.927Z"/>
	<path fill="#FEFEFE" transform="scale(0.848633 0.848633)" d="M137.48 113.016L137.155 103.912C137.251 98.3319 138.436 94.0811 142.677 90.1375C145.615 87.4057 150.423 85.6598 154.357 85.3768C161.827 84.8394 169.724 85.4674 177.248 85.4138L235.935 85.2704L407.981 85.2556L720.019 85.2608L908.014 85.4972C912.983 85.5351 917.707 85.8838 921.319 89.82C926.476 95.4392 925.155 105.05 924.967 112.118C924.015 112.496 923.027 112.828 922 112.908C915.806 113.39 909.283 112.945 903.054 112.967L862.711 113.016L739.466 113.015L137.48 113.016Z"/>
	<path fill="#585757" transform="scale(0.848633 0.848633)" d="M924.545 852.057L924.61 853.504L924.644 869.348C924.64 872.047 924.951 875.268 924.259 877.883C923.863 879.379 922.697 881.03 921.59 882.087C918.239 885.287 915.029 884.499 910.735 884.517L490.916 884.494L220.387 884.474L169.5 884.504L154.5 884.892C151.486 884.883 146.714 885.218 143.839 884.442C142.778 884.156 141.241 882.491 140.489 881.703C139.273 880.428 138.748 878.916 138.567 877.176C138.078 872.482 138.497 867.334 138.517 862.603L138.524 834.71L138.527 735.513L176.534 735.818L176.509 753.728L138.953 753.694L139.006 852.558L924.545 852.057Z"/>
	<path fill="#CEDFE7" transform="scale(0.848633 0.848633)" d="M137.48 113.016L739.466 113.015L862.711 113.016L903.054 112.967C909.283 112.945 915.806 113.39 922 112.908C923.027 112.828 924.015 112.496 924.967 112.118L924.56 371.685C919.77 372.457 914.412 375.483 909.868 377.322C899.063 381.694 888.017 386.731 876.946 390.321L876.885 166.268C877.064 156.371 876.6 147.361 869.118 139.884C864.877 135.645 859.403 132.867 853.411 132.287C845.706 131.542 837.637 131.988 829.891 131.987L787.601 131.985L650.778 131.987L212.25 131.675C201.826 131.65 192.64 134.314 185.216 141.883C181.475 145.696 178.953 150.571 177.738 155.76C175.896 163.624 176.565 172.184 176.561 180.24L176.654 213.998L137.5 214.063L137.48 113.016Z"/>
	<path fill="#B6B5B8" transform="scale(0.848633 0.848633)" d="M876.946 390.321C888.017 386.731 899.063 381.694 909.868 377.322C914.412 375.483 919.77 372.457 924.56 371.685L924.545 852.057L139.006 852.558L138.953 753.694L176.509 753.728L176.533 796.75C176.49 804.474 175.729 812.54 176.673 820.219C177.095 823.656 178.117 827.187 179.804 830.21C183.674 837.144 189.083 840.426 196.478 842.664L197.293 842.919C202.544 844.462 209.712 843.57 215.234 843.553L246.078 843.453L362.244 843.306L689.226 843.302L791.274 843.479L846 843.481C851.205 843.378 856.554 842.102 861.128 839.59C868.359 835.62 873.696 828.831 875.899 820.876L876.131 820C877.994 813.184 877.292 804.947 877.324 797.906L877.061 759.856L877.019 710.544L876.946 390.321Z"/>
	<path fill="#B6B5B8" transform="scale(0.848633 0.848633)" d="M851.534 163.945L851.552 619.598L851.846 763.126L851.745 799.956C851.725 805.282 852.336 811.534 851.354 816.75C849.195 817.978 847.586 818.185 845.114 818.212L819.694 817.971L743.155 817.971L432.284 817.044L283.512 816.661L232.967 816.673C223.358 816.678 213.655 817.048 204.068 816.476C202.958 806.824 203.575 796.815 203.593 787.102L203.653 734.793C207.767 731.974 211.851 729.269 215.101 725.422C217.179 721.325 219.344 717.174 220.142 712.606C221.114 707.047 220.979 701.413 220.995 695.795L221.019 673.972C221.018 655.786 222.076 636.988 220.096 618.937C218.498 612.869 214.609 606.619 209.75 602.624C208.035 601.214 205.84 600.093 204.311 598.513C203.772 597.957 204.006 596.4 204.006 595.598L203.89 360.66C205.963 358.984 209.573 358.059 212.012 356.459L212.733 355.982C215.062 353.384 217.306 350.584 218.859 347.443C220.579 343.963 221.305 340.201 221.66 336.367C222.953 322.422 221.797 307.76 221.649 293.75C221.534 282.921 222.364 271.325 221.062 260.59C220.615 256.91 219.202 253.216 218.083 249.693C213.761 242.446 210.135 237.935 202.446 234.142L202.575 163.577C205.158 164.467 208.667 164.024 211.426 164.026L228.717 164.039L297.41 164.032L607.048 164.029L771.097 164.03L824.831 164.02C833.645 164.015 842.752 164.475 851.534 163.945Z"/>
	<path fill="#FEFEFE" transform="scale(0.848633 0.848633)" d="M224.814 207.535L253.44 207.538C253.17 209.125 252.829 210.285 252.164 211.75L251.117 212.038C248.813 212.464 246.04 212.251 243.685 212.288C239.74 212.35 228.213 213.66 225.25 211.447L224.814 207.535Z"/>
	<path fill="#FEFEFE" transform="scale(0.848633 0.848633)" d="M832.013 206.063L834.424 206.75C835.007 208.206 834.919 209.391 834.848 210.917C832.561 212.298 828.367 211.845 825.653 211.819L805.75 211.479L804.995 210.75C805.003 209.421 804.844 208.281 805.463 207.078C811.61 206.728 817.93 207.056 824.099 206.985C826.668 206.955 829.861 207.438 832.013 206.063Z"/>
	<path transform="scale(0.848633 0.848633)" d="M805.463 207.078C804.536 206.89 804.328 206.775 803.591 206.25L803.496 177.993L831.859 177.973L832.013 206.063C829.861 207.438 826.668 206.955 824.099 206.985C817.93 207.056 811.61 206.728 805.463 207.078Z"/>
	<path transform="scale(0.848633 0.848633)" d="M224.814 207.535C223.578 205.572 224.124 202.079 224.105 199.75L224.025 179.496L253.892 179.497L253.931 196.723C253.93 200.334 254.128 203.978 253.44 207.538L224.814 207.535Z"/>
	<path transform="scale(0.848633 0.848633)" d="M803.668 767.996L832.83 767.974L832.834 797.307L803.569 797.297L803.668 767.996Z"/>
	<path transform="scale(0.848633 0.848633)" d="M225.436 769.995L256.062 769.983L256.023 798.327L225.178 798.021L225.436 769.995Z"/>
	<path fill="#74898F" transform="scale(0.848633 0.848633)" d="M218.083 249.693C224.554 251.332 231.23 254.115 234.842 260.08C236.631 263.033 237.38 265.755 237.709 269.144C238.192 274.132 237.944 279.231 237.915 284.242L237.938 306.277L238.105 328.892C238.193 333.517 239.101 338.95 237.807 343.423C236.594 347.615 233.085 351.134 229.274 353.067C224.042 355.72 218.441 355.653 212.733 355.982C215.062 353.384 217.306 350.584 218.859 347.443C220.579 343.963 221.305 340.201 221.66 336.367C222.953 322.422 221.797 307.76 221.649 293.75C221.534 282.921 222.364 271.325 221.062 260.59C220.615 256.91 219.202 253.216 218.083 249.693Z"/>
	<path fill="#585757" transform="scale(0.848633 0.848633)" d="M220.096 618.937C226.896 619.955 232.421 621.628 236.721 627.37C238.803 630.151 240.732 633.726 241.327 637.198C241.801 639.967 241.542 643.046 241.542 645.863L241.525 661.61L241.559 687.13C241.559 691.417 241.951 696.104 241.273 700.317C240.123 707.457 234.887 715.848 228.913 719.945C224.545 722.94 219.996 723.795 215.101 725.422C217.179 721.325 219.344 717.174 220.142 712.606C221.114 707.047 220.979 701.413 220.995 695.795L221.019 673.972C221.018 655.786 222.076 636.988 220.096 618.937Z"/>
	<path fill="#585757" transform="scale(0.848633 0.848633)" d="M696.322 681.131L716.439 695.785C711.529 700.392 706.677 705.118 701.396 709.304C671.808 732.76 635.454 749.63 599.385 760.259C590.221 762.96 581.014 765.145 571.573 766.617L562.337 767.866C562.044 767.903 560.179 768.049 560.048 768.154C559.915 768.26 560.031 768.493 560.022 768.663C559.826 772.545 559.683 776.461 559.052 780.303C556.205 797.633 540.394 812.031 522.515 811.504C515.986 811.311 509.32 808.262 504.824 803.573C502.336 800.978 499.828 796.58 498.73 793.157C502.014 793.657 505.163 794.433 508.509 794.521C519.483 794.811 530.406 791.267 538.447 783.566C548.116 774.305 550.801 763.117 551.077 750.178C560.051 748.248 569.21 747.837 578.222 745.65C623.286 734.713 661.906 711.74 696.322 681.131Z"/>
	<path fill="#74898F" transform="scale(0.848633 0.848633)" d="M811.789 487.019C821.149 492.024 829.122 496.426 832.273 507.432C834.473 515.114 832.972 523.402 829.08 530.293C824.516 538.373 816.325 543.947 807.432 546.304L796.154 548.121C786.53 595.269 764.935 638.973 734.361 676.024L722.091 689.862C720.285 691.764 718.458 694.141 716.439 695.785L696.322 681.131C721.688 657.852 742.767 626.912 756.925 595.611C763.485 581.105 768.803 566.215 772.692 550.768L777.079 532.188C777.116 532.024 777.065 531.808 777.19 531.697C777.543 531.384 779.623 531.023 780.258 530.844C789.124 528.35 796.102 525.408 802.339 518.309C810.214 509.345 812.493 498.699 811.789 487.019Z"/>
	<path transform="scale(0.848633 0.848633)" d="M322.009 676.243C321.993 676.184 321.997 676.116 321.961 676.067C319.856 673.193 317.024 670.519 314.592 667.904L300.558 652.25C280.404 627.604 265.408 597.525 255.541 567.37C252.575 558.307 250.006 549.056 248.095 539.71L246.664 531.856C246.624 531.594 246.421 529.784 246.346 529.686C246.236 529.544 241.104 528.595 240.463 528.458C234.615 527.202 229.409 525.065 224.67 521.39C216.612 515.139 211.875 506.603 210.743 496.482C209.276 483.355 216.628 468.78 227.695 461.754C233.167 458.279 238.951 456.676 245.114 454.954C245.169 454.938 246.153 454.603 246.179 454.557C247.143 452.821 247.367 447.925 247.756 445.803L251.846 426.359C257.951 401.11 267.662 376.498 281.755 354.572C292.06 338.542 304.036 322.561 317.308 308.897C351.421 273.775 395.835 248.985 443.059 236.665C450.593 234.699 458.224 232.922 465.949 231.886C467.05 231.739 472.553 231.455 473.07 231.02C473.638 230.542 475.223 224.306 475.782 222.992C477.374 219.254 479.536 215.67 482.11 212.528C488.064 205.257 498.249 200.127 507.611 199.25C521.931 197.908 536.034 204.343 544.337 216.148C547.159 220.161 548.701 224.711 549.985 229.399C550.203 230.197 549.891 231.419 550.628 231.796C552.479 232.742 557.681 232.653 560.014 233.019C566.959 234.109 573.97 235.63 580.75 237.492C618.678 247.906 654.73 265.702 684.953 291.075C733.091 331.485 770.355 392.798 775.898 456.144C777.928 457.012 780.405 457.113 782.571 457.604C786.032 458.389 789.389 459.694 792.528 461.343C802.826 466.753 808.471 476.249 811.789 487.019C812.493 498.699 810.214 509.345 802.339 518.309C796.102 525.408 789.124 528.35 780.258 530.844C779.623 531.023 777.543 531.384 777.19 531.697C777.065 531.808 777.116 532.024 777.079 532.188L772.692 550.768C768.803 566.215 763.485 581.105 756.925 595.611C742.767 626.912 721.688 657.852 696.322 681.131C661.906 711.74 623.286 734.713 578.222 745.65C569.21 747.837 560.051 748.248 551.077 750.178C550.801 763.117 548.116 774.305 538.447 783.566C530.406 791.267 519.483 794.811 508.509 794.521C505.163 794.433 502.014 793.657 498.73 793.157C494.105 790.905 489.626 788.821 485.631 785.504C478.738 779.781 475.231 771.945 474.42 763.121C470.662 762.977 466.416 761.542 462.748 760.687C449.313 757.554 436.384 754.004 423.469 749.087C391.122 736.771 360.843 715.293 335.825 691.659C330.967 687.07 324.797 682.442 322.009 676.243Z"/>
	<path fill="#202E39" transform="scale(0.848633 0.848633)" d="M511.24 319.75C512.676 319.64 513.44 319.406 514.75 320.049C515.477 327.639 514.74 335.853 514.671 343.5L514.25 379.904C513.34 380.492 512.562 380.37 511.5 380.432L510.765 379.75L510.529 347.212L510.386 328.709C510.394 325.955 509.973 322.201 511.24 319.75Z"/>
	<path fill="#202E39" transform="scale(0.848633 0.848633)" d="M507.964 627.014C510.488 626.991 513.343 626.661 515.75 627.484C517.573 630.523 516.521 639.202 516.528 643L516.617 684.131L507.589 684.01L507.964 627.014Z"/>
	<path fill="#B6B5B8" transform="scale(0.848633 0.848633)" d="M496.971 257.028L526.096 257.018L526.194 273.12L525.622 274.75C521.899 275.18 518 274.949 514.253 274.95L497.034 274.921L496.971 257.028Z"/>
	<path fill="#202E39" transform="scale(0.848633 0.848633)" d="M334.031 495.042L393.837 495.074L393.991 504L334.026 503.993L334.031 495.042Z"/>
	<path fill="#74898F" transform="scale(0.848633 0.848633)" d="M526.194 273.12L526.234 294.976L497.023 294.691L497.034 274.921L514.253 274.95C518 274.949 521.899 275.18 525.622 274.75L526.194 273.12Z"/>
	<path fill="#B6B5B8" transform="scale(0.848633 0.848633)" d="M495.098 710.723L495.191 711.133C496.148 715.778 495.615 721.25 495.621 726.005L529.511 726.003L529.519 745.505L495.028 745.114L495.098 710.723Z"/>
	<path fill="#202E39" transform="scale(0.848633 0.848633)" d="M632.075 495.032L706.957 494.799L706.787 503.75L705.75 504.279L632.033 504.433L632.075 495.032Z"/>
	<path fill="#FEFEFE" transform="scale(0.848633 0.848633)" d="M495.098 710.723L495.036 704.342L529.489 704.012L529.511 726.003L495.621 726.005C495.615 721.25 496.148 715.778 495.191 711.133L495.098 710.723Z"/>
	<path fill="#74898F" transform="scale(0.848633 0.848633)" d="M237.029 498.114L299.063 498.049L299.399 511.493L270.187 511.542C265.311 511.552 259.287 512.244 254.594 511.043C246.481 508.966 241.296 505.361 237.029 498.114Z"/>
	<path fill="#202E39" transform="scale(0.848633 0.848633)" d="M425.486 574.467C428.222 576.299 430.617 578.872 433.011 581.134L380.75 634C380.226 634.276 379.819 634.385 379.25 634.524L372.59 627.77L404.081 595.313C411.002 588.154 417.56 580.548 425.486 574.467Z"/>
	<path fill="#202E39" transform="scale(0.848633 0.848633)" d="M380 351.25L381.02 351.028C383.744 352.379 386.068 355.461 388.196 357.671L400.189 369.871L438.024 405.721L431.134 412.25L430.56 412.625C430.29 412.593 430 412.637 429.75 412.53C428.69 412.077 426.144 408.866 425.206 407.922L409.96 392.857L373.122 357.641L380 351.25Z"/>
	<path fill="#74898F" transform="scale(0.848633 0.848633)" d="M789.794 494.03C788.406 500.222 786.792 504.636 781.208 508.167C778.507 509.875 775.632 510.679 772.5 511.12L771.705 511.235L723.953 512.221C723.985 507.602 723.451 502.17 724.31 497.666L724.658 497.856C725.796 498.308 727.728 498.073 728.975 498.072L738.007 498.076L763.184 498.042C769.4 498.022 775.614 498.183 781.771 497.164C784.559 496.702 787.21 495.13 789.794 494.03Z"/>
	<path fill="#202E39" transform="scale(0.848633 0.848633)" d="M644.483 353.105L652.441 360.28L598.313 415.473L589.846 408.306C590.827 406.537 592.936 404.869 594.376 403.421L604.375 393.383L644.483 353.105Z"/>
	<path fill="#202E39" transform="scale(0.848633 0.848633)" d="M598.564 576.402C600.732 577.434 602.792 579.587 604.614 581.143C610.801 586.424 616.471 592.236 622.244 597.956L651.478 626.777L642.962 634.756L590.136 583.333L598.564 576.402Z"/>
	<path fill="#202E39" transform="scale(0.848633 0.848633)" d="M495.028 745.114L529.519 745.505C529.584 752.87 529.382 761.365 524.284 767.25C520.823 771.245 515.357 774.382 509.988 774.515C506.001 774.614 501.302 772.356 498.603 769.429C493.072 763.432 494.678 752.608 495.028 745.114Z"/>
	<path fill="#FEFEFE" transform="scale(0.848633 0.848633)" d="M496.971 257.028C496.901 249.055 494.883 235.022 500.664 229.034C503.621 225.971 507.066 223.791 511.453 223.74C515.204 223.695 519.215 225.4 521.786 228.112C523.22 229.625 524.827 231.666 525.56 233.641C526.418 235.95 526.147 239.184 526.149 241.612L526.096 257.018L496.971 257.028Z"/>
	<path fill="#FEFEFE" transform="scale(0.848633 0.848633)" d="M237.029 498.114C235.925 493.977 235.756 490.074 237.955 486.25C239.711 483.197 242.728 479.649 246.25 478.642C253.628 476.532 263.841 477.941 271.5 478L299.511 478.019L299.063 498.049L237.029 498.114Z"/>
	<path fill="#FEFEFE" transform="scale(0.848633 0.848633)" d="M724.31 497.666C724.756 491.074 724.159 484.57 723.531 478.013L751.223 478.009C758.311 477.987 765.414 477.5 772.494 477.929C775.854 478.132 779.157 478.308 782.062 480.206C786.884 483.355 788.519 488.78 789.794 494.03C787.21 495.13 784.559 496.702 781.771 497.164C775.614 498.183 769.4 498.022 763.184 498.042L738.007 498.076L728.975 498.072C727.728 498.073 725.796 498.308 724.658 497.856L724.31 497.666Z"/>
	<path fill="#585757" transform="scale(0.848633 0.848633)" d="M322.009 676.243C327.064 678.975 331.955 684.568 336.301 688.365L351.865 700.74C386.695 726.624 430.958 745.117 474.223 749.71L474.42 763.121C470.662 762.977 466.416 761.542 462.748 760.687C449.313 757.554 436.384 754.004 423.469 749.087C391.122 736.771 360.843 715.293 335.825 691.659C330.967 687.07 324.797 682.442 322.009 676.243Z"/>
	<path fill="#B6B5B8" transform="scale(0.848633 0.848633)" d="M366.564 610.374L360.909 615.225C336.85 588.716 323.369 554.447 317.271 519.579L373.9 519.396L388.12 519.408C390.678 519.413 393.613 519.085 396.059 519.853L335.286 519.855C338.259 546.955 345.269 571.596 357.614 595.911C359.958 600.526 362.746 606.834 366.564 610.374Z"/>
	<path fill="#B6B5B8" transform="scale(0.848633 0.848633)" d="M535.056 318.39L535.934 318.071C539.209 316.784 542.5 313.689 544.814 311.094C545.385 310.454 549.095 305.022 549.551 304.875C551.462 304.263 581.699 314.061 585.359 315.488C602.223 322.064 617.193 330.961 631.874 341.472L622.98 351.154C617.678 347.037 610.861 344.003 604.804 341.139C582.906 330.784 559.071 322.148 535.056 318.39Z"/>
	<path fill="#B6B5B8" transform="scale(0.848633 0.848633)" d="M705.917 586.957L706.748 585.821C706.753 588.544 704.131 592.708 702.934 595.242C692.715 616.883 679.118 636.106 662.228 653.049L652.53 662.209C626.866 681.75 601.033 696.649 570.198 706.458C563.883 708.467 557.249 711.205 550.559 711.171L550.634 701.332C582.315 695.613 613.056 682.066 639 663.007C649.38 655.382 658.96 646.756 668.271 637.88C672.29 631.207 678.709 625.359 683.434 619.06C691.095 608.846 697.231 598.198 703.841 587.331L705.917 586.957Z"/>
	<path fill="#74898F" transform="scale(0.848633 0.848633)" d="M703.841 587.331L705.917 586.957C697.497 606.012 685.198 623.262 670 637.503L668.271 637.88C672.29 631.207 678.709 625.359 683.434 619.06C691.095 608.846 697.231 598.198 703.841 587.331Z"/>
	<path fill="#B6B5B8" transform="scale(0.848633 0.848633)" d="M616.767 441.598C613.995 436.749 611.376 432.392 607.71 428.164C612.09 421.67 619.334 415.816 624.916 410.234L663.248 372.059C672.872 384.737 683.101 399.178 688.574 414.163L687.739 413.707C685.425 412.342 683.534 408.569 681.924 406.408C677.913 401.024 673.858 395.496 669.273 390.589C663.74 394.596 659.127 400.134 654.302 404.962L632.36 426.438C627.241 431.497 622.251 436.951 616.767 441.598Z"/>
	<path fill="#B6B5B8" transform="scale(0.848633 0.848633)" d="M405.673 351.911L393.067 339.136C396.409 335.81 401.501 332.988 405.557 330.573C416.657 323.964 427.979 318.075 440.229 313.85C450.186 310.415 460.208 307.631 470.546 305.621C471.075 305.519 473.737 304.825 474.103 304.948C474.311 305.018 474.32 305.33 474.429 305.52C477.531 310.923 481.192 315.439 486.936 318.173L487.375 318.374C480.527 319.757 473.576 320.917 466.85 322.815C450.7 327.372 435.409 334.418 420.73 342.455C415.608 345.259 409.885 347.786 405.673 351.911Z"/>
	<path fill="#202E39" transform="scale(0.848633 0.848633)" d="M344.582 667.542C348.488 668.959 351.853 671.526 355.453 673.566L372.575 682.569C393.887 692.873 415.98 701.201 438.844 707.325C450.336 710.403 462.284 713.293 474.118 714.57L474.003 731.831L444.109 724.68C412.385 715.582 382.266 698.92 356.547 678.414C352.629 675.29 347.03 671.961 344.582 667.542Z"/>
	<path fill="#B6B5B8" transform="scale(0.848633 0.848633)" d="M405.944 655.203C401.247 653.211 397.51 650.163 393.575 646.98L446.576 592.756C462.227 601.132 476.727 607.698 494.48 610.204L494.498 625.143C480.1 622.714 464.265 617.571 452.391 608.835L420.925 639.991C416.152 644.747 409.894 649.835 405.944 655.203Z"/>
	<path fill="#B6B5B8" transform="scale(0.848633 0.848633)" d="M530.481 683.033C529.731 681.305 530.035 679.101 530.029 677.24L529.999 663.822L530.039 610.554C538.064 608.9 546.03 607.139 553.741 604.312C562.027 601.274 570.069 596.957 577.668 592.485L628.476 644.305L616.686 652.918L575.743 611.166C561.989 618.2 545.983 624.626 530.318 625.095L530.481 683.033Z"/>
	<path fill="#B6B5B8" transform="scale(0.848633 0.848633)" d="M334.926 477.993L316.369 477.983L318.464 459.875C323.358 431.622 335.559 405.316 352.028 382C354.394 378.65 358.155 372.521 361.471 370.176L375.864 384.208C356.653 404.507 344.469 433.434 337.99 460.328C336.587 466.149 334.947 471.963 334.926 477.993Z"/>
	<path fill="#FEFEFE" transform="scale(0.848633 0.848633)" d="M550.947 265.849L550.954 251.299C595.465 257.099 640.489 278.108 674.155 307.733C687.212 319.223 698.735 332.336 709.33 346.106C718.757 358.358 726.337 371.997 733.188 385.814C731.035 385.226 719.675 369.125 717.046 366.051C705.248 352.254 692.006 338.164 678.407 326.107C642.565 294.329 598.532 272.424 550.947 265.849Z"/>
	<path fill="#FEFEFE" transform="scale(0.848633 0.848633)" d="M268.408 452.418C269.071 446.065 270.693 439.486 272.083 433.252C279.755 398.853 294.873 368.377 316.178 340.381C353.53 291.299 412.157 259.296 472.993 251.077L472.964 265.61C456.506 267.181 440.179 271.299 424.548 276.622C409.492 281.749 394.834 287.993 381.24 296.319C356.518 311.46 334.36 332.147 315.964 354.452C298.625 375.475 285.851 400.034 277.166 425.794C274.071 434.974 272.222 444.791 268.747 453.788L268.408 452.418Z"/>
	<path fill="#202E39" transform="scale(0.848633 0.848633)" d="M709.479 635.298C704.816 643.51 697.657 650.516 691.111 657.243C660.315 688.89 622.739 711.243 580.166 723.002L550.999 728.771L550.559 711.171C557.249 711.205 563.883 708.467 570.198 706.458C601.033 696.649 626.866 681.75 652.53 662.209C667.969 660.999 683.216 651.661 696 643.519C700.411 640.71 704.639 637.297 709.479 635.298Z"/>
	<path fill="#33566A" transform="scale(0.848633 0.848633)" d="M703.841 587.331C712.235 570.027 718.388 551.8 722.397 533.013L745.33 532.87C748.463 532.851 752.424 532.321 755.395 533.018C747.309 568.995 733.808 606.868 709.479 635.298C704.639 637.297 700.411 640.71 696 643.519C683.216 651.661 667.969 660.999 652.53 662.209L662.228 653.049C679.118 636.106 692.715 616.883 702.934 595.242C704.131 592.708 706.753 588.544 706.748 585.821L705.917 586.957L703.841 587.331Z"/>
	<path fill="#FEFEFE" transform="scale(0.848633 0.848633)" d="M530.481 683.033L530.318 625.095C545.983 624.626 561.989 618.2 575.743 611.166L616.686 652.918C593.524 667.367 567.66 677.562 540.642 681.885C538.229 682.271 533.054 683.738 530.856 683.18L530.481 683.033Z"/>
	<path fill="#FEFEFE" transform="scale(0.848633 0.848633)" d="M405.944 655.203C409.894 649.835 416.152 644.747 420.925 639.991L452.391 608.835C464.265 617.571 480.1 622.714 494.498 625.143L494.26 683.565C474.345 681.382 454.305 677.381 435.693 669.776C425.511 665.615 415.687 660.294 405.944 655.203Z"/>
	<path fill="#FEFEFE" transform="scale(0.848633 0.848633)" d="M487.375 318.374L494.496 318.881L494.509 381.274C485.531 383.18 476.718 385.375 468.171 388.763L451.533 396.252L405.673 351.911C409.885 347.786 415.608 345.259 420.73 342.455C435.409 334.418 450.7 327.372 466.85 322.815C473.576 320.917 480.527 319.757 487.375 318.374Z"/>
	<path fill="#FEFEFE" transform="scale(0.848633 0.848633)" d="M366.564 610.374C362.746 606.834 359.958 600.526 357.614 595.911C345.269 571.596 338.259 546.955 335.286 519.855L396.059 519.853C397.855 524.22 398.849 528.918 400.408 533.381C403.907 543.39 408.992 553.031 415.114 561.687L366.564 610.374Z"/>
	<path fill="#FEFEFE" transform="scale(0.848633 0.848633)" d="M622.98 351.154L575.073 398.392C571.426 396.703 568.005 394.157 564.371 392.309C553.534 386.798 542.232 383.67 530.26 381.777C529.676 375.776 529.854 369.562 529.814 363.53L529.935 329.997L529.995 321.662C529.997 321.315 529.877 319.801 530.011 319.5C530.148 319.191 530.409 318.954 530.608 318.681L535.056 318.39C559.071 322.148 582.906 330.784 604.804 341.139C610.861 344.003 617.678 347.037 622.98 351.154Z"/>
	<path fill="#FEFEFE" transform="scale(0.848633 0.848633)" d="M375.864 384.208L419.128 424.754C407.152 441.404 398.916 458.321 394.857 478.509L334.926 477.993C334.947 471.963 336.587 466.149 337.99 460.328C344.469 433.434 356.653 404.507 375.864 384.208Z"/>
	<path fill="#FEFEFE" transform="scale(0.848633 0.848633)" d="M616.767 441.598C622.251 436.951 627.241 431.497 632.36 426.438L654.302 404.962C659.127 400.134 663.74 394.596 669.273 390.589C673.858 395.496 677.913 401.024 681.924 406.408C683.534 408.569 685.425 412.342 687.739 413.707L688.574 414.163C697.734 434.699 703.928 455.636 706.623 477.972L630.146 478.015C627.218 465.549 623.401 452.664 616.767 441.598Z"/>
	<path fill="#FEFEFE" transform="scale(0.848633 0.848633)" d="M628.752 519.998L705.599 520.035C701.76 535.786 697.984 551.61 691.567 566.56C686.123 579.244 678.806 590.953 670.923 602.244L660.496 615.985L608.113 563.939C612.546 556.799 617.354 549.785 620.94 542.165C624.287 535.053 626.497 527.507 628.752 519.998Z"/>
	<path fill="#33566A" transform="scale(0.848633 0.848633)" d="M344.582 667.542C336.231 661.675 329.354 653.831 322.747 646.111C295.662 614.466 275.896 575.938 268.938 534.626L268.778 533.538L299.323 533.504C309.083 587.839 343.353 636.471 388.361 667.808C413.315 685.181 443.697 697.757 474.039 701.052L474.118 714.57C462.284 713.293 450.336 710.403 438.844 707.325C415.98 701.201 393.887 692.873 372.575 682.569L355.453 673.566C351.853 671.526 348.488 668.959 344.582 667.542Z"/>
	<path fill="#33566A" transform="scale(0.848633 0.848633)" d="M268.408 452.418L268.747 453.788C272.222 444.791 274.071 434.974 277.166 425.794C285.851 400.034 298.625 375.475 315.964 354.452C334.36 332.147 356.518 311.46 381.24 296.319C394.834 287.993 409.492 281.749 424.548 276.622C440.179 271.299 456.506 267.181 472.964 265.61L472.972 287.845C422.929 293.68 375.203 320.51 343.893 360.064C327.121 381.253 313.939 404.765 305.737 430.582C303.181 438.625 301.402 446.827 299.338 455L278.32 454.699C275.099 454.652 271.177 455.046 268.088 454.25C268.03 453.381 267.999 453.228 268.408 452.418Z"/>
	<path fill="#33566A" transform="scale(0.848633 0.848633)" d="M550.947 265.849C598.532 272.424 642.565 294.329 678.407 326.107C692.006 338.164 705.248 352.254 717.046 366.051C719.675 369.125 731.035 385.226 733.188 385.814L733.362 385.918C736.769 392.471 740.058 398.932 742.666 405.861C748.938 422.525 752.48 440.042 755.775 457.493L723.13 457.502C721.963 455.45 721.709 452.284 721.158 449.965L717.023 434.056C710.654 411.831 700.636 391.233 687.083 372.5C654.244 327.114 606.481 296.811 550.995 287.773L550.947 265.849Z"/>
	<path fill="#FEFEFE" transform="scale(0.848633 0.848633)" d="M504.83 404.686C527.95 402.396 550.915 409.458 569.737 422.819C589.853 437.099 602.978 458.707 606.986 482.99C610.677 505.355 603.634 530.752 590.271 548.858C573.38 571.745 549.934 584.2 522.126 588.485C497.188 590.068 474.185 584.114 453.922 569.285C434.954 555.404 421.495 533.187 417.96 509.949C414.307 485.938 420.258 462.253 434.724 442.788C444.85 429.163 458.663 418.37 474.503 412.105C484.286 408.237 494.473 406.185 504.83 404.686Z"/>
	<path transform="scale(0.848633 0.848633)" d="M508.887 430.69C523.634 428.495 542.257 435.873 553.967 444.465C567.901 454.688 577.833 470.27 580.304 487.458C582.853 505.185 577.442 522.729 566.717 536.869C554.925 552.415 536.629 560.837 517.625 563.493C513.345 563.514 508.876 563.752 504.622 563.289C491.932 561.911 479.602 556.65 469.467 548.964C455.831 538.622 446.734 522.225 444.525 505.297C442.186 487.367 447.464 470.481 458.548 456.361C471.316 440.095 488.889 433.166 508.887 430.69Z"/>
	<path fill="#74898F" transform="scale(0.848633 0.848633)" d="M510.062 454.671L510.129 454.661C521.061 454.023 532.85 457.337 541.25 464.569C549.24 471.447 555.71 481.212 556.546 491.947C557.543 504.738 553.523 515.834 545.173 525.411C538.61 532.938 526.356 538.84 516.429 539.541C506.156 539.775 497.512 538.263 488.75 532.812C479.407 527 472.024 518.402 469.603 507.461L468.836 503.731C467.083 493.142 469.875 481.375 476.208 472.717C484.628 461.203 496.48 456.748 510.062 454.671Z"/>
</svg>
